<?xml version="1.0" standalone="no"?>
<!DOCTYPE svg PUBLIC "-//W3C//DTD SVG 1.1//EN" "http://www.w3.org/Graphics/SVG/1.1/DTD/svg11.dtd" >
<svg xmlns="http://www.w3.org/2000/svg" xmlns:xlink="http://www.w3.org/1999/xlink" version="1.1">
<metadata>
Created by FontForge 20170731 at Tue Sep 20 21:03:04 2005
 By Aleksey,,,
(c) Copyright 2005 by Tong Duc Thinh. All Rights Reserved
</metadata>
<defs>
<font id="SFUEurostileDemi" horiz-adv-x="582" >
  <font-face 
    font-family="SFU Eurostile"
    font-weight="400"
    font-stretch="normal"
    units-per-em="1000"
    panose-1="0 0 4 0 0 0 0 0 0 0"
    ascent="800"
    descent="-200"
    x-height="525"
    cap-height="750"
    bbox="-63 -233 1270 1164"
    underline-thickness="75"
    underline-position="-224"
    unicode-range="U+0020-F002"
  />
<missing-glyph horiz-adv-x="500" 
d="M63 0v781h375v-781h-375zM125 63h250v656h-250v-656z" />
    <glyph glyph-name=".notdef" horiz-adv-x="500" 
d="M63 0v781h375v-781h-375zM125 63h250v656h-250v-656z" />
    <glyph glyph-name=".null" horiz-adv-x="0" 
 />
    <glyph glyph-name="nonmarkingreturn" horiz-adv-x="352" 
 />
    <glyph glyph-name="space" unicode=" " horiz-adv-x="352" 
 />
    <glyph glyph-name="exclam" unicode="!" horiz-adv-x="309" 
d="M217 137v-137h-126v137h126zM225 750l-8 -499h-126l-8 499h142z" />
    <glyph glyph-name="quotedbl" unicode="&#x22;" horiz-adv-x="474" 
d="M50 750h138v-130l-42 -129h-54l-42 129v130zM286 750h138v-130l-42 -129h-54l-42 129v130z" />
    <glyph glyph-name="numbersign" unicode="#" horiz-adv-x="705" 
d="M284 750h93l-39 -210h109l39 210h92l-39 -210h89v-115h-107l-24 -133h103v-115h-127l-33 -177h-93l33 177h-109l-33 -177h-93l33 177h-100v115h122l24 133h-105v115h126zM317 425l-24 -133h110l26 133h-112z" />
    <glyph glyph-name="dollar" unicode="$" horiz-adv-x="705" 
d="M391 321v-209q93 -1 123 21.5t30 92.5q0 63 -41 82q-26 11 -112 13zM391 638v-199q161 -8 211 -36q78 -42 78 -177q0 -133 -70 -185q-63 -47 -219 -47v-78h-80v78q-172 0 -235 62q-50 48 -50 161v27h126v-27q0 -70 35 -89q27 -15 124 -16v209q-158 14 -208 44
q-73 43 -73 169q0 138 72 185q57 37 209 37v73h80v-73q143 -5 191 -30q73 -40 73 -165v-25h-126v25q0 51 -31 65q-23 10 -107 12zM311 439v199q-90 -2 -113 -14q-32 -19 -32 -90q0 -60 38 -79q23 -10 107 -16z" />
    <glyph glyph-name="percent" unicode="%" horiz-adv-x="905" 
d="M741 750l-476 -750h-93l474 750h95zM883 240v-110q0 -85 -39 -113q-32 -23 -126 -23q-93 0 -124 22q-36 27 -36 113v110q0 86 36 113q31 23 123 23q95 0 127 -22q39 -28 39 -113zM798 141v93q0 46 -15 57q-12 8 -66 8q-49 0 -60 -8q-14 -11 -14 -57v-93q0 -50 14 -62
q11 -9 60 -9q51 0 64 9q17 13 17 62zM347 621v-110q0 -85 -39 -113q-32 -23 -126 -23q-93 0 -124 22q-36 27 -36 113v110q0 86 36 113q31 23 123 23q95 0 127 -22q39 -28 39 -113zM262 522v93q0 46 -15 57q-12 8 -66 8q-49 0 -60 -8q-14 -11 -14 -57v-93q0 -50 14 -62
q11 -9 60 -9q51 0 64 9q17 13 17 62z" />
    <glyph glyph-name="ampersand" unicode="&#x26;" horiz-adv-x="781" 
d="M523 157l-246 208q-57 -9 -72 -41q-11 -23 -11 -96q0 -82 40 -103q27 -13 135 -13q66 0 92 6q40 8 62 39zM705 0l-89 77q-31 -54 -104 -72q-45 -11 -143 -11q-167 0 -227 36q-83 48 -83 198q0 96 25 140q32 57 118 64q-38 33 -50.5 58.5t-12.5 74.5q0 117 62 158
q50 33 179 33q144 0 188 -43t44 -192h-123q0 79 -16 98t-93 19q-60 0 -79 -10q-27 -14 -27 -64q0 -31 11 -51q9 -15 35 -38l238 -207v101h123v-51q0 -97 -15 -141l107 -94z" />
    <glyph glyph-name="quotesingle" unicode="'" horiz-adv-x="238" 
d="M50 750h138v-130l-42 -129h-54l-42 129v130z" />
    <glyph glyph-name="parenleft" unicode="(" horiz-adv-x="348" 
d="M293 -32v-118q-157 0 -201 72q-33 55 -33 246v264q0 131 9 179q13 75 60 108q53 37 165 37v-118q-64 0 -83 -32q-15 -24 -15 -95v-416q0 -63 13 -87q20 -40 85 -40z" />
    <glyph glyph-name="parenright" unicode=")" horiz-adv-x="348" 
d="M55 638v118q157 0 201 -72q33 -55 33 -246v-264q0 -131 -9 -179q-13 -75 -60 -108q-53 -37 -165 -37v118q64 0 84 32q14 24 14 95v416q0 63 -13 88q-20 39 -85 39z" />
    <glyph glyph-name="asterisk" unicode="*" horiz-adv-x="705" 
d="M552 579l-136 -46l81 -116l-59 -45l-83 120l-90 -120l-60 45l84 116l-136 51l26 71l136 -49v144h75v-144l137 49z" />
    <glyph glyph-name="plus" unicode="+" horiz-adv-x="584" 
d="M244 525h96v-194h194v-96h-194v-194h-96v194h-194v96h194v194z" />
    <glyph glyph-name="comma" unicode="," horiz-adv-x="352" 
d="M89 -126v59q31 0 44 12q16 16 16 55h-50v135h126v-118q0 -77 -15 -104q-23 -39 -96 -39h-25z" />
    <glyph glyph-name="hyphen" unicode="-" horiz-adv-x="266" 
d="M0 324h266v-96h-266v96z" />
    <glyph glyph-name="hyphen" unicode="&#x2010;" horiz-adv-x="266" 
d="M0 324h266v-96h-266v96z" />
    <glyph glyph-name="period" unicode="." horiz-adv-x="352" 
d="M215 137v-137h-126v137h126z" />
    <glyph glyph-name="slash" unicode="/" horiz-adv-x="682" 
d="M687 750l-580 -863h-112l579 863h113z" />
    <glyph glyph-name="zero" unicode="0" horiz-adv-x="705" 
d="M353 756q177 0 239 -56q71 -65 71 -258v-136q0 -193 -71 -256q-61 -56 -239 -56t-239 56q-71 63 -71 256v138q0 190 59.5 251t250.5 61zM353 112q112 0 140 22q34 28 34 138v205q0 110 -34 138q-29 23 -140 23q-112 0 -140 -23q-34 -28 -34 -138v-205q0 -110 34 -138
q28 -22 140 -22z" />
    <glyph glyph-name="one" unicode="1" horiz-adv-x="705" 
d="M492 750v-750h-136v630l-195 -195l-82 89l240 226h173z" />
    <glyph glyph-name="two" unicode="2" horiz-adv-x="705" 
d="M627 118v-118h-565v143q0 132 60 178q40 30 185 55q111 19 114 20q41 10 55.5 36t14.5 93q0 72 -30 94q-26 19 -109 19q-103 0 -126 -20q-28 -25 -28 -135h-136q0 106 14 152q20 63 79 91q64 30 197 30q146 0 204 -41q71 -51 71 -190q0 -141 -55 -189q-45 -40 -196 -64
q-120 -19 -140 -31q-38 -21 -38 -98v-25h429z" />
    <glyph glyph-name="three" unicode="3" horiz-adv-x="705" 
d="M59 253h136q0 -100 27 -123q22 -18 121 -18q102 0 127 14q35 18 35 91q0 62 -20.5 86.5t-79.5 24.5h-109v109h109q54 0 72 28q16 24 16 95q0 52 -31 66q-26 12 -119 12t-116.5 -21t-23.5 -108h-136q0 155 63 205q54 42 213 42q142 0 196 -25q90 -41 90 -171
q0 -78 -21 -117q-28 -51 -97 -58v-4q73 -5 104 -48q26 -37 26 -116q0 -143 -77 -189q-58 -34 -221 -34q-162 0 -213 37q-71 50 -71 222z" />
    <glyph glyph-name="four" unicode="4" horiz-adv-x="705" 
d="M574 750v-481h88v-109h-88v-160h-136v160h-408v157l332 433h212zM438 269v377h-4l-290 -377h294z" />
    <glyph glyph-name="five" unicode="5" horiz-adv-x="705" 
d="M211 641v-185h2q36 62 178 62t195 -59q50 -56 50 -201q0 -168 -66 -220q-56 -44 -232 -44q-148 0 -202 38q-64 46 -68 184h136q0 -71 38 -91q25 -13 107 -13q100 0 125.5 23.5t25.5 119.5t-26 120.5t-124 24.5q-68 0 -92 -6q-39 -10 -47 -44h-126v400h523v-109h-397z" />
    <glyph glyph-name="six" unicode="6" horiz-adv-x="705" 
d="M347 340q-91 0 -115 -12q-35 -16 -35 -81q0 -90 25 -112.5t125 -22.5t122 15q28 19 28 103q0 76 -30 95q-23 15 -120 15zM61 287v218q0 151 68 205q60 46 218 46q152 0 205 -30q76 -44 75 -185h-136q0 66 -33 84q-23 13 -111 13q-99 0 -123 -20q-27 -22 -27 -114v-118h2
q26 72 167 72q158 0 209 -37q58 -43 58 -181q0 -149 -62 -199q-58 -47 -224 -47q-173 0 -227 51q-59 56 -59 242z" />
    <glyph glyph-name="seven" unicode="7" horiz-adv-x="705" 
d="M621 750v-138l-306 -612h-155l324 627h-419v123h556z" />
    <glyph glyph-name="eight" unicode="8" horiz-adv-x="705" 
d="M353 329q-103 0 -130 -19.5t-27 -88.5q0 -71 27 -90t130 -19q102 0 131 21q26 20 26 88q0 71 -26.5 89.5t-130.5 18.5zM353 -6q-151 0 -207 31q-86 47 -86 196q0 71 25 108q32 47 108 56v4q-72 15 -98 55q-23 35 -23 112q0 123 75 166q58 34 206 34q146 0 193 -21
q88 -40 88 -179q0 -77 -20 -111q-26 -43 -96 -56v-4q70 -10 99 -50.5t29 -113.5q0 -146 -74 -192q-57 -35 -219 -35zM353 438q91 0 112 13q33 20 33 105q0 58 -33 72q-22 10 -112 10q-94 0 -118 -12q-27 -15 -27 -70q0 -82 33 -103q23 -15 112 -15z" />
    <glyph glyph-name="nine" unicode="9" horiz-adv-x="705" 
d="M351 638q-99 0 -124 -19t-25 -99q0 -73 25 -91t124 -18q101 0 128.5 17.5t27.5 91.5q0 79 -36 101q-27 17 -120 17zM60 210h136q0 -69 33 -86q24 -12 122 -12q97 0 122 17q34 23 34 113v124h-2q-23 -43 -70 -59q-40 -14 -117 -14q-135 0 -186 37q-66 49 -66 190
q0 140 57.5 188t227.5 48q183 0 239 -63q53 -61 53 -258v-217q0 -133 -78 -183q-64 -41 -214 -41q-153 0 -207 29q-84 44 -84 187z" />
    <glyph glyph-name="colon" unicode=":" horiz-adv-x="352" 
d="M215 137v-137h-126v137h126zM215 525v-137h-126v137h126z" />
    <glyph glyph-name="semicolon" unicode=";" horiz-adv-x="352" 
d="M89 -126v59q31 0 44 12q16 16 16 55h-50v135h126v-118q0 -77 -15 -104q-23 -39 -96 -39h-25zM225 525v-137h-126v137h126z" />
    <glyph glyph-name="less" unicode="&#x3c;" horiz-adv-x="584" 
d="M50 248v70l484 207v-100l-348 -142l348 -142v-100z" />
    <glyph glyph-name="equal" unicode="=" horiz-adv-x="584" 
d="M50 333v96h484v-96h-484zM50 138v96h484v-96h-484z" />
    <glyph glyph-name="greater" unicode="&#x3e;" horiz-adv-x="584" 
d="M534 318v-70l-484 -207v100l348 142l-348 142v100z" />
    <glyph glyph-name="question" unicode="?" horiz-adv-x="595" 
d="M328 239h-126v17q0 80 19.5 109.5t89.5 60t80 38.5q27 23 27 80q0 69 -23 89q-21 17 -92 17q-79 0 -102 -18t-23 -83v-27h-126v27q0 126 56 168q51 38 200 38q124 0 174 -37q62 -46 62 -174q0 -85 -24 -122q-26 -40 -109 -74q-51 -21 -61 -30q-22 -19 -22 -62v-17z
M328 137v-137h-126v137h126z" />
    <glyph glyph-name="at" unicode="@" horiz-adv-x="975" 
d="M622 551h78l-72 -261q-1 -7 -1 -13q0 -39 43 -39q52 0 92 70q34 61 34 114q0 96 -80 172q-83 78 -199 78q-141 0 -241 -109q-90 -99 -90 -213q0 -117 91 -196q88 -76 210 -76q103 0 171 30l30 -75q-74 -39 -201 -39q-156 0 -270 86q-127 96 -127 253q0 167 126.5 295
t300.5 128q146 0 255 -92q113 -96 113 -238q0 -99 -60 -178q-65 -87 -162 -87q-69 0 -104 58q-72 -58 -128 -58q-60 0 -102.5 45.5t-42.5 105.5q0 88 70.5 170.5t156.5 82.5q29 0 57 -19t38 -46h2zM498 488q-37 0 -73 -40q-43 -48 -43 -120q0 -90 70 -90q56 0 92 65
q31 55 31 116q0 69 -77 69z" />
    <glyph glyph-name="A" unicode="A" horiz-adv-x="709" 
d="M517 142h-324l-47 -142h-149l249 750h212l254 -750h-146zM485 251l-129 389h-2l-128 -389h259z" />
    <glyph glyph-name="B" unicode="B" horiz-adv-x="716" 
d="M208 327v-204h197q72 0 96 15q31 19 31 83q0 63 -20 84.5t-83 21.5h-221zM450 0h-386v750h373q119 0 166 -36q55 -42 55 -159q0 -72 -19 -107q-24 -44 -88 -59v-4q73 -8 102 -57q23 -39 23 -119q0 -121 -54 -167q-49 -42 -172 -42zM208 627v-191h207q60 0 79.5 22
t19.5 83q0 56 -25 73q-19 13 -78 13h-203z" />
    <glyph glyph-name="C" unicode="C" horiz-adv-x="696" 
d="M655 499h-144v41q0 62 -33 79q-27 14 -127 14q-109 0 -139.5 -30.5t-30.5 -140.5v-166q0 -115 29.5 -147t140.5 -32q98 0 128 15q40 22 40 96v41h144v-49q0 -107 -40 -157q-33 -44 -108 -57q-37 -7 -164 -12q-190 -8 -256 62q-58 61 -58 234v172q0 174 74 237
q67 57 240 57q169 0 222 -27q82 -42 82 -189v-41z" />
    <glyph glyph-name="D" unicode="D" horiz-adv-x="754" 
d="M62 0v750h358q157 0 226 -64t69 -215v-177q0 -136 -50 -205q-65 -89 -221 -89h-382zM206 123h238q67 0 100 54q27 45 27 117v177q0 92 -33 124t-118 32h-214v-504z" />
    <glyph glyph-name="E" unicode="E" horiz-adv-x="619" 
d="M200 627v-187h351v-118h-351v-199h373v-123h-517v750h514v-123h-370z" />
    <glyph glyph-name="F" unicode="F" 
d="M202 627v-199h334v-118h-334v-310h-144v750h496v-123h-352z" />
    <glyph glyph-name="G" unicode="G" horiz-adv-x="727" 
d="M354 398h333v-136q0 -166 -61.5 -217t-261.5 -51q-189 0 -255 53q-75 60 -75 243v172q0 179 78 241q67 53 252 53q124 0 166 -7q79 -12 115 -58q43 -54 41 -167h-143q0 76 -43 96q-28 13 -136 13q-124 0 -155 -30t-31 -141v-172q0 -116 32 -144.5t154 -28.5q112 0 141 19
q38 26 38 126v27h-189v109z" />
    <glyph glyph-name="H" unicode="H" horiz-adv-x="769" 
d="M703 750v-750h-144v320h-349v-320h-144v750h144v-307h349v307h144z" />
    <glyph glyph-name="I" unicode="I" horiz-adv-x="276" 
d="M210 750v-750h-144v750h144z" />
    <glyph glyph-name="J" unicode="J" horiz-adv-x="583" 
d="M380 750h144v-519q0 -142 -57 -192q-51 -45 -186 -45q-131 0 -183 31q-68 41 -68 161v108h138v-56q0 -79 14 -97q19 -24 99 -24q63 0 82 23q17 20 17 91v519z" />
    <glyph glyph-name="K" unicode="K" horiz-adv-x="715" 
d="M210 750v-306h67l250 306h177l-304 -366l335 -384h-182l-276 321h-67v-321h-144v750h144z" />
    <glyph glyph-name="L" unicode="L" horiz-adv-x="565" 
d="M210 750v-627h350v-123h-494v750h144z" />
    <glyph glyph-name="M" unicode="M" horiz-adv-x="1007" 
d="M804 632l-236 -632h-129l-238 629h-3l12 -629h-144v750h231l204 -557h4l200 557h236v-750h-144l12 632h-5z" />
    <glyph glyph-name="N" unicode="N" horiz-adv-x="827" 
d="M629 123l-12 627h144v-750h-239l-319 627h-5l12 -627h-144v750h238l321 -627h4z" />
    <glyph glyph-name="O" unicode="O" horiz-adv-x="715" 
d="M356 756q177 0 241 -47q79 -57 79 -227v-202q0 -173 -75 -233q-66 -53 -245 -53q-183 0 -245 51q-72 58 -72 235v202q0 169 69 224q63 50 248 50zM356 633q-112 0 -145 -31q-28 -27 -28 -120v-202q0 -109 33 -137q29 -26 140 -26q104 0 137 27q39 32 39 136v202
q0 100 -40 128q-31 23 -136 23z" />
    <glyph glyph-name="P" unicode="P" horiz-adv-x="686" 
d="M56 0v750h332q154 0 209 -50q58 -54 58 -208q0 -153 -60 -204q-53 -45 -207 -45h-188v-243h-144zM200 366h188q77 0 100 23.5t23 102.5q0 82 -22 108.5t-101 26.5h-188v-261z" />
    <glyph glyph-name="Q" unicode="Q" horiz-adv-x="766" 
d="M774 101l-58 -85l-65 49q-47 -48 -128 -63q-45 -8 -140 -8q-186 0 -252 50q-79 59 -79 236v202q0 166 82 225q69 49 249 49q168 0 232 -38q100 -58 100 -236v-202q0 -86 -14 -130zM407 352l160 -109q0 12 2 54q2 32 2 53v132q0 98 -40 127q-35 24 -148 24
q-107 0 -141 -22q-46 -30 -46 -129v-202q0 -111 39 -140q31 -23 148 -23q58 0 80 3q43 6 69 28l-184 119z" />
    <glyph glyph-name="R" unicode="R" horiz-adv-x="722" 
d="M426 248h-221v-248h-144v750h383q125 0 176 -49.5t51 -175.5q0 -100 -19 -140q-28 -58 -114 -71v-4q73 -6 102 -49q25 -37 25 -121v-140h-144v140q0 108 -95 108zM205 371h190q81 0 106.5 25t25.5 106q0 79 -22.5 102t-99.5 23h-200v-256z" />
    <glyph glyph-name="S" unicode="S" horiz-adv-x="673" 
d="M33 239h144v-35q0 -62 35 -78q29 -14 135 -14q95 0 124 23q25 20 25 88q0 51 -19 72q-16 18 -56 22q-47 3 -94 5q-114 7 -147 13q-71 15 -104 57q-39 50 -39 152q0 140 88 183q58 29 222 29q144 0 196 -27q82 -42 82 -175v-24h-144v24q0 57 -29 72q-22 12 -105 12
q-107 0 -136.5 -17t-29.5 -77q0 -67 28 -83q24 -14 137 -21q186 -11 234 -42q60 -39 60 -175q0 -147 -74 -194q-56 -35 -219 -35q-164 0 -219 24q-95 42 -95 186v35z" />
    <glyph glyph-name="T" unicode="T" horiz-adv-x="587" 
d="M366 627v-627h-144v627h-220v123h584v-123h-220z" />
    <glyph glyph-name="U" unicode="U" horiz-adv-x="754" 
d="M545 750h144v-533q0 -143 -88 -190q-62 -33 -225 -33q-160 0 -221 33q-90 47 -90 190v533h144v-533q0 -59 32.5 -79.5t134.5 -20.5q101 0 135 20t34 80v533z" />
    <glyph glyph-name="V" unicode="V" horiz-adv-x="677" 
d="M539 750h149l-242 -750h-217l-240 750h147l200 -630h3z" />
    <glyph glyph-name="W" unicode="W" horiz-adv-x="1113" 
d="M810 118l162 632h145l-202 -750h-208l-150 572h-4l-155 -572h-206l-195 750h144l156 -632h4l172 632h166l168 -632h3z" />
    <glyph glyph-name="X" unicode="X" horiz-adv-x="693" 
d="M687 750l-223 -363l240 -387h-166l-189 317l-190 -317h-170l247 387l-229 363h168l174 -298l173 298h165z" />
    <glyph glyph-name="Y" unicode="Y" horiz-adv-x="670" 
d="M681 750l-277 -462v-288h-144v288l-271 462h164l178 -320h3l181 320h166z" />
    <glyph glyph-name="Z" unicode="Z" horiz-adv-x="648" 
d="M618 750v-123l-415 -504h420v-123h-598v122l412 505h-394v123h575z" />
    <glyph glyph-name="bracketleft" unicode="[" horiz-adv-x="348" 
d="M59 756h232v-109h-96v-688h96v-109h-232v906z" />
    <glyph glyph-name="backslash" unicode="\" horiz-adv-x="278" 
d="M214 0l-248 750h99l247 -750h-98z" />
    <glyph glyph-name="bracketright" unicode="]" horiz-adv-x="348" 
d="M289 -150h-232v109h96v688h-96v109h232v-906z" />
    <glyph glyph-name="asciicircum" unicode="^" horiz-adv-x="584" 
d="M257 750h70l207 -485h-100l-142 349l-142 -349h-100z" />
    <glyph glyph-name="underscore" unicode="_" horiz-adv-x="500" 
d="M500 -75v-75h-500v75h500z" />
    <glyph glyph-name="grave" unicode="`" horiz-adv-x="371" 
d="M120 743l176 -116l-27 -52l-194 86z" />
    <glyph glyph-name="a" unicode="a" horiz-adv-x="589" 
d="M284 236q-61 0 -81 -9q-34 -16 -34 -66q0 -53 26 -68q21 -13 89 -13q60 0 83 12q33 18 33 69q0 49 -35 65q-22 10 -81 10zM400 0l5 66h-3q-17 -46 -68 -62q-32 -10 -95 -10q-100 0 -143 30q-53 38 -53 137q0 91 49 128q45 33 147 33q63 0 91 -8q46 -13 66 -52h4v68
q0 69 -17 89q-21 26 -95 26q-50 0 -70 -11q-29 -16 -29 -62h-126q0 103 68 137q44 22 157 22q135 0 182 -35q56 -41 56 -167v-329h-126z" />
    <glyph glyph-name="b" unicode="b" horiz-adv-x="594" 
d="M310 435q-78 0 -104 -36q-22 -32 -22 -121q0 -111 15 -141q23 -47 111 -47q78 0 99 49q13 31 13 139q0 97 -22.5 127t-89.5 30zM58 0v750h126v-295h5q32 76 158 76q125 0 168 -69q33 -52 33 -184q0 -149 -27 -202q-42 -82 -174 -82q-125 0 -164 85h-4l5 -79h-126z" />
    <glyph glyph-name="c" unicode="c" horiz-adv-x="551" 
d="M394 200h126q0 -125 -53 -167q-48 -39 -186 -39q-143 0 -190 55q-45 52 -45 213q0 150 40 204q49 65 195 65q129 0 178 -33q61 -40 61 -157h-126q0 59 -22.5 76.5t-90.5 17.5q-76 0 -95 -36q-14 -27 -14 -137q0 -109 13 -135q18 -37 96 -37q75 0 95 21q18 18 18 89z" />
    <glyph glyph-name="d" unicode="d" horiz-adv-x="593" 
d="M279 435q-67 0 -89.5 -30t-22.5 -127q0 -108 13 -139q21 -49 99 -49q88 0 110 47q14 29 14 141q0 90 -21 121q-25 36 -103 36zM405 0l5 79h-4q-39 -85 -164 -85q-132 0 -174 82q-27 53 -27 202q0 132 33 184q43 69 168 69q126 0 158 -76h5v295h126v-750h-126z" />
    <glyph glyph-name="e" unicode="e" horiz-adv-x="570" 
d="M403 167h126q0 -113 -66 -148q-47 -25 -179 -25q-147 0 -196 57q-46 54 -46 210q0 152 42 206q49 64 200 64q157 0 204 -60q41 -54 41 -232h-361q0 -93 16 -117q20 -32 100 -32q65 0 86 9q33 15 33 68zM168 319h235q0 79 -21 99q-19 17 -98 17q-78 0 -99 -23
q-17 -19 -17 -93z" />
    <glyph glyph-name="f" unicode="f" horiz-adv-x="348" 
d="M342 525v-96h-128v-429h-126v429h-74v96h74v46q0 99 32 137q36 42 136 42h82v-96h-38q-59 0 -75 -24q-11 -16 -11 -73v-32h128z" />
    <glyph glyph-name="g" unicode="g" horiz-adv-x="594" 
d="M280 435q-67 0 -89.5 -30t-22.5 -127q0 -106 14 -139q22 -49 98 -49q87 0 110 47q16 32 16 141q0 89 -22 121q-26 36 -104 36zM410 -25v100h-3q-39 -81 -164 -81t-168 69q-33 52 -33 184q0 149 27 202q42 82 174 82q125 0 164 -85h4l-5 79h126v-524q0 -140 -53 -187
t-199 -47q-111 0 -159 31q-63 40 -57 148h118q0 -52 21 -67.5t77 -15.5q80 0 105 22t25 90z" />
    <glyph glyph-name="h" unicode="h" horiz-adv-x="598" 
d="M188 750v-304h4q19 53 65 71q34 14 100 14q101 0 142 -44q38 -42 38 -141v-346h-126v333q0 59 -19.5 80.5t-78.5 21.5q-77 0 -104 -38q-21 -30 -21 -108v-289h-126v750h126z" />
    <glyph glyph-name="i" unicode="i" horiz-adv-x="236" 
d="M181 525v-525h-126v525h126zM181 750v-107h-126v107h126z" />
    <glyph glyph-name="j" unicode="j" horiz-adv-x="225" 
d="M176 525v-537q0 -85 -27 -124q-33 -48 -114 -48q-23 0 -47 6v90q38 0 52 18q10 14 10 46v549h126zM176 750v-107h-126v107h126z" />
    <glyph glyph-name="k" unicode="k" horiz-adv-x="539" 
d="M187 750v-429h31l147 204h142l-186 -247l224 -278h-152l-175 235h-31v-235h-126v750h126z" />
    <glyph glyph-name="l" unicode="l" horiz-adv-x="252" 
d="M189 750v-750h-126v750h126z" />
    <glyph glyph-name="m" unicode="m" horiz-adv-x="924" 
d="M63 525h122v-76h4q34 82 165 82q139 0 156 -93h4q31 93 166 93q101 0 141 -39.5t40 -136.5v-355h-126v343q0 51 -18.5 71.5t-69.5 20.5q-73 0 -99 -35q-23 -29 -23 -104v-296h-126v343q0 51 -18.5 71.5t-69.5 20.5q-73 0 -99 -35q-23 -29 -23 -104v-296h-126v525z" />
    <glyph glyph-name="n" unicode="n" horiz-adv-x="598" 
d="M62 525h126v-79h4q19 53 65 71q34 14 100 14q101 0 142 -44q38 -42 38 -141v-346h-126v333q0 59 -19.5 80.5t-78.5 21.5q-77 0 -104 -38q-21 -30 -21 -108v-289h-126v525z" />
    <glyph glyph-name="o" unicode="o" 
d="M291 531q158 0 206 -58q41 -50 41 -211q0 -160 -41 -210q-48 -58 -206 -58t-206 58q-41 50 -41 210q0 161 41 211q48 58 206 58zM291 435q-81 0 -102 -34q-19 -29 -19 -140q0 -109 19 -138q21 -33 102 -33t103 33q18 29 18 138q0 111 -18 140q-22 34 -103 34z" />
    <glyph glyph-name="p" unicode="p" horiz-adv-x="596" 
d="M312 90q67 0 89.5 30t22.5 127q0 108 -13 139q-21 49 -99 49q-88 0 -111 -47q-15 -30 -15 -141q0 -89 22 -120q26 -37 104 -37zM186 525l-5 -79h4q39 85 164 85q132 0 174 -82q27 -53 27 -202q0 -132 -33 -184q-43 -69 -168 -69q-126 0 -158 76h-5v-297h-126v752h126z
" />
    <glyph glyph-name="q" unicode="q" horiz-adv-x="597" 
d="M283 435q-67 0 -89.5 -30t-22.5 -127q0 -108 13 -139q21 -49 99 -49q88 0 111 47q15 30 15 141q0 89 -22 121q-26 36 -104 36zM535 525v-752h-126v297h-5q-32 -76 -158 -76q-125 0 -168 69q-33 52 -33 184q0 149 27 202q42 82 174 82q125 0 164 -85h4l-5 79h126z" />
    <glyph glyph-name="r" unicode="r" horiz-adv-x="471" 
d="M53 525h123l-3 -69h5q32 75 140 75q78 0 111 -45q27 -39 27 -120v-42h-118v27q0 45 -10 62q-13 22 -54 22q-53 0 -76 -30q-19 -26 -19 -81v-324h-126v525z" />
    <glyph glyph-name="s" unicode="s" horiz-adv-x="557" 
d="M507 382h-126q0 43 -25 55q-16 8 -75 8q-62 0 -82 -9q-31 -13 -31 -60q0 -38 21 -47q18 -8 103 -12q129 -6 164 -22q70 -32 70 -145q0 -97 -73 -131q-52 -25 -172 -25q-131 0 -173 21q-66 34 -66 150h126q2 -61 31 -76q17 -9 82 -9q68 0 88 8q31 13 31 62q0 40 -17 52
q-25 18 -113 19q-144 2 -186 32t-42 131q0 97 69 128q44 19 170 19q107 0 152 -19q74 -33 74 -130z" />
    <glyph glyph-name="t" unicode="t" horiz-adv-x="425" 
d="M-2 429v96h66v119h126v-119h201v-96h-201v-269q0 -41 7 -53q10 -17 47 -17q47 0 58 35q5 15 5 76h111q2 -119 -35 -163t-139 -44q-105 0 -142.5 33.5t-37.5 131.5v270h-66z" />
    <glyph glyph-name="u" unicode="u" horiz-adv-x="593" 
d="M530 0h-122v81h-4q-36 -87 -166 -87q-176 0 -176 151v380h126v-331q0 -61 14 -80q17 -24 74 -24q71 0 99.5 31t28.5 101v303h126v-525z" />
    <glyph glyph-name="v" unicode="v" horiz-adv-x="491" 
d="M497 525l-153 -525h-190l-159 525h129l123 -439h3l115 439h132z" />
    <glyph glyph-name="w" unicode="w" horiz-adv-x="796" 
d="M794 525l-120 -525h-180l-94 422h-3l-93 -422h-183l-119 525h124l89 -439h3l102 439h157l101 -439h4l90 439h122z" />
    <glyph glyph-name="x" unicode="x" horiz-adv-x="500" 
d="M487 525l-153 -249l170 -276h-148l-106 192l-105 -192h-150l173 276l-153 249h144l91 -168l91 168h146z" />
    <glyph glyph-name="y" unicode="y" horiz-adv-x="485" 
d="M490 525l-136 -546q-28 -112 -56 -151q-45 -61 -144 -61q-10 0 -27 2q-21 2 -27 2v95l27 -3q52 0 77 46q13 25 25 91h-61l-173 525h130l133 -447h2l102 447h128z" />
    <glyph glyph-name="z" unicode="z" horiz-adv-x="475" 
d="M452 420l-283 -324h283v-96h-429v108l280 321h-258v96h407v-105z" />
    <glyph glyph-name="braceleft" unicode="{" horiz-adv-x="389" 
d="M37 260v96q82 0 82 44v223q0 62 43 101q35 32 70 32h96v-96h-37q-31 0 -40 -16q-6 -10 -6 -35v-207q0 -85 -96 -94v-2q96 -9 96 -102v-207q0 -25 6 -35q9 -16 40 -16h37v-96h-96q-35 0 -70 32q-43 39 -43 101v223q0 54 -82 54z" />
    <glyph glyph-name="bar" unicode="|" horiz-adv-x="280" 
d="M188 750v-750h-96v750h96z" />
    <glyph glyph-name="braceright" unicode="}" horiz-adv-x="389" 
d="M352 346v-96q-82 0 -82 -44v-223q0 -62 -43 -101q-35 -32 -70 -32h-96v96h37q31 0 40 16q6 10 6 35v207q0 85 96 94v2q-96 9 -96 102v207q0 25 -6 35q-9 16 -40 16h-37v96h96q35 0 70 -32q43 -39 43 -101v-223q0 -54 82 -54z" />
    <glyph glyph-name="asciitilde" unicode="~" horiz-adv-x="584" 
d="M451 345v0h83q1 -56 -32 -104q-35 -52 -85 -52q-37 0 -79 21l-119 60q-28 14 -46 14q-32 0 -40 -65h-83q-1 61 38 109.5t100 48.5q24 0 55 -17l106 -59q34 -19 59 -19q46 0 43 63z" />
    <glyph glyph-name="euro" horiz-adv-x="498" 
d="M522 633l-23 -156l-48 6q0 157 -94 157q-103 0 -161 -211h172l-21 -48h-164q-6 -24 -16 -73h147l-21 -47h-134q-6 -41 -6 -74q0 -56 21 -91q26 -43 78 -43q58 0 101 68q24 38 51 119l55 -10l-54 -188q-77 -53 -159 -53q-111 0 -166 84q-47 71 -47 188h-74l21 47h56
q3 25 12 73h-66l21 48h59q41 112 108 183q83 88 187 88q94 0 165 -67z" />
    <glyph glyph-name="exclamdown" unicode="&#xa1;" horiz-adv-x="309" 
d="M217 525v-137h-126v137h126zM83 -225l8 499h126l8 -499h-142z" />
    <glyph glyph-name="cent" unicode="&#xa2;" horiz-adv-x="705" 
d="M320 174v346q-53 -9 -70 -60q-11 -33 -11 -116q0 -87 11 -118q17 -45 70 -52zM390 78v-84h-70v84q-128 0 -173 74q-34 55 -34 192q0 141 33 196q44 73 174 76v68h70v-68q103 -1 151 -43q50 -45 52 -148h-126q-2 51 -16.5 68.5t-60.5 26.5v-346q50 5 64.5 27t12.5 83h126
q4 -111 -38 -155q-45 -48 -165 -51z" />
    <glyph glyph-name="sterling" unicode="&#xa3;" horiz-adv-x="705" 
d="M484 392v-109h-201v-42q0 -52 -7 -73q-11 -30 -48 -50v-3l450 6v-121h-608v118q77 7 77 110v55h-98v109h98v120q0 145 54 196q52 48 198 48q152 0 202 -31q70 -42 70 -179v-32h-136v32q0 55 -23 73.5t-101 18.5q-77 0 -101 -18q-27 -21 -27 -92v-136h201z" />
    <glyph glyph-name="currency" unicode="&#xa4;" horiz-adv-x="705" 
d="M522 248l77 -77l-68 -65l-77 77q-21 -11 -41 -21q-28 -11 -63 -10q-59 2 -99 33l-80 -80l-67 67l78 79q-31 37 -32 103q-1 73 30 102l-79 77l69 69l78 -78q44 33 108 30q68 -3 102 -28l79 78l68 -68l-80 -79q18 -35 18 -36q10 -26 11 -57q1 -55 -32 -116zM246 348
q3 -43 34 -71.5t72 -28.5q53 0 83 36q25 30 23 64q3 43 -28 76.5t-78 33.5t-78 -33.5t-28 -76.5z" />
    <glyph glyph-name="yen" unicode="&#xa5;" horiz-adv-x="705" 
d="M558 536h94v-109h-155l-52 -86h207v-109h-235v-232h-136v232h-228v109h200l-51 86h-149v109h90l-121 214h156l171 -320h3l173 320h158z" />
    <glyph glyph-name="brokenbar" unicode="&#xa6;" horiz-adv-x="280" 
d="M188 750v-300h-96v300h96zM188 0h-96v300h96v-300z" />
    <glyph glyph-name="section" unicode="&#xa7;" horiz-adv-x="705" 
d="M431 340l-129 32q-44 11 -59 11q-62 0 -62 -90q0 -44 16 -58.5t68 -26.5l151 -35q43 -10 53 -10q57 0 57 91q0 42 -15.5 56t-79.5 30zM67 1h130q2 -76 23 -93q26 -23 134 -23q99 0 129 17t30 72q0 44 -19 61q-14 13 -60 23l-246 54q-83 18 -109 49t-26 117q0 59 13 89
q18 44 67 55q-35 20 -47 62q-8 28 -8 84q0 121 71 159q52 29 205 29q147 0 197 -26q72 -39 72 -167v-28h-130q-2 69 -24.5 86t-114.5 17q-91 0 -115.5 -13.5t-24.5 -56.5q0 -48 21 -64q15 -12 78 -26l167 -38q99 -23 127 -43q45 -33 45 -119q0 -134 -71 -157v-2
q43 -14 58 -57q10 -28 10 -88q0 -139 -82 -180q-53 -27 -213 -27q-161 0 -215 33q-72 44 -72 185v16z" />
    <glyph glyph-name="dieresis" unicode="&#xa8;" horiz-adv-x="453" 
d="M174 695h-99v-88h99v88zM378 695h-99v-88h99v88z" />
    <glyph glyph-name="copyright" unicode="&#xa9;" horiz-adv-x="790" 
d="M395 -6q-158 0 -269.5 111.5t-111.5 269.5t111.5 269.5t269.5 111.5t269.5 -111.5t111.5 -269.5t-111.5 -269.5t-269.5 -111.5zM395 66q127 0 218 90.5t91 218.5t-91 218.5t-218 90.5q-129 0 -219.5 -90.5t-90.5 -218.5t90.5 -218.5t219.5 -90.5zM503 307h85
q-7 -68 -57.5 -108t-119.5 -40q-94 0 -152 62.5t-58 156.5q0 97 56 159t152 62q70 0 119 -39t60 -106h-85q-6 35 -32 55t-63 20q-58 0 -92 -46q-31 -42 -31 -103q0 -58 33 -102q36 -49 93 -49q36 0 63 22t29 56z" />
    <glyph glyph-name="ordfeminine" unicode="&#xaa;" horiz-adv-x="440" 
d="M34 371h373v-69h-373v69zM278 435l2 31l-2 2q-15 -25 -43 -32q-17 -5 -56 -5q-61 0 -88 19q-32 23 -32 81q0 57 33 80q28 19 89 19q78 0 93 -28h2v40q0 31 -8 42q-12 17 -54 17q-32 0 -43 -6q-16 -9 -15 -38h-86q0 66 45 87q27 12 99 12q77 0 107 -18q41 -23 41 -91v-212
h-84zM209 486q36 0 50 8q18 10 18 40q0 26 -18 34q-14 7 -51 7q-33 0 -44 -5q-19 -8 -19 -34q0 -33 16 -43q11 -7 48 -7z" />
    <glyph glyph-name="guillemotleft" unicode="&#xab;" horiz-adv-x="529" 
d="M182 539l86 -48l-107 -216l113 -211l-81 -51l-142 262zM387 539l85 -48l-107 -216l113 -211l-80 -51l-143 262z" />
    <glyph glyph-name="logicalnot" unicode="&#xac;" horiz-adv-x="584" 
d="M438 121v212h-388v96h484v-308h-96z" />
    <glyph glyph-name="sfthyphen" unicode="&#xad;" horiz-adv-x="338" 
d="M8 174l33 122h246l-33 -122h-246z" />
    <glyph glyph-name="registered" unicode="&#xae;" horiz-adv-x="790" 
d="M395 -6q-158 0 -269.5 111.5t-111.5 269.5t111.5 269.5t269.5 111.5q157 0 269 -112t112 -269t-112 -269t-269 -112zM395 66q128 0 218.5 90t90.5 219t-90.5 219t-218.5 90q-129 0 -219 -90t-90 -219t90 -219t219 -90zM485 342l99 -174h-93l-92 174h-81v-174h-80v411h199
q74 0 110 -20q49 -27 49 -94q0 -64 -27 -91.5t-84 -31.5zM318 402h121q77 0 77 63q0 36 -34 48q-19 6 -64 6h-100v-117z" />
    <glyph glyph-name="macron" unicode="&#xaf;" horiz-adv-x="426" 
d="M75 690h276v-76h-276v76z" />
    <glyph glyph-name="macron" unicode="&#x2c9;" horiz-adv-x="426" 
d="M75 690h276v-76h-276v76z" />
    <glyph glyph-name="degree" unicode="&#xb0;" horiz-adv-x="400" 
d="M350 606q0 -62 -44 -106t-106 -44t-106 44t-44 106t44 106t106 44t106 -44t44 -106zM281 606q0 33 -24 57t-58 24q-33 0 -56.5 -24t-23.5 -57q0 -34 23.5 -57.5t57.5 -23.5q33 0 57 23.5t24 57.5z" />
    <glyph glyph-name="plusminus" unicode="&#xb1;" horiz-adv-x="584" 
d="M244 525h96v-135h194v-96h-194v-135h-96v135h-194v96h194v135zM50 0v96h484v-96h-484z" />
    <glyph glyph-name="twosuperior" unicode="&#xb2;" horiz-adv-x="423" 
d="M373 384v-78h-339v82q0 79 36 106q23 18 111 34q69 13 78 19q19 14 19 70q0 42 -14.5 54t-55.5 12q-51 0 -63 -12q-16 -15 -16 -79h-95q0 93 25 123q34 41 149 41q87 0 122 -25q43 -30 43 -114t-33 -114q-27 -23 -118 -38q-63 -11 -73 -17q-20 -11 -20 -51v-13h244z" />
    <glyph glyph-name="threesuperior" unicode="&#xb3;" horiz-adv-x="423" 
d="M174 495v78h65q34 0 44 17q6 11 6 48q0 26 -16.5 33t-70.5 7q-30 0 -40 -3q-22 -6 -27 -27q-3 -13 -3 -41h-95q0 93 38 123q32 26 127 26q87 0 123 -15q59 -25 59 -103q0 -97 -81 -105v-2q88 -7 88 -99q0 -85 -51 -112q-37 -20 -138 -20q-97 0 -127 21q-43 30 -43 133h95
q0 -55 10.5 -65.5t64.5 -10.5q60 0 75 7q19 9 19 47q0 35 -10 47q-12 16 -47 16h-65z" />
    <glyph glyph-name="acute" unicode="&#xb4;" horiz-adv-x="371" 
d="M251 743l45 -82l-194 -86l-27 52z" />
    <glyph glyph-name="mu" unicode="&#xb5;" horiz-adv-x="593" 
d="M531 0h-122v81h-4q-36 -87 -166 -87q-27 0 -50 4v-225h-126v752h126v-331q0 -61 14 -80q17 -24 74 -24q71 0 99.5 31t28.5 101v303h126v-525z" />
    <glyph glyph-name="mu" unicode="&#x3bc;" horiz-adv-x="593" 
d="M531 0h-122v81h-4q-36 -87 -166 -87q-27 0 -50 4v-225h-126v752h126v-331q0 -61 14 -80q17 -24 74 -24q71 0 99.5 31t28.5 101v303h126v-525z" />
    <glyph glyph-name="paragraph" unicode="&#xb6;" horiz-adv-x="705" 
d="M693 -227h-109v859h-87v-859h-109v467h-113q-158 0 -212 42q-65 50 -65 207q0 159 61 213q55 48 216 48h418v-977zM388 358v274h-113q-95 0 -118 -22.5t-23 -120.5q0 -87 27 -110q23 -21 106 -21h121z" />
    <glyph glyph-name="ch270" unicode="&#xb7;" horiz-adv-x="249" 
d="M38 348q0 34 23 57t57 23t57.5 -23t23.5 -57t-23.5 -57.5t-57.5 -23.5t-57 23.5t-23 57.5z" />
    <glyph glyph-name="ch270" unicode="&#x2219;" horiz-adv-x="249" 
d="M38 348q0 34 23 57t57 23t57.5 -23t23.5 -57t-23.5 -57.5t-57.5 -23.5t-57 23.5t-23 57.5z" />
    <glyph glyph-name="cedilla" unicode="&#xb8;" horiz-adv-x="308" 
d="M189 -12l44 -63l-131 -52l-27 46z" />
    <glyph glyph-name="onesuperior" unicode="&#xb9;" horiz-adv-x="423" 
d="M309 756v-450h-95v373l-117 -117l-50 58l144 136h118z" />
    <glyph glyph-name="ordmasculine" unicode="&#xba;" horiz-adv-x="440" 
d="M220 756q94 0 124 -30.5t30 -128.5q0 -95 -24 -126q-31 -40 -130 -40q-95 0 -124 31t-29 135q0 92 26 123q30 36 127 36zM220 691q-46 0 -57 -20q-10 -15 -10 -74q0 -65 5 -77q11 -24 62 -24q47 0 60 25q8 17 8 76q0 62 -11 78t-57 16zM34 371h373v-69h-373v69z" />
    <glyph glyph-name="guillemotright" unicode="&#xbb;" horiz-adv-x="529" 
d="M347 539l131 -264l-143 -262l-80 51l113 211l-107 216zM142 539l132 -264l-143 -262l-80 51l113 211l-107 216z" />
    <glyph glyph-name="onequarter" unicode="&#xbc;" horiz-adv-x="1057" 
d="M955 450v-284h39v-74h-39v-92h-95v92h-245v98l199 260h141zM860 166v212h-3l-164 -212h167zM816 750l-476 -750h-93l474 750h95zM316 750v-450h-95v373l-117 -117l-50 58l144 136h118z" />
    <glyph glyph-name="onehalf" unicode="&#xbd;" horiz-adv-x="1057" 
d="M801 750l-476 -750h-93l474 750h95zM301 750v-450h-95v373l-117 -117l-50 58l144 136h118zM1008 78v-78h-339v82q0 79 36 106q23 18 111 34q69 13 78 19q19 14 19 70q0 42 -14.5 54t-55.5 12q-51 0 -63 -12q-16 -15 -16 -79h-95q0 93 25 123q34 41 149 41q87 0 122 -25
q43 -30 43 -114t-33 -114q-27 -23 -118 -38q-63 -11 -73 -17q-20 -11 -20 -51v-13h244z" />
    <glyph glyph-name="threequarters" unicode="&#xbe;" horiz-adv-x="1057" 
d="M967 450v-284h39v-74h-39v-92h-95v92h-245v98l199 260h141zM872 166v212h-3l-164 -212h167zM838 750l-476 -750h-93l474 750h95zM174 495v78h65q34 0 44 17q6 11 6 48q0 26 -16.5 33t-70.5 7q-30 0 -40 -3q-22 -6 -27 -27q-3 -13 -3 -41h-95q0 93 38 123q32 26 127 26
q87 0 123 -15q59 -25 59 -103q0 -97 -81 -105v-2q88 -7 88 -99q0 -85 -51 -112q-37 -20 -138 -20q-97 0 -127 21q-43 30 -43 133h95q0 -55 10.5 -65.5t64.5 -10.5q60 0 75 7q19 9 19 47q0 35 -10 47q-12 16 -47 16h-65z" />
    <glyph glyph-name="questiondown" unicode="&#xbf;" horiz-adv-x="595" 
d="M268 283h126v-17q0 -80 -19.5 -109.5t-89.5 -60t-80 -38.5q-27 -23 -27 -80q0 -69 22 -87.5t93 -18.5q79 0 102 18t23 83v27h126v-27q0 -126 -57 -168q-51 -38 -199 -38q-124 0 -173 37q-63 46 -63 174q0 85 25 123.5t108 72.5q51 21 61 30q22 19 22 62v17zM394 525v-137
h-126v137h126z" />
    <glyph glyph-name="Agrave" unicode="&#xc0;" horiz-adv-x="709" 
d="M382 847l-27 -37l-194 86l45 67zM712 0h-146l-49 142h-324l-47 -142h-149l249 750h212zM485 251l-129 389h-2l-128 -389h259z" />
    <glyph glyph-name="Aacute" unicode="&#xc1;" horiz-adv-x="709" 
d="M517 142h-324l-47 -142h-149l249 750h212l254 -750h-146zM485 251l-129 389h-2l-128 -389h259zM503 963l45 -67l-194 -86l-27 37z" />
    <glyph glyph-name="Acircumflex" unicode="&#xc2;" horiz-adv-x="709" 
d="M517 142h-324l-47 -142h-149l249 750h212l254 -750h-146zM485 251l-129 389h-2l-128 -389h259zM356 926l178 -118l-25 -40l-153 68l-154 -68l-24 40z" />
    <glyph glyph-name="Atilde" unicode="&#xc3;" horiz-adv-x="709" 
d="M517 142h-324l-47 -142h-149l249 750h212l254 -750h-146zM485 251l-129 389h-2l-128 -389h259zM504 928l41 -26q-86 -82 -149 -86q-26 -2 -62.5 20t-50.5 21q-29 -2 -72 -41l-41 27q81 79 147 84q23 2 60.5 -20.5t52.5 -21.5q29 2 74 43z" />
    <glyph glyph-name="Adieresis" unicode="&#xc4;" horiz-adv-x="709" 
d="M517 142h-324l-47 -142h-149l249 750h212l254 -750h-146zM485 251l-129 389h-2l-128 -389h259zM302 920h-99v-88h99v88zM506 920h-99v-88h99v88z" />
    <glyph glyph-name="Aring" unicode="&#xc5;" horiz-adv-x="709" 
d="M517 142h-324l-47 -142h-149l249 750h212l254 -750h-146zM485 251l-129 389h-2l-128 -389h259zM263 901q0 38 27 65t65 27t65 -27t27 -65t-27 -65t-65 -27t-65 27t-27 65zM308 901q0 -19 14 -33t33 -14q20 0 33.5 14t13.5 33q0 20 -13.5 33.5t-33.5 13.5q-19 0 -33 -13.5
t-14 -33.5z" />
    <glyph glyph-name="AE" unicode="&#xc6;" horiz-adv-x="1059" 
d="M510 251v376h-75l-179 -376h254zM510 0v142h-300l-69 -142h-158l354 750h682v-123h-365v-192h343v-109h-343v-203h365v-123h-509z" />
    <glyph glyph-name="Ccedilla" unicode="&#xc7;" horiz-adv-x="696" 
d="M655 499h-144v41q0 62 -33 79q-27 14 -127 14q-109 0 -139.5 -30.5t-30.5 -140.5v-166q0 -115 29.5 -147t140.5 -32q98 0 128 15q40 22 40 96v41h144v-49q0 -107 -40 -157q-33 -44 -108 -57q-37 -7 -164 -12q-190 -8 -256 62q-58 61 -58 234v172q0 174 74 237
q67 57 240 57q169 0 222 -27q82 -42 82 -189v-41zM383 -12l44 -63l-131 -52l-27 46z" />
    <glyph glyph-name="Egrave" unicode="&#xc8;" horiz-adv-x="619" 
d="M200 627v-187h351v-118h-351v-199h373v-123h-517v750h514v-123h-370zM339 848l-27 -37l-194 86l45 67z" />
    <glyph glyph-name="Eacute" unicode="&#xc9;" horiz-adv-x="619" 
d="M200 627v-187h351v-118h-351v-199h373v-123h-517v750h514v-123h-370zM460 964l45 -67l-194 -86l-27 37z" />
    <glyph glyph-name="Ecircumflex" unicode="&#xca;" horiz-adv-x="619" 
d="M200 627v-187h351v-118h-351v-199h373v-123h-517v750h514v-123h-370zM312 936l178 -118l-25 -40l-153 68l-154 -68l-24 40z" />
    <glyph glyph-name="Edieresis" unicode="&#xcb;" horiz-adv-x="619" 
d="M200 627v-187h351v-118h-351v-199h373v-123h-517v750h514v-123h-370zM257 920h-99v-88h99v88zM461 920h-99v-88h99v88z" />
    <glyph glyph-name="Igrave" unicode="&#xcc;" horiz-adv-x="276" 
d="M210 750v-750h-144v750h144zM163 848l-27 -37l-194 86l45 67z" />
    <glyph glyph-name="Iacute" unicode="&#xcd;" horiz-adv-x="276" 
d="M210 750v-750h-144v750h144zM284 963l45 -67l-194 -86l-27 37z" />
    <glyph glyph-name="Icircumflex" unicode="&#xce;" horiz-adv-x="276" 
d="M210 750v-750h-144v750h144zM138 967l178 -108l-25 -50l-153 63l-154 -63l-24 50z" />
    <glyph glyph-name="Idieresis" unicode="&#xcf;" horiz-adv-x="276" 
d="M210 750v-750h-144v750h144zM66 920h-99v-88h99v88zM270 920h-99v-88h99v88z" />
    <glyph glyph-name="Eth" unicode="&#xd0;" horiz-adv-x="754" 
d="M206 627v-187h125v-109h-125v-208h238q67 0 100 54q27 45 27 117v177q0 92 -33 124t-118 32h-214zM62 440v310h358q157 0 226 -64t69 -215v-177q0 -136 -50 -205q-65 -89 -221 -89h-382v331h-91v109h91z" />
    <glyph glyph-name="Ntilde" unicode="&#xd1;" horiz-adv-x="827" 
d="M629 123l-12 627h144v-750h-239l-319 627h-5l12 -627h-144v750h238l321 -627h4zM545 929v0l62 -34q-49 -87 -116 -87q-31 0 -83 27.5t-70 27.5q-32 0 -54 -42l-64 35q47 85 115 85q28 0 81.5 -28.5t72.5 -28.5q30 0 56 45z" />
    <glyph glyph-name="Ograve" unicode="&#xd2;" horiz-adv-x="715" 
d="M356 756q176 0 241 -47q79 -57 79 -227v-202q0 -173 -75 -233q-66 -53 -245 -53q-182 0 -245 51q-72 59 -72 235v202q0 171 75 227q63 47 242 47zM356 633q-112 0 -145 -31q-28 -27 -28 -120v-202q0 -108 33 -137q30 -26 140 -26q104 0 137 27q39 32 39 136v202
q0 99 -40 128q-32 23 -136 23zM383 853l-27 -37l-194 86l45 67z" />
    <glyph glyph-name="Oacute" unicode="&#xd3;" horiz-adv-x="715" 
d="M356 756q176 0 241 -47q79 -57 79 -227v-202q0 -173 -75 -233q-66 -53 -245 -53q-182 0 -245 51q-72 59 -72 235v202q0 171 75 227q63 47 242 47zM356 633q-112 0 -145 -31q-28 -27 -28 -120v-202q0 -108 33 -137q30 -26 140 -26q104 0 137 27q39 32 39 136v202
q0 99 -40 128q-32 23 -136 23zM505 970l45 -67l-194 -86l-27 37z" />
    <glyph glyph-name="Ocircumflex" unicode="&#xd4;" horiz-adv-x="715" 
d="M356 756q176 0 241 -47q79 -57 79 -227v-202q0 -173 -75 -233q-66 -53 -245 -53q-182 0 -245 51q-72 59 -72 235v202q0 171 75 227q63 47 242 47zM356 633q-112 0 -145 -31q-28 -27 -28 -120v-202q0 -108 33 -137q30 -26 140 -26q104 0 137 27q39 32 39 136v202
q0 99 -40 128q-32 23 -136 23zM356 936l178 -118l-25 -40l-153 68l-154 -68l-24 40z" />
    <glyph glyph-name="Otilde" unicode="&#xd5;" horiz-adv-x="715" 
d="M356 756q176 0 241 -47q79 -57 79 -227v-202q0 -173 -75 -233q-66 -53 -245 -53q-182 0 -245 51q-72 59 -72 235v202q0 171 75 227q63 47 242 47zM356 633q-112 0 -145 -31q-28 -27 -28 -120v-202q0 -108 33 -137q30 -26 140 -26q104 0 137 27q39 32 39 136v202
q0 99 -40 128q-32 23 -136 23zM504 933l41 -26q-84 -80 -149 -86q-27 -3 -63 19.5t-50 21.5q-29 -2 -72 -41l-41 27q81 79 147 84q23 2 60.5 -20.5t52.5 -21.5q29 2 74 43z" />
    <glyph glyph-name="Odieresis" unicode="&#xd6;" horiz-adv-x="715" 
d="M356 756q177 0 241 -47q79 -57 79 -227v-202q0 -173 -75 -233q-66 -53 -245 -53q-183 0 -245 51q-72 58 -72 235v202q0 169 69 224q63 50 248 50zM356 633q-112 0 -145 -31q-28 -27 -28 -120v-202q0 -109 33 -137q29 -26 140 -26q104 0 137 27q39 32 39 136v202
q0 100 -40 128q-31 23 -136 23zM305 920h-99v-88h99v88zM509 920h-99v-88h99v88z" />
    <glyph glyph-name="multiply" unicode="&#xd7;" horiz-adv-x="584" 
d="M291 351l175 174l68 -67l-175 -175l175 -175l-68 -66l-175 173l-172 -173l-69 70l173 171l-173 173l68 69z" />
    <glyph glyph-name="Oslash" unicode="&#xd8;" horiz-adv-x="754" 
d="M754 774v-113l-60 -53q13 -41 16 -101v-120q0 -170 -18 -240q-23 -87 -91.5 -120t-220.5 -33q-121 0 -165 9q-67 13 -112 62l-103 -91v109l61 55q-16 42 -16 249q0 154 14 212q20 84 88 119q73 38 233 38q98 0 145 -9q81 -16 127 -64zM566 491l-355 -330q13 -44 169 -44
q98 0 135 19.5t46 77.5q5 32 5 163v114zM189 254l356 333q-22 30 -67 40q-30 6 -98 6q-121 0 -158 -36q-33 -33 -33 -136v-207z" />
    <glyph glyph-name="Ugrave" unicode="&#xd9;" horiz-adv-x="754" 
d="M545 750h144v-533q0 -143 -88 -190q-62 -33 -225 -33q-159 0 -221 33q-90 48 -90 190v533h144v-533q0 -69 53 -89q28 -11 114 -11t115 11q54 20 54 89v533zM403 828l-27 -37l-194 86l45 67z" />
    <glyph glyph-name="Uacute" unicode="&#xda;" horiz-adv-x="754" 
d="M545 750h144v-533q0 -143 -88 -190q-62 -33 -225 -33q-159 0 -221 33q-90 48 -90 190v533h144v-533q0 -69 53 -89q28 -11 114 -11t115 11q54 20 54 89v533zM525 943l45 -67l-194 -86l-27 37z" />
    <glyph glyph-name="Ucircumflex" unicode="&#xdb;" horiz-adv-x="754" 
d="M545 750h144v-533q0 -143 -88 -190q-62 -33 -225 -33q-160 0 -221 33q-90 47 -90 190v533h144v-533q0 -59 32.5 -79.5t134.5 -20.5q101 0 135 20t34 80v533zM377 967l178 -108l-25 -50l-153 63l-154 -63l-24 50z" />
    <glyph glyph-name="Udieresis" unicode="&#xdc;" horiz-adv-x="754" 
d="M545 750h144v-533q0 -143 -88 -190q-62 -33 -225 -33q-160 0 -221 33q-90 47 -90 190v533h144v-533q0 -59 32.5 -79.5t134.5 -20.5q101 0 135 20t34 80v533zM325 920h-99v-88h99v88zM529 920h-99v-88h99v88z" />
    <glyph glyph-name="Yacute" unicode="&#xdd;" horiz-adv-x="670" 
d="M681 750l-277 -462v-288h-144v288l-271 462h164l178 -320h3l181 320h166zM482 933l45 -67l-194 -86l-27 37z" />
    <glyph glyph-name="Thorn" unicode="&#xde;" horiz-adv-x="686" 
d="M56 0v750h144v-122h188q154 0 209 -50q58 -54 58 -208q0 -153 -60 -204q-53 -45 -207 -45h-188v-121h-144zM200 244h188q77 0 100 23.5t23 102.5q0 82 -22 108.5t-101 26.5h-188v-261z" />
    <glyph glyph-name="germandbls" unicode="&#xdf;" horiz-adv-x="606" 
d="M67 0v513q0 144 37 188q46 55 202 55q101 0 152 -27q68 -37 68 -128q0 -118 -120 -134v-3q91 -5 128 -67q28 -50 28 -149q0 -125 -36 -182q-46 -72 -162 -72q-50 0 -112 19v103q52 -26 84 -26q100 0 100 158q0 93 -23 128q-26 41 -102 41h-36v86h36q97 0 97 98
q0 69 -114 69q-59 0 -80 -20.5t-21 -78.5v-571h-126z" />
    <glyph glyph-name="agrave" unicode="&#xe0;" horiz-adv-x="589" 
d="M284 236q-62 0 -81 -9q-34 -16 -34 -66q0 -53 26 -68q22 -13 89 -13q61 0 83 12q33 18 33 69q0 49 -35 65q-22 10 -81 10zM400 0l5 66h-3q-17 -46 -68 -62q-32 -10 -95 -10q-101 0 -145 32q-51 37 -51 135q0 94 53 131q44 30 143 30q63 0 91 -8q46 -13 66 -52h4v68
q0 68 -17 89q-21 26 -95 26q-50 0 -70 -11q-29 -16 -29 -62h-126q0 103 68 137q44 22 157 22q135 0 182 -35q56 -41 56 -167v-329h-126zM312 633l-24 -33l-175 77l41 60z" />
    <glyph glyph-name="aacute" unicode="&#xe1;" horiz-adv-x="589" 
d="M284 236q-62 0 -81 -9q-34 -16 -34 -66q0 -53 26 -68q22 -13 89 -13q61 0 83 12q33 18 33 69q0 49 -35 65q-22 10 -81 10zM400 0l5 66h-3q-17 -46 -68 -62q-32 -10 -95 -10q-101 0 -145 32q-51 37 -51 135q0 94 53 131q44 30 143 30q63 0 91 -8q46 -13 66 -52h4v68
q0 68 -17 89q-21 26 -95 26q-50 0 -70 -11q-29 -16 -29 -62h-126q0 103 68 137q44 22 157 22q135 0 182 -35q56 -41 56 -167v-329h-126zM421 737l41 -60l-175 -77l-24 33z" />
    <glyph glyph-name="acircumflex" unicode="&#xe2;" horiz-adv-x="589" 
d="M284 236q-62 0 -81 -9q-34 -16 -34 -66q0 -53 26 -68q22 -13 89 -13q61 0 83 12q33 18 33 69q0 49 -35 65q-22 10 -81 10zM400 0l5 66h-3q-17 -46 -68 -62q-32 -10 -95 -10q-101 0 -145 32q-51 37 -51 135q0 94 53 131q44 30 143 30q63 0 91 -8q46 -13 66 -52h4v68
q0 68 -17 89q-21 26 -95 26q-50 0 -70 -11q-29 -16 -29 -62h-126q0 103 68 137q44 22 157 22q135 0 182 -35q56 -41 56 -167v-329h-126zM287 706l161 -106l-23 -36l-138 61l-138 -61l-22 36z" />
    <glyph glyph-name="atilde" unicode="&#xe3;" horiz-adv-x="589" 
d="M284 236q-62 0 -81 -9q-34 -16 -34 -66q0 -53 26 -68q22 -13 89 -13q61 0 83 12q33 18 33 69q0 49 -35 65q-22 10 -81 10zM400 0l5 66h-3q-17 -46 -68 -62q-32 -10 -95 -10q-101 0 -145 32q-51 37 -51 135q0 94 53 131q44 30 143 30q63 0 91 -8q46 -13 66 -52h4v68
q0 68 -17 89q-21 26 -95 26q-50 0 -70 -11q-29 -16 -29 -62h-126q0 103 68 137q44 22 157 22q135 0 182 -35q56 -41 56 -167v-329h-126zM420 703l37 -23q-76 -74 -134 -78q-24 -2 -56.5 18t-45.5 19q-27 -2 -64 -37l-37 25q73 71 132 75q20 1 54 -18.5t48 -18.5q25 1 66 38z
" />
    <glyph glyph-name="adieresis" unicode="&#xe4;" horiz-adv-x="589" 
d="M284 236q-61 0 -81 -9q-34 -16 -34 -66q0 -53 26 -68q21 -13 89 -13q60 0 83 12q33 18 33 69q0 49 -35 65q-22 10 -81 10zM400 0l5 66h-3q-17 -46 -68 -62q-32 -10 -95 -10q-100 0 -143 30q-53 38 -53 137q0 91 49 128q45 33 147 33q63 0 91 -8q46 -13 66 -52h4v68
q0 69 -17 89q-21 26 -95 26q-50 0 -70 -11q-29 -16 -29 -62h-126q0 103 68 137q44 22 157 22q135 0 182 -35q56 -41 56 -167v-329h-126zM242 695h-99v-88h99v88zM446 695h-99v-88h99v88z" />
    <glyph glyph-name="aring" unicode="&#xe5;" horiz-adv-x="589" 
d="M284 236q-61 0 -81 -9q-34 -16 -34 -66q0 -53 26 -68q21 -13 89 -13q60 0 83 12q33 18 33 69q0 49 -35 65q-22 10 -81 10zM400 0l5 66h-3q-17 -46 -68 -62q-32 -10 -95 -10q-100 0 -143 30q-53 38 -53 137q0 91 49 128q45 33 147 33q63 0 91 -8q46 -13 66 -52h4v68
q0 69 -17 89q-21 26 -95 26q-50 0 -70 -11q-29 -16 -29 -62h-126q0 103 68 137q44 22 157 22q135 0 182 -35q56 -41 56 -167v-329h-126zM203 656q0 38 27 65t65 27t65 -27t27 -65t-27 -65t-65 -27t-65 27t-27 65zM248 656q0 -19 14 -33t33 -14q20 0 33.5 14t13.5 33
q0 20 -13.5 33.5t-33.5 13.5q-19 0 -33 -13.5t-14 -33.5z" />
    <glyph glyph-name="ae" unicode="&#xe6;" horiz-adv-x="920" 
d="M521 319h235q0 79 -21 99q-19 17 -98 17q-78 0 -99 -23q-17 -19 -17 -93zM279 236q-61 0 -81 -9q-34 -16 -34 -66q0 -53 26 -68q21 -13 89 -13q60 0 83 12q33 18 33 69q0 49 -35 65q-22 10 -81 10zM395 260v70q0 69 -17 89q-21 26 -95 26q-50 0 -70 -11q-29 -16 -29 -62
h-126q0 103 68 137q44 22 157 22q161 0 179 -68h3q24 68 172 68q157 0 204 -60q41 -54 41 -232h-361q0 -93 16 -117q20 -32 100 -32q65 0 86 9q33 15 33 68h126q0 -113 -66 -148q-47 -25 -179 -25q-161 0 -189 83h-3q-18 -53 -83 -71q-41 -12 -128 -12q-100 0 -143 30
q-53 38 -53 137q0 91 49 128q45 33 147 33q63 0 91 -8q46 -13 66 -54h4z" />
    <glyph glyph-name="ccedilla" unicode="&#xe7;" horiz-adv-x="551" 
d="M394 200h126q0 -125 -53 -167q-48 -39 -186 -39q-143 0 -190 55q-45 52 -45 213q0 150 40 204q49 65 195 65q129 0 178 -33q61 -40 61 -157h-126q0 59 -22.5 76.5t-90.5 17.5q-76 0 -95 -36q-14 -27 -14 -137q0 -109 13 -135q18 -37 96 -37q75 0 95 21q18 18 18 89z
M311 -12l44 -63l-131 -52l-27 46z" />
    <glyph glyph-name="egrave" unicode="&#xe8;" horiz-adv-x="570" 
d="M403 167h126q0 -113 -66 -148q-47 -25 -179 -25q-148 0 -198 61q-44 53 -44 206q0 152 42 206q49 64 200 64q158 0 204 -60q41 -53 41 -232h-361q0 -92 16 -117q21 -32 100 -32q66 0 86 9q33 15 33 68zM168 319h235q0 78 -20 97t-99 19q-78 0 -99 -23q-17 -19 -17 -93z
M309 633l-24 -33l-175 77l41 60z" />
    <glyph glyph-name="eacute" unicode="&#xe9;" horiz-adv-x="570" 
d="M403 167h126q0 -113 -66 -148q-47 -25 -179 -25q-148 0 -198 61q-44 53 -44 206q0 152 42 206q49 64 200 64q158 0 204 -60q41 -53 41 -232h-361q0 -92 16 -117q21 -32 100 -32q66 0 86 9q33 15 33 68zM168 319h235q0 78 -20 97t-99 19q-78 0 -99 -23q-17 -19 -17 -93z
M418 737l41 -60l-175 -77l-24 33z" />
    <glyph glyph-name="ecircumflex" unicode="&#xea;" horiz-adv-x="570" 
d="M403 167h126q0 -113 -66 -148q-47 -25 -179 -25q-148 0 -198 61q-44 53 -44 206q0 152 42 206q49 64 200 64q158 0 204 -60q41 -53 41 -232h-361q0 -92 16 -117q21 -32 100 -32q66 0 86 9q33 15 33 68zM168 319h235q0 78 -20 97t-99 19q-78 0 -99 -23q-17 -19 -17 -93z
M284 706l161 -106l-23 -36l-138 61l-138 -61l-22 36z" />
    <glyph glyph-name="edieresis" unicode="&#xeb;" horiz-adv-x="570" 
d="M403 167h126q0 -113 -66 -148q-47 -25 -179 -25q-147 0 -196 57q-46 54 -46 210q0 152 42 206q49 64 200 64q157 0 204 -60q41 -54 41 -232h-361q0 -93 16 -117q20 -32 100 -32q65 0 86 9q33 15 33 68zM168 319h235q0 79 -21 99q-19 17 -98 17q-78 0 -99 -23
q-17 -19 -17 -93zM233 695h-99v-88h99v88zM437 695h-99v-88h99v88z" />
    <glyph glyph-name="igrave" unicode="&#xec;" horiz-adv-x="236" 
d="M181 525v-525h-126v525h126zM141 623l-24 -33l-165 87l31 60z" />
    <glyph glyph-name="iacute" unicode="&#xed;" horiz-adv-x="236" 
d="M181 525v-525h-126v525h126zM251 727l41 -60l-175 -77l-24 33z" />
    <glyph glyph-name="icircumflex" unicode="&#xee;" horiz-adv-x="236" 
d="M181 525v-525h-126v525h126zM118 742l178 -108l-25 -50l-153 63l-154 -63l-24 50z" />
    <glyph glyph-name="idieresis" unicode="&#xef;" horiz-adv-x="236" 
d="M181 525v-525h-126v525h126zM66 695h-99v-88h99v88zM270 695h-99v-88h99v88z" />
    <glyph glyph-name="eth" unicode="&#xf0;" 
d="M291 435q-81 0 -102 -34q-19 -29 -19 -140q0 -109 19 -138q21 -33 102 -33t103 33q18 29 18 138q0 111 -18 140q-22 34 -103 34zM324 712l-40 -35q142 -73 214 -199q40 -70 40 -216q0 -160 -41 -210q-48 -58 -206 -58t-206 58q-41 50 -41 210q0 161 44 211q52 58 227 58
q-50 54 -111 81l-68 -59l-40 43l48 42q-10 5 -90 30l33 88q67 -17 137 -49l56 49z" />
    <glyph glyph-name="ntilde" unicode="&#xf1;" horiz-adv-x="598" 
d="M62 525h126v-79h4q19 53 65 71q34 14 100 14q101 0 142 -44q38 -42 38 -141v-346h-126v333q0 59 -19.5 80.5t-78.5 21.5q-77 0 -104 -38q-21 -30 -21 -108v-289h-126v525zM431 704v0l62 -34q-49 -87 -116 -87q-31 0 -83 27.5t-70 27.5q-32 0 -54 -42l-64 35q47 85 115 85
q28 0 81.5 -28.5t72.5 -28.5q30 0 56 45z" />
    <glyph glyph-name="ograve" unicode="&#xf2;" 
d="M291 531q158 0 206 -58q41 -50 41 -211q0 -160 -41 -210q-48 -58 -206 -58t-206 58q-41 50 -41 210q0 161 41 211q48 58 206 58zM291 435q-80 0 -102 -34q-19 -30 -19 -140q0 -109 19 -138q21 -33 102 -33q82 0 103 33q18 28 18 138q0 112 -18 140q-22 34 -103 34z
M316 633l-24 -33l-175 77l41 60z" />
    <glyph glyph-name="oacute" unicode="&#xf3;" 
d="M291 531q158 0 206 -58q41 -50 41 -211q0 -160 -41 -210q-48 -58 -206 -58t-206 58q-41 50 -41 210q0 161 41 211q48 58 206 58zM291 435q-80 0 -102 -34q-19 -30 -19 -140q0 -109 19 -138q21 -33 102 -33q82 0 103 33q18 28 18 138q0 112 -18 140q-22 34 -103 34z
M425 737l41 -60l-175 -77l-24 33z" />
    <glyph glyph-name="ocircumflex" unicode="&#xf4;" 
d="M291 531q158 0 206 -58q41 -50 41 -211q0 -160 -41 -210q-48 -58 -206 -58t-206 58q-41 50 -41 210q0 161 41 211q48 58 206 58zM291 435q-80 0 -102 -34q-19 -30 -19 -140q0 -109 19 -138q21 -33 102 -33q82 0 103 33q18 28 18 138q0 112 -18 140q-22 34 -103 34z
M291 706l161 -106l-23 -36l-138 61l-138 -61l-22 36z" />
    <glyph glyph-name="otilde" unicode="&#xf5;" 
d="M291 531q158 0 206 -58q41 -50 41 -211q0 -160 -41 -210q-48 -58 -206 -58t-206 58q-41 50 -41 210q0 161 41 211q48 58 206 58zM291 435q-80 0 -102 -34q-19 -30 -19 -140q0 -109 19 -138q21 -33 102 -33q82 0 103 33q18 28 18 138q0 112 -18 140q-22 34 -103 34z
M424 703l37 -23q-76 -74 -134 -78q-24 -2 -56.5 18t-45.5 19q-27 -2 -64 -37l-37 25q73 71 132 75q20 1 54 -18.5t48 -18.5q25 1 66 38z" />
    <glyph glyph-name="odieresis" unicode="&#xf6;" 
d="M291 531q158 0 206 -58q41 -50 41 -211q0 -160 -41 -210q-48 -58 -206 -58t-206 58q-41 50 -41 210q0 161 41 211q48 58 206 58zM291 435q-81 0 -102 -34q-19 -29 -19 -140q0 -109 19 -138q21 -33 102 -33t103 33q18 29 18 138q0 111 -18 140q-22 34 -103 34zM239 695
h-99v-88h99v88zM443 695h-99v-88h99v88z" />
    <glyph glyph-name="divide" unicode="&#xf7;" horiz-adv-x="584" 
d="M50 235v96h484v-96h-484zM233 41v118h118v-118h-118zM233 407v118h118v-118h-118z" />
    <glyph glyph-name="oslash" unicode="&#xf8;" 
d="M581 539v-81l-54 -42q11 -35 11 -118q0 -124 -10 -171q-14 -70 -63 -100q-53 -33 -169 -33q-162 0 -208 58l-86 -73v79l56 49q-14 50 -14 156q0 162 42 212q47 56 206 56q160 0 206 -58zM412 275l-1 51l-224 -198q7 -27 47 -34q18 -4 64 -4q47 0 66 8q27 12 37 50
q13 48 11 127zM171 196l228 199q-6 28 -48 36q-19 4 -66 4q-51 0 -72 -10q-30 -15 -37 -59t-6 -118z" />
    <glyph glyph-name="ugrave" unicode="&#xf9;" horiz-adv-x="593" 
d="M530 0h-122v81h-4q-36 -87 -166 -87q-176 0 -176 151v380h126v-331q0 -61 14 -80q17 -24 74 -24q70 0 99 30.5t29 101.5v303h126v-525zM316 600l-24 -33l-175 77l41 60z" />
    <glyph glyph-name="uacute" unicode="&#xfa;" horiz-adv-x="593" 
d="M530 0h-122v81h-4q-36 -87 -166 -87q-176 0 -176 151v380h126v-331q0 -61 14 -80q17 -24 74 -24q70 0 99 30.5t29 101.5v303h126v-525zM425 703l41 -60l-175 -77l-24 33z" />
    <glyph glyph-name="ucircumflex" unicode="&#xfb;" horiz-adv-x="593" 
d="M530 0h-122v81h-4q-36 -87 -166 -87q-176 0 -176 151v380h126v-331q0 -61 14 -80q17 -24 74 -24q71 0 99.5 31t28.5 101v303h126v-525zM277 742l178 -108l-25 -50l-153 63l-154 -63l-24 50z" />
    <glyph glyph-name="udieresis" unicode="&#xfc;" horiz-adv-x="593" 
d="M530 0h-122v81h-4q-36 -87 -166 -87q-176 0 -176 151v380h126v-331q0 -61 14 -80q17 -24 74 -24q71 0 99.5 31t28.5 101v303h126v-525zM244 695h-99v-88h99v88zM448 695h-99v-88h99v88z" />
    <glyph glyph-name="yacute" unicode="&#xfd;" horiz-adv-x="485" 
d="M490 525l-136 -546q-28 -113 -56 -151q-45 -61 -144 -61q-9 0 -27 2t-27 2v95l27 -3q52 0 77 46q13 24 25 91h-61l-173 525h130l133 -447h2l102 447h128zM377 693l41 -60l-175 -77l-24 33z" />
    <glyph glyph-name="thorn" unicode="&#xfe;" horiz-adv-x="596" 
d="M312 90q67 0 89.5 30t22.5 127q0 108 -13 139q-21 49 -99 49q-88 0 -111 -47q-15 -30 -15 -141q0 -89 22 -120q26 -37 104 -37zM60 -227v977h126v-304h2q36 85 161 85q132 0 174 -82q27 -53 27 -202q0 -132 -33 -184q-43 -69 -168 -69q-126 0 -158 76h-5v-297h-126z" />
    <glyph glyph-name="ydieresis" unicode="&#xff;" horiz-adv-x="485" 
d="M490 525l-136 -546q-28 -112 -56 -151q-45 -61 -144 -61q-10 0 -27 2q-21 2 -27 2v95l27 -3q52 0 77 46q13 25 25 91h-61l-173 525h130l133 -447h2l102 447h128zM190 695h-99v-88h99v88zM394 695h-99v-88h99v88z" />
    <glyph glyph-name="glyph271" unicode="&#x102;" horiz-adv-x="709" 
d="M517 142h-324l-47 -142h-149l249 750h212l254 -750h-146zM485 251l-129 389h-2l-128 -389h259zM202 909l54 5q12 -65 99 -65q86 0 98 65l57 -5q-4 -59 -51 -91q-42 -28 -104 -28t-103 28q-46 32 -50 91z" />
    <glyph glyph-name="glyph272" unicode="&#x103;" horiz-adv-x="589" 
d="M284 236q-62 0 -81 -9q-34 -16 -34 -66q0 -53 26 -68q22 -13 89 -13q61 0 83 12q33 18 33 69q0 49 -35 65q-22 10 -81 10zM400 0l5 66h-3q-17 -46 -68 -62q-32 -10 -95 -10q-101 0 -145 32q-51 37 -51 135q0 94 53 131q44 30 143 30q63 0 91 -8q46 -13 66 -52h4v68
q0 68 -17 89q-21 26 -95 26q-50 0 -70 -11q-29 -16 -29 -62h-126q0 103 68 137q44 22 157 22q135 0 182 -35q56 -41 56 -167v-329h-126zM150 683l49 5q10 -59 89 -59q78 0 88 59l52 -5q-4 -53 -47 -81q-38 -26 -93 -26t-92 26q-42 28 -46 81z" />
    <glyph glyph-name="Cacute" unicode="&#x106;" horiz-adv-x="711" 
d="M655 499h-144v41q0 62 -33 79q-27 14 -127 14q-109 0 -139.5 -30.5t-30.5 -140.5v-166q0 -115 29.5 -147t140.5 -32q98 0 128 15q40 22 40 96v41h144v-49q0 -107 -40 -157q-33 -44 -108 -57q-37 -7 -164 -12q-190 -8 -256 62q-58 61 -58 234v172q0 174 74 237
q67 57 240 57q169 0 222 -27q82 -42 82 -189v-41zM428 998l45 -82l-194 -86l-27 52z" />
    <glyph glyph-name="cacute" unicode="&#x107;" horiz-adv-x="441" 
d="M394 200h126q0 -125 -53 -167q-48 -39 -186 -39q-143 0 -190 55q-45 52 -45 213q0 150 40 204q49 65 195 65q129 0 178 -33q61 -40 61 -157h-126q0 59 -22.5 76.5t-90.5 17.5q-76 0 -95 -36q-14 -27 -14 -137q0 -109 13 -135q18 -37 96 -37q75 0 95 21q18 18 18 89z
M229 743l45 -82l-194 -86l-27 52z" />
    <glyph glyph-name="Ccaron" unicode="&#x10c;" horiz-adv-x="711" 
d="M655 499h-144v41q0 62 -33 79q-27 14 -127 14q-109 0 -139.5 -30.5t-30.5 -140.5v-166q0 -115 29.5 -147t140.5 -32q98 0 128 15q40 22 40 96v41h144v-49q0 -107 -40 -157q-33 -44 -108 -57q-37 -7 -164 -12q-190 -8 -256 62q-58 61 -58 234v172q0 174 74 237
q67 57 240 57q169 0 222 -27q82 -42 82 -189v-41zM430 839l-178 108l24 50l154 -63l153 63l25 -50z" />
    <glyph glyph-name="ccaron" unicode="&#x10d;" horiz-adv-x="441" 
d="M394 200h126q0 -125 -53 -167q-48 -39 -186 -39q-143 0 -190 55q-45 52 -45 213q0 150 40 204q49 65 195 65q129 0 178 -33q61 -40 61 -157h-126q0 59 -22.5 76.5t-90.5 17.5q-76 0 -95 -36q-14 -27 -14 -137q0 -109 13 -135q18 -37 96 -37q75 0 95 21q18 18 18 89z
M231 584l-178 108l24 50l154 -63l153 63l25 -50z" />
    <glyph glyph-name="Dslash" unicode="&#x110;" horiz-adv-x="754" 
d="M206 627v-187h125v-109h-125v-208h238q68 0 100 54q27 45 27 117v177q0 88 -32 122t-119 34h-214zM62 440v310h358q155 0 223 -62q72 -65 72 -217v-177q0 -147 -60 -217q-65 -77 -211 -77h-382v331h-91v109h91z" />
    <glyph glyph-name="dcroat" unicode="&#x111;" horiz-adv-x="593" 
d="M279 435q-75 0 -97 -43q-15 -29 -15 -114q0 -108 13 -139q21 -49 99 -49q88 0 110 47q14 30 14 141q0 86 -19 116q-25 41 -105 41zM405 568h-127v96h127v86h126v-86h49v-96h-49v-568h-126l5 79h-4q-39 -85 -164 -85q-132 0 -174 82q-27 53 -27 202q0 131 33 184
q43 69 168 69q126 0 158 -76h5v113z" />
    <glyph glyph-name="Gbreve" unicode="&#x11e;" horiz-adv-x="767" 
d="M354 398h333v-136q0 -166 -61.5 -217t-261.5 -51q-189 0 -255 53q-75 60 -75 243v172q0 179 78 241q67 53 252 53q124 0 166 -7q79 -12 115 -58q43 -54 41 -167h-143q0 76 -43 96q-28 13 -136 13q-124 0 -155 -30t-31 -141v-172q0 -116 32 -144.5t154 -28.5q112 0 141 19
q38 26 38 126v27h-189v109zM271 983h66q6 -37 35.5 -61.5t68.5 -24.5q38 0 67.5 24.5t35.5 61.5h66q-5 -66 -54 -113t-115 -47q-67 0 -116 47t-54 113z" />
    <glyph glyph-name="gbreve" unicode="&#x11f;" horiz-adv-x="492" 
d="M280 435q-67 0 -89.5 -30t-22.5 -127q0 -106 14 -139q22 -49 98 -49q87 0 110 47q16 32 16 141q0 89 -22 121q-26 36 -104 36zM410 -25v100h-3q-39 -81 -164 -81t-168 69q-33 52 -33 184q0 149 27 202q42 82 174 82q125 0 164 -85h4l-5 79h126v-524q0 -140 -53 -187
t-199 -47q-111 0 -159 31q-63 40 -57 148h118q0 -52 21 -67.5t77 -15.5q80 0 105 22t25 90zM71 728h66q6 -37 35.5 -61.5t68.5 -24.5q38 0 67.5 24.5t35.5 61.5h66q-5 -66 -54 -113t-115 -47q-67 0 -116 47t-54 113z" />
    <glyph glyph-name="glyph273" unicode="&#x128;" horiz-adv-x="276" 
d="M210 750v-750h-144v750h144zM283 928l41 -26q-86 -82 -149 -86q-26 -2 -62.5 20t-50.5 21q-29 -2 -72 -41l-41 27q81 79 147 84q23 2 60.5 -20.5t52.5 -21.5q29 2 74 43z" />
    <glyph glyph-name="glyph274" unicode="&#x129;" horiz-adv-x="236" 
d="M181 525v-525h-126v525h126zM250 691l37 -23q-76 -74 -134 -78q-24 -2 -56.5 18t-45.5 19q-27 -2 -64 -37l-37 25q73 71 132 75q20 1 54 -18.5t48 -18.5q25 1 66 38z" />
    <glyph glyph-name="Idotaccent" unicode="&#x130;" horiz-adv-x="429" 
d="M210 750v-750h-144v750h144zM201 950v-88h-99v88h99z" />
    <glyph glyph-name="dotlessi" unicode="&#x131;" horiz-adv-x="236" 
d="M181 525v-525h-126v525h126z" />
    <glyph glyph-name="Lslash" unicode="&#x141;" horiz-adv-x="565" 
d="M210 406v-283h350v-123h-494v287l-80 -75v114l80 74v350h144v-232l161 148v-112z" />
    <glyph glyph-name="lslash" unicode="&#x142;" horiz-adv-x="272" 
d="M199 423v-423h-126v319l-73 -69v88l73 68v344h126v-239l73 67v-88z" />
    <glyph glyph-name="OE" unicode="&#x152;" horiz-adv-x="1105" 
d="M363 117q125 0 158.5 30t33.5 141v174q0 113 -33 142t-159 29q-116 0 -151 -32q-29 -27 -29 -109v-202q0 -118 29.5 -145.5t150.5 -27.5zM699 627v-192h347v-109h-347v-203h369v-123h-504l3 81h-3q-32 -54 -93 -73q-44 -14 -128 -14q-178 0 -241 63t-63 233v202
q0 147 73 207q69 57 231 57q81 0 123 -12q73 -20 98 -79h3l-3 85h501v-123h-366z" />
    <glyph glyph-name="oe" unicode="&#x153;" horiz-adv-x="931" 
d="M285 435q-82 0 -100.5 -27t-18.5 -146q0 -112 21 -142t98 -30q80 0 99.5 29t19.5 143q0 122 -18 147.5t-101 25.5zM40 262q0 152 35 201q49 68 213 68q157 0 180 -72h2q30 72 176 72q157 0 204 -60q41 -54 41 -232h-361q0 -93 16 -117q20 -32 100 -32q65 0 86 9
q33 15 33 68h126q0 -113 -66 -148q-47 -25 -179 -25q-70 0 -105 11q-52 16 -71 64h-3q-22 -50 -75 -66q-32 -9 -104 -9q-155 0 -204 58q-44 51 -44 210zM530 319h235q0 79 -21 99q-19 17 -98 17q-78 0 -99 -23q-17 -19 -17 -93z" />
    <glyph glyph-name="Scedilla" unicode="&#x15e;" horiz-adv-x="656" 
d="M33 239h144v-35q0 -62 35 -78q29 -14 135 -14q95 0 124 23q25 20 25 88q0 51 -19 72q-16 18 -56 22q-47 3 -94 5q-114 7 -147 13q-71 15 -104 57q-39 50 -39 152q0 140 88 183q58 29 222 29q144 0 196 -27q82 -42 82 -175v-24h-144v24q0 57 -29 72q-22 12 -105 12
q-107 0 -136.5 -17t-29.5 -77q0 -67 28 -83q24 -14 137 -21q186 -11 234 -42q60 -39 60 -175q0 -147 -74 -194q-56 -35 -219 -35q-164 0 -219 24q-95 42 -95 186v35zM228 -12l44 -63l-131 -52l-27 46z" />
    <glyph glyph-name="scedilla" unicode="&#x15f;" horiz-adv-x="383" 
d="M507 382h-126q0 43 -25 55q-16 8 -75 8q-62 0 -82 -9q-31 -13 -31 -60q0 -38 21 -47q18 -8 103 -12q129 -6 164 -22q70 -32 70 -145q0 -97 -73 -131q-52 -25 -172 -25q-131 0 -173 21q-66 34 -66 150h126q2 -61 31 -76q17 -9 82 -9q68 0 88 8q31 13 31 62q0 40 -17 52
q-25 18 -113 19q-144 2 -186 32t-42 131q0 97 69 128q44 19 170 19q107 0 152 -19q74 -33 74 -130zM131 -12l44 -63l-131 -52l-27 46z" />
    <glyph glyph-name="Scaron" unicode="&#x160;" horiz-adv-x="673" 
d="M33 239h144v-35q0 -62 35 -78q29 -14 135 -14q95 0 124 23q25 20 25 88q0 51 -19 72q-16 18 -56 22q-47 3 -94 5q-114 7 -147 13q-71 15 -104 57q-39 50 -39 152q0 140 88 183q58 29 222 29q144 0 196 -27q82 -42 82 -175v-24h-144v24q0 57 -29 72q-22 12 -105 12
q-107 0 -136.5 -17t-29.5 -77q0 -67 28 -83q24 -14 137 -21q186 -11 234 -42q60 -39 60 -175q0 -147 -74 -194q-56 -35 -219 -35q-164 0 -219 24q-95 42 -95 186v35zM337 809l-178 108l24 50l154 -63l153 63l25 -50z" />
    <glyph glyph-name="scaron" unicode="&#x161;" horiz-adv-x="557" 
d="M507 382h-126q0 43 -25 55q-16 8 -75 8q-62 0 -82 -9q-31 -13 -31 -60q0 -38 21 -47q18 -8 103 -12q129 -6 164 -22q70 -32 70 -145q0 -97 -73 -131q-52 -25 -172 -25q-131 0 -173 21q-66 34 -66 150h126q2 -61 31 -76q17 -9 82 -9q68 0 88 8q31 13 31 62q0 40 -17 52
q-25 18 -113 19q-144 2 -186 32t-42 131q0 97 69 128q44 19 170 19q107 0 152 -19q74 -33 74 -130zM279 584l-178 108l24 50l154 -63l153 63l25 -50z" />
    <glyph glyph-name="ch903" unicode="&#x168;" horiz-adv-x="754" 
d="M545 750h144v-533q0 -143 -88 -190q-62 -33 -225 -33q-159 0 -221 33q-90 48 -90 190v533h144v-533q0 -69 53 -89q28 -11 114 -11t115 11q54 20 54 89v533zM525 903l41 -26q-86 -82 -149 -86q-26 -2 -62.5 20t-50.5 21q-29 -2 -72 -41l-41 27q81 79 147 84
q23 2 60.5 -20.5t52.5 -21.5q29 2 74 43z" />
    <glyph glyph-name="ch904" unicode="&#x169;" horiz-adv-x="593" 
d="M530 0h-122v81h-4q-36 -87 -166 -87q-176 0 -176 151v380h126v-331q0 -61 14 -80q17 -24 74 -24q70 0 99 30.5t29 101.5v303h126v-525zM424 678l37 -23q-76 -74 -134 -78q-24 -2 -56.5 18t-45.5 19q-27 -2 -64 -37l-37 25q73 71 132 75q20 1 54 -18.5t48 -18.5
q25 1 66 38z" />
    <glyph glyph-name="Ydieresis" unicode="&#x178;" horiz-adv-x="670" 
d="M681 750l-277 -462v-288h-144v288l-271 462h164l178 -320h3l181 320h166zM283 920h-99v-88h99v88zM487 920h-99v-88h99v88z" />
    <glyph glyph-name="Zcaron" unicode="&#x17d;" horiz-adv-x="648" 
d="M618 750v-123l-415 -504h420v-123h-598v122l412 505h-394v123h575zM324 809l-178 108l24 50l154 -63l153 63l25 -50z" />
    <glyph glyph-name="zcaron" unicode="&#x17e;" horiz-adv-x="475" 
d="M452 420l-283 -324h283v-96h-429v108l280 321h-258v96h407v-105zM238 584l-178 108l24 50l154 -63l153 63l25 -50z" />
    <glyph glyph-name="florin" unicode="&#x192;" horiz-adv-x="705" 
d="M627 756l-17 -96q-74 0 -94 -11q-28 -16 -40 -80l-15 -83h118l-16 -96h-118l-82 -462q-20 -111 -86 -141q-46 -20 -199 -20l17 96q90 0 109 12t31 77l78 438h-90l16 96h90l15 83q17 94 47 133t89 48q34 6 147 6z" />
    <glyph glyph-name="glyph277" unicode="&#x1a0;" horiz-adv-x="715" 
d="M356 633q-112 0 -145 -31q-28 -27 -28 -120v-202q0 -108 33 -137q30 -26 140 -26q104 0 137 27q39 32 39 136v202q0 99 -40 128q-32 23 -136 23zM543 736q78 5 88 33q2 6 2 13q0 20 -20 28q6 2 14 2q23 0 41.5 -15t18.5 -37q0 -43 -78 -60h-1q68 -59 68 -218v-202
q0 -173 -75 -233q-66 -53 -245 -53q-182 0 -245 51q-72 59 -72 235v202q0 171 75 227q63 47 242 47q127 0 187 -20z" />
    <glyph glyph-name="glyph278" unicode="&#x1a1;" 
d="M291 435q-80 0 -102 -34q-19 -30 -19 -140q0 -109 19 -138q21 -33 102 -33q82 0 103 33q18 28 18 138q0 112 -18 140q-22 34 -103 34zM425 517l66 9q23 11 23 32q0 20 -21 28q6 2 14 2q23 0 41.5 -15t18.5 -37q0 -43 -73 -59q44 -50 44 -215q0 -160 -41 -210
q-48 -58 -206 -58t-206 58q-41 50 -41 210q0 161 41 211q48 58 206 58q86 0 134 -14z" />
    <glyph glyph-name="glyph279" unicode="&#x1af;" horiz-adv-x="754" 
d="M689 700v-483q0 -143 -88 -190q-62 -33 -225 -33q-159 0 -221 33q-90 48 -90 190v533h144v-533q0 -69 53 -89q28 -11 114 -11t115 11q54 20 54 89v533h145q23 11 23 32q0 20 -21 28q6 2 14 2q23 0 41.5 -15t18.5 -37q0 -44 -77 -60z" />
    <glyph glyph-name="glyph280" unicode="&#x1b0;" horiz-adv-x="593" 
d="M530 475v-475h-122v81h-4q-36 -87 -166 -87q-176 0 -176 151v380h126v-331q0 -61 14 -80q17 -24 74 -24q70 0 99 30.5t29 101.5v303h125q23 11 23 32q0 20 -21 28q6 2 14 2q23 0 41.5 -15t18.5 -37q0 -41 -75 -60z" />
    <glyph glyph-name="circumflex" unicode="&#x2c6;" horiz-adv-x="506" 
d="M253 742l178 -108l-25 -50l-153 63l-154 -63l-24 50z" />
    <glyph glyph-name="caron" unicode="&#x2c7;" horiz-adv-x="506" 
d="M253 584l-178 108l24 50l154 -63l153 63l25 -50z" />
    <glyph glyph-name="breve" unicode="&#x2d8;" horiz-adv-x="489" 
d="M75 728h66q6 -37 35.5 -61.5t68.5 -24.5q38 0 67.5 24.5t35.5 61.5h66q-5 -66 -54 -113t-115 -47q-67 0 -116 47t-54 113z" />
    <glyph glyph-name="dotaccent" unicode="&#x2d9;" horiz-adv-x="249" 
d="M174 695v-88h-99v88h99z" />
    <glyph glyph-name="ring" unicode="&#x2da;" horiz-adv-x="334" 
d="M75 656q0 38 27 65t65 27t65 -27t27 -65t-27 -65t-65 -27t-65 27t-27 65zM120 656q0 -19 14 -33t33 -14q20 0 33.5 14t13.5 33q0 20 -13.5 33.5t-33.5 13.5q-19 0 -33 -13.5t-14 -33.5z" />
    <glyph glyph-name="ogonek" unicode="&#x2db;" horiz-adv-x="313" 
d="M151 4h87v-8q-97 -45 -97 -87q0 -40 48 -40q23 0 48 12v-65q-33 -11 -56 -11q-43 0 -73 22q-33 25 -33 67q0 62 76 110z" />
    <glyph glyph-name="tilde" unicode="&#x2dc;" horiz-adv-x="537" 
d="M400 704v0l62 -34q-49 -87 -116 -87q-31 0 -83 27.5t-70 27.5q-32 0 -54 -42l-64 35q47 85 115 85q28 0 81.5 -28.5t72.5 -28.5q30 0 56 45z" />
    <glyph glyph-name="hungarumlaut" unicode="&#x2dd;" horiz-adv-x="538" 
d="M201 761l70 -63l-153 -146l-43 39zM392 761l71 -63l-153 -146l-44 39z" />
    <glyph glyph-name="glyph281" unicode="&#x1ea0;" horiz-adv-x="709" 
d="M517 142h-324l-47 -142h-149l249 750h212l254 -750h-146zM485 251l-129 389h-2l-128 -389h259zM417 -30v-97h-126v97h126z" />
    <glyph glyph-name="glyph282" unicode="&#x1ea1;" horiz-adv-x="589" 
d="M284 236q-62 0 -81 -9q-34 -16 -34 -66q0 -53 26 -68q22 -13 89 -13q61 0 83 12q33 18 33 69q0 49 -35 65q-22 10 -81 10zM400 0l5 66h-3q-17 -46 -68 -62q-32 -10 -95 -10q-101 0 -145 32q-51 37 -51 135q0 94 53 131q44 30 143 30q63 0 91 -8q46 -13 66 -52h4v68
q0 68 -17 89q-21 26 -95 26q-50 0 -70 -11q-29 -16 -29 -62h-126q0 103 68 137q44 22 157 22q135 0 182 -35q56 -41 56 -167v-329h-126zM345 -59v-87h-114v87h114z" />
    <glyph glyph-name="glyph283" unicode="&#x1ea2;" horiz-adv-x="709" 
d="M517 142h-324l-47 -142h-149l249 750h212l254 -750h-146zM485 251l-129 389h-2l-128 -389h259zM282 928q0 46 19 60q16 13 64 13q98 0 90 -79q-2 -24 -8 -32q-9 -13 -35 -26q-35 -17 -35 -40v-3l-22 -19l-20 19v3q0 26 9 39t57 40q8 8 8 26q0 23 -8 28t-33 5
q-32 0 -36 -2q-10 -3 -9 -24l11 -29z" />
    <glyph glyph-name="glyph284" unicode="&#x1ea3;" horiz-adv-x="589" 
d="M284 236q-62 0 -81 -9q-34 -16 -34 -66q0 -53 26 -68q22 -13 89 -13q61 0 83 12q33 18 33 69q0 49 -35 65q-22 10 -81 10zM400 0l5 66h-3q-17 -46 -68 -62q-32 -10 -95 -10q-101 0 -145 32q-51 37 -51 135q0 94 53 131q44 30 143 30q63 0 91 -8q46 -13 66 -52h4v68
q0 68 -17 89q-21 26 -95 26q-50 0 -70 -11q-29 -16 -29 -62h-126q0 103 68 137q44 22 157 22q135 0 182 -35q56 -41 56 -167v-329h-126zM214 716q0 46 19 60q16 13 64 13q98 0 90 -79q-2 -24 -8 -32q-9 -13 -35 -26q-35 -17 -35 -40v-3l-22 -19l-20 19v3q0 26 9 39t57 40
q8 8 8 26q0 23 -8 28t-33 5q-32 0 -36 -2q-10 -3 -9 -24l11 -29z" />
    <glyph glyph-name="glyph285" unicode="&#x1ea4;" horiz-adv-x="709" 
d="M517 142h-324l-47 -142h-149l249 750h212l254 -750h-146zM485 251l-129 389h-2l-128 -389h259zM356 926l178 -118l-25 -40l-153 68l-154 -68l-24 40zM686 989l45 -67l-194 -86l-27 37z" />
    <glyph glyph-name="glyph286" unicode="&#x1ea5;" horiz-adv-x="589" 
d="M284 236q-62 0 -81 -9q-34 -16 -34 -66q0 -53 26 -68q22 -13 89 -13q61 0 83 12q33 18 33 69q0 49 -35 65q-22 10 -81 10zM400 0l5 66h-3q-17 -46 -68 -62q-32 -10 -95 -10q-101 0 -145 32q-51 37 -51 135q0 94 53 131q44 30 143 30q63 0 91 -8q46 -13 66 -52h4v68
q0 68 -17 89q-21 26 -95 26q-50 0 -70 -11q-29 -16 -29 -62h-126q0 103 68 137q44 22 157 22q135 0 182 -35q56 -41 56 -167v-329h-126zM287 706l160 -106l-22 -36l-138 61l-138 -61l-22 36zM584 762l41 -60l-175 -77l-24 33z" />
    <glyph glyph-name="glyph287" unicode="&#x1ea6;" horiz-adv-x="709" 
d="M517 142h-324l-47 -142h-149l249 750h212l254 -750h-146zM485 251l-129 389h-2l-128 -389h259zM356 926l178 -118l-25 -40l-153 68l-154 -68l-24 40zM202 873l-27 -37l-194 86l45 67z" />
    <glyph glyph-name="glyph288" unicode="&#x1ea7;" horiz-adv-x="589" 
d="M284 236q-62 0 -81 -9q-34 -16 -34 -66q0 -53 26 -68q22 -13 89 -13q61 0 83 12q33 18 33 69q0 49 -35 65q-22 10 -81 10zM400 0l5 66h-3q-17 -46 -68 -62q-32 -10 -95 -10q-101 0 -145 32q-51 37 -51 135q0 94 53 131q44 30 143 30q63 0 91 -8q46 -13 66 -52h4v68
q0 68 -17 89q-21 26 -95 26q-50 0 -70 -11q-29 -16 -29 -62h-126q0 103 68 137q44 22 157 22q135 0 182 -35q56 -41 56 -167v-329h-126zM287 706l161 -106l-23 -36l-138 61l-138 -61l-22 36zM149 658l-24 -33l-175 77l41 60z" />
    <glyph glyph-name="glyph289" unicode="&#x1ea8;" horiz-adv-x="709" 
d="M517 142h-324l-47 -142h-149l249 750h212l254 -750h-146zM485 251l-129 389h-2l-128 -389h259zM356 926l178 -118l-25 -40l-153 68l-154 -68l-24 40zM469 962q0 46 19 60q16 13 64 13q98 0 90 -79q-2 -24 -8 -32q-9 -13 -35 -26q-35 -17 -35 -40v-3l-22 -19l-20 19v3
q0 26 9 39t57 40q8 8 8 26q0 23 -8 28t-33 5q-32 0 -36 -2q-10 -3 -9 -24l11 -29z" />
    <glyph glyph-name="glyph290" unicode="&#x1ea9;" horiz-adv-x="589" 
d="M284 236q-62 0 -81 -9q-34 -16 -34 -66q0 -53 26 -68q22 -13 89 -13q61 0 83 12q33 18 33 69q0 49 -35 65q-22 10 -81 10zM400 0l5 66h-3q-17 -46 -68 -62q-32 -10 -95 -10q-101 0 -145 32q-51 37 -51 135q0 94 53 131q44 30 143 30q63 0 91 -8q46 -13 66 -52h4v68
q0 68 -17 89q-21 26 -95 26q-50 0 -70 -11q-29 -16 -29 -62h-126q0 103 68 137q44 22 157 22q135 0 182 -35q56 -41 56 -167v-329h-126zM288 706l160 -106l-22 -36l-138 61l-139 -61l-21 36zM401 753q0 46 19 60q16 13 64 13q98 0 90 -79q-2 -24 -8 -32q-9 -13 -35 -26
q-35 -17 -35 -40v-3l-22 -19l-20 19v3q0 26 9 39t57 40q8 8 8 26q0 23 -8 28t-33 5q-32 0 -36 -2q-10 -3 -9 -24l11 -29z" />
    <glyph glyph-name="glyph291" unicode="&#x1eaa;" horiz-adv-x="709" 
d="M517 142h-324l-47 -142h-149l249 750h212l254 -750h-146zM485 251l-129 389h-2l-128 -389h259zM356 926l178 -118l-25 -40l-153 68l-154 -68l-24 40zM504 1062l41 -26q-86 -82 -149 -86q-26 -2 -62.5 20t-50.5 21q-29 -2 -72 -41l-41 27q81 79 147 84q23 2 60.5 -20.5
t52.5 -21.5q29 2 74 43z" />
    <glyph glyph-name="glyph292" unicode="&#x1eab;" horiz-adv-x="589" 
d="M284 236q-62 0 -81 -9q-34 -16 -34 -66q0 -53 26 -68q22 -13 89 -13q61 0 83 12q33 18 33 69q0 49 -35 65q-22 10 -81 10zM400 0l5 66h-3q-17 -46 -68 -62q-32 -10 -95 -10q-101 0 -145 32q-51 37 -51 135q0 94 53 131q44 30 143 30q63 0 91 -8q46 -13 66 -52h4v68
q0 68 -17 89q-21 26 -95 26q-50 0 -70 -11q-29 -16 -29 -62h-126q0 103 68 137q44 22 157 22q135 0 182 -35q56 -41 56 -167v-329h-126zM287 706l160 -106l-22 -36l-138 61l-139 -61l-21 36zM420 828l37 -23q-76 -74 -134 -78q-24 -2 -56.5 18t-45.5 19q-27 -2 -64 -37
l-37 25q73 71 132 75q20 1 54 -18.5t48 -18.5q25 1 66 38z" />
    <glyph glyph-name="glyph293" unicode="&#x1eac;" horiz-adv-x="709" 
d="M517 142h-324l-47 -142h-149l249 750h212l254 -750h-146zM485 251l-129 389h-2l-128 -389h259zM356 926l178 -118l-25 -40l-153 68l-154 -68l-24 40zM417 -30v-97h-126v97h126z" />
    <glyph glyph-name="glyph294" unicode="&#x1ead;" horiz-adv-x="589" 
d="M284 236q-62 0 -81 -9q-34 -16 -34 -66q0 -53 26 -68q22 -13 89 -13q61 0 83 12q33 18 33 69q0 49 -35 65q-22 10 -81 10zM400 0l5 66h-3q-17 -46 -68 -62q-32 -10 -95 -10q-101 0 -145 32q-51 37 -51 135q0 94 53 131q44 30 143 30q63 0 91 -8q46 -13 66 -52h4v68
q0 68 -17 89q-21 26 -95 26q-50 0 -70 -11q-29 -16 -29 -62h-126q0 103 68 137q44 22 157 22q135 0 182 -35q56 -41 56 -167v-329h-126zM287 706l161 -106l-23 -36l-138 61l-138 -61l-22 36zM345 -59v-87h-114v87h114z" />
    <glyph glyph-name="glyph295" unicode="&#x1eae;" horiz-adv-x="709" 
d="M517 142h-324l-47 -142h-149l249 750h212l254 -750h-146zM485 251l-129 389h-2l-128 -389h259zM202 909l54 5q12 -65 99 -65q86 0 98 65l57 -5q-4 -59 -51 -91q-42 -28 -104 -28t-103 28q-46 32 -50 91zM504 1069l45 -67l-194 -86l-27 37z" />
    <glyph glyph-name="glyph296" unicode="&#x1eaf;" horiz-adv-x="589" 
d="M284 236q-62 0 -81 -9q-34 -16 -34 -66q0 -53 26 -68q22 -13 89 -13q61 0 83 12q33 18 33 69q0 49 -35 65q-22 10 -81 10zM400 0l5 66h-3q-17 -46 -68 -62q-32 -10 -95 -10q-101 0 -145 32q-51 37 -51 135q0 94 53 131q44 30 143 30q63 0 91 -8q46 -13 66 -52h4v68
q0 68 -17 89q-21 26 -95 26q-50 0 -70 -11q-29 -16 -29 -62h-126q0 103 68 137q44 22 157 22q135 0 182 -35q56 -41 56 -167v-329h-126zM150 683l49 5q10 -59 89 -59q78 0 88 59l52 -5q-4 -53 -47 -81q-38 -26 -93 -26t-92 26q-42 28 -46 81zM422 827l41 -60l-175 -77
l-24 33z" />
    <glyph glyph-name="glyph297" unicode="&#x1eb0;" horiz-adv-x="709" 
d="M517 142h-324l-47 -142h-149l249 750h212l254 -750h-146zM485 251l-129 389h-2l-128 -389h259zM202 909l54 5q12 -65 99 -65q86 0 98 65l57 -5q-4 -59 -51 -91q-42 -28 -104 -28t-103 28q-46 32 -50 91zM382 952l-27 -37l-194 86l45 67z" />
    <glyph glyph-name="glyph298" unicode="&#x1eb1;" horiz-adv-x="589" 
d="M284 236q-62 0 -81 -9q-34 -16 -34 -66q0 -53 26 -68q22 -13 89 -13q61 0 83 12q33 18 33 69q0 49 -35 65q-22 10 -81 10zM400 0l5 66h-3q-17 -46 -68 -62q-32 -10 -95 -10q-101 0 -145 32q-51 37 -51 135q0 94 53 131q44 30 143 30q63 0 91 -8q46 -13 66 -52h4v68
q0 68 -17 89q-21 26 -95 26q-50 0 -70 -11q-29 -16 -29 -62h-126q0 103 68 137q44 22 157 22q135 0 182 -35q56 -41 56 -167v-329h-126zM150 683l49 5q10 -59 89 -59q78 0 88 59l51 -5q-3 -53 -46 -82q-38 -25 -93 -25t-92 26q-42 28 -46 81zM312 722l-24 -33l-175 77l41 60
z" />
    <glyph glyph-name="glyph299" unicode="&#x1eb2;" horiz-adv-x="709" 
d="M517 142h-324l-47 -142h-149l249 750h212l254 -750h-146zM485 251l-129 389h-2l-128 -389h259zM202 909l54 5q12 -65 99 -65q86 0 98 65l57 -5q-4 -59 -51 -91q-42 -28 -104 -28t-103 28q-46 32 -50 91zM282 1031q0 46 19 60q16 13 64 13q98 0 90 -79q-2 -24 -8 -32
q-9 -13 -35 -26q-35 -17 -35 -40v-3l-22 -19l-20 19v3q0 26 9 39t57 40q8 8 8 26q0 23 -8 28t-33 5q-32 0 -36 -2q-10 -3 -9 -24l11 -29z" />
    <glyph glyph-name="glyph300" unicode="&#x1eb3;" horiz-adv-x="589" 
d="M284 236q-62 0 -81 -9q-34 -16 -34 -66q0 -53 26 -68q22 -13 89 -13q61 0 83 12q33 18 33 69q0 49 -35 65q-22 10 -81 10zM400 0l5 66h-3q-17 -46 -68 -62q-32 -10 -95 -10q-101 0 -145 32q-51 37 -51 135q0 94 53 131q44 30 143 30q63 0 91 -8q46 -13 66 -52h4v68
q0 68 -17 89q-21 26 -95 26q-50 0 -70 -11q-29 -16 -29 -62h-126q0 103 68 137q44 22 157 22q135 0 182 -35q56 -41 56 -167v-329h-126zM149 683l49 5q10 -59 89 -59q78 0 88 59l51 -5q-3 -53 -46 -82q-38 -25 -93 -25t-92 26q-42 28 -46 81zM214 818q0 46 19 60
q16 13 64 13q98 0 90 -79q-2 -24 -8 -32q-9 -13 -35 -26q-35 -17 -35 -40v-3l-22 -19l-20 19v3q0 26 9 39t57 40q8 8 8 26q0 23 -8 28t-33 5q-32 0 -36 -2q-10 -3 -9 -24l11 -29z" />
    <glyph glyph-name="glyph301" unicode="&#x1eb4;" horiz-adv-x="709" 
d="M517 142h-324l-47 -142h-149l249 750h212l254 -750h-146zM485 251l-129 389h-2l-128 -389h259zM202 909l54 5q12 -65 99 -65q86 0 98 65l57 -5q-4 -59 -51 -91q-42 -28 -104 -28t-103 28q-46 32 -50 91zM649 1057l41 -26q-86 -82 -149 -86q-26 -2 -62.5 20t-50.5 21
q-29 -2 -72 -41l-41 27q81 79 147 84q23 2 60.5 -20.5t52.5 -21.5q29 2 74 43z" />
    <glyph glyph-name="glyph302" unicode="&#x1eb5;" horiz-adv-x="589" 
d="M284 236q-62 0 -81 -9q-34 -16 -34 -66q0 -53 26 -68q22 -13 89 -13q61 0 83 12q33 18 33 69q0 49 -35 65q-22 10 -81 10zM400 0l5 66h-3q-17 -46 -68 -62q-32 -10 -95 -10q-101 0 -145 32q-51 37 -51 135q0 94 53 131q44 30 143 30q63 0 91 -8q46 -13 66 -52h4v68
q0 68 -17 89q-21 26 -95 26q-50 0 -70 -11q-29 -16 -29 -62h-126q0 103 68 137q44 22 157 22q135 0 182 -35q56 -41 56 -167v-329h-126zM151 683l48 5q12 -59 89 -59t89 59l51 -5q-4 -53 -47 -81q-38 -26 -93 -26t-92 26q-42 28 -45 81zM553 816l37 -23q-78 -75 -134 -78
q-24 -1 -57 18.5t-45 18.5q-26 -2 -65 -37l-37 25q75 71 133 75q20 1 53.5 -19t47.5 -19q25 1 67 39z" />
    <glyph glyph-name="glyph303" unicode="&#x1eb6;" horiz-adv-x="709" 
d="M517 142h-324l-47 -142h-149l249 750h212l254 -750h-146zM485 251l-129 389h-2l-128 -389h259zM202 909l54 5q12 -65 99 -65q86 0 98 65l57 -5q-4 -59 -51 -91q-42 -28 -104 -28t-103 28q-46 32 -50 91zM417 -30v-97h-126v97h126z" />
    <glyph glyph-name="glyph304" unicode="&#x1eb7;" horiz-adv-x="589" 
d="M284 236q-62 0 -81 -9q-34 -16 -34 -66q0 -53 26 -68q22 -13 89 -13q61 0 83 12q33 18 33 69q0 49 -35 65q-22 10 -81 10zM400 0l5 66h-3q-17 -46 -68 -62q-32 -10 -95 -10q-101 0 -145 32q-51 37 -51 135q0 94 53 131q44 30 143 30q63 0 91 -8q46 -13 66 -52h4v68
q0 68 -17 89q-21 26 -95 26q-50 0 -70 -11q-29 -16 -29 -62h-126q0 103 68 137q44 22 157 22q135 0 182 -35q56 -41 56 -167v-329h-126zM150 683l49 5q10 -59 89 -59q78 0 88 59l52 -5q-4 -53 -47 -81q-38 -26 -93 -26t-92 26q-42 28 -46 81zM345 -59v-87h-114v87h114z" />
    <glyph glyph-name="glyph305" unicode="&#x1eb8;" horiz-adv-x="619" 
d="M200 627v-187h351v-118h-351v-199h373v-123h-517v750h514v-123h-370zM376 -50v-97h-126v97h126z" />
    <glyph glyph-name="glyph306" unicode="&#x1eb9;" horiz-adv-x="570" 
d="M403 167h126q0 -113 -66 -148q-47 -25 -179 -25q-148 0 -198 61q-44 53 -44 206q0 152 42 206q49 64 200 64q158 0 204 -60q41 -53 41 -232h-361q0 -92 16 -117q21 -32 100 -32q66 0 86 9q33 15 33 68zM168 319h235q0 78 -20 97t-99 19q-78 0 -99 -23q-17 -19 -17 -93z
M342 -59v-87h-114v87h114z" />
    <glyph glyph-name="glyph307" unicode="&#x1eba;" horiz-adv-x="619" 
d="M200 627v-187h351v-118h-351v-199h373v-123h-517v750h514v-123h-370zM239 926q0 46 19 60q16 13 64 13q98 0 90 -79q-2 -24 -8 -32q-9 -13 -35 -26q-35 -17 -35 -40v-3l-22 -19l-20 19v3q0 26 9 39t57 40q8 8 8 26q0 23 -8 28t-33 5q-32 0 -36 -2q-10 -3 -9 -24l11 -29z
" />
    <glyph glyph-name="glyph308" unicode="&#x1ebb;" horiz-adv-x="570" 
d="M403 167h126q0 -113 -66 -148q-47 -25 -179 -25q-148 0 -198 61q-44 53 -44 206q0 152 42 206q49 64 200 64q158 0 204 -60q41 -53 41 -232h-361q0 -92 16 -117q21 -32 100 -32q66 0 86 9q33 15 33 68zM168 319h235q0 78 -20 97t-99 19q-78 0 -99 -23q-17 -19 -17 -93z
M211 716q0 46 19 60q16 13 64 13q98 0 90 -79q-2 -24 -8 -32q-9 -13 -35 -26q-35 -17 -35 -40v-3l-22 -19l-20 19v3q0 26 9 39t57 40q8 8 8 26q0 23 -8 28t-33 5q-32 0 -36 -2q-10 -3 -9 -24l11 -29z" />
    <glyph glyph-name="glyph309" unicode="&#x1ebc;" horiz-adv-x="619" 
d="M200 627v-187h351v-118h-351v-199h373v-123h-517v750h514v-123h-370zM460 928l41 -26q-86 -82 -149 -86q-26 -2 -62.5 20t-50.5 21q-29 -2 -72 -41l-41 27q81 79 147 84q23 2 60.5 -20.5t52.5 -21.5q29 2 74 43z" />
    <glyph glyph-name="glyph310" unicode="&#x1ebd;" horiz-adv-x="570" 
d="M403 167h126q0 -113 -66 -148q-47 -25 -179 -25q-148 0 -198 61q-44 53 -44 206q0 152 42 206q49 64 200 64q158 0 204 -60q41 -53 41 -232h-361q0 -92 16 -117q21 -32 100 -32q66 0 86 9q33 15 33 68zM168 319h235q0 78 -20 97t-99 19q-78 0 -99 -23q-17 -19 -17 -93z
M417 703l37 -23q-76 -74 -134 -78q-24 -2 -56.5 18t-45.5 19q-27 -2 -64 -37l-37 25q73 71 132 75q20 1 54 -18.5t48 -18.5q25 1 66 38z" />
    <glyph glyph-name="glyph311" unicode="&#x1ebe;" horiz-adv-x="619" 
d="M200 627v-187h351v-118h-351v-199h373v-123h-517v750h514v-123h-370zM312 936l178 -118l-25 -40l-153 68l-154 -68l-24 40zM642 999l45 -67l-194 -86l-27 37z" />
    <glyph glyph-name="glyph312" unicode="&#x1ebf;" horiz-adv-x="570" 
d="M403 167h126q0 -113 -66 -148q-47 -25 -179 -25q-148 0 -198 61q-44 53 -44 206q0 152 42 206q49 64 200 64q158 0 204 -60q41 -53 41 -232h-361q0 -92 16 -117q21 -32 100 -32q66 0 86 9q33 15 33 68zM168 319h235q0 78 -20 97t-99 19q-78 0 -99 -23q-17 -19 -17 -93z
M284 706l160 -106l-22 -36l-138 61l-138 -61l-22 36zM581 762l41 -60l-175 -77l-24 33z" />
    <glyph glyph-name="glyph313" unicode="&#x1ec0;" horiz-adv-x="619" 
d="M200 627v-187h351v-118h-351v-199h373v-123h-517v750h514v-123h-370zM312 936l178 -118l-25 -40l-153 68l-154 -68l-24 40zM158 883l-27 -37l-194 86l45 67z" />
    <glyph glyph-name="glyph314" unicode="&#x1ec1;" horiz-adv-x="570" 
d="M403 167h126q0 -113 -66 -148q-47 -25 -179 -25q-148 0 -198 61q-44 53 -44 206q0 152 42 206q49 64 200 64q158 0 204 -60q41 -53 41 -232h-361q0 -92 16 -117q21 -32 100 -32q66 0 86 9q33 15 33 68zM168 319h235q0 78 -20 97t-99 19q-78 0 -99 -23q-17 -19 -17 -93z
M284 706l161 -106l-23 -36l-138 61l-138 -61l-22 36zM146 658l-24 -33l-175 77l41 60z" />
    <glyph glyph-name="glyph315" unicode="&#x1ec2;" horiz-adv-x="619" 
d="M200 627v-187h351v-118h-351v-199h373v-123h-517v750h514v-123h-370zM312 936l178 -118l-25 -40l-153 68l-154 -68l-24 40zM425 972q0 46 19 60q16 13 64 13q98 0 90 -79q-2 -24 -8 -32q-9 -13 -35 -26q-35 -17 -35 -40v-3l-22 -19l-20 19v3q0 26 9 39t57 40q8 8 8 26
q0 23 -8 28t-33 5q-32 0 -36 -2q-10 -3 -9 -24l11 -29z" />
    <glyph glyph-name="glyph316" unicode="&#x1ec3;" horiz-adv-x="570" 
d="M403 167h126q0 -113 -66 -148q-47 -25 -179 -25q-148 0 -198 61q-44 53 -44 206q0 152 42 206q49 64 200 64q158 0 204 -60q41 -53 41 -232h-361q0 -92 16 -117q21 -32 100 -32q66 0 86 9q33 15 33 68zM168 319h235q0 78 -20 97t-99 19q-78 0 -99 -23q-17 -19 -17 -93z
M285 706l160 -106l-22 -36l-138 61l-139 -61l-21 36zM398 753q0 46 19 60q16 13 64 13q98 0 90 -79q-2 -24 -8 -32q-9 -13 -35 -26q-35 -17 -35 -40v-3l-22 -19l-20 19v3q0 26 9 39t57 40q8 8 8 26q0 23 -8 28t-33 5q-32 0 -36 -2q-10 -3 -9 -24l11 -29z" />
    <glyph glyph-name="glyph317" unicode="&#x1ec4;" horiz-adv-x="619" 
d="M200 627v-187h351v-118h-351v-199h373v-123h-517v750h514v-123h-370zM312 936l178 -118l-25 -40l-153 68l-154 -68l-24 40zM460 1072l41 -26q-86 -82 -149 -86q-26 -2 -62.5 20t-50.5 21q-29 -2 -72 -41l-41 27q81 79 147 84q23 2 60.5 -20.5t52.5 -21.5q29 2 74 43z" />
    <glyph glyph-name="glyph318" unicode="&#x1ec5;" horiz-adv-x="570" 
d="M403 167h126q0 -113 -66 -148q-47 -25 -179 -25q-148 0 -198 61q-44 53 -44 206q0 152 42 206q49 64 200 64q158 0 204 -60q41 -53 41 -232h-361q0 -92 16 -117q21 -32 100 -32q66 0 86 9q33 15 33 68zM168 319h235q0 78 -20 97t-99 19q-78 0 -99 -23q-17 -19 -17 -93z
M284 706l160 -106l-22 -36l-138 61l-139 -61l-21 36zM417 828l37 -23q-76 -74 -134 -78q-24 -2 -56.5 18t-45.5 19q-27 -2 -64 -37l-37 25q73 71 132 75q20 1 54 -18.5t48 -18.5q25 1 66 38z" />
    <glyph glyph-name="glyph319" unicode="&#x1ec6;" horiz-adv-x="619" 
d="M200 627v-187h351v-118h-351v-199h373v-123h-517v750h514v-123h-370zM312 936l178 -118l-25 -40l-153 68l-154 -68l-24 40zM376 -50v-97h-126v97h126z" />
    <glyph glyph-name="glyph320" unicode="&#x1ec7;" horiz-adv-x="570" 
d="M403 167h126q0 -113 -66 -148q-47 -25 -179 -25q-148 0 -198 61q-44 53 -44 206q0 152 42 206q49 64 200 64q158 0 204 -60q41 -53 41 -232h-361q0 -92 16 -117q21 -32 100 -32q66 0 86 9q33 15 33 68zM168 319h235q0 78 -20 97t-99 19q-78 0 -99 -23q-17 -19 -17 -93z
M284 706l161 -106l-23 -36l-138 61l-138 -61l-22 36zM342 -59v-87h-114v87h114z" />
    <glyph glyph-name="glyph321" unicode="&#x1ec8;" horiz-adv-x="276" 
d="M210 750v-750h-144v750h144zM63 925q0 46 19 60q16 13 64 13q98 0 90 -79q-2 -24 -8 -32q-9 -13 -35 -26q-35 -17 -35 -40v-3l-22 -19l-20 19v3q0 26 9 39t57 40q8 8 8 26q0 23 -8 28t-33 5q-32 0 -36 -2q-10 -3 -9 -24l11 -29z" />
    <glyph glyph-name="glyph322" unicode="&#x1ec9;" horiz-adv-x="236" 
d="M181 525v-525h-126v525h126zM44 706q0 46 19 60q16 13 64 13q98 0 90 -79q-2 -24 -8 -32q-9 -13 -35 -26q-35 -17 -35 -40v-3l-22 -19l-20 19v3q0 26 9 39t57 40q8 8 8 26q0 23 -8 28t-33 5q-32 0 -36 -2q-10 -3 -9 -24l11 -29z" />
    <glyph glyph-name="glyph323" unicode="&#x1eca;" horiz-adv-x="276" 
d="M210 750v-750h-144v750h144zM198 -50v-97h-126v97h126z" />
    <glyph glyph-name="glyph324" unicode="&#x1ecb;" horiz-adv-x="236" 
d="M181 525v-525h-126v525h126zM175 697v-97h-114v97h114zM175 -59v-87h-114v87h114z" />
    <glyph glyph-name="glyph325" unicode="&#x1ecc;" horiz-adv-x="715" 
d="M356 756q176 0 241 -47q79 -57 79 -227v-202q0 -173 -75 -233q-66 -53 -245 -53q-182 0 -245 51q-72 59 -72 235v202q0 171 75 227q63 47 242 47zM356 633q-112 0 -145 -31q-28 -27 -28 -120v-202q0 -108 33 -137q30 -26 140 -26q104 0 137 27q39 32 39 136v202
q0 99 -40 128q-32 23 -136 23zM417 -60v-97h-126v97h126z" />
    <glyph glyph-name="glyph326" unicode="&#x1ecd;" 
d="M291 531q158 0 206 -58q41 -50 41 -211q0 -160 -41 -210q-48 -58 -206 -58t-206 58q-41 50 -41 210q0 161 41 211q48 58 206 58zM291 435q-80 0 -102 -34q-19 -30 -19 -140q0 -109 19 -138q21 -33 102 -33q82 0 103 33q18 28 18 138q0 112 -18 140q-22 34 -103 34z
M349 -59v-87h-114v87h114z" />
    <glyph glyph-name="glyph327" unicode="&#x1ece;" horiz-adv-x="715" 
d="M356 756q176 0 241 -47q79 -57 79 -227v-202q0 -173 -75 -233q-66 -53 -245 -53q-182 0 -245 51q-72 59 -72 235v202q0 171 75 227q63 47 242 47zM356 633q-112 0 -145 -31q-28 -27 -28 -120v-202q0 -108 33 -137q30 -26 140 -26q104 0 137 27q39 32 39 136v202
q0 99 -40 128q-32 23 -136 23zM283 931q0 46 19 60q16 13 64 13q98 0 90 -79q-2 -24 -8 -32q-9 -13 -35 -26q-35 -17 -35 -40v-3l-22 -19l-20 19v3q0 26 9 39t57 40q8 8 8 26q0 23 -8 28t-33 5q-32 0 -36 -2q-10 -3 -9 -24l11 -29z" />
    <glyph glyph-name="glyph328" unicode="&#x1ecf;" 
d="M291 531q158 0 206 -58q41 -50 41 -211q0 -160 -41 -210q-48 -58 -206 -58t-206 58q-41 50 -41 210q0 161 41 211q48 58 206 58zM291 435q-80 0 -102 -34q-19 -30 -19 -140q0 -109 19 -138q21 -33 102 -33q82 0 103 33q18 28 18 138q0 112 -18 140q-22 34 -103 34z
M218 716q0 46 19 60q16 13 64 13q98 0 90 -79q-2 -24 -8 -32q-9 -13 -35 -26q-35 -17 -35 -40v-3l-22 -19l-20 19v3q0 26 9 39t57 40q8 8 8 26q0 23 -8 28t-33 5q-32 0 -36 -2q-10 -3 -9 -24l11 -29z" />
    <glyph glyph-name="glyph329" unicode="&#x1ed0;" horiz-adv-x="715" 
d="M356 756q176 0 241 -47q79 -57 79 -227v-202q0 -173 -75 -233q-66 -53 -245 -53q-182 0 -245 51q-72 59 -72 235v202q0 171 75 227q63 47 242 47zM356 633q-112 0 -145 -31q-28 -27 -28 -120v-202q0 -108 33 -137q30 -26 140 -26q104 0 137 27q39 32 39 136v202
q0 99 -40 128q-32 23 -136 23zM356 936l178 -118l-25 -40l-153 68l-154 -68l-24 40zM686 999l45 -67l-194 -86l-27 37z" />
    <glyph glyph-name="glyph330" unicode="&#x1ed1;" 
d="M291 531q158 0 206 -58q41 -50 41 -211q0 -160 -41 -210q-48 -58 -206 -58t-206 58q-41 50 -41 210q0 161 41 211q48 58 206 58zM291 435q-80 0 -102 -34q-19 -30 -19 -140q0 -109 19 -138q21 -33 102 -33q82 0 103 33q18 28 18 138q0 112 -18 140q-22 34 -103 34z
M291 706l160 -106l-22 -36l-138 61l-138 -61l-22 36zM588 762l41 -60l-175 -77l-24 33z" />
    <glyph glyph-name="glyph331" unicode="&#x1ed2;" horiz-adv-x="715" 
d="M356 756q176 0 241 -47q79 -57 79 -227v-202q0 -173 -75 -233q-66 -53 -245 -53q-182 0 -245 51q-72 59 -72 235v202q0 171 75 227q63 47 242 47zM356 633q-112 0 -145 -31q-28 -27 -28 -120v-202q0 -108 33 -137q30 -26 140 -26q104 0 137 27q39 32 39 136v202
q0 99 -40 128q-32 23 -136 23zM356 936l178 -118l-25 -40l-153 68l-154 -68l-24 40zM202 883l-27 -37l-194 86l45 67z" />
    <glyph glyph-name="glyph332" unicode="&#x1ed3;" 
d="M291 531q158 0 206 -58q41 -50 41 -211q0 -160 -41 -210q-48 -58 -206 -58t-206 58q-41 50 -41 210q0 161 41 211q48 58 206 58zM291 435q-80 0 -102 -34q-19 -30 -19 -140q0 -109 19 -138q21 -33 102 -33q82 0 103 33q18 28 18 138q0 112 -18 140q-22 34 -103 34z
M291 706l161 -106l-23 -36l-138 61l-138 -61l-22 36zM153 658l-24 -33l-175 77l41 60z" />
    <glyph glyph-name="glyph333" unicode="&#x1ed4;" horiz-adv-x="715" 
d="M356 756q176 0 241 -47q79 -57 79 -227v-202q0 -173 -75 -233q-66 -53 -245 -53q-182 0 -245 51q-72 59 -72 235v202q0 171 75 227q63 47 242 47zM356 633q-112 0 -145 -31q-28 -27 -28 -120v-202q0 -108 33 -137q30 -26 140 -26q104 0 137 27q39 32 39 136v202
q0 99 -40 128q-32 23 -136 23zM356 936l178 -118l-25 -40l-153 68l-154 -68l-24 40zM469 972q0 46 19 60q16 13 64 13q98 0 90 -79q-2 -24 -8 -32q-9 -13 -35 -26q-35 -17 -35 -40v-3l-22 -19l-20 19v3q0 26 9 39t57 40q8 8 8 26q0 23 -8 28t-33 5q-32 0 -36 -2
q-10 -3 -9 -24l11 -29z" />
    <glyph glyph-name="glyph334" unicode="&#x1ed5;" 
d="M291 531q158 0 206 -58q41 -50 41 -211q0 -160 -41 -210q-48 -58 -206 -58t-206 58q-41 50 -41 210q0 161 41 211q48 58 206 58zM291 435q-80 0 -102 -34q-19 -30 -19 -140q0 -109 19 -138q21 -33 102 -33q82 0 103 33q18 28 18 138q0 112 -18 140q-22 34 -103 34z
M292 706l160 -106l-22 -36l-138 61l-139 -61l-21 36zM405 753q0 46 19 60q16 13 64 13q98 0 90 -79q-2 -24 -8 -32q-9 -13 -35 -26q-35 -17 -35 -40v-3l-22 -19l-20 19v3q0 26 9 39t57 40q8 8 8 26q0 23 -8 28t-33 5q-32 0 -36 -2q-10 -3 -9 -24l11 -29z" />
    <glyph glyph-name="glyph335" unicode="&#x1ed6;" horiz-adv-x="715" 
d="M356 756q176 0 241 -47q79 -57 79 -227v-202q0 -173 -75 -233q-66 -53 -245 -53q-182 0 -245 51q-72 59 -72 235v202q0 171 75 227q63 47 242 47zM356 633q-112 0 -145 -31q-28 -27 -28 -120v-202q0 -108 33 -137q30 -26 140 -26q104 0 137 27q39 32 39 136v202
q0 99 -40 128q-32 23 -136 23zM356 936l178 -118l-25 -40l-153 68l-154 -68l-24 40zM504 1072l41 -26q-86 -82 -149 -86q-26 -2 -62.5 20t-50.5 21q-29 -2 -72 -41l-41 27q81 79 147 84q23 2 60.5 -20.5t52.5 -21.5q29 2 74 43z" />
    <glyph glyph-name="glyph336" unicode="&#x1ed7;" 
d="M291 531q158 0 206 -58q41 -50 41 -211q0 -160 -41 -210q-48 -58 -206 -58t-206 58q-41 50 -41 210q0 161 41 211q48 58 206 58zM291 435q-80 0 -102 -34q-19 -30 -19 -140q0 -109 19 -138q21 -33 102 -33q82 0 103 33q18 28 18 138q0 112 -18 140q-22 34 -103 34z
M291 706l160 -106l-22 -36l-138 61l-139 -61l-21 36zM424 828l37 -23q-76 -74 -134 -78q-24 -2 -56.5 18t-45.5 19q-27 -2 -64 -37l-37 25q73 71 132 75q20 1 54 -18.5t48 -18.5q25 1 66 38z" />
    <glyph glyph-name="glyph337" unicode="&#x1ed8;" horiz-adv-x="715" 
d="M356 756q176 0 241 -47q79 -57 79 -227v-202q0 -173 -75 -233q-66 -53 -245 -53q-182 0 -245 51q-72 59 -72 235v202q0 171 75 227q63 47 242 47zM356 633q-112 0 -145 -31q-28 -27 -28 -120v-202q0 -108 33 -137q30 -26 140 -26q104 0 137 27q39 32 39 136v202
q0 99 -40 128q-32 23 -136 23zM356 936l178 -118l-25 -40l-153 68l-154 -68l-24 40zM417 -60v-97h-126v97h126z" />
    <glyph glyph-name="glyph338" unicode="&#x1ed9;" 
d="M291 531q158 0 206 -58q41 -50 41 -211q0 -160 -41 -210q-48 -58 -206 -58t-206 58q-41 50 -41 210q0 161 41 211q48 58 206 58zM291 435q-80 0 -102 -34q-19 -30 -19 -140q0 -109 19 -138q21 -33 102 -33q82 0 103 33q18 28 18 138q0 112 -18 140q-22 34 -103 34z
M291 706l161 -106l-23 -36l-138 61l-138 -61l-22 36zM349 -59v-87h-114v87h114z" />
    <glyph glyph-name="glyph339" unicode="&#x1eda;" horiz-adv-x="715" 
d="M356 633q-112 0 -145 -31q-28 -27 -28 -120v-202q0 -108 33 -137q30 -26 140 -26q104 0 137 27q39 32 39 136v202q0 99 -40 128q-32 23 -136 23zM543 736q78 5 88 33q2 6 2 13q0 20 -20 28q6 2 14 2q23 0 41.5 -15t18.5 -37q0 -43 -78 -60h-1q68 -59 68 -218v-202
q0 -173 -75 -233q-66 -53 -245 -53q-182 0 -245 51q-72 59 -72 235v202q0 171 75 227q63 47 242 47q127 0 187 -20zM505 970l45 -67l-194 -86l-27 37z" />
    <glyph glyph-name="glyph340" unicode="&#x1edb;" 
d="M291 435q-80 0 -102 -34q-19 -30 -19 -140q0 -109 19 -138q21 -33 102 -33q82 0 103 33q18 28 18 138q0 112 -18 140q-22 34 -103 34zM425 517l66 9q23 11 23 32q0 20 -21 28q6 2 14 2q23 0 41.5 -15t18.5 -37q0 -43 -73 -59q44 -50 44 -215q0 -160 -41 -210
q-48 -58 -206 -58t-206 58q-41 50 -41 210q0 161 41 211q48 58 206 58q86 0 134 -14zM425 737l41 -60l-175 -77l-24 33z" />
    <glyph glyph-name="glyph341" unicode="&#x1edc;" horiz-adv-x="715" 
d="M356 633q-112 0 -145 -31q-28 -27 -28 -120v-202q0 -108 33 -137q30 -26 140 -26q104 0 137 27q39 32 39 136v202q0 99 -40 128q-32 23 -136 23zM543 736q78 5 88 33q2 6 2 13q0 20 -20 28q6 2 14 2q23 0 41.5 -15t18.5 -37q0 -43 -78 -60h-1q68 -59 68 -218v-202
q0 -173 -75 -233q-66 -53 -245 -53q-182 0 -245 51q-72 59 -72 235v202q0 171 75 227q63 47 242 47q127 0 187 -20zM383 853l-27 -37l-194 86l45 67z" />
    <glyph glyph-name="glyph342" unicode="&#x1edd;" 
d="M291 435q-80 0 -102 -34q-19 -30 -19 -140q0 -109 19 -138q21 -33 102 -33q82 0 103 33q18 28 18 138q0 112 -18 140q-22 34 -103 34zM425 517l66 9q23 11 23 32q0 20 -21 28q6 2 14 2q23 0 41.5 -15t18.5 -37q0 -43 -73 -59q44 -50 44 -215q0 -160 -41 -210
q-48 -58 -206 -58t-206 58q-41 50 -41 210q0 161 41 211q48 58 206 58q86 0 134 -14zM316 633l-24 -33l-175 77l41 60z" />
    <glyph glyph-name="glyph343" unicode="&#x1ede;" horiz-adv-x="715" 
d="M356 633q-112 0 -145 -31q-28 -27 -28 -120v-202q0 -108 33 -137q30 -26 140 -26q104 0 137 27q39 32 39 136v202q0 99 -40 128q-32 23 -136 23zM543 736q78 5 88 33q2 6 2 13q0 20 -20 28q6 2 14 2q23 0 41.5 -15t18.5 -37q0 -43 -78 -60h-1q68 -59 68 -218v-202
q0 -173 -75 -233q-66 -53 -245 -53q-182 0 -245 51q-72 59 -72 235v202q0 171 75 227q63 47 242 47q127 0 187 -20zM283 931q0 46 19 60q16 13 64 13q98 0 90 -79q-2 -24 -8 -32q-9 -13 -35 -26q-35 -17 -35 -40v-3l-22 -19l-20 19v3q0 26 9 39t57 40q8 8 8 26q0 23 -8 28
t-33 5q-32 0 -36 -2q-10 -3 -9 -24l11 -29z" />
    <glyph glyph-name="glyph344" unicode="&#x1edf;" 
d="M291 435q-80 0 -102 -34q-19 -30 -19 -140q0 -109 19 -138q21 -33 102 -33q82 0 103 33q18 28 18 138q0 112 -18 140q-22 34 -103 34zM425 517l66 9q23 11 23 32q0 20 -21 28q6 2 14 2q23 0 41.5 -15t18.5 -37q0 -43 -73 -59q44 -50 44 -215q0 -160 -41 -210
q-48 -58 -206 -58t-206 58q-41 50 -41 210q0 161 41 211q48 58 206 58q86 0 134 -14zM218 716q0 46 19 60q16 13 64 13q98 0 90 -79q-2 -24 -8 -32q-9 -13 -35 -26q-35 -17 -35 -40v-3l-22 -19l-20 19v3q0 26 9 39t57 40q8 8 8 26q0 23 -8 28t-33 5q-32 0 -36 -2
q-10 -3 -9 -24l11 -29z" />
    <glyph glyph-name="glyph345" unicode="&#x1ee0;" horiz-adv-x="715" 
d="M356 633q-112 0 -145 -31q-28 -27 -28 -120v-202q0 -108 33 -137q30 -26 140 -26q104 0 137 27q39 32 39 136v202q0 99 -40 128q-32 23 -136 23zM543 736q78 5 88 33q2 6 2 13q0 20 -20 28q6 2 14 2q23 0 41.5 -15t18.5 -37q0 -43 -78 -60h-1q68 -59 68 -218v-202
q0 -173 -75 -233q-66 -53 -245 -53q-182 0 -245 51q-72 59 -72 235v202q0 171 75 227q63 47 242 47q127 0 187 -20zM504 933l41 -26q-86 -82 -149 -86q-26 -2 -62.5 20t-50.5 21q-29 -2 -72 -41l-41 27q81 79 147 84q23 2 60.5 -20.5t52.5 -21.5q29 2 74 43z" />
    <glyph glyph-name="glyph346" unicode="&#x1ee1;" 
d="M291 435q-80 0 -102 -34q-19 -30 -19 -140q0 -109 19 -138q21 -33 102 -33q82 0 103 33q18 28 18 138q0 112 -18 140q-22 34 -103 34zM425 517l66 9q23 11 23 32q0 20 -21 28q6 2 14 2q23 0 41.5 -15t18.5 -37q0 -43 -73 -59q44 -50 44 -215q0 -160 -41 -210
q-48 -58 -206 -58t-206 58q-41 50 -41 210q0 161 41 211q48 58 206 58q86 0 134 -14zM424 703l37 -23q-76 -74 -134 -78q-24 -2 -56.5 18t-45.5 19q-27 -2 -64 -37l-37 25q73 71 132 75q20 1 54 -18.5t48 -18.5q25 1 66 38z" />
    <glyph glyph-name="glyph347" unicode="&#x1ee2;" horiz-adv-x="715" 
d="M356 633q-112 0 -145 -31q-28 -27 -28 -120v-202q0 -108 33 -137q30 -26 140 -26q104 0 137 27q39 32 39 136v202q0 99 -40 128q-32 23 -136 23zM543 736q78 5 88 33q2 6 2 13q0 20 -20 28q6 2 14 2q23 0 41.5 -15t18.5 -37q0 -43 -78 -60h-1q68 -59 68 -218v-202
q0 -173 -75 -233q-66 -53 -245 -53q-182 0 -245 51q-72 59 -72 235v202q0 171 75 227q63 47 242 47q127 0 187 -20zM417 -60v-97h-126v97h126z" />
    <glyph glyph-name="glyph348" unicode="&#x1ee3;" 
d="M291 435q-80 0 -102 -34q-19 -30 -19 -140q0 -109 19 -138q21 -33 102 -33q82 0 103 33q18 28 18 138q0 112 -18 140q-22 34 -103 34zM425 517l66 9q23 11 23 32q0 20 -21 28q6 2 14 2q23 0 41.5 -15t18.5 -37q0 -43 -73 -59q44 -50 44 -215q0 -160 -41 -210
q-48 -58 -206 -58t-206 58q-41 50 -41 210q0 161 41 211q48 58 206 58q86 0 134 -14zM349 -59v-87h-114v87h114z" />
    <glyph glyph-name="glyph349" unicode="&#x1ee4;" horiz-adv-x="754" 
d="M545 750h144v-533q0 -143 -88 -190q-62 -33 -225 -33q-159 0 -221 33q-90 48 -90 190v533h144v-533q0 -69 53 -89q28 -11 114 -11t115 11q54 20 54 89v533zM437 -60v-97h-126v97h126z" />
    <glyph glyph-name="glyph350" unicode="&#x1ee5;" horiz-adv-x="593" 
d="M530 0h-122v81h-4q-36 -87 -166 -87q-176 0 -176 151v380h126v-331q0 -61 14 -80q17 -24 74 -24q70 0 99 30.5t29 101.5v303h126v-525zM349 -59v-87h-114v87h114z" />
    <glyph glyph-name="glyph351" unicode="&#x1ee6;" horiz-adv-x="754" 
d="M545 750h144v-533q0 -143 -88 -190q-62 -33 -225 -33q-159 0 -221 33q-90 48 -90 190v533h144v-533q0 -69 53 -89q28 -11 114 -11t115 11q54 20 54 89v533zM303 906q0 46 19 60q16 13 64 13q98 0 90 -79q-2 -24 -8 -32q-9 -13 -35 -26q-35 -17 -35 -40v-3l-22 -19l-20 19
v3q0 26 9 39t57 40q8 8 8 26q0 23 -8 28t-33 5q-32 0 -36 -2q-10 -3 -9 -24l11 -29z" />
    <glyph glyph-name="glyph352" unicode="&#x1ee7;" horiz-adv-x="593" 
d="M530 0h-122v81h-4q-36 -87 -166 -87q-176 0 -176 151v380h126v-331q0 -61 14 -80q17 -24 74 -24q70 0 99 30.5t29 101.5v303h126v-525zM218 682q0 46 19 60q16 13 64 13q98 0 90 -79q-2 -24 -8 -32q-9 -13 -35 -26q-35 -17 -35 -40v-3l-22 -19l-20 19v3q0 26 9 39t57 40
q8 8 8 26q0 23 -8 28t-33 5q-32 0 -36 -2q-10 -3 -9 -24l11 -29z" />
    <glyph glyph-name="glyph353" unicode="&#x1ee8;" horiz-adv-x="754" 
d="M689 700v-483q0 -143 -88 -190q-62 -33 -225 -33q-159 0 -221 33q-90 48 -90 190v533h144v-533q0 -69 53 -89q28 -11 114 -11t115 11q54 20 54 89v533h145q23 11 23 32q0 20 -21 28q6 2 14 2q23 0 41.5 -15t18.5 -37q0 -44 -77 -60zM525 943l45 -67l-194 -86l-27 37z" />
    <glyph glyph-name="glyph354" unicode="&#x1ee9;" horiz-adv-x="593" 
d="M530 475v-475h-122v81h-4q-36 -87 -166 -87q-176 0 -176 151v380h126v-331q0 -61 14 -80q17 -24 74 -24q70 0 99 30.5t29 101.5v303h125q23 11 23 32q0 20 -21 28q6 2 14 2q23 0 41.5 -15t18.5 -37q0 -41 -75 -60zM425 703l41 -60l-175 -77l-24 33z" />
    <glyph glyph-name="glyph355" unicode="&#x1eea;" horiz-adv-x="754" 
d="M689 700v-483q0 -143 -88 -190q-62 -33 -225 -33q-159 0 -221 33q-90 48 -90 190v533h144v-533q0 -69 53 -89q28 -11 114 -11t115 11q54 20 54 89v533h145q23 11 23 32q0 20 -21 28q6 2 14 2q23 0 41.5 -15t18.5 -37q0 -44 -77 -60zM403 828l-27 -37l-194 86l45 67z" />
    <glyph glyph-name="glyph356" unicode="&#x1eeb;" horiz-adv-x="593" 
d="M530 475v-475h-122v81h-4q-36 -87 -166 -87q-176 0 -176 151v380h126v-331q0 -61 14 -80q17 -24 74 -24q70 0 99 30.5t29 101.5v303h125q23 11 23 32q0 20 -21 28q6 2 14 2q23 0 41.5 -15t18.5 -37q0 -41 -75 -60zM316 600l-24 -33l-175 77l41 60z" />
    <glyph glyph-name="glyph357" unicode="&#x1eec;" horiz-adv-x="754" 
d="M689 700v-483q0 -143 -88 -190q-62 -33 -225 -33q-159 0 -221 33q-90 48 -90 190v533h144v-533q0 -69 53 -89q28 -11 114 -11t115 11q54 20 54 89v533h145q23 11 23 32q0 20 -21 28q6 2 14 2q23 0 41.5 -15t18.5 -37q0 -44 -77 -60zM303 906q0 46 19 60q16 13 64 13
q98 0 90 -79q-2 -24 -8 -32q-9 -13 -35 -26q-35 -17 -35 -40v-3l-22 -19l-20 19v3q0 26 9 39t57 40q8 8 8 26q0 23 -8 28t-33 5q-32 0 -36 -2q-10 -3 -9 -24l11 -29z" />
    <glyph glyph-name="glyph358" unicode="&#x1eed;" horiz-adv-x="593" 
d="M530 475v-475h-122v81h-4q-36 -87 -166 -87q-176 0 -176 151v380h126v-331q0 -61 14 -80q17 -24 74 -24q70 0 99 30.5t29 101.5v303h125q23 11 23 32q0 20 -21 28q6 2 14 2q23 0 41.5 -15t18.5 -37q0 -41 -75 -60zM218 682q0 46 19 60q16 13 64 13q98 0 90 -79
q-2 -24 -8 -32q-9 -13 -35 -26q-35 -17 -35 -40v-3l-22 -19l-20 19v3q0 26 9 39t57 40q8 8 8 26q0 23 -8 28t-33 5q-32 0 -36 -2q-10 -3 -9 -24l11 -29z" />
    <glyph glyph-name="glyph359" unicode="&#x1eee;" horiz-adv-x="754" 
d="M689 700v-483q0 -143 -88 -190q-62 -33 -225 -33q-159 0 -221 33q-90 48 -90 190v533h144v-533q0 -69 53 -89q28 -11 114 -11t115 11q54 20 54 89v533h145q23 11 23 32q0 20 -21 28q6 2 14 2q23 0 41.5 -15t18.5 -37q0 -44 -77 -60zM525 903l41 -26q-86 -82 -149 -86
q-26 -2 -62.5 20t-50.5 21q-29 -2 -72 -41l-41 27q81 79 147 84q23 2 60.5 -20.5t52.5 -21.5q29 2 74 43z" />
    <glyph glyph-name="glyph360" unicode="&#x1eef;" horiz-adv-x="593" 
d="M530 475v-475h-122v81h-4q-36 -87 -166 -87q-176 0 -176 151v380h126v-331q0 -61 14 -80q17 -24 74 -24q70 0 99 30.5t29 101.5v303h125q23 11 23 32q0 20 -21 28q6 2 14 2q23 0 41.5 -15t18.5 -37q0 -41 -75 -60zM424 678l37 -23q-76 -74 -134 -78q-24 -2 -56.5 18
t-45.5 19q-27 -2 -64 -37l-37 25q73 71 132 75q20 1 54 -18.5t48 -18.5q25 1 66 38z" />
    <glyph glyph-name="glyph361" unicode="&#x1ef0;" horiz-adv-x="754" 
d="M689 700v-483q0 -143 -88 -190q-62 -33 -225 -33q-159 0 -221 33q-90 48 -90 190v533h144v-533q0 -69 53 -89q28 -11 114 -11t115 11q54 20 54 89v533h145q23 11 23 32q0 20 -21 28q6 2 14 2q23 0 41.5 -15t18.5 -37q0 -44 -77 -60zM437 -60v-97h-126v97h126z" />
    <glyph glyph-name="glyph362" unicode="&#x1ef1;" horiz-adv-x="593" 
d="M530 475v-475h-122v81h-4q-36 -87 -166 -87q-176 0 -176 151v380h126v-331q0 -61 14 -80q17 -24 74 -24q70 0 99 30.5t29 101.5v303h125q23 11 23 32q0 20 -21 28q6 2 14 2q23 0 41.5 -15t18.5 -37q0 -41 -75 -60zM349 -59v-87h-114v87h114z" />
    <glyph glyph-name="glyph363" unicode="&#x1ef2;" horiz-adv-x="670" 
d="M681 750l-277 -462v-288h-144v288l-271 462h164l178 -320h3l181 320h166zM360 817l-27 -37l-194 86l45 67z" />
    <glyph glyph-name="glyph364" unicode="&#x1ef3;" horiz-adv-x="485" 
d="M490 525l-136 -546q-28 -113 -56 -151q-45 -61 -144 -61q-9 0 -27 2t-27 2v95l27 -3q52 0 77 46q13 24 25 91h-61l-173 525h130l133 -447h2l102 447h128zM267 590l-24 -33l-175 77l41 60z" />
    <glyph glyph-name="glyph365" unicode="&#x1ef4;" horiz-adv-x="670" 
d="M681 750l-277 -462v-288h-144v288l-271 462h164l178 -320h3l181 320h166zM397 -50v-97h-126v97h126z" />
    <glyph glyph-name="glyph366" unicode="&#x1ef5;" horiz-adv-x="485" 
d="M490 525l-136 -546q-28 -113 -56 -151q-45 -61 -144 -61q-9 0 -27 2t-27 2v95l27 -3q52 0 77 46q13 24 25 91h-61l-173 525h130l133 -447h2l102 447h128zM489 -60v-87h-114v87h114z" />
    <glyph glyph-name="glyph367" unicode="&#x1ef6;" horiz-adv-x="670" 
d="M681 750l-277 -462v-288h-144v288l-271 462h164l178 -320h3l181 320h166zM260 896q0 46 19 60q16 13 64 13q98 0 90 -79q-2 -24 -8 -32q-9 -13 -35 -26q-35 -17 -35 -40v-3l-22 -19l-20 19v3q0 26 9 39t57 40q8 8 8 26q0 23 -8 28t-33 5q-32 0 -36 -2q-10 -3 -9 -24
l11 -29z" />
    <glyph glyph-name="glyph368" unicode="&#x1ef7;" horiz-adv-x="485" 
d="M490 525l-136 -546q-28 -113 -56 -151q-45 -61 -144 -61q-9 0 -27 2t-27 2v95l27 -3q52 0 77 46q13 24 25 91h-61l-173 525h130l133 -447h2l102 447h128zM170 672q0 46 19 60q16 13 64 13q98 0 90 -79q-2 -24 -8 -32q-9 -13 -35 -26q-35 -17 -35 -40v-3l-22 -19l-20 19v3
q0 26 9 39t57 40q8 8 8 26q0 23 -8 28t-33 5q-32 0 -36 -2q-10 -3 -9 -24l11 -29z" />
    <glyph glyph-name="glyph369" unicode="&#x1ef8;" horiz-adv-x="670" 
d="M681 750l-277 -462v-288h-144v288l-271 462h164l178 -320h3l181 320h166zM481 893l41 -26q-86 -82 -149 -86q-26 -2 -62.5 20t-50.5 21q-29 -2 -72 -41l-41 27q81 79 147 84q23 2 60.5 -20.5t52.5 -21.5q29 2 74 43z" />
    <glyph glyph-name="glyph370" unicode="&#x1ef9;" horiz-adv-x="485" 
d="M490 525l-136 -546q-28 -113 -56 -151q-45 -61 -144 -61q-9 0 -27 2t-27 2v95l27 -3q52 0 77 46q13 24 25 91h-61l-173 525h130l133 -447h2l102 447h128zM376 667l37 -23q-76 -74 -134 -78q-24 -2 -56.5 18t-45.5 19q-27 -2 -64 -37l-37 25q73 71 132 75q20 1 54 -18.5
t48 -18.5q25 1 66 38z" />
    <glyph glyph-name="endash" unicode="&#x2013;" horiz-adv-x="500" 
d="M0 324h500v-96h-500v96z" />
    <glyph glyph-name="emdash" unicode="&#x2014;" horiz-adv-x="1000" 
d="M0 324h1000v-96h-1000v96z" />
    <glyph glyph-name="quoteleft" unicode="&#x2018;" horiz-adv-x="232" 
d="M184 756v-59q-31 0 -44 -12q-16 -16 -16 -55h50v-135h-126v118q0 77 15 104q23 39 96 39h25z" />
    <glyph glyph-name="quoteright" unicode="&#x2019;" horiz-adv-x="232" 
d="M48 489v59q31 0 45.5 14t14.5 53h-50v135h126v-118q0 -77 -15 -104q-23 -39 -96 -39h-25z" />
    <glyph glyph-name="quotesinglbase" unicode="&#x201a;" horiz-adv-x="252" 
d="M46 -126v59q31 0 44 12q16 16 16 55h-50v135h126v-118q0 -77 -15 -104q-23 -39 -96 -39h-25z" />
    <glyph glyph-name="quotedblleft" unicode="&#x201c;" horiz-adv-x="424" 
d="M377 756v-59q-31 0 -44 -12q-16 -16 -16 -55h50v-135h-126v118q0 77 15 104q23 39 96 39h25zM184 756v-59q-31 0 -44 -12q-16 -16 -16 -55h50v-135h-126v118q0 77 15 104q23 39 96 39h25z" />
    <glyph glyph-name="quotedblright" unicode="&#x201d;" horiz-adv-x="424" 
d="M48 489v59q31 0 45.5 14t14.5 53h-50v135h126v-118q0 -77 -15 -104q-23 -39 -96 -39h-25zM241 489v59q31 0 45.5 14t14.5 53h-50v135h126v-118q0 -77 -15 -104q-23 -39 -96 -39h-25z" />
    <glyph glyph-name="quotedblbase" unicode="&#x201e;" horiz-adv-x="424" 
d="M46 -126v59q31 0 44 12q16 16 16 55h-50v135h126v-118q0 -77 -15 -104q-23 -39 -96 -39h-25zM237 -126v59q31 0 44 12q16 16 16 55h-50v135h126v-118q0 -77 -15 -104q-23 -39 -96 -39h-25z" />
    <glyph glyph-name="dagger" unicode="&#x2020;" horiz-adv-x="705" 
d="M420 750v-221h193v-109h-193v-647h-136v647h-192v109h192v221h136z" />
    <glyph glyph-name="daggerdbl" unicode="&#x2021;" horiz-adv-x="705" 
d="M420 750v-236h193v-109h-193v-276h193v-109h-193v-247h-136v247h-192v109h192v276h-192v109h192v236h136z" />
    <glyph glyph-name="bullet" unicode="&#x2022;" horiz-adv-x="520" 
d="M448 375q0 -77 -55 -132t-133 -55q-77 0 -131.5 54t-55.5 133q-1 78 53.5 133t133.5 55q78 0 133 -55t55 -133z" />
    <glyph glyph-name="ellipsis" unicode="&#x2026;" horiz-adv-x="1000" 
d="M230 137v-137h-126v137h126zM563 137v-137h-126v137h126zM896 137v-137h-126v137h126z" />
    <glyph glyph-name="perthousand" unicode="&#x2030;" horiz-adv-x="1292" 
d="M1270 240v-110q0 -85 -39 -113q-32 -23 -126 -23q-93 0 -124 22q-36 27 -36 113v110q0 86 36 113q31 23 123 23q95 0 127 -22q39 -28 39 -113zM1185 141v93q0 46 -15 57q-12 8 -66 8q-49 0 -60 -8q-14 -11 -14 -57v-93q0 -50 14 -62q11 -9 60 -9q51 0 64 9q17 13 17 62z
M741 750l-476 -750h-93l474 750h95zM883 240v-110q0 -85 -39 -113q-32 -23 -126 -23q-93 0 -124 22q-36 27 -36 113v110q0 86 36 113q31 23 123 23q95 0 127 -22q39 -28 39 -113zM798 141v93q0 46 -15 57q-12 8 -66 8q-49 0 -60 -8q-14 -11 -14 -57v-93q0 -50 14 -62
q11 -9 60 -9q51 0 64 9q17 13 17 62zM347 621v-110q0 -85 -39 -113q-32 -23 -126 -23q-93 0 -124 22q-36 27 -36 113v110q0 86 36 113q31 23 123 23q95 0 127 -22q39 -28 39 -113zM262 522v93q0 46 -15 57q-12 8 -66 8q-49 0 -60 -8q-14 -11 -14 -57v-93q0 -50 14 -62
q11 -9 60 -9q51 0 64 9q17 13 17 62z" />
    <glyph glyph-name="guilsinglleft" unicode="&#x2039;" horiz-adv-x="325" 
d="M182 539l85 -48l-106 -216l113 -211l-81 -51l-142 262z" />
    <glyph glyph-name="guilsinglright" unicode="&#x203a;" horiz-adv-x="325" 
d="M142 539l132 -264l-143 -262l-80 51l113 211l-107 216z" />
    <glyph glyph-name="fraction" unicode="&#x2044;" horiz-adv-x="564" 
d="M567 750l-476 -750h-93l474 750h95z" />
    <glyph glyph-name="franc" unicode="&#x20a3;" horiz-adv-x="1035" 
d="M202 627v-199h334v-118h-334v-310h-144v750h496v-123h-352zM705 525h123l-3 -69h5q32 75 140 75q78 0 111 -45q27 -39 27 -120v-42h-118v27q0 45 -10 62q-13 22 -54 22q-53 0 -76 -30q-19 -26 -19 -81v-324h-126v525z" />
    <glyph glyph-name="u20AB" unicode="&#x20ab;" horiz-adv-x="393" 
d="M197 501q-48 0 -84 -88q-20 -49 -20 -90q0 -51 39 -51q41 0 74 71q28 60 28 107q0 51 -37 51zM200 267q-53 -62 -106 -62q-45 0 -68 28t-23 74q0 80 55 153q59 78 136 78q34 0 61 -24l20 75h-100l10 36h100l2 16q0 31 -48 32l7 33q67 2 128 14l15 3q6 0 6 -9l-3 -12
l-19 -77h65l-10 -36h-65l-69 -280q-5 -20 -5 -27q0 -15 12 -15q6 0 49 42l20 -18q-70 -86 -117 -86q-43 0 -53 62zM9 160h221v-56h-221v56z" />
    <glyph glyph-name="trademark" unicode="&#x2122;" horiz-adv-x="1000" 
d="M929 750v-404h-88v326h-2l-117 -326h-52l-117 326h-2v-326h-88v404h142l91 -239l91 239h142zM414 750v-78h-123v-326h-97v326h-123v78h343z" />
    <glyph glyph-name="minus" unicode="&#x2212;" horiz-adv-x="584" 
d="M50 235v96h484v-96h-484z" />
    <glyph glyph-name="SF370000" unicode="&#x255f;" horiz-adv-x="718" 
d="M517 142h-324l-47 -142h-149l249 750h212l254 -750h-146zM485 251l-129 389h-2l-128 -389h259z" />
    <glyph glyph-name="SF420000" unicode="&#x2560;" horiz-adv-x="681" 
d="M200 627v-187h351v-118h-351v-199h373v-123h-517v750h514v-123h-370z" />
    <glyph glyph-name="SF190000" unicode="&#x2561;" horiz-adv-x="429" 
d="M210 750v-750h-144v750h144z" />
    <glyph glyph-name="SF200000" unicode="&#x2562;" horiz-adv-x="773" 
d="M356 756q177 0 241 -47q79 -57 79 -227v-202q0 -173 -75 -233q-66 -53 -245 -53q-183 0 -245 51q-72 58 -72 235v202q0 169 69 224q63 50 248 50zM356 633q-112 0 -145 -31q-28 -27 -28 -120v-202q0 -109 33 -137q29 -26 140 -26q104 0 137 27q39 32 39 136v202
q0 100 -40 128q-31 23 -136 23z" />
    <glyph glyph-name="SF230000" unicode="&#x2563;" horiz-adv-x="811" 
d="M545 750h144v-533q0 -143 -88 -190q-62 -33 -225 -33q-160 0 -221 33q-90 47 -90 190v533h144v-533q0 -59 32.5 -79.5t134.5 -20.5q101 0 135 20t34 80v533z" />
    <glyph glyph-name="SF470000" unicode="&#x2564;" horiz-adv-x="699" 
d="M681 750l-277 -462v-288h-144v288l-271 462h164l178 -320h3l181 320h166z" />
    <glyph glyph-name="SF480000" unicode="&#x2565;" horiz-adv-x="541" 
d="M284 236q-61 0 -81 -9q-34 -16 -34 -66q0 -53 26 -68q21 -13 89 -13q60 0 83 12q33 18 33 69q0 49 -35 65q-22 10 -81 10zM400 0l5 66h-3q-17 -46 -68 -62q-32 -10 -95 -10q-100 0 -143 30q-53 38 -53 137q0 91 49 128q45 33 147 33q63 0 91 -8q46 -13 66 -52h4v68
q0 69 -17 89q-21 26 -95 26q-50 0 -70 -11q-29 -16 -29 -62h-126q0 103 68 137q44 22 157 22q135 0 182 -35q56 -41 56 -167v-329h-126z" />
    <glyph glyph-name="SF410000" unicode="&#x2566;" horiz-adv-x="431" 
d="M403 167h126q0 -113 -66 -148q-47 -25 -179 -25q-147 0 -196 57q-46 54 -46 210q0 152 42 206q49 64 200 64q157 0 204 -60q41 -54 41 -232h-361q0 -93 16 -117q20 -32 100 -32q65 0 86 9q33 15 33 68zM168 319h235q0 79 -21 99q-19 17 -98 17q-78 0 -99 -23
q-17 -19 -17 -93z" />
    <glyph glyph-name="SF450000" unicode="&#x2567;" horiz-adv-x="314" 
d="M181 525v-525h-126v525h126zM181 750v-107h-126v107h126z" />
    <glyph glyph-name="SF460000" unicode="&#x2568;" horiz-adv-x="314" 
d="M181 525v-525h-126v525h126z" />
    <glyph glyph-name="SF400000" unicode="&#x2569;" horiz-adv-x="498" 
d="M291 531q158 0 206 -58q41 -50 41 -211q0 -160 -41 -210q-48 -58 -206 -58t-206 58q-41 50 -41 210q0 161 41 211q48 58 206 58zM291 435q-81 0 -102 -34q-19 -29 -19 -140q0 -109 19 -138q21 -33 102 -33t103 33q18 29 18 138q0 111 -18 140q-22 34 -103 34z" />
    <glyph glyph-name="SF540000" unicode="&#x256a;" horiz-adv-x="557" 
d="M530 0h-122v81h-4q-36 -87 -166 -87q-176 0 -176 151v380h126v-331q0 -61 14 -80q17 -24 74 -24q71 0 99.5 31t28.5 101v303h126v-525z" />
    <glyph glyph-name="SF530000" unicode="&#x256b;" horiz-adv-x="497" 
d="M490 525l-136 -546q-28 -112 -56 -151q-45 -61 -144 -61q-10 0 -27 2q-21 2 -27 2v95l27 -3q52 0 77 46q13 25 25 91h-61l-173 525h130l133 -447h2l102 447h128z" />
    <glyph glyph-name="circle" unicode="&#x25cb;" horiz-adv-x="718" 
d="M481 974l178 -108l-25 -50l-153 63l-154 -63l-24 50zM453 1163l45 -82l-194 -86l-27 52z" />
    <glyph glyph-name="H18533" unicode="&#x25cf;" horiz-adv-x="718" 
d="M481 974l178 -108l-25 -50l-153 63l-154 -63l-24 50zM431 1164l176 -116l-27 -52l-194 86z" />
    <glyph glyph-name="invbullet" unicode="&#x25d8;" horiz-adv-x="718" 
d="M481 974l178 -108l-25 -50l-153 63l-154 -63l-24 50zM614 903q9 29 11 64q1 11 8 13q3 0 8 1q67 11 67 54q0 35 -28 35q-5 0 -14 -1t-14 -1q-21 0 -21 18q0 28 32 28q46 0 76 -25.5t26 -70.5q-6 -59 -87 -81q-25 -7 -31 -34h-33z" />
    <glyph glyph-name="invcircle" unicode="&#x25d9;" horiz-adv-x="718" 
d="M481 974l178 -108l-25 -50l-153 63l-154 -63l-24 50zM675 1124v0l62 -34q-49 -87 -116 -87q-31 0 -83 27.5t-70 27.5q-32 0 -54 -42l-64 35q47 85 115 85q28 0 81.5 -28.5t72.5 -28.5q30 0 56 45z" />
    <glyph glyph-name="fi" unicode="&#xf001;" horiz-adv-x="584" 
d="M528 750v-107h-126v107h126zM528 525v-525h-126v525h126zM338 750v-96h-38q-59 0 -75 -24q-11 -16 -11 -73v-32h128v-96h-128v-429h-126v429h-74v96h74v46q0 99 32 137q36 42 136 42h82z" />
    <glyph glyph-name="fl" unicode="&#xf002;" horiz-adv-x="596" 
d="M532 750v-750h-126v750h126zM342 525v-96h-128v-429h-126v429h-74v96h74v46q0 99 32 137q36 42 136 42h82v-96h-38q-59 0 -75 -24q-11 -16 -11 -73v-32h128z" />
    <glyph glyph-name="periodcentered" horiz-adv-x="352" 
d="M239 352v-137h-126v137h126z" />
    <glyph glyph-name="glyph231" horiz-adv-x="278" 
 />
    <glyph glyph-name="glyph232" horiz-adv-x="278" 
 />
    <glyph glyph-name="glyph275" horiz-adv-x="249" 
 />
    <glyph glyph-name="glyph276" horiz-adv-x="249" 
 />
    <glyph glyph-name="glyph261" horiz-adv-x="500" 
d="M253 522q9 29 11 64q1 11 8 13q3 0 8 1q67 11 67 54q0 35 -28 35q-5 0 -14 -1t-14 -1q-21 0 -21 18q0 28 32 28q46 0 76 -25.5t26 -70.5q-6 -59 -87 -81q-25 -7 -31 -34h-33z" />
    <glyph glyph-name="glyph262" horiz-adv-x="541" 
d="M278 742l178 -108l-25 -50l-153 63l-154 -63l-24 50zM249 932l45 -82l-194 -86l-27 52z" />
    <glyph glyph-name="glyph263" horiz-adv-x="541" 
d="M278 742l178 -108l-25 -50l-153 63l-154 -63l-24 50zM228 932l176 -116l-27 -52l-194 86z" />
    <glyph glyph-name="glyph264" horiz-adv-x="541" 
d="M278 742l178 -108l-25 -50l-153 63l-154 -63l-24 50zM411 671q9 29 11 64q1 11 8 13q3 0 8 1q67 11 67 54q0 35 -28 35q-5 0 -14 -1t-14 -1q-21 0 -21 18q0 28 32 28q46 0 76 -25.5t26 -70.5q-6 -59 -87 -81q-25 -7 -31 -34h-33z" />
    <glyph glyph-name="glyph265" horiz-adv-x="541" 
d="M278 742l178 -108l-25 -50l-153 63l-154 -63l-24 50zM472 892v0l62 -34q-49 -87 -116 -87q-31 0 -83 27.5t-70 27.5q-32 0 -54 -42l-64 35q47 85 115 85q28 0 81.5 -28.5t72.5 -28.5q30 0 56 45z" />
    <glyph glyph-name="glyph266" horiz-adv-x="541" 
d="M105 727h66q6 -37 35.5 -61.5t68.5 -24.5q38 0 67.5 24.5t35.5 61.5h66q-5 -66 -54 -113t-115 -47q-67 0 -116 47t-54 113zM328 932l45 -82l-194 -86l-27 52z" />
    <glyph glyph-name="glyph267" horiz-adv-x="541" 
d="M105 727h66q6 -37 35.5 -61.5t68.5 -24.5q38 0 67.5 24.5t35.5 61.5h66q-5 -66 -54 -113t-115 -47q-67 0 -116 47t-54 113zM175 932l176 -116l-27 -52l-194 86z" />
    <glyph glyph-name="glyph268" horiz-adv-x="541" 
d="M105 727h66q6 -37 35.5 -61.5t68.5 -24.5q38 0 67.5 24.5t35.5 61.5h66q-5 -66 -54 -113t-115 -47q-67 0 -116 47t-54 113zM306 671q9 29 11 64q1 11 8 13q3 0 8 1q67 11 67 54q0 35 -28 35q-5 0 -14 -1t-14 -1q-21 0 -21 18q0 28 32 28q46 0 76 -25.5t26 -70.5
q-6 -59 -87 -81q-25 -7 -31 -34h-33z" />
    <glyph glyph-name="glyph269" horiz-adv-x="541" 
d="M105 727h66q6 -37 35.5 -61.5t68.5 -24.5q38 0 67.5 24.5t35.5 61.5h66q-5 -66 -54 -113t-115 -47q-67 0 -116 47t-54 113zM472 892v0l62 -34q-49 -87 -116 -87q-31 0 -83 27.5t-70 27.5q-32 0 -54 -42l-64 35q47 85 115 85q28 0 81.5 -28.5t72.5 -28.5q30 0 56 45z" />
    <glyph glyph-name="glyph270" horiz-adv-x="249" 
 />
  </font>
</defs>
</svg>
