<?xml version="1.0" standalone="no"?>
<!DOCTYPE svg PUBLIC "-//W3C//DTD SVG 1.1//EN" "http://www.w3.org/Graphics/SVG/1.1/DTD/svg11.dtd" >
<svg xmlns="http://www.w3.org/2000/svg" xmlns:xlink="http://www.w3.org/1999/xlink" version="1.1">
<metadata>
Created by FontForge 20170731 at Tue Sep 20 21:04:29 2005
 By Aleksey,,,
(c) Copyright 2005 by Tong Duc Thinh. All Rights Reserved
</metadata>
<defs>
<font id="SFUEurostile" horiz-adv-x="570" >
  <font-face 
    font-family="SFU Eurostile"
    font-weight="400"
    font-stretch="normal"
    units-per-em="1000"
    panose-1="0 0 4 0 0 0 0 0 0 0"
    ascent="800"
    descent="-200"
    x-height="525"
    cap-height="750"
    bbox="-67 -233 1260 1164"
    underline-thickness="75"
    underline-position="-224"
    unicode-range="U+0020-F002"
  />
<missing-glyph horiz-adv-x="500" 
d="M63 0v779h375v-779h-375zM125 63h250v654h-250v-654z" />
    <glyph glyph-name=".notdef" horiz-adv-x="500" 
d="M63 0v779h375v-779h-375zM125 63h250v654h-250v-654z" />
    <glyph glyph-name=".null" horiz-adv-x="0" 
 />
    <glyph glyph-name="nonmarkingreturn" horiz-adv-x="345" 
 />
    <glyph glyph-name="space" unicode=" " horiz-adv-x="345" 
 />
    <glyph glyph-name="exclam" unicode="!" horiz-adv-x="270" 
d="M182 102v-102h-89v102h89zM182 750l-8 -543h-73l-8 543h89z" />
    <glyph glyph-name="quotedbl" unicode="&#x22;" horiz-adv-x="355" 
d="M51 750h94v-111l-27 -135h-40l-27 135v111zM210 750h94v-111l-27 -135h-40l-27 135v111z" />
    <glyph glyph-name="numbersign" unicode="#" horiz-adv-x="690" 
d="M273 750h77l-36 -204h124l35 204h79l-35 -204h92v-80h-107l-27 -163h101v-80h-117l-38 -223h-76l37 223h-123l-40 -223h-75l37 223h-100v80h115l27 163h-105v80h119zM301 466l-27 -163h123l27 163h-123z" />
    <glyph glyph-name="dollar" unicode="$" horiz-adv-x="690" 
d="M313 416v264q-114 0 -146 -16q-46 -24 -46 -113q0 -94 52 -120q32 -16 140 -15zM378 346v-276q121 0 155 19q44 26 44 118q0 97 -49 121q-27 13 -150 18zM378 680v-264q153 -3 202 -26q82 -39 82 -172q0 -136 -68 -181q-56 -37 -216 -37v-85h-65v85q-158 0 -211 30
q-72 41 -72 177v26h85v-26q0 -65 9 -87q11 -30 51 -40t138 -10v276q-148 1 -198 26q-79 39 -79 166q0 136 71 179q53 33 206 33v70h65v-70q153 0 201 -26q65 -37 65 -161v-23h-85v23q0 80 -34 100q-29 17 -147 17z" />
    <glyph glyph-name="percent" unicode="%" horiz-adv-x="884" 
d="M862 240v-110q0 -85 -39 -113q-32 -23 -126 -23q-93 0 -124 22q-36 27 -36 113v110q0 86 36 113q31 23 123 23q95 0 127 -22q39 -28 39 -113zM731 750l-509 -756h-67l506 756h70zM802 132v110q0 55 -20 68q-16 10 -86 10q-65 0 -80 -10q-19 -13 -19 -68v-110
q0 -59 19 -73q14 -10 80 -10q68 0 84 10q22 14 22 73zM347 621v-110q0 -85 -39 -113q-32 -23 -126 -23q-93 0 -124 22q-36 27 -36 113v110q0 86 36 113q31 23 123 23q95 0 127 -22q39 -28 39 -113zM287 513v110q0 55 -20 68q-16 10 -86 10q-65 0 -80 -10q-19 -13 -19 -68
v-110q0 -59 19 -73q14 -10 80 -10q68 0 84 10q22 14 22 73z" />
    <glyph glyph-name="ampersand" unicode="&#x26;" horiz-adv-x="788" 
d="M563 144l-293 241q-82 -19 -101.5 -44.5t-19.5 -114.5q0 -108 34 -133q31 -24 166 -24q98 0 131 7q71 15 83 68zM740 0l-111 92q-29 -65 -111 -86q-50 -12 -169 -12q-155 0 -205 29q-80 46 -80 204q0 86 18 128q16 35 53 52q8 3 82 24q-40 33 -52 58q-16 31 -16 90
q0 105 60 144q50 33 170 33q111 0 157 -35q55 -42 55 -154v-47h-85v47q0 72 -22 93t-105 21q-75 0 -103 -14q-42 -21 -42 -88q0 -38 10.5 -58.5t41.5 -46.5l292 -245l3 50q1 9 -0.5 27t-1.5 25h78q2 -40 2 -59q0 -61 -9 -105l136 -108z" />
    <glyph glyph-name="quotesingle" unicode="'" horiz-adv-x="191" 
d="M49 750h94v-111l-27 -135h-40l-27 135v111z" />
    <glyph glyph-name="parenleft" unicode="(" horiz-adv-x="312" 
d="M250 756v-75h-27q-54 0 -73 -57q-10 -33 -10 -103v-436q0 -70 10 -103q19 -57 73 -57h27v-75h-27q-101 0 -139 71q-29 52 -29 164v436q0 112 29 164q38 71 139 71h27z" />
    <glyph glyph-name="parenright" unicode=")" horiz-adv-x="312" 
d="M62 681v75h27q101 0 140 -71q28 -52 28 -164v-436q0 -112 -28 -164q-39 -71 -140 -71h-27v75h27q54 0 73 57q10 33 10 103v436q0 70 -10 103q-19 57 -73 57h-27z" />
    <glyph glyph-name="asterisk" unicode="*" horiz-adv-x="690" 
d="M545 589l-154 -56l92 -131l-44 -33l-93 135l-100 -135l-44 33l96 131l-153 58l19 54l154 -57v162h55v-162l153 57z" />
    <glyph glyph-name="plus" unicode="+" horiz-adv-x="584" 
d="M255 525h75v-204h204v-75h-204v-205h-75v205h-205v75h205v204z" />
    <glyph glyph-name="comma" unicode="," horiz-adv-x="345" 
d="M159 0h-38v102h89v-121q0 -46 -14 -67q-17 -26 -63 -26h-23v45q27 1 38 11t11 37v19z" />
    <glyph glyph-name="hyphen" unicode="-" horiz-adv-x="261" 
d="M0 311h261v-75h-261v75z" />
    <glyph glyph-name="hyphen" unicode="&#x2010;" horiz-adv-x="261" 
d="M0 311h261v-75h-261v75z" />
    <glyph glyph-name="period" unicode="." horiz-adv-x="345" 
d="M199 102v-102h-89v102h89z" />
    <glyph glyph-name="slash" unicode="/" horiz-adv-x="727" 
d="M699 750l-580 -863h-91l578 863h93z" />
    <glyph glyph-name="zero" unicode="0" horiz-adv-x="690" 
d="M344 681q-107 0 -142 -7q-52 -12 -71.5 -52t-19.5 -137v-220q0 -97 19.5 -137t71.5 -52q35 -7 142 -7q108 0 144 7q52 12 71.5 52t19.5 137v220q0 97 -19.5 137t-71.5 52q-36 7 -144 7zM346 -6q-187 0 -248 45q-72 54 -72 226v220q0 172 72 226q61 45 246 45
q187 0 248 -45q72 -54 72 -226v-220q0 -172 -72 -226q-61 -45 -246 -45z" />
    <glyph glyph-name="one" unicode="1" horiz-adv-x="690" 
d="M448 750v-750h-85v685l-192 -211l-53 51l207 225h123z" />
    <glyph glyph-name="two" unicode="2" horiz-adv-x="690" 
d="M612 75v-75h-540v127q0 135 64 180q45 31 199 47q101 10 121 15q43 11 58 41.5t15 108.5q0 111 -35 139q-28 23 -141 23q-135 0 -165.5 -23t-30.5 -126v-39h-85v39q0 92 15 131q19 50 78.5 71.5t187.5 21.5q151 0 206 -48t55 -189q0 -142 -59 -189q-48 -39 -200 -51
q-123 -10 -159 -34q-39 -26 -39 -106v-64h455z" />
    <glyph glyph-name="three" unicode="3" horiz-adv-x="690" 
d="M275 347v75h89q93 0 116 14q36 22 36 110q0 93 -31 114t-164 21q-110 0 -139 -21.5t-29 -107.5v-32h-85v32q0 133 67 174q48 30 197 30q147 0 195 -25q74 -38 74 -170q0 -84 -21 -120q-27 -49 -103 -55v-2q82 -6 112 -48q27 -37 27 -124q0 -107 -36 -157
q-31 -43 -100 -55q-38 -6 -156 -6q-143 0 -197 34q-69 42 -69 165v50h85v-50q0 -86 30 -105q27 -17 151 -19q140 -2 173.5 20.5t33.5 131.5q0 87 -43 111q-28 15 -124 15h-89z" />
    <glyph glyph-name="four" unicode="4" horiz-adv-x="690" 
d="M537 750v-504h109v-75h-109v-171h-85v171h-422v101l377 478h130zM452 246v449h-2l-350 -449h352z" />
    <glyph glyph-name="five" unicode="5" horiz-adv-x="690" 
d="M166 675v-224h2q37 62 202 62q160 0 214 -72q38 -52 38 -181q0 -173 -53 -221q-49 -45 -223 -45q-160 0 -210 33q-60 39 -67 170l-1 18h86v-25q0 -81 46 -104q33 -17 146 -17q129 0 162 34q29 31 29 157q0 118 -34 148t-157 30q-87 0 -108 -4q-63 -12 -72 -64h-85v380
h510v-75h-425z" />
    <glyph glyph-name="six" unicode="6" horiz-adv-x="690" 
d="M363 389q-131 0 -167 -20q-44 -23 -44 -110q0 -125 30 -156q32 -34 163 -34q95 0 134 12t50 47q9 26 9 101q0 107 -28 133.5t-147 26.5zM67 259v297q0 124 75 167q59 33 207 33q126 0 175 -21q82 -36 82 -151v-24h-85v21q0 69 -44 88q-29 12 -128 12q-119 0 -150 -15
q-47 -22 -47 -110v-161h2q28 69 191 69q165 0 217 -38q61 -46 61 -197q0 -147 -59 -193q-54 -42 -219 -42t-218 45q-60 52 -60 220z" />
    <glyph glyph-name="seven" unicode="7" horiz-adv-x="690" 
d="M610 750v-107l-364 -643h-100l394 680h-477v70h547z" />
    <glyph glyph-name="eight" unicode="8" horiz-adv-x="690" 
d="M345 69q123 -2 159 24t36 114q0 94 -33 118t-162 24t-160 -21q-35 -24 -35 -121q0 -66 9 -89q12 -29 53 -39q36 -8 133 -10zM345 756q155 0 203 -26q68 -38 68 -168q0 -82 -19 -115q-24 -44 -100 -57v-1q75 -12 101.5 -51t26.5 -131q0 -138 -58 -178q-51 -35 -222 -35
q-112 0 -152 7q-66 13 -95 55q-33 48 -33 151q0 91 20 124q26 45 110 58v2q-74 13 -98 51q-22 33 -22 120q0 129 66 167q48 27 204 27zM345 424q126 0 157 25q29 22 29 113q0 79 -28 98q-31 21 -158 21q-128 0 -156.5 -19t-28.5 -100q0 -89 28 -112q32 -26 157 -26z" />
    <glyph glyph-name="nine" unicode="9" horiz-adv-x="690" 
d="M349 366q131 0 162 23.5t31 128.5q0 113 -40 142q-31 21 -153 21q-132 0 -160 -22q-32 -25 -32 -141q0 -104 34 -129q31 -23 158 -23zM63 163v28h85v-28q0 -63 38 -79q34 -15 163 -15q125 0 156 23q37 27 37 139v125l-2 2q-30 -67 -191 -67q-164 0 -216 39
q-61 44 -61 188q0 150 57 196q52 42 220 42q165 0 219 -42q59 -47 59 -196v-287q0 -145 -49 -189q-53 -48 -229 -48q-157 0 -209 23q-77 33 -77 146z" />
    <glyph glyph-name="colon" unicode=":" horiz-adv-x="345" 
d="M199 102v-102h-89v102h89zM199 525v-102h-89v102h89z" />
    <glyph glyph-name="semicolon" unicode=";" horiz-adv-x="345" 
d="M159 0h-38v102h89v-121q0 -46 -14 -67q-17 -26 -63 -26h-23v45q27 1 38 11t11 37v19zM210 525v-102h-89v102h89z" />
    <glyph glyph-name="less" unicode="&#x3c;" horiz-adv-x="584" 
d="M534 484v-80l-395 -162l395 -162v-80l-484 207v70z" />
    <glyph glyph-name="equal" unicode="=" horiz-adv-x="584" 
d="M50 399h484v-75h-484v75zM50 244h484v-75h-484v75z" />
    <glyph glyph-name="greater" unicode="&#x3e;" horiz-adv-x="584" 
d="M534 277v-70l-484 -207v80l391 162l-391 162v80z" />
    <glyph glyph-name="question" unicode="?" horiz-adv-x="584" 
d="M299 214h-85v27q0 70 28 100q24 26 113 60q68 26 83 57q10 20 10 98q0 82 -29 105q-26 20 -121 20q-100 0 -127 -18q-34 -22 -34 -107v-43h-80v43q0 128 60 169q46 31 181 31q128 0 177 -39q53 -43 53 -161q0 -101 -20 -141q-26 -52 -111 -81q-66 -23 -80 -35
q-18 -16 -18 -58v-27zM301 102v-102h-89v102h89z" />
    <glyph glyph-name="at" unicode="@" horiz-adv-x="990" 
d="M644 550h71l-89 -280q-2 -7 -2 -13q0 -31 56 -31q65 0 105 78q35 66 35 146q0 106 -101 177q-93 65 -209 64q-134 -1 -236.5 -107t-98.5 -240q4 -124 99 -206q92 -80 219 -79q73 0 168 30l25 -58q-97 -36 -191 -37q-161 -2 -277 96q-122 104 -118 262q4 162 126.5 283
t282.5 121q144 0 256 -77q125 -87 125 -222q0 -110 -61 -196q-68 -95 -172 -95q-89 0 -98 65q-61 -61 -119 -63q-66 -2 -108 50q-39 49 -36 116q4 89 66 160t150 76q36 2 69.5 -20.5t42.5 -56.5h2zM594 445q-3 31 -24.5 48t-52.5 17q-62 0 -105 -60q-38 -54 -41 -119
q-2 -39 24.5 -73t65.5 -34q60 0 102 85q37 75 31 136z" />
    <glyph glyph-name="A" unicode="A" horiz-adv-x="685" 
d="M532 159h-379l-58 -159h-89l273 750h120l280 -750h-88zM508 229l-167 451l-165 -451h332z" />
    <glyph glyph-name="B" unicode="B" horiz-adv-x="694" 
d="M146 348v-273h269q77 0 103 20q34 25 34 106t-21 111q-27 36 -106 36h-279zM460 0h-399v750h380q101 0 140 -50q34 -44 34 -148q0 -65 -18 -99q-21 -41 -76 -59v-2q69 -12 96 -63q20 -40 20 -120q0 -209 -177 -209zM146 675v-252h247q79 0 108 27.5t29 112.5q0 71 -31 94
q-24 18 -97 18h-256z" />
    <glyph glyph-name="C" unicode="C" horiz-adv-x="665" 
d="M383 -6h-120q-103 0 -160.5 62t-57.5 174v290q0 146 88 198q66 38 225 38h70q115 0 160 -50.5t45 -165.5v-24h-85v21q0 82 -25 111q-27 33 -107 33h-48q-139 0 -185 -28q-53 -31 -53 -130v-206q0 -144 21 -188q29 -60 128 -60h101q105 0 141.5 24t36.5 102v60h85v-70
q0 -118 -74 -160q-54 -31 -186 -31z" />
    <glyph glyph-name="D" unicode="D" horiz-adv-x="734" 
d="M64 0v750h365q106 0 163 -41q94 -67 94 -248v-179q0 -102 -34 -169q-58 -113 -203 -113h-385zM149 75h280q104 0 142 61q30 47 30 161v197q0 59 -25 106q-41 75 -133 75h-294v-600z" />
    <glyph glyph-name="E" unicode="E" horiz-adv-x="560" 
d="M126 675v-255h380v-70h-380v-275h397v-75h-482v750h482v-75h-397z" />
    <glyph glyph-name="F" unicode="F" horiz-adv-x="549" 
d="M150 675v-262h365v-70h-365v-343h-85v750h460v-75h-375z" />
    <glyph glyph-name="G" unicode="G" horiz-adv-x="696" 
d="M339 375h324v-163q0 -127 -61 -175q-54 -43 -188 -43h-82q-161 0 -219 48q-69 56 -69 221v232q0 143 62 207q53 54 158 54h197q200 0 200 -167v-58h-85v43q0 64 -32 85.5t-124 21.5h-105q-120 0 -153 -36t-33 -160v-241q0 -105 42 -141q38 -34 146 -34h80
q114 0 147.5 24.5t33.5 113.5v93h-239v75z" />
    <glyph glyph-name="H" unicode="H" horiz-adv-x="750" 
d="M680 750v-750h-85v345h-439v-345h-85v750h85v-330h439v330h85z" />
    <glyph glyph-name="I" unicode="I" horiz-adv-x="228" 
d="M157 750v-750h-85v750h85z" />
    <glyph glyph-name="J" unicode="J" horiz-adv-x="565" 
d="M409 750h84v-569q0 -105 -64 -150q-53 -37 -164 -37q-115 0 -167 29q-69 38 -69 140v110h85v-85q0 -72 23 -94q26 -25 113 -25q78 0 108 13q50 21 50 87z" />
    <glyph glyph-name="K" unicode="K" horiz-adv-x="678" 
d="M157 750v-328h74l306 328h111l-343 -363l384 -387h-115l-343 347h-74v-347h-85v750h85z" />
    <glyph glyph-name="L" unicode="L" horiz-adv-x="558" 
d="M160 750v-675h382v-75h-467v750h85z" />
    <glyph glyph-name="M" unicode="M" horiz-adv-x="965" 
d="M808 686l-283 -686h-84l-284 686h-2v-686h-85v750h147l265 -642l266 642h147v-750h-85v686h-2z" />
    <glyph glyph-name="N" unicode="N" horiz-adv-x="783" 
d="M715 750v-750h-139l-421 680h-2v-680h-85v750h140l420 -685h2v685h85z" />
    <glyph glyph-name="O" unicode="O" horiz-adv-x="671" 
d="M285 756h101q139 0 191.5 -55t52.5 -197v-267q0 -133 -54.5 -188t-189.5 -55h-101q-135 0 -189.5 55t-54.5 188v267q0 142 52.5 197t191.5 55zM386 681h-101q-96 0 -127.5 -34.5t-31.5 -142.5v-267q0 -105 38 -140q32 -28 121 -28h101q89 0 121 28q38 35 38 140v267
q0 108 -31.5 142.5t-127.5 34.5z" />
    <glyph glyph-name="P" unicode="P" horiz-adv-x="661" 
d="M59 0v750h382q101 0 144 -65q35 -54 35 -162q0 -91 -23 -141q-42 -90 -160 -90h-293v-292h-85zM404 675h-260v-308h220q100 0 128 18q43 27 43 127q0 105 -26 136q-24 27 -105 27z" />
    <glyph glyph-name="Q" unicode="Q" horiz-adv-x="737" 
d="M734 92l-35 -58l-56 38q-64 -78 -217 -78h-117q-154 0 -209 68q-50 60 -50 219v212q0 140 59.5 201.5t199.5 61.5h117q144 0 202.5 -58.5t58.5 -204.5v-212q0 -100 -16 -147zM380 326l216 -142q6 16 6 59v279q0 78 -29 114q-36 45 -130 45h-143q-94 0 -129.5 -37.5
t-35.5 -133.5v-244q0 -122 35 -161q32 -36 130 -36h143q99 0 132 47l-234 152z" />
    <glyph glyph-name="R" unicode="R" horiz-adv-x="701" 
d="M154 300v-300h-85v750h346q126 0 177 -44q56 -48 56 -172q0 -92 -21 -133q-28 -55 -110 -65v-2q121 -9 121 -135v-199h-85v159q0 76 -24 106q-28 35 -102 35h-273zM154 375h262q94 0 123 38q24 31 24 130q0 78 -23 102q-29 30 -124 30h-262v-300z" />
    <glyph glyph-name="S" unicode="S" horiz-adv-x="629" 
d="M311 346l-137 11q-68 11 -100 46q-38 43 -38 135q0 140 69 184q53 34 208 34q148 0 199 -29q77 -43 71 -182h-85q-3 95 -36 117q-28 19 -152 19q-123 0 -156 -23t-33 -102q0 -68 23 -97q20 -25 69 -32q9 -1 116 -6q114 -5 149 -12q62 -13 89 -54q30 -45 30 -142
q0 -146 -74 -189q-51 -30 -215 -30q-149 0 -204 32q-72 41 -72 165q0 20 2 43h85q-1 -118 34 -144q28 -21 155 -21q131 0 162 18q42 25 42 129q0 68 -22 95q-18 23 -66 28q-57 4 -113 7z" />
    <glyph glyph-name="T" unicode="T" horiz-adv-x="579" 
d="M332 675v-675h-85v675h-243v75h571v-75h-243z" />
    <glyph glyph-name="U" unicode="U" horiz-adv-x="737" 
d="M581 750h85v-540q0 -138 -82 -183q-59 -33 -215 -33q-154 0 -210 29q-87 44 -87 187v540h85v-540q0 -91 37.5 -116t174.5 -25q128 0 163 18q49 26 49 123v540z" />
    <glyph glyph-name="V" unicode="V" horiz-adv-x="643" 
d="M558 750h91l-266 -750h-121l-268 750h91l236 -685h3z" />
    <glyph glyph-name="W" unicode="W" horiz-adv-x="1123" 
d="M1121 750l-236 -750h-129l-196 675h-2l-199 -675h-127l-230 750h87l204 -685h2l202 685h125l200 -685h2l209 685h88z" />
    <glyph glyph-name="X" unicode="X" horiz-adv-x="653" 
d="M641 750l-240 -362l258 -388h-100l-228 345l-233 -345h-104l268 388l-246 362h102l213 -321l210 321h100z" />
    <glyph glyph-name="Y" unicode="Y" horiz-adv-x="632" 
d="M638 750l-284 -437v-313h-85v313l-275 437h99l222 -351l222 351h101z" />
    <glyph glyph-name="Z" unicode="Z" horiz-adv-x="637" 
d="M601 750v-79l-472 -596h482v-75h-585v74l471 601h-457v75h561z" />
    <glyph glyph-name="bracketleft" unicode="[" horiz-adv-x="311" 
d="M55 756h194v-75h-109v-756h109v-75h-194v906z" />
    <glyph glyph-name="backslash" unicode="\" horiz-adv-x="278" 
d="M224 0l-247 750h78l247 -750h-78z" />
    <glyph glyph-name="bracketright" unicode="]" horiz-adv-x="311" 
d="M256 -150h-194v75h109v756h-109v75h194v-906z" />
    <glyph glyph-name="asciicircum" unicode="^" horiz-adv-x="584" 
d="M257 750h70l207 -489h-80l-162 391l-162 -391h-80z" />
    <glyph glyph-name="underscore" unicode="_" horiz-adv-x="500" 
d="M500 -75v-75h-500v75h500z" />
    <glyph glyph-name="grave" unicode="`" horiz-adv-x="338" 
d="M115 743l148 -113l-26 -41l-162 100z" />
    <glyph glyph-name="a" unicode="a" 
d="M263 58q78 0 109 13q50 21 50 85q0 67 -42 86q-27 12 -117 12q-77 0 -101 -14q-31 -17 -31 -77q0 -70 32 -90q23 -15 100 -15zM503 0h-79v54l-2 2q-20 -40 -73 -53q-33 -9 -100 -9q-100 0 -144 28q-56 36 -56 131q0 101 54 137q42 28 151 28q153 0 165 -53h5v97
q0 67 -37 89q-27 16 -103 16q-65 0 -92 -9q-45 -15 -45 -63v-18h-82v11q0 92 61 122q42 21 149 21q117 0 164 -26q64 -38 64 -147v-358z" />
    <glyph glyph-name="b" unicode="b" horiz-adv-x="574" 
d="M441 262q0 130 -25.5 167.5t-119.5 37.5q-97 0 -125 -46q-22 -36 -22 -159q0 -126 29.5 -165t117.5 -39q98 0 125 48q20 35 20 156zM68 0v750h79v-293h2q28 74 169 74q126 0 170 -73q35 -57 35 -196q0 -143 -34 -198q-44 -70 -171 -70q-133 0 -169 70l-2 -2v-62h-79z" />
    <glyph glyph-name="c" unicode="c" horiz-adv-x="546" 
d="M426 190h79v-29q0 -102 -65 -139q-48 -28 -158 -28q-153 0 -198 66q-35 51 -35 213q0 140 39 193q47 65 181 65q114 0 161 -26q66 -35 66 -137v-14h-79v16q0 65 -37 84q-26 13 -106 13q-99 0 -124 -45q-19 -34 -19 -171q0 -120 22 -152q29 -41 138 -41q79 0 105 17
q30 21 30 89v26z" />
    <glyph glyph-name="d" unicode="d" horiz-adv-x="574" 
d="M280 58q91 0 118.5 40t27.5 164q0 116 -25 157q-29 48 -121 48q-94 0 -120 -33q-29 -38 -29 -172q0 -131 32 -170q28 -34 117 -34zM426 0v66l-2 2q-36 -74 -169 -74q-129 0 -173 74q-33 55 -33 194t33 194q44 75 173 75q143 0 169 -71h2v290h79v-750h-79z" />
    <glyph glyph-name="e" unicode="e" horiz-adv-x="565" 
d="M431 159h81v-19q0 -94 -68 -125q-45 -21 -156 -21q-148 0 -195 59q-41 52 -41 209q0 163 47 216t189 53q131 0 176 -44q48 -47 48 -189v-53h-378q0 -126 24.5 -156.5t129.5 -30.5q86 0 112 13q31 15 31 68v20zM134 309h296q-3 109 -27 135q-23 23 -115 23
q-101 0 -128 -34q-21 -25 -26 -124z" />
    <glyph glyph-name="f" unicode="f" horiz-adv-x="302" 
d="M167 525h139v-64h-139v-461h-79v461h-80v64h80v63q0 96 36 132t133 36q17 0 49 -2v-64q-32 2 -49 2q-57 0 -75 -22q-15 -18 -15 -74v-71z" />
    <glyph glyph-name="g" unicode="g" horiz-adv-x="573" 
d="M277 58q103 0 133 58q19 37 19 146q0 120 -23 157q-29 48 -129 48t-127 -51q-17 -33 -17 -154q0 -119 15 -149q26 -55 129 -55zM508 525v-587q0 -97 -68 -138q-55 -33 -163 -33t-154 28q-61 39 -56 143h79q0 -70 34 -91q25 -16 97 -16q81 0 111 18q41 24 41 95v121h-2
q-24 -71 -169 -71q-122 0 -167 67q-40 57 -40 201t36 200q44 69 171 69q133 0 169 -73l2 1v66h79z" />
    <glyph glyph-name="h" unicode="h" horiz-adv-x="580" 
d="M148 750v-289h2q28 70 162 70q106 0 150 -36q48 -41 48 -146v-349h-79v355q0 69 -30 92q-25 20 -96 20q-95 0 -126 -34t-31 -127v-306h-79v750h79z" />
    <glyph glyph-name="i" unicode="i" horiz-adv-x="215" 
d="M147 525v-525h-79v525h79zM147 750v-87h-79v87h79z" />
    <glyph glyph-name="j" unicode="j" horiz-adv-x="209" 
d="M147 525v-588q0 -71 -20 -103q-26 -43 -93 -43q-17 0 -39 5v61q2 0 8 -1h8q42 0 53 35q4 15 4 72v562h79zM147 750v-87h-79v87h79z" />
    <glyph glyph-name="k" unicode="k" horiz-adv-x="487" 
d="M147 750v-434h32l189 209h97l-225 -241l266 -284h-104l-223 252h-32v-252h-79v750h79z" />
    <glyph glyph-name="l" unicode="l" horiz-adv-x="214" 
d="M147 750v-750h-79v750h79z" />
    <glyph glyph-name="m" unicode="m" horiz-adv-x="919" 
d="M145 525v-81h2q36 87 175 87t162 -87q44 87 187 87q100 0 141 -43t41 -142v-346h-79v338q0 72 -19 98q-24 31 -96 31q-87 0 -122 -30q-38 -32 -38 -115v-322h-79v352q0 63 -16 84q-23 31 -101 31q-158 0 -158 -151v-316h-79v525h79z" />
    <glyph glyph-name="n" unicode="n" horiz-adv-x="580" 
d="M148 525v-64h2q28 70 162 70q106 0 150 -36q48 -41 48 -146v-349h-79v355q0 69 -30 92q-25 20 -96 20q-95 0 -126 -34t-31 -127v-306h-79v525h79z" />
    <glyph glyph-name="o" unicode="o" 
d="M52 262q0 167 43.5 218t189.5 51t189.5 -51t43.5 -218q0 -166 -43.5 -217t-189.5 -51t-189.5 51t-43.5 217zM134 262q0 -138 23.5 -171t127.5 -33t127.5 33t23.5 171q0 139 -23.5 172t-127.5 33t-127.5 -33t-23.5 -172z" />
    <glyph glyph-name="p" unicode="p" horiz-adv-x="573" 
d="M294 467q-103 0 -130 -50q-19 -34 -19 -155q0 -109 22 -148q30 -56 127 -56q91 0 118 38t27 166q0 125 -22 161q-27 44 -123 44zM145 525v-64l2 -2q38 72 169 72t174 -76q31 -53 31 -193q0 -155 -44 -211.5t-161 -56.5q-136 0 -169 68h-2v-289h-79v752h79z" />
    <glyph glyph-name="q" unicode="q" horiz-adv-x="575" 
d="M284 58q93 0 122 51q21 38 21 153q0 123 -21 158q-29 47 -134 47q-83 0 -109 -34q-29 -39 -29 -171q0 -123 20 -157q27 -47 130 -47zM508 525v-752h-79v287h-2q-29 -66 -154 -66t-170 49q-51 56 -51 219q0 145 36 199q46 70 185 70q117 0 154 -71l2 2v63h79z" />
    <glyph glyph-name="r" unicode="r" horiz-adv-x="442" 
d="M58 525h77l-4 -65l2 -2q34 73 149 73q146 0 146 -148v-38h-75v35q0 49 -19.5 68t-68.5 19q-71 0 -99.5 -33.5t-28.5 -106.5v-327h-79v525z" />
    <glyph glyph-name="s" unicode="s" horiz-adv-x="537" 
d="M484 408v-20h-82v20q0 36 -30 46q-21 7 -93 7q-87 0 -111 -8q-36 -11 -36 -56q0 -65 23 -79q13 -8 85 -12q63 -3 127 -6q64 -8 94 -37q37 -36 37 -115q0 -100 -66 -132q-43 -22 -153 -22q-111 0 -159 18q-74 27 -74 105v49h82v-41q0 -37 30 -49t121 -12q71 0 89 6
q48 15 48 75q0 47 -13 63.5t-46 19.5q-39 1 -78 3q-103 7 -110 8q-57 8 -85 35q-34 33 -34 102q0 104 61 135q41 20 168 20q95 0 137 -17q68 -27 68 -106z" />
    <glyph glyph-name="t" unicode="t" horiz-adv-x="366" 
d="M346 525v-64h-203v-333q0 -42 15 -56t59 -14q50 0 65 26q9 16 9 63v39h75v-39q0 -79 -35.5 -116t-115.5 -37q-91 0 -121 32.5t-30 125.5v309h-70v64h70v127h79v-127h203z" />
    <glyph glyph-name="u" unicode="u" 
d="M420 0v70h-2q-33 -76 -164 -76q-103 0 -145.5 44.5t-42.5 149.5v337h79v-337q0 -73 16 -97q21 -33 92 -33q91 0 126 25q42 30 42 118v324h79v-525h-80z" />
    <glyph glyph-name="v" unicode="v" horiz-adv-x="453" 
d="M457 525l-176 -525h-111l-174 525h80l149 -465h2l144 465h86z" />
    <glyph glyph-name="w" unicode="w" horiz-adv-x="754" 
d="M751 525l-147 -525h-115l-112 470h-2l-113 -470h-116l-142 525h81l119 -470h2l115 470h113l114 -470h2l119 470h82z" />
    <glyph glyph-name="x" unicode="x" horiz-adv-x="454" 
d="M438 525l-167 -251l187 -274h-95l-136 212l-136 -212h-95l190 274l-170 251h89l122 -192l119 192h92z" />
    <glyph glyph-name="y" unicode="y" horiz-adv-x="437" 
d="M441 525l-151 -562q-27 -100 -51 -135q-42 -61 -126 -61q-8 0 -36 5v61q14 -3 28 -3q52 0 79 62l30 108h-28l-190 525h81l162 -467h2l118 467h82z" />
    <glyph glyph-name="z" unicode="z" horiz-adv-x="454" 
d="M430 525v-73l-313 -388h313v-64h-405v73l313 388h-287v64h379z" />
    <glyph glyph-name="braceleft" unicode="{" horiz-adv-x="334" 
d="M48 266v75q51 6 68 47q10 25 10 85v164q0 48 31 86q27 33 51 33h83v-75h-44q-36 0 -36 -61v-163q0 -106 -72 -154q72 -56 72 -154v-162q0 -62 36 -62h44v-75h-83q-24 0 -51 32q-31 38 -31 87v164q0 60 -11 85q-16 41 -67 48z" />
    <glyph glyph-name="bar" unicode="|" horiz-adv-x="260" 
d="M168 750v-750h-75v750h75z" />
    <glyph glyph-name="braceright" unicode="}" horiz-adv-x="334" 
d="M286 340v-75q-51 -6 -68 -47q-10 -25 -10 -85v-164q0 -48 -31 -86q-27 -33 -51 -33h-83v75h44q36 0 36 61v163q0 106 72 154q-72 56 -72 154v162q0 62 -36 62h-44v75h83q24 0 51 -32q31 -38 31 -87v-164q0 -60 11 -85q16 -41 67 -48z" />
    <glyph glyph-name="asciitilde" unicode="~" horiz-adv-x="584" 
d="M120 215v0h-70q6 155 110 164q38 3 67 -14l146 -88q22 -13 47 -13q26 1 38 28q9 24 6 57h70q5 -56 -26 -106q-35 -54 -90 -55q-45 0 -90 28l-120 76q-19 16 -40 16t-36 -28.5t-12 -64.5z" />
    <glyph glyph-name="euro" horiz-adv-x="498" 
d="M522 633l-23 -156l-48 6q0 157 -94 157q-103 0 -161 -211h172l-21 -48h-164q-6 -24 -16 -73h147l-21 -47h-134q-6 -41 -6 -74q0 -56 21 -91q26 -43 78 -43q58 0 101 68q24 38 51 119l55 -10l-54 -188q-77 -53 -159 -53q-111 0 -166 84q-47 71 -47 188h-74l21 47h56
q3 25 12 73h-66l21 48h59q41 112 108 183q83 88 187 88q94 0 165 -67z" />
    <glyph glyph-name="exclamdown" unicode="&#xa1;" horiz-adv-x="270" 
d="M177 525v-102h-89v102h89zM88 -225l8 543h73l8 -543h-89z" />
    <glyph glyph-name="cent" unicode="&#xa2;" horiz-adv-x="690" 
d="M300 142v407q-80 -3 -101 -52q-15 -33 -15 -149q0 -120 18 -157q22 -45 98 -49zM300 687h65v-73q90 -2 134 -37q52 -43 49 -140h-80q4 63 -18.5 86.5t-84.5 25.5v-407q63 0 86 18q28 22 28 84v29h80v-29q0 -94 -47.5 -131.5t-146.5 -35.5v-83h-65v83q-124 -3 -169 79
q-32 57 -32 192q0 134 32 188q43 75 169 78v73z" />
    <glyph glyph-name="sterling" unicode="&#xa3;" horiz-adv-x="690" 
d="M442 363v-70h-213v-62q0 -71 -6 -94q-11 -43 -56 -71l2 -2l484 9v-73h-582v64q51 8 66 65q7 27 7 102v62h-92v70h92v168q0 139 59 186q49 39 182 39q152 0 203 -41.5t51 -172.5v-16h-80v16q0 90 -28 114.5t-128 24.5q-121 0 -147.5 -23t-26.5 -127v-168h213z" />
    <glyph glyph-name="currency" unicode="&#xa4;" horiz-adv-x="690" 
d="M134 497l54 57l58 -59q49 23 93 24q49 2 102 -24l56 54l59 -61l-58 -55q19 -29 26 -85q2 -52 -30 -106l57 -57l-58 -55l-53 55q-49 -31 -100 -33q-36 -1 -93 25l-54 -51l-55 59l49 51q-30 38 -29 104q1 69 34 97zM339 217q44 0 79 29q41 35 41 94q0 54 -41 87
q-35 27 -79 27t-77 -28q-39 -32 -39 -89t40 -91q33 -29 76 -29z" />
    <glyph glyph-name="yen" unicode="&#xa5;" horiz-adv-x="690" 
d="M505 512h102v-70h-145l-68 -112h213v-70h-223v-260h-85v260h-216v70h206l-67 112h-139v70h98l-143 238h99l210 -351l207 351h98z" />
    <glyph glyph-name="brokenbar" unicode="&#xa6;" horiz-adv-x="260" 
d="M168 0h-75v303h75v-303zM168 750v-303h-75v303h75z" />
    <glyph glyph-name="section" unicode="&#xa7;" horiz-adv-x="690" 
d="M253 207l146 -41q38 -11 62 -11q37 0 52.5 26.5t15.5 86.5q0 41 -32 60q-14 9 -67 25l-139 41q-43 13 -68 13q-64 0 -64 -103q0 -51 24 -70q13 -11 70 -27zM416 85l-208 55q-76 20 -100 50t-24 110q0 58 15 88q20 39 71 48v2q-55 28 -55 130q0 126 55 162q41 26 180 26
q151 0 194.5 -35t44.5 -164h-75q0 87 -26.5 108t-137.5 21q-99 0 -122 -10q-38 -18 -38 -90q0 -64 19 -83q15 -14 92 -36l146 -41q92 -26 114 -42q43 -31 43 -109q0 -126 -73 -147v-2q46 -16 63 -59q12 -30 12 -89q0 -131 -68 -170q-45 -26 -188 -26q-154 0 -201 31
q-61 40 -61 178h75q1 -64 8 -84q11 -32 49 -43.5t130 -11.5q105 0 132 12q49 22 49 110q0 59 -27 80q-15 12 -88 31z" />
    <glyph glyph-name="dieresis" unicode="&#xa8;" horiz-adv-x="438" 
d="M163 653v-74h-88v74h88zM363 653v-74h-88v74h88z" />
    <glyph glyph-name="copyright" unicode="&#xa9;" horiz-adv-x="780" 
d="M391 756q158 0 269.5 -111.5t111.5 -269.5q0 -159 -111.5 -270t-269.5 -111q-159 0 -271 111t-112 270q0 158 112 269.5t271 111.5zM391 696q-133 0 -227 -93.5t-94 -225.5q0 -134 94 -228.5t227 -94.5t226 94.5t93 228.5q0 132 -93.5 225.5t-225.5 93.5zM525 305h60
q-7 -67 -58 -107.5t-119 -40.5q-95 0 -153.5 63t-58.5 158q0 96 56.5 157.5t152.5 61.5q70 0 119.5 -38.5t60.5 -105.5h-60q-8 44 -40 68.5t-79 24.5q-73 0 -113 -48q-37 -44 -37 -119q0 -73 39 -120q42 -51 113 -51q46 0 78.5 25.5t38.5 71.5z" />
    <glyph glyph-name="ordfeminine" unicode="&#xaa;" horiz-adv-x="440" 
d="M41 362h358v-55h-358v55zM311 435v24l-2 2q-26 -32 -110 -32q-63 0 -93 18q-38 22 -38 80q0 61 35 85q29 19 95 19q83 0 106 -25q0 63 -10 79q-15 23 -71 23q-51 0 -66 -8q-20 -9 -17 -41h-60q0 63 41 84q27 13 95 13q75 0 105 -16q43 -23 43 -90v-215h-53zM208 477
q48 0 66 7q30 11 30 45q0 35 -23 46q-17 8 -63 8q-52 0 -67 -7q-20 -10 -20 -43q0 -37 19 -48q14 -8 58 -8z" />
    <glyph glyph-name="guillemotleft" unicode="&#xab;" horiz-adv-x="503" 
d="M191 575l58 -35l-118 -251l131 -253l-55 -36l-151 289zM376 575l58 -35l-118 -251l131 -253l-55 -36l-151 289z" />
    <glyph glyph-name="logicalnot" unicode="&#xac;" horiz-adv-x="584" 
d="M459 129v195h-409v75h484v-270h-75z" />
    <glyph glyph-name="sfthyphen" unicode="&#xad;" horiz-adv-x="338" 
d="M8 174l33 122h246l-33 -122h-246z" />
    <glyph glyph-name="registered" unicode="&#xae;" horiz-adv-x="780" 
d="M391 756q158 0 269.5 -111.5t111.5 -269.5q0 -159 -111.5 -270t-269.5 -111q-159 0 -271 111t-112 270q0 158 112 269.5t271 111.5zM391 696q-133 0 -227 -93.5t-94 -225.5q0 -134 94 -228.5t227 -94.5t226 94.5t93 228.5q0 132 -93.5 225.5t-225.5 93.5zM454 354
l127 -193h-67l-122 187h-83v-187h-60v427h186q152 0 152 -113q0 -117 -133 -121zM309 537v-138h112q106 0 106 77q0 61 -104 61h-114z" />
    <glyph glyph-name="macron" unicode="&#xaf;" horiz-adv-x="434" 
d="M79 648h276v-64h-276v64z" />
    <glyph glyph-name="macron" unicode="&#x2c9;" horiz-adv-x="434" 
d="M79 648h276v-64h-276v64z" />
    <glyph glyph-name="degree" unicode="&#xb0;" horiz-adv-x="400" 
d="M350 606q0 -62 -44 -106t-106 -44t-106 44t-44 106t44 106t106 44t106 -44t44 -106zM300 606q0 41 -30 70.5t-71 29.5q-40 0 -69.5 -29.5t-29.5 -70.5q0 -42 29.5 -71t70.5 -29t70.5 29t29.5 71z" />
    <glyph glyph-name="plusminus" unicode="&#xb1;" horiz-adv-x="584" 
d="M255 525h75v-152h204v-75h-204v-152h-75v152h-205v75h205v152zM50 10v75h484v-75h-484z" />
    <glyph glyph-name="twosuperior" unicode="&#xb2;" horiz-adv-x="414" 
d="M105 362h286v-60h-351v76q0 83 42 111q30 20 129 30q78 8 93 17q23 16 23 77q0 56 -21 71q-18 12 -84 12q-80 0 -98.5 -12t-18.5 -63v-23h-65v23q0 80 28 105q34 30 154 30q99 0 134.5 -29t35.5 -114q0 -87 -38 -119q-34 -28 -130 -35q-74 -5 -95 -17q-24 -14 -24 -57
v-23z" />
    <glyph glyph-name="threesuperior" unicode="&#xb3;" horiz-adv-x="414" 
d="M179 508v55h58q55 0 68 8q20 11 20 59t-18.5 59.5t-97.5 11.5q-57 0 -71 -6q-29 -12 -29 -62v-19h-65v19q0 80 44 105q32 18 128 18t126 -15q48 -23 48 -102q0 -51 -13 -73q-18 -29 -67 -32v-2q53 -4 73 -29q17 -22 17 -74q0 -89 -51 -115q-32 -16 -138 -16
q-93 0 -128 21q-45 25 -45 99v30h65v-25q0 -48 17.5 -58.5t90.5 -11.5q83 -1 103.5 11.5t20.5 70.5q0 51 -25 64q-16 9 -73 9h-58z" />
    <glyph glyph-name="acute" unicode="&#xb4;" horiz-adv-x="338" 
d="M224 743l39 -54l-161 -100l-27 41z" />
    <glyph glyph-name="mu" unicode="&#xb5;" 
d="M422 0v70h-2q-33 -76 -164 -76q-70 0 -109 20v-241h-79v752h79v-337q0 -73 16 -97q21 -33 92 -33q91 0 126 25q42 31 42 118v324h79v-525h-80z" />
    <glyph glyph-name="mu" unicode="&#x3bc;" 
d="M422 0v70h-2q-33 -76 -164 -76q-70 0 -109 20v-241h-79v752h79v-337q0 -73 16 -97q21 -33 92 -33q91 0 126 25q42 31 42 118v324h79v-525h-80z" />
    <glyph glyph-name="paragraph" unicode="&#xb6;" horiz-adv-x="690" 
d="M656 -209h-75v889h-89v-889h-75v503h-175q-105 0 -150 39q-58 50 -58 187q0 118 40 169q46 61 168 61h414v-959zM417 364v316h-175q-82 0 -105 -35q-18 -28 -18 -125q0 -96 34 -130q26 -26 89 -26h175z" />
    <glyph glyph-name="ch270" unicode="&#xb7;" horiz-adv-x="249" 
d="M38 348q0 34 23 57t57 23t57.5 -23t23.5 -57t-23.5 -57.5t-57.5 -23.5t-57 23.5t-23 57.5z" />
    <glyph glyph-name="ch270" unicode="&#x2219;" horiz-adv-x="249" 
d="M38 348q0 34 23 57t57 23t57.5 -23t23.5 -57t-23.5 -57.5t-57.5 -23.5t-57 23.5t-23 57.5z" />
    <glyph glyph-name="cedilla" unicode="&#xb8;" horiz-adv-x="270" 
d="M130 -40l54 -30l-77 -107l-43 23z" />
    <glyph glyph-name="onesuperior" unicode="&#xb9;" horiz-adv-x="414" 
d="M269 756v-454h-65v406l-125 -128l-34 41l134 135h90z" />
    <glyph glyph-name="ordmasculine" unicode="&#xba;" horiz-adv-x="440" 
d="M41 362h358v-55h-358v55zM225 756q88 0 115.5 -32t27.5 -129q0 -98 -23 -129q-27 -37 -120 -37q-99 0 -126 31t-27 135q0 94 25 124q30 37 128 37zM225 708q-64 0 -78.5 -18t-14.5 -95q0 -86 13 -102t80 -16q57 0 71 22q12 19 12 96q0 74 -11 91q-14 22 -72 22z" />
    <glyph glyph-name="guillemotright" unicode="&#xbb;" horiz-adv-x="503" 
d="M254 540l58 35l135 -286l-151 -289l-55 36l131 253zM69 540l58 35l135 -286l-151 -289l-55 36l131 253z" />
    <glyph glyph-name="onequarter" unicode="&#xbc;" horiz-adv-x="1035" 
d="M915 450v-299h66v-60h-66v-91h-65v91h-269v72l242 287h92zM850 151v256h-3l-216 -256h219zM803 750l-509 -750h-67l506 750h70zM279 750v-450h-65v402l-125 -128l-34 41l134 135h90z" />
    <glyph glyph-name="onehalf" unicode="&#xbd;" horiz-adv-x="1035" 
d="M784 750l-509 -750h-67l506 750h70zM181 750h90v-450h-65v402l-125 -128l-34 41zM701 60h286v-60h-351v76q0 83 42 111q30 20 129 30q78 8 93 17q23 16 23 77q0 56 -21 71q-18 12 -84 12q-80 0 -98.5 -12t-18.5 -63v-23h-65v23q0 80 28 105q34 30 154 30q99 0 134.5 -29
t35.5 -114q0 -87 -38 -119q-34 -28 -130 -35q-74 -5 -95 -17q-24 -14 -24 -57v-23z" />
    <glyph glyph-name="threequarters" unicode="&#xbe;" horiz-adv-x="1035" 
d="M925 450v-299h66v-60h-66v-91h-65v91h-269v72l242 287h92zM860 151v256h-3l-216 -256h219zM850 750l-509 -750h-67l506 750h70zM186 508v55h58q55 0 68 8q20 11 20 59t-18.5 59.5t-97.5 11.5q-57 0 -71 -6q-29 -12 -29 -62v-19h-65v19q0 80 44 105q32 18 128 18t126 -15
q48 -23 48 -102q0 -51 -13 -73q-18 -29 -67 -32v-2q53 -4 73 -29q17 -22 17 -74q0 -91 -51 -116q-30 -15 -138 -15q-93 0 -128 21q-45 25 -45 99v30h65v-25q0 -48 17.5 -58.5t90.5 -11.5q83 -1 103.5 11.5t20.5 70.5q0 51 -25 64q-16 9 -73 9h-58z" />
    <glyph glyph-name="questiondown" unicode="&#xbf;" horiz-adv-x="584" 
d="M286 309h85v-27q0 -70 -28 -100q-24 -26 -113 -60q-68 -26 -83 -57q-10 -20 -10 -98q0 -82 29 -105q26 -20 121 -20q100 0 127 18q34 22 34 107v43h80v-43q0 -128 -60 -169q-46 -31 -181 -31q-128 0 -176 39q-54 43 -54 161q0 101 20 141q26 52 111 81q66 23 80 35
q18 16 18 58v27zM372 525v-102h-89v102h89z" />
    <glyph glyph-name="Agrave" unicode="&#xc0;" horiz-adv-x="685" 
d="M355 815h-29l-165 128h106zM679 0h-88l-59 159h-379l-58 -159h-89l273 750h120zM508 229l-167 451l-165 -451h332z" />
    <glyph glyph-name="Aacute" unicode="&#xc1;" horiz-adv-x="685" 
d="M532 159h-379l-58 -159h-89l273 750h120l280 -750h-88zM508 229l-167 451l-165 -451h332zM413 943h106l-165 -128h-29z" />
    <glyph glyph-name="Acircumflex" unicode="&#xc2;" horiz-adv-x="685" 
d="M532 159h-379l-58 -159h-89l273 750h120l280 -750h-88zM508 229l-167 451l-165 -451h332zM340 911l155 -107l-21 -28l-134 68l-140 -68l-19 28z" />
    <glyph glyph-name="Atilde" unicode="&#xc3;" horiz-adv-x="685" 
d="M532 159h-379l-58 -159h-89l273 750h120l280 -750h-88zM508 229l-167 451l-165 -451h332zM206 815h-47q61 100 128 105q35 3 40 -3l64 -42q9 -9 27 -9q35 0 57 55h45q-15 -36 -53 -68q-41 -35 -77 -36q-38 -1 -50 8l-51 38q-5 11 -20 11q-17 0 -37 -22q-18 -18 -26 -37z
" />
    <glyph glyph-name="Adieresis" unicode="&#xc4;" horiz-adv-x="685" 
d="M532 159h-379l-58 -159h-89l273 750h120l280 -750h-88zM508 229l-167 451l-165 -451h332zM287 878v-74h-88v74h88zM487 878v-74h-88v74h88z" />
    <glyph glyph-name="Aring" unicode="&#xc5;" horiz-adv-x="685" 
d="M532 159h-379l-58 -159h-89l273 750h120l280 -750h-88zM508 229l-167 451l-165 -451h332zM256 874q0 35 25.5 61t60.5 26q36 0 61.5 -26t25.5 -61q0 -36 -25.5 -61.5t-61.5 -25.5q-35 0 -60.5 25.5t-25.5 61.5zM294 874q0 -20 14 -34.5t34 -14.5t34.5 14.5t14.5 34.5
t-14.5 34.5t-34.5 14.5t-34 -14.5t-14 -34.5z" />
    <glyph glyph-name="AE" unicode="&#xc6;" horiz-adv-x="1044" 
d="M614 675v-255h375v-70h-375v-275h393v-75h-478v155h-350l-87 -155h-100l414 750h601v-75h-393zM529 230v445h-72l-239 -445h311z" />
    <glyph glyph-name="Ccedilla" unicode="&#xc7;" horiz-adv-x="665" 
d="M383 -6h-120q-103 0 -160.5 62t-57.5 174v290q0 146 88 198q66 38 225 38h70q115 0 160 -50.5t45 -165.5v-24h-85v21q0 82 -25 111q-27 33 -107 33h-48q-139 0 -185 -28q-53 -31 -53 -130v-206q0 -144 21 -188q29 -60 128 -60h101q105 0 141.5 24t36.5 102v60h85v-70
q0 -118 -74 -160q-54 -31 -186 -31zM328 -40l54 -30l-77 -107l-43 23z" />
    <glyph glyph-name="Egrave" unicode="&#xc8;" horiz-adv-x="560" 
d="M126 675v-255h380v-70h-380v-275h397v-75h-482v750h482v-75h-397zM295 815h-29l-165 128h106z" />
    <glyph glyph-name="Eacute" unicode="&#xc9;" horiz-adv-x="560" 
d="M126 675v-255h380v-70h-380v-275h397v-75h-482v750h482v-75h-397zM353 943h106l-165 -128h-29z" />
    <glyph glyph-name="Ecircumflex" unicode="&#xca;" horiz-adv-x="560" 
d="M126 675v-255h380v-70h-380v-275h397v-75h-482v750h482v-75h-397zM280 930l155 -107l-21 -28l-134 68l-140 -68l-19 28z" />
    <glyph glyph-name="Edieresis" unicode="&#xcb;" horiz-adv-x="560" 
d="M126 675v-255h380v-70h-380v-275h397v-75h-482v750h482v-75h-397zM224 878v-74h-88v74h88zM424 878v-74h-88v74h88z" />
    <glyph glyph-name="Igrave" unicode="&#xcc;" horiz-adv-x="228" 
d="M157 750v-750h-85v750h85zM129 815h-29l-165 128h106z" />
    <glyph glyph-name="Iacute" unicode="&#xcd;" horiz-adv-x="228" 
d="M157 750v-750h-85v750h85zM187 943h106l-165 -128h-29z" />
    <glyph glyph-name="Icircumflex" unicode="&#xce;" horiz-adv-x="228" 
d="M157 750v-750h-85v750h85zM116 961l173 -108l-24 -42l-149 76l-155 -76l-21 42z" />
    <glyph glyph-name="Idieresis" unicode="&#xcf;" horiz-adv-x="228" 
d="M157 750v-750h-85v750h85zM58 878v-74h-88v74h88zM258 878v-74h-88v74h88z" />
    <glyph glyph-name="Eth" unicode="&#xd0;" horiz-adv-x="734" 
d="M70 421v329h365q106 0 163 -41q94 -67 94 -248v-179q0 -102 -34 -169q-58 -113 -203 -113h-385v351h-103v70h103zM155 675v-254h167v-70h-167v-276h280q104 0 142 61q30 47 30 161v197q0 59 -25 106q-41 75 -133 75h-294z" />
    <glyph glyph-name="Ntilde" unicode="&#xd1;" horiz-adv-x="783" 
d="M715 750v-750h-139l-421 680h-2v-680h-85v750h140l420 -685h2v685h85zM518 914v0l43 -28q-43 -75 -103 -75q-24 0 -71.5 21.5t-69.5 21.5q-19 0 -31 -12q-5 -6 -19 -29l-45 26q38 74 96 74q24 0 73.5 -21.5t68.5 -21.5q33 0 58 44z" />
    <glyph glyph-name="Ograve" unicode="&#xd2;" horiz-adv-x="671" 
d="M285 756h101q139 0 191.5 -56t52.5 -196v-267q0 -133 -55.5 -188t-188.5 -55h-101q-133 0 -188.5 55t-55.5 188v267q0 140 52.5 196t191.5 56zM386 681h-101q-99 0 -131 -39q-28 -35 -28 -138v-267q0 -106 38 -140q31 -28 121 -28h101q90 0 121 28q38 34 38 140v267
q0 103 -28 138q-32 39 -131 39zM350 815h-29l-165 128h106z" />
    <glyph glyph-name="Oacute" unicode="&#xd3;" horiz-adv-x="671" 
d="M285 756h101q139 0 191.5 -56t52.5 -196v-267q0 -133 -55.5 -188t-188.5 -55h-101q-133 0 -188.5 55t-55.5 188v267q0 140 52.5 196t191.5 56zM386 681h-101q-99 0 -131 -39q-28 -35 -28 -138v-267q0 -106 38 -140q31 -28 121 -28h101q90 0 121 28q38 34 38 140v267
q0 103 -28 138q-32 39 -131 39zM407 943h106l-165 -128h-29z" />
    <glyph glyph-name="Ocircumflex" unicode="&#xd4;" horiz-adv-x="671" 
d="M285 756h101q139 0 191.5 -56t52.5 -196v-267q0 -133 -55.5 -188t-188.5 -55h-101q-133 0 -188.5 55t-55.5 188v267q0 140 52.5 196t191.5 56zM386 681h-101q-99 0 -131 -39q-28 -35 -28 -138v-267q0 -106 38 -140q31 -28 121 -28h101q90 0 121 28q38 34 38 140v267
q0 103 -28 138q-32 39 -131 39zM334 930l155 -107l-21 -28l-134 68l-140 -68l-19 28z" />
    <glyph glyph-name="Otilde" unicode="&#xd5;" horiz-adv-x="671" 
d="M285 756h101q139 0 191.5 -56t52.5 -196v-267q0 -133 -55.5 -188t-188.5 -55h-101q-133 0 -188.5 55t-55.5 188v267q0 140 52.5 196t191.5 56zM386 681h-101q-99 0 -131 -39q-28 -35 -28 -138v-267q0 -106 38 -140q31 -28 121 -28h101q90 0 121 28q38 34 38 140v267
q0 103 -28 138q-32 39 -131 39zM200 815h-47q61 100 128 105q35 3 40 -3l64 -42q9 -9 27 -9q35 0 57 55h45q-15 -36 -53 -68q-41 -35 -77 -36q-38 -1 -50 8l-51 38q-5 11 -20 11q-17 0 -37 -22q-18 -18 -26 -37z" />
    <glyph glyph-name="Odieresis" unicode="&#xd6;" horiz-adv-x="671" 
d="M285 756h101q139 0 191.5 -55t52.5 -197v-267q0 -133 -54.5 -188t-189.5 -55h-101q-135 0 -189.5 55t-54.5 188v267q0 142 52.5 197t191.5 55zM386 681h-101q-96 0 -127.5 -34.5t-31.5 -142.5v-267q0 -105 38 -140q32 -28 121 -28h101q89 0 121 28q38 35 38 140v267
q0 108 -31.5 142.5t-127.5 34.5zM280 878v-74h-88v74h88zM480 878v-74h-88v74h88z" />
    <glyph glyph-name="multiply" unicode="&#xd7;" horiz-adv-x="584" 
d="M50 436l49 50l193 -194l193 194l49 -50l-193 -193l193 -193l-49 -50l-193 194l-193 -194l-49 50l193 193z" />
    <glyph glyph-name="Oslash" unicode="&#xd8;" horiz-adv-x="723" 
d="M596 559l-447 -433q24 -57 157 -57h136q89 0 124 43q30 37 30 124v323zM128 191l446 436q-24 54 -132 54h-136q-113 0 -148 -43q-30 -37 -30 -156v-291zM707 751v-86l-46 -38q20 -38 20 -145v-246q0 -133 -61 -190q-55 -52 -178 -52h-136q-77 0 -119 11q-63 17 -98 64
l-73 -68v81l45 44q-18 43 -18 110v246q0 160 71 222q59 52 192 52h136q135 0 191 -72z" />
    <glyph glyph-name="Ugrave" unicode="&#xd9;" horiz-adv-x="737" 
d="M581 750h85v-540q0 -138 -82 -183q-60 -33 -215 -33q-153 0 -210 29q-87 44 -87 187v540h85v-540q0 -101 58 -127q33 -14 154 -14q129 0 163 18q49 26 49 123v540zM381 785h-29l-165 128h106z" />
    <glyph glyph-name="Uacute" unicode="&#xda;" horiz-adv-x="737" 
d="M581 750h85v-540q0 -138 -82 -183q-60 -33 -215 -33q-153 0 -210 29q-87 44 -87 187v540h85v-540q0 -101 58 -127q33 -14 154 -14q129 0 163 18q49 26 49 123v540zM439 913h106l-165 -128h-29z" />
    <glyph glyph-name="Ucircumflex" unicode="&#xdb;" horiz-adv-x="737" 
d="M581 750h85v-540q0 -138 -82 -183q-59 -33 -215 -33q-154 0 -210 29q-87 44 -87 187v540h85v-540q0 -91 37.5 -116t174.5 -25q128 0 163 18q49 26 49 123v540zM370 961l173 -108l-24 -42l-149 76l-155 -76l-21 42z" />
    <glyph glyph-name="Udieresis" unicode="&#xdc;" horiz-adv-x="737" 
d="M581 750h85v-540q0 -138 -82 -183q-59 -33 -215 -33q-154 0 -210 29q-87 44 -87 187v540h85v-540q0 -91 37.5 -116t174.5 -25q128 0 163 18q49 26 49 123v540zM313 878v-74h-88v74h88zM513 878v-74h-88v74h88z" />
    <glyph glyph-name="Yacute" unicode="&#xdd;" horiz-adv-x="632" 
d="M638 750l-284 -437v-313h-85v313l-275 437h99l222 -351l222 351h101zM390 913h106l-165 -128h-29z" />
    <glyph glyph-name="Thorn" unicode="&#xde;" horiz-adv-x="661" 
d="M59 0v750h85v-146h297q101 0 144 -65q35 -54 35 -162q0 -91 -23 -141q-42 -90 -160 -90h-293v-146h-85zM404 529h-260v-308h220q100 0 128 18q43 27 43 127q0 105 -26 136q-24 27 -105 27z" />
    <glyph glyph-name="germandbls" unicode="&#xdf;" horiz-adv-x="590" 
d="M83 0v587q0 103 51 139q43 30 156 30q95 0 143 -25q66 -35 66 -122q0 -98 -100 -125v-2q90 -14 119 -81q20 -44 20 -151q0 -124 -26 -177q-39 -79 -151 -79q-66 0 -106 31q-44 34 -44 98v36h75v-18q0 -83 75 -83q55 0 73 32q22 37 22 160q0 107 -22 146q-31 54 -126 54
h-66v64h49q81 0 108 24q18 16 18 59q0 62 -32 81q-23 14 -95 14q-71 0 -97 -17q-31 -22 -31 -88v-587h-79z" />
    <glyph glyph-name="agrave" unicode="&#xe0;" 
d="M263 58q78 0 109 13q50 21 50 85q0 67 -42 86q-27 12 -117 12q-76 0 -101 -14q-31 -17 -31 -77q0 -70 32 -90q24 -15 100 -15zM503 0h-79v54l-2 2q-20 -39 -73 -53q-35 -9 -100 -9q-100 0 -144 28q-56 36 -56 131q0 101 54 137q42 28 151 28q153 0 165 -53h5v97
q0 67 -37 89q-27 16 -103 16q-65 0 -92 -9q-45 -15 -45 -63v-18h-82v11q0 92 61 122q42 21 149 21q119 0 164 -26q64 -37 64 -147v-358zM289 606h-28l-156 122h100z" />
    <glyph glyph-name="aacute" unicode="&#xe1;" 
d="M263 58q78 0 109 13q50 21 50 85q0 67 -42 86q-27 12 -117 12q-76 0 -101 -14q-31 -17 -31 -77q0 -70 32 -90q24 -15 100 -15zM503 0h-79v54l-2 2q-20 -39 -73 -53q-35 -9 -100 -9q-100 0 -144 28q-56 36 -56 131q0 101 54 137q42 28 151 28q153 0 165 -53h5v97
q0 67 -37 89q-27 16 -103 16q-65 0 -92 -9q-45 -15 -45 -63v-18h-82v11q0 92 61 122q42 21 149 21q119 0 164 -26q64 -37 64 -147v-358zM347 728h100l-156 -122h-28z" />
    <glyph glyph-name="acircumflex" unicode="&#xe2;" 
d="M263 58q78 0 109 13q50 21 50 85q0 67 -42 86q-27 12 -117 12q-76 0 -101 -14q-31 -17 -31 -77q0 -70 32 -90q24 -15 100 -15zM503 0h-79v54l-2 2q-20 -39 -73 -53q-35 -9 -100 -9q-100 0 -144 28q-56 36 -56 131q0 101 54 137q42 28 151 28q153 0 165 -53h5v97
q0 67 -37 89q-27 16 -103 16q-65 0 -92 -9q-45 -15 -45 -63v-18h-82v11q0 92 61 122q42 21 149 21q119 0 164 -26q64 -37 64 -147v-358zM276 687l148 -102l-20 -26l-128 64l-132 -64l-19 26z" />
    <glyph glyph-name="atilde" unicode="&#xe3;" 
d="M263 58q78 0 109 13q50 21 50 85q0 67 -42 86q-27 12 -117 12q-76 0 -101 -14q-31 -17 -31 -77q0 -70 32 -90q24 -15 100 -15zM503 0h-79v54l-2 2q-20 -39 -73 -53q-35 -9 -100 -9q-100 0 -144 28q-56 36 -56 131q0 101 54 137q42 28 151 28q153 0 165 -53h5v97
q0 67 -37 89q-27 16 -103 16q-65 0 -92 -9q-45 -15 -45 -63v-18h-82v11q0 92 61 122q42 21 149 21q119 0 164 -26q64 -37 64 -147v-358zM149 606h-45q60 95 122 99q34 2 38 -2l60 -40q9 -9 26 -9q34 0 54 52h43q-15 -34 -51 -64q-39 -33 -73 -34q-36 -1 -47 7l-49 36
q-4 11 -19 11q-16 0 -35 -21q-16 -17 -24 -35z" />
    <glyph glyph-name="adieresis" unicode="&#xe4;" 
d="M263 58q78 0 109 13q50 21 50 85q0 67 -42 86q-27 12 -117 12q-77 0 -101 -14q-31 -17 -31 -77q0 -70 32 -90q23 -15 100 -15zM503 0h-79v54l-2 2q-20 -40 -73 -53q-33 -9 -100 -9q-100 0 -144 28q-56 36 -56 131q0 101 54 137q42 28 151 28q153 0 165 -53h5v97
q0 67 -37 89q-27 16 -103 16q-65 0 -92 -9q-45 -15 -45 -63v-18h-82v11q0 92 61 122q42 21 149 21q117 0 164 -26q64 -38 64 -147v-358zM229 653v-74h-88v74h88zM429 653v-74h-88v74h88z" />
    <glyph glyph-name="aring" unicode="&#xe5;" 
d="M263 58q78 0 109 13q50 21 50 85q0 67 -42 86q-27 12 -117 12q-77 0 -101 -14q-31 -17 -31 -77q0 -70 32 -90q23 -15 100 -15zM503 0h-79v54l-2 2q-20 -40 -73 -53q-33 -9 -100 -9q-100 0 -144 28q-56 36 -56 131q0 101 54 137q42 28 151 28q153 0 165 -53h5v97
q0 67 -37 89q-27 16 -103 16q-65 0 -92 -9q-45 -15 -45 -63v-18h-82v11q0 92 61 122q42 21 149 21q117 0 164 -26q64 -38 64 -147v-358zM199 649q0 35 25.5 61t60.5 26q36 0 61.5 -26t25.5 -61q0 -36 -25.5 -61.5t-61.5 -25.5q-35 0 -60.5 25.5t-25.5 61.5zM237 649
q0 -20 14 -34.5t34 -14.5t34.5 14.5t14.5 34.5t-14.5 34.5t-34.5 14.5t-34 -14.5t-14 -34.5z" />
    <glyph glyph-name="ae" unicode="&#xe6;" horiz-adv-x="932" 
d="M506 309h296q-3 109 -27 135q-23 23 -115 23q-101 0 -128 -34q-21 -25 -26 -124zM263 254q-77 0 -101 -14q-31 -17 -31 -77q0 -70 32 -90q23 -15 100 -15q78 0 109 13q50 21 50 85q0 67 -42 86q-27 12 -117 12zM424 265v97q0 67 -37 89q-27 16 -103 16q-65 0 -92 -9
q-45 -15 -45 -63v-18h-82v11q0 92 61 122q43 22 149 21q74 0 107 -7q74 -14 86 -59q34 66 192 66q131 0 176 -44q48 -47 48 -189v-53h-378q0 -126 24.5 -156.5t129.5 -30.5q86 0 112 13q31 15 31 68v20h81v-19q0 -94 -68 -125q-45 -21 -156 -21q-80 0 -120 12q-62 20 -79 75
h-2q-18 -55 -87 -75q-43 -12 -123 -12q-100 0 -144 28q-56 36 -56 131q0 101 54 137q42 28 151 28q153 0 165 -53h5z" />
    <glyph glyph-name="ccedilla" unicode="&#xe7;" horiz-adv-x="546" 
d="M426 190h79v-29q0 -102 -65 -139q-48 -28 -158 -28q-153 0 -198 66q-35 51 -35 213q0 140 39 193q47 65 181 65q114 0 161 -26q66 -35 66 -137v-14h-79v16q0 65 -37 84q-26 13 -106 13q-99 0 -124 -45q-19 -34 -19 -171q0 -120 22 -152q29 -41 138 -41q79 0 105 17
q30 21 30 89v26zM268 -40l54 -30l-77 -107l-43 23z" />
    <glyph glyph-name="egrave" unicode="&#xe8;" horiz-adv-x="565" 
d="M431 159h81v-19q0 -94 -68 -125q-46 -21 -156 -21q-148 0 -195 59q-41 52 -41 209q0 154 41 207q48 62 195 62q134 0 179 -48t45 -185v-53h-378q0 -119 19 -148q27 -39 135 -39q86 0 112 13q31 15 31 68v20zM134 309h296q-3 110 -26 134t-116 24q-100 0 -128 -34
q-21 -26 -26 -124zM301 606h-28l-156 122h100z" />
    <glyph glyph-name="eacute" unicode="&#xe9;" horiz-adv-x="565" 
d="M431 159h81v-19q0 -94 -68 -125q-46 -21 -156 -21q-148 0 -195 59q-41 52 -41 209q0 154 41 207q48 62 195 62q134 0 179 -48t45 -185v-53h-378q0 -119 19 -148q27 -39 135 -39q86 0 112 13q31 15 31 68v20zM134 309h296q-3 110 -26 134t-116 24q-100 0 -128 -34
q-21 -26 -26 -124zM359 728h100l-156 -122h-28z" />
    <glyph glyph-name="ecircumflex" unicode="&#xea;" horiz-adv-x="565" 
d="M431 159h81v-19q0 -94 -68 -125q-46 -21 -156 -21q-148 0 -195 59q-41 52 -41 209q0 154 41 207q48 62 195 62q134 0 179 -48t45 -185v-53h-378q0 -119 19 -148q27 -39 135 -39q86 0 112 13q31 15 31 68v20zM134 309h296q-3 110 -26 134t-116 24q-100 0 -128 -34
q-21 -26 -26 -124zM288 686l148 -102l-20 -26l-128 64l-132 -64l-19 26z" />
    <glyph glyph-name="edieresis" unicode="&#xeb;" horiz-adv-x="565" 
d="M431 159h81v-19q0 -94 -68 -125q-45 -21 -156 -21q-148 0 -195 59q-41 52 -41 209q0 163 47 216t189 53q131 0 176 -44q48 -47 48 -189v-53h-378q0 -126 24.5 -156.5t129.5 -30.5q86 0 112 13q31 15 31 68v20zM134 309h296q-3 109 -27 135q-23 23 -115 23
q-101 0 -128 -34q-21 -25 -26 -124zM227 653v-74h-88v74h88zM427 653v-74h-88v74h88z" />
    <glyph glyph-name="igrave" unicode="&#xec;" horiz-adv-x="215" 
d="M147 525v-525h-79v525h79zM122 596h-28l-156 122h100z" />
    <glyph glyph-name="iacute" unicode="&#xed;" horiz-adv-x="215" 
d="M147 525v-525h-79v525h79zM178 718h100l-156 -122h-28z" />
    <glyph glyph-name="icircumflex" unicode="&#xee;" horiz-adv-x="215" 
d="M147 525v-525h-79v525h79zM109 736l173 -108l-24 -42l-149 76l-155 -76l-21 42z" />
    <glyph glyph-name="idieresis" unicode="&#xef;" horiz-adv-x="215" 
d="M147 525v-525h-79v525h79zM52 653v-74h-88v74h88zM252 653v-74h-88v74h88z" />
    <glyph glyph-name="eth" unicode="&#xf0;" 
d="M134 262q0 -138 23.5 -171t127.5 -33t127.5 33t23.5 171q0 139 -23.5 172t-127.5 33t-127.5 -33t-23.5 -172zM69 698l17 58q68 -17 139 -49l55 49l45 -44l-42 -36q135 -80 201 -204q34 -64 34 -210q0 -166 -43.5 -217t-189.5 -51t-189.5 51t-43.5 217q0 167 43.5 218
t189.5 51q10 0 76 -2q-62 67 -131 103l-68 -61l-43 42l53 47q-54 25 -103 38z" />
    <glyph glyph-name="ntilde" unicode="&#xf1;" horiz-adv-x="580" 
d="M148 525v-64h2q28 70 162 70q106 0 150 -36q48 -41 48 -146v-349h-79v355q0 69 -30 92q-25 20 -96 20q-95 0 -126 -34t-31 -127v-306h-79v525h79zM417 689v0l43 -28q-43 -75 -103 -75q-24 0 -71.5 21.5t-69.5 21.5q-19 0 -31 -12q-5 -6 -19 -29l-45 26q38 74 96 74
q24 0 73.5 -21.5t68.5 -21.5q33 0 58 44z" />
    <glyph glyph-name="ograve" unicode="&#xf2;" 
d="M52 262q0 159 38 209q45 60 195 60t195 -60q38 -50 38 -209q0 -158 -38 -208q-45 -60 -195 -60t-195 60q-38 50 -38 208zM134 262q0 -127 16 -156q25 -48 135 -48t135 48q16 29 16 156q0 94 -4 117q-7 48 -37 67q-33 21 -110 21t-108.5 -20t-38.5 -68q-4 -23 -4 -117z
M298 606h-28l-156 122h100z" />
    <glyph glyph-name="oacute" unicode="&#xf3;" 
d="M52 262q0 159 38 209q45 60 195 60t195 -60q38 -50 38 -209q0 -158 -38 -208q-45 -60 -195 -60t-195 60q-38 50 -38 208zM134 262q0 -127 16 -156q25 -48 135 -48t135 48q16 29 16 156q0 94 -4 117q-7 48 -37 67q-33 21 -110 21t-108.5 -20t-38.5 -68q-4 -23 -4 -117z
M355 728h100l-156 -122h-28z" />
    <glyph glyph-name="ocircumflex" unicode="&#xf4;" 
d="M52 262q0 159 38 209q45 60 195 60t195 -60q38 -50 38 -209q0 -158 -38 -208q-45 -60 -195 -60t-195 60q-38 50 -38 208zM134 262q0 -127 16 -156q25 -48 135 -48t135 48q16 29 16 156q0 94 -4 117q-7 48 -37 67q-33 21 -110 21t-108.5 -20t-38.5 -68q-4 -23 -4 -117z
M285 686l148 -102l-20 -26l-128 64l-132 -64l-19 26z" />
    <glyph glyph-name="otilde" unicode="&#xf5;" 
d="M52 262q0 159 38 209q45 60 195 60t195 -60q38 -50 38 -209q0 -158 -38 -208q-45 -60 -195 -60t-195 60q-38 50 -38 208zM134 262q0 -127 16 -156q25 -48 135 -48t135 48q16 29 16 156q0 94 -4 117q-7 48 -37 67q-33 21 -110 21t-108.5 -20t-38.5 -68q-4 -23 -4 -117z
M158 606h-45q60 95 122 99q34 2 38 -2l60 -40q9 -9 26 -9q34 0 54 52h43q-15 -34 -51 -64q-39 -33 -73 -34q-36 -1 -47 7l-49 36q-4 11 -19 11q-16 0 -35 -21q-16 -17 -24 -35z" />
    <glyph glyph-name="odieresis" unicode="&#xf6;" 
d="M52 262q0 167 43.5 218t189.5 51t189.5 -51t43.5 -218q0 -166 -43.5 -217t-189.5 -51t-189.5 51t-43.5 217zM134 262q0 -138 23.5 -171t127.5 -33t127.5 33t23.5 171q0 139 -23.5 172t-127.5 33t-127.5 -33t-23.5 -172zM229 653v-74h-88v74h88zM429 653v-74h-88v74h88z
" />
    <glyph glyph-name="divide" unicode="&#xf7;" horiz-adv-x="584" 
d="M534 321v-75h-484v75h484zM344 42h-104v104h104v-104zM344 421h-104v104h104v-104z" />
    <glyph glyph-name="oslash" unicode="&#xf8;" 
d="M532 540v-68l-34 -36q22 -51 20 -174q-2 -155 -39 -206q-46 -62 -190 -62q-149 0 -195 51l-63 -61v66l41 40q-19 39 -20 172q-1 162 38 211q45 58 199 58q137 0 183 -49zM434 370l-282 -268q12 -44 137 -44q73 0 98 11q30 13 39 56q8 33 10 137q1 51 -2 108zM137 155
l281 271q-18 41 -129 41q-105 0 -131 -31q-28 -35 -24 -174q1 -36 3 -107z" />
    <glyph glyph-name="ugrave" unicode="&#xf9;" 
d="M420 0v70h-2q-33 -76 -164 -76q-103 0 -145.5 45t-42.5 149v337h79v-337q0 -72 16 -97q21 -33 92 -33q91 0 126 25q42 31 42 118v324h79v-525h-80zM296 572h-28l-156 122h100z" />
    <glyph glyph-name="uacute" unicode="&#xfa;" 
d="M420 0v70h-2q-33 -76 -164 -76q-103 0 -145.5 45t-42.5 149v337h79v-337q0 -72 16 -97q21 -33 92 -33q91 0 126 25q42 31 42 118v324h79v-525h-80zM353 694h100l-156 -122h-28z" />
    <glyph glyph-name="ucircumflex" unicode="&#xfb;" 
d="M420 0v70h-2q-33 -76 -164 -76q-103 0 -145.5 44.5t-42.5 149.5v337h79v-337q0 -73 16 -97q21 -33 92 -33q91 0 126 25q42 30 42 118v324h79v-525h-80zM287 736l173 -108l-24 -42l-149 76l-155 -76l-21 42z" />
    <glyph glyph-name="udieresis" unicode="&#xfc;" 
d="M420 0v70h-2q-33 -76 -164 -76q-103 0 -145.5 44.5t-42.5 149.5v337h79v-337q0 -73 16 -97q21 -33 92 -33q91 0 126 25q42 30 42 118v324h79v-525h-80zM229 653v-74h-88v74h88zM429 653v-74h-88v74h88z" />
    <glyph glyph-name="yacute" unicode="&#xfd;" horiz-adv-x="437" 
d="M441 525l-151 -562q-27 -100 -51 -135q-42 -61 -126 -61q-8 0 -36 5v61q14 -3 28 -3q52 0 79 62l30 108h-28l-190 525h81l162 -467h2l118 467h82zM286 680h100l-156 -122h-28z" />
    <glyph glyph-name="thorn" unicode="&#xfe;" horiz-adv-x="573" 
d="M294 467q-103 0 -130 -50q-19 -34 -19 -155q0 -109 22 -148q30 -56 127 -56q91 0 118 38t27 166q0 125 -22 161q-27 44 -123 44zM145 62v-289h-79v977h79l2 -291q38 72 169 72t174 -76q31 -53 31 -193q0 -155 -44 -211.5t-161 -56.5q-136 0 -169 68h-2z" />
    <glyph glyph-name="ydieresis" unicode="&#xff;" horiz-adv-x="437" 
d="M441 525l-151 -562q-27 -100 -51 -135q-42 -61 -126 -61q-8 0 -36 5v61q14 -3 28 -3q52 0 79 62l30 108h-28l-190 525h81l162 -467h2l118 467h82zM163 653v-74h-88v74h88zM363 653v-74h-88v74h88z" />
    <glyph glyph-name="glyph271" unicode="&#x102;" horiz-adv-x="685" 
d="M532 159h-379l-58 -159h-89l273 750h120l280 -750h-88zM508 229l-167 451l-165 -451h332zM186 932l38 -10q6 -36 44 -58q32 -18 72 -18t72 18q38 22 44 58l36 10q-6 -58 -49.5 -97.5t-102.5 -39.5q-58 0 -103 40t-51 97z" />
    <glyph glyph-name="glyph272" unicode="&#x103;" 
d="M263 58q78 0 109 13q50 21 50 85q0 67 -42 86q-27 12 -117 12q-76 0 -101 -14q-31 -17 -31 -77q0 -70 32 -90q24 -15 100 -15zM503 0h-79v54l-2 2q-20 -39 -73 -53q-35 -9 -100 -9q-100 0 -144 28q-56 36 -56 131q0 101 54 137q42 28 151 28q153 0 165 -53h5v97
q0 67 -37 89q-27 16 -103 16q-65 0 -92 -9q-45 -15 -45 -63v-18h-82v11q0 92 61 122q42 21 149 21q119 0 164 -26q64 -37 64 -147v-358zM129 712l36 -10q6 -34 42 -54q30 -18 68 -18t68 18q36 20 42 54l34 10q-5 -55 -46.5 -92.5t-97.5 -37.5q-55 0 -98 37.5t-48 92.5z" />
    <glyph glyph-name="Cacute" unicode="&#x106;" horiz-adv-x="711" 
d="M383 -6h-120q-103 0 -160.5 62t-57.5 174v290q0 146 88 198q66 38 225 38h70q115 0 160 -50.5t45 -165.5v-24h-85v21q0 82 -25 111q-27 33 -107 33h-48q-139 0 -185 -28q-53 -31 -53 -130v-206q0 -144 21 -188q29 -60 128 -60h101q105 0 141.5 24t36.5 102v60h85v-70
q0 -118 -74 -160q-54 -31 -186 -31zM401 998l39 -54l-161 -100l-27 41z" />
    <glyph glyph-name="cacute" unicode="&#x107;" horiz-adv-x="441" 
d="M426 190h79v-29q0 -102 -65 -139q-48 -28 -158 -28q-153 0 -198 66q-35 51 -35 213q0 140 39 193q47 65 181 65q114 0 161 -26q66 -35 66 -137v-14h-79v16q0 65 -37 84q-26 13 -106 13q-99 0 -124 -45q-19 -34 -19 -171q0 -120 22 -152q29 -41 138 -41q79 0 105 17
q30 21 30 89v26zM202 743l39 -54l-161 -100l-27 41z" />
    <glyph glyph-name="Ccaron" unicode="&#x10c;" horiz-adv-x="711" 
d="M383 -6h-120q-103 0 -160.5 62t-57.5 174v290q0 146 88 198q66 38 225 38h70q115 0 160 -50.5t45 -165.5v-24h-85v21q0 82 -25 111q-27 33 -107 33h-48q-139 0 -185 -28q-53 -31 -53 -130v-206q0 -144 21 -188q29 -60 128 -60h101q105 0 141.5 24t36.5 102v60h85v-70
q0 -118 -74 -160q-54 -31 -186 -31zM424 841l-172 107l24 43l148 -76l156 76l21 -43z" />
    <glyph glyph-name="ccaron" unicode="&#x10d;" horiz-adv-x="441" 
d="M426 190h79v-29q0 -102 -65 -139q-48 -28 -158 -28q-153 0 -198 66q-35 51 -35 213q0 140 39 193q47 65 181 65q114 0 161 -26q66 -35 66 -137v-14h-79v16q0 65 -37 84q-26 13 -106 13q-99 0 -124 -45q-19 -34 -19 -171q0 -120 22 -152q29 -41 138 -41q79 0 105 17
q30 21 30 89v26zM225 586l-172 107l24 43l148 -76l156 76l21 -43z" />
    <glyph glyph-name="Dslash" unicode="&#x110;" horiz-adv-x="734" 
d="M70 421v329h365q106 0 163 -41q94 -67 94 -248v-179q0 -127 -52 -199q-61 -83 -185 -83h-385v351h-103v70h103zM155 675v-254h167v-70h-167v-276h280q104 0 142 61q30 48 30 161v197q0 60 -25 106q-41 75 -133 75h-294z" />
    <glyph glyph-name="dcroat" unicode="&#x111;" horiz-adv-x="574" 
d="M280 58q98 0 127 55q19 37 19 149q0 116 -25 157q-29 48 -121 48q-94 0 -120 -33q-29 -37 -29 -172q0 -114 20 -151q29 -53 129 -53zM426 579h-147v64h147v107h79v-107h48v-64h-48v-579h-79v66l-2 2q-36 -74 -169 -74q-129 0 -173 74q-33 55 -33 194q0 138 33 194
q44 75 173 75q143 0 169 -71h2v119z" />
    <glyph glyph-name="Gbreve" unicode="&#x11e;" horiz-adv-x="767" 
d="M339 375h324v-163q0 -127 -61 -175q-54 -43 -188 -43h-82q-161 0 -219 48q-69 56 -69 221v232q0 143 62 207q53 54 158 54h197q200 0 200 -167v-58h-85v43q0 64 -32 85.5t-124 21.5h-105q-120 0 -153 -36t-33 -160v-241q0 -105 42 -141q38 -34 146 -34h80
q114 0 147.5 24.5t33.5 113.5v93h-239v75zM271 992h53q7 -41 40 -68t75 -27t75 27t40 68h54q-7 -64 -56 -108t-113 -44t-112.5 44t-55.5 108z" />
    <glyph glyph-name="gbreve" unicode="&#x11f;" horiz-adv-x="492" 
d="M277 58q103 0 133 58q19 37 19 146q0 120 -23 157q-29 48 -129 48t-127 -51q-17 -33 -17 -154q0 -119 15 -149q26 -55 129 -55zM508 525v-587q0 -97 -68 -138q-55 -33 -163 -33t-154 28q-61 39 -56 143h79q0 -70 34 -91q25 -16 97 -16q81 0 111 18q41 24 41 95v121h-2
q-24 -71 -169 -71q-122 0 -167 67q-40 57 -40 201t36 200q44 69 171 69q133 0 169 -73l2 1v66h79zM71 737h53q7 -41 40 -68t75 -27t75 27t40 68h54q-7 -64 -56 -108t-113 -44t-112.5 44t-55.5 108z" />
    <glyph glyph-name="glyph273" unicode="&#x128;" horiz-adv-x="228" 
d="M157 750v-750h-85v750h85zM-20 815h-47q61 100 128 105q35 3 40 -3l64 -42q9 -9 27 -9q35 0 57 55h45q-15 -36 -53 -68q-41 -35 -77 -36q-38 -1 -50 8l-51 38q-5 11 -20 11q-17 0 -37 -22q-18 -18 -26 -37z" />
    <glyph glyph-name="glyph274" unicode="&#x129;" horiz-adv-x="215" 
d="M147 525v-525h-79v525h79zM-19 596h-45q60 95 122 99q34 2 38 -2l60 -40q9 -9 26 -9q34 0 54 52h43q-15 -34 -51 -64q-39 -33 -73 -34q-36 -1 -47 7l-49 36q-4 11 -19 11q-16 0 -35 -21q-16 -17 -24 -35z" />
    <glyph glyph-name="Idotaccent" unicode="&#x130;" horiz-adv-x="429" 
d="M157 750v-750h-85v750h85zM190 908v-74h-88v74h88z" />
    <glyph glyph-name="dotlessi" unicode="&#x131;" horiz-adv-x="215" 
d="M147 525v-525h-79v525h79z" />
    <glyph glyph-name="Lslash" unicode="&#x141;" horiz-adv-x="558" 
d="M160 399v-324h382v-75h-467v327l-84 -79v86l84 78v338h85v-266l157 154v-85z" />
    <glyph glyph-name="lslash" unicode="&#x142;" horiz-adv-x="214" 
d="M147 427v-427h-79v363l-65 -64v72l65 63v316h79v-253l64 64v-70z" />
    <glyph glyph-name="OE" unicode="&#x152;" horiz-adv-x="1109" 
d="M353 681q-103 0 -140 -10q-50 -13 -67.5 -55.5t-18.5 -143.5l-1 -201q0 -98 20 -140t71 -54q36 -8 136 -8q150 0 189 28q49 35 49 174v201q0 102 -19 144.5t-71 54.5q-39 10 -148 10zM676 675v-255h379v-70h-379v-275h396v-75h-481v78h-2q-29 -55 -100 -73
q-43 -11 -136 -11q-181 0 -239 44q-72 55 -72 233v201q0 166 64.5 225t246.5 59q218 0 236 -86h2v80h481v-75h-396z" />
    <glyph glyph-name="oe" unicode="&#x153;" horiz-adv-x="942" 
d="M432 262q0 105 -7 138q-10 44 -43 57q-28 10 -109 10q-99 0 -122 -38q-18 -31 -18 -167q0 -132 23 -166q26 -38 127 -38q104 0 129 39q20 31 20 165zM51 262q0 153 32 202q44 67 187 67q84 0 119 -7q73 -16 83 -67h2q17 47 77 63q39 11 117 11q131 0 176 -44
q48 -47 48 -189v-53h-378q0 -126 24.5 -156.5t129.5 -30.5q86 0 112 13q31 15 31 68v20h81v-19q0 -94 -68 -125q-45 -21 -156 -21q-80 0 -118 11q-56 16 -77 62q-18 -50 -83 -65q-33 -8 -114 -8q-142 0 -187 64q-38 53 -38 204zM514 309h296q-3 109 -27 135q-23 23 -115 23
q-101 0 -128 -34q-21 -25 -26 -124z" />
    <glyph glyph-name="Scedilla" unicode="&#x15e;" horiz-adv-x="656" 
d="M311 346l-137 11q-68 11 -100 46q-38 43 -38 135q0 140 69 184q53 34 208 34q148 0 199 -29q77 -43 71 -182h-85q-3 95 -36 117q-28 19 -152 19q-123 0 -156 -23t-33 -102q0 -68 23 -97q20 -25 69 -32q9 -1 116 -6q114 -5 149 -12q62 -13 89 -54q30 -45 30 -142
q0 -146 -74 -189q-51 -30 -215 -30q-149 0 -204 32q-72 41 -72 165q0 20 2 43h85q-1 -118 34 -144q28 -21 155 -21q131 0 162 18q42 25 42 129q0 68 -22 95q-18 23 -66 28q-57 4 -113 7zM169 -40l54 -30l-77 -107l-43 23z" />
    <glyph glyph-name="scedilla" unicode="&#x15f;" horiz-adv-x="383" 
d="M484 408v-20h-82v20q0 36 -30 46q-21 7 -93 7q-87 0 -111 -8q-36 -11 -36 -56q0 -65 23 -79q13 -8 85 -12q63 -3 127 -6q64 -8 94 -37q37 -36 37 -115q0 -100 -66 -132q-43 -22 -153 -22q-111 0 -159 18q-74 27 -74 105v49h82v-41q0 -37 30 -49t121 -12q71 0 89 6
q48 15 48 75q0 47 -13 63.5t-46 19.5q-39 1 -78 3q-103 7 -110 8q-57 8 -85 35q-34 33 -34 102q0 104 61 135q41 20 168 20q95 0 137 -17q68 -27 68 -106zM72 -40l54 -30l-77 -107l-43 23z" />
    <glyph glyph-name="Scaron" unicode="&#x160;" horiz-adv-x="629" 
d="M311 346l-137 11q-68 11 -100 46q-38 43 -38 135q0 140 69 184q53 34 208 34q148 0 199 -29q77 -43 71 -182h-85q-3 95 -36 117q-28 19 -152 19q-123 0 -156 -23t-33 -102q0 -68 23 -97q20 -25 69 -32q9 -1 116 -6q114 -5 149 -12q62 -13 89 -54q30 -45 30 -142
q0 -146 -74 -189q-51 -30 -215 -30q-149 0 -204 32q-72 41 -72 165q0 20 2 43h85q-1 -118 34 -144q28 -21 155 -21q131 0 162 18q42 25 42 129q0 68 -22 95q-18 23 -66 28q-57 4 -113 7zM312 811l-172 107l24 43l148 -76l156 76l21 -43z" />
    <glyph glyph-name="scaron" unicode="&#x161;" horiz-adv-x="537" 
d="M484 408v-20h-82v20q0 36 -30 46q-21 7 -93 7q-87 0 -111 -8q-36 -11 -36 -56q0 -65 23 -79q13 -8 85 -12q63 -3 127 -6q64 -8 94 -37q37 -36 37 -115q0 -100 -66 -132q-43 -22 -153 -22q-111 0 -159 18q-74 27 -74 105v49h82v-41q0 -37 30 -49t121 -12q71 0 89 6
q48 15 48 75q0 47 -13 63.5t-46 19.5q-39 1 -78 3q-103 7 -110 8q-57 8 -85 35q-34 33 -34 102q0 104 61 135q41 20 168 20q95 0 137 -17q68 -27 68 -106zM266 586l-172 107l24 43l148 -76l156 76l21 -43z" />
    <glyph glyph-name="ch903" unicode="&#x168;" horiz-adv-x="737" 
d="M581 750h85v-540q0 -138 -82 -183q-60 -33 -215 -33q-153 0 -210 29q-87 44 -87 187v540h85v-540q0 -101 58 -127q33 -14 154 -14q129 0 163 18q49 26 49 123v540zM232 795h-47q61 100 128 105q35 3 40 -3l64 -42q9 -9 27 -9q35 0 57 55h45q-15 -36 -53 -68
q-41 -35 -77 -36q-38 -1 -50 8l-51 38q-5 11 -20 11q-17 0 -37 -22q-18 -18 -26 -37z" />
    <glyph glyph-name="ch904" unicode="&#x169;" 
d="M420 0v70h-2q-33 -76 -164 -76q-103 0 -145.5 45t-42.5 149v337h79v-337q0 -72 16 -97q21 -33 92 -33q91 0 126 25q42 31 42 118v324h79v-525h-80zM155 582h-45q60 95 122 99q34 2 38 -2l60 -40q9 -9 26 -9q34 0 54 52h43q-15 -34 -51 -64q-39 -33 -73 -34q-36 -1 -47 7
l-49 36q-4 11 -19 11q-16 0 -35 -21q-16 -17 -24 -35z" />
    <glyph glyph-name="Ydieresis" unicode="&#x178;" horiz-adv-x="632" 
d="M638 750l-284 -437v-313h-85v313l-275 437h99l222 -351l222 351h101zM260 878v-74h-88v74h88zM460 878v-74h-88v74h88z" />
    <glyph glyph-name="Zcaron" unicode="&#x17d;" horiz-adv-x="637" 
d="M601 750v-79l-472 -596h482v-75h-585v74l471 601h-457v75h561zM316 811l-172 107l24 43l148 -76l156 76l21 -43z" />
    <glyph glyph-name="zcaron" unicode="&#x17e;" horiz-adv-x="454" 
d="M430 525v-73l-313 -388h313v-64h-405v73l313 388h-287v64h379zM225 586l-172 107l24 43l148 -76l156 76l21 -43z" />
    <glyph glyph-name="florin" unicode="&#x192;" horiz-adv-x="690" 
d="M413 420l-86 -481q-18 -102 -50 -134q-38 -38 -138 -38q-27 0 -59 8l11 64q33 -7 58 -7q54 0 74 25q14 17 24 75l86 488h-103l11 65h103l19 103q18 98 52 131q38 37 134 37q21 0 61 -2l-11 -66q-57 3 -58 3q-56 0 -75 -22q-13 -17 -23 -74l-19 -110h139l-12 -65h-138z
" />
    <glyph glyph-name="glyph277" unicode="&#x1a0;" horiz-adv-x="671" 
d="M285 756h101q139 0 191.5 -56t52.5 -196v-267q0 -133 -55.5 -188t-188.5 -55h-101q-133 0 -188.5 55t-55.5 188v267q0 140 52.5 196t191.5 56zM386 681h-101q-99 0 -131 -39q-28 -35 -28 -138v-267q0 -106 38 -140q31 -28 121 -28h101q90 0 121 28q38 34 38 140v267
q0 103 -28 138q-32 39 -131 39zM628 813q19 -12 19 -35q0 -31 -31 -51q-18 -12 -43 -12l-36 15q62 4 62 41q0 11 -6 23l22 16q8 6 13 3z" />
    <glyph glyph-name="glyph278" unicode="&#x1a1;" 
d="M134 262q0 -127 16 -156q25 -48 135 -48t135 48q16 29 16 156q0 94 -4 117q-7 48 -37 67q-33 21 -110 21t-108.5 -20t-38.5 -68q-4 -23 -4 -117zM391 523h60q27 10 27 33q0 11 -7 23l22 16q8 6 13 3q19 -12 19 -35q0 -31 -31 -51q-18 -12 -42 -12q45 -29 59 -109
q7 -41 7 -129q0 -158 -38 -208q-45 -60 -195 -60t-195 60q-38 50 -38 208q0 159 38 209q45 60 195 60q67 0 106 -8z" />
    <glyph glyph-name="glyph279" unicode="&#x1af;" horiz-adv-x="737" 
d="M666 715v-505q0 -138 -82 -183q-60 -33 -215 -33q-153 0 -210 29q-87 44 -87 187v540h85v-540q0 -101 58 -127q33 -14 154 -14q129 0 163 18q49 26 49 123v540l68 -5l17 -7q27 10 27 33q0 11 -7 23l22 16q8 6 13 3q19 -12 19 -35q0 -31 -31 -51q-18 -12 -43 -12z" />
    <glyph glyph-name="glyph280" unicode="&#x1b0;" 
d="M500 500v-500h-80v70h-2q-33 -76 -164 -76q-103 0 -145.5 45t-42.5 149v337h79v-337q0 -72 16 -97q21 -33 92 -33q91 0 126 25q42 31 42 118v324l79 -2q26 10 26 33q0 11 -7 23l22 16q8 6 13 3q19 -12 19 -35q0 -31 -31 -51q-18 -12 -42 -12z" />
    <glyph glyph-name="circumflex" unicode="&#x2c6;" horiz-adv-x="499" 
d="M251 736l173 -108l-24 -42l-149 76l-155 -76l-21 42z" />
    <glyph glyph-name="caron" unicode="&#x2c7;" horiz-adv-x="499" 
d="M247 586l-172 107l24 43l148 -76l156 76l21 -43z" />
    <glyph glyph-name="breve" unicode="&#x2d8;" horiz-adv-x="487" 
d="M75 737h53q7 -41 40 -68t75 -27t75 27t40 68h54q-7 -64 -56 -108t-113 -44t-112.5 44t-55.5 108z" />
    <glyph glyph-name="dotaccent" unicode="&#x2d9;" horiz-adv-x="238" 
d="M163 653v-74h-88v74h88z" />
    <glyph glyph-name="ring" unicode="&#x2da;" horiz-adv-x="323" 
d="M75 649q0 35 25.5 61t60.5 26q36 0 61.5 -26t25.5 -61q0 -36 -25.5 -61.5t-61.5 -25.5q-35 0 -60.5 25.5t-25.5 61.5zM113 649q0 -20 14 -34.5t34 -14.5t34.5 14.5t14.5 34.5t-14.5 34.5t-34.5 14.5t-34 -14.5t-14 -34.5z" />
    <glyph glyph-name="ogonek" unicode="&#x2db;" horiz-adv-x="307" 
d="M151 0h57q-81 -47 -81 -90q0 -53 66 -53q23 0 39 8v-49q-24 -9 -51 -9q-43 0 -73 21q-33 24 -33 66q0 65 76 106z" />
    <glyph glyph-name="tilde" unicode="&#x2dc;" horiz-adv-x="489" 
d="M371 689v0l43 -28q-43 -75 -103 -75q-24 0 -71.5 21.5t-69.5 21.5q-19 0 -31 -12q-5 -6 -19 -29l-45 26q38 74 96 74q24 0 73.5 -21.5t68.5 -21.5q33 0 58 44z" />
    <glyph glyph-name="hungarumlaut" unicode="&#x2dd;" horiz-adv-x="489" 
d="M211 749l45 -50l-150 -116l-31 38zM369 749l45 -50l-150 -116l-31 38z" />
    <glyph glyph-name="glyph281" unicode="&#x1ea0;" horiz-adv-x="685" 
d="M679 0h-88l-59 159h-379l-58 -159h-89l273 750h120zM385 -32v-80h-92v80l47 1zM508 229l-167 451l-165 -451h332z" />
    <glyph glyph-name="glyph282" unicode="&#x1ea1;" 
d="M263 58q78 0 109 13q50 21 50 85q0 67 -42 86q-27 12 -117 12q-76 0 -101 -14q-31 -17 -31 -77q0 -70 32 -90q24 -15 100 -15zM503 0h-79v54l-2 2q-20 -39 -73 -53q-35 -9 -100 -9q-100 0 -144 28q-56 36 -56 131q0 101 54 137q42 28 151 28q153 0 165 -53h5v97
q0 67 -37 89q-27 16 -103 16q-65 0 -92 -9q-45 -15 -45 -63v-18h-82v11q0 92 61 122q42 21 149 21q119 0 164 -26q64 -37 64 -147v-358zM306 -52v-76h-88v76l45 1z" />
    <glyph glyph-name="glyph283" unicode="&#x1ea2;" horiz-adv-x="685" 
d="M532 159h-379l-58 -159h-89l273 750h120l280 -750h-88zM508 229l-167 451l-165 -451h332zM290 926q0 47 15.5 60.5t62.5 13.5q44 0 60 -14.5t16 -58.5q0 -32 -8.5 -41.5t-40.5 -20.5q-23 -8 -26 -10q-9 -7 -9 -23v-10l-20 -18l-21 18v10q0 27 14 39q9 8 66 28q5 5 5 32
q0 30 -7 35.5t-39 5.5q-33 0 -40.5 -6.5t-7.5 -39.5h-20z" />
    <glyph glyph-name="glyph284" unicode="&#x1ea3;" 
d="M263 58q78 0 109 13q50 21 50 85q0 67 -42 86q-27 12 -117 12q-76 0 -101 -14q-31 -17 -31 -77q0 -70 32 -90q24 -15 100 -15zM503 0h-79v54l-2 2q-20 -39 -73 -53q-35 -9 -100 -9q-100 0 -144 28q-56 36 -56 131q0 101 54 137q42 28 151 28q153 0 165 -53h5v97
q0 67 -37 89q-27 16 -103 16q-65 0 -92 -9q-45 -15 -45 -63v-18h-82v11q0 92 61 122q42 21 149 21q119 0 164 -26q64 -37 64 -147v-358zM226 718q0 47 15.5 60.5t62.5 13.5q44 0 60 -14.5t16 -58.5q0 -32 -8.5 -41.5t-40.5 -20.5q-23 -8 -26 -10q-9 -7 -9 -23v-10l-20 -18
l-21 18v10q0 27 14 39q9 8 66 28q5 5 5 32q0 30 -7 35.5t-39 5.5q-33 0 -40.5 -6.5t-7.5 -39.5h-20z" />
    <glyph glyph-name="glyph285" unicode="&#x1ea4;" horiz-adv-x="685" 
d="M532 159h-379l-58 -159h-89l273 750h120l280 -750h-88zM508 229l-167 451l-165 -451h332zM340 911l155 -107l-21 -28l-134 68l-140 -68l-19 28zM552 972h106l-165 -128h-29z" />
    <glyph glyph-name="glyph286" unicode="&#x1ea5;" 
d="M263 58q78 0 109 13q50 21 50 85q0 67 -42 86q-27 12 -117 12q-76 0 -101 -14q-31 -17 -31 -77q0 -70 32 -90q24 -15 100 -15zM503 0h-79v54l-2 2q-20 -39 -73 -53q-35 -9 -100 -9q-100 0 -144 28q-56 36 -56 131q0 101 54 137q42 28 151 28q153 0 165 -53h5v97
q0 67 -37 89q-27 16 -103 16q-65 0 -92 -9q-45 -15 -45 -63v-18h-82v11q0 92 61 122q42 21 149 21q119 0 164 -26q64 -37 64 -147v-358zM276 686l147 -102l-19 -26l-128 64l-133 -64l-18 26zM478 744h100l-156 -122h-28z" />
    <glyph glyph-name="glyph287" unicode="&#x1ea6;" horiz-adv-x="685" 
d="M532 159h-379l-58 -159h-89l273 750h120l280 -750h-88zM508 229l-167 451l-165 -451h332zM340 911l155 -107l-21 -28l-134 68l-140 -68l-19 28zM211 844h-29l-165 128h106z" />
    <glyph glyph-name="glyph288" unicode="&#x1ea7;" 
d="M263 58q78 0 109 13q50 21 50 85q0 67 -42 86q-27 12 -117 12q-76 0 -101 -14q-31 -17 -31 -77q0 -70 32 -90q24 -15 100 -15zM503 0h-79v54l-2 2q-20 -39 -73 -53q-35 -9 -100 -9q-100 0 -144 28q-56 36 -56 131q0 101 54 137q42 28 151 28q153 0 165 -53h5v97
q0 67 -37 89q-27 16 -103 16q-65 0 -92 -9q-45 -15 -45 -63v-18h-82v11q0 92 61 122q42 21 149 21q119 0 164 -26q64 -37 64 -147v-358zM276 687l148 -102l-20 -26l-128 64l-132 -64l-19 26zM154 623h-28l-156 122h100z" />
    <glyph glyph-name="glyph289" unicode="&#x1ea8;" horiz-adv-x="685" 
d="M444 966q0 47 15.5 60.5t62.5 13.5q44 0 60 -14.5t16 -58.5q0 -32 -8.5 -41.5t-40.5 -20.5q-23 -8 -26 -10q-9 -7 -9 -23v-10l-20 -18l-21 18v10q0 27 14 39q9 8 66 28q5 5 5 32q0 30 -7 35.5t-39 5.5q-33 0 -40.5 -6.5t-7.5 -39.5h-20zM340 911l155 -107l-21 -28
l-134 68l-140 -68l-19 28zM508 229l-167 451l-165 -451h332zM532 159h-379l-58 -159h-89l273 750h120l280 -750h-88z" />
    <glyph glyph-name="glyph290" unicode="&#x1ea9;" 
d="M263 58q78 0 109 13q50 21 50 85q0 67 -42 86q-27 12 -117 12q-76 0 -101 -14q-31 -17 -31 -77q0 -70 32 -90q24 -15 100 -15zM503 0h-79v54l-2 2q-20 -39 -73 -53q-35 -9 -100 -9q-100 0 -144 28q-56 36 -56 131q0 101 54 137q42 28 151 28q153 0 165 -53h5v97
q0 67 -37 89q-27 16 -103 16q-65 0 -92 -9q-45 -15 -45 -63v-18h-82v11q0 92 61 122q42 21 149 21q119 0 164 -26q64 -37 64 -147v-358zM380 746q0 47 15.5 60.5t62.5 13.5q44 0 60 -14.5t16 -58.5q0 -32 -8.5 -41.5t-40.5 -20.5q-23 -8 -26 -10q-9 -7 -9 -23v-10l-20 -18
l-21 18v10q0 27 14 39q9 8 66 28q5 5 5 32q0 30 -7 35.5t-39 5.5q-33 0 -40.5 -6.5t-7.5 -39.5h-20zM276 686l147 -101l-20 -27l-127 65l-133 -65l-18 27z" />
    <glyph glyph-name="glyph291" unicode="&#x1eaa;" horiz-adv-x="685" 
d="M532 159h-379l-58 -159h-89l273 750h120l280 -750h-88zM508 229l-167 451l-165 -451h332zM340 911l155 -107l-21 -28l-134 68l-140 -68l-19 28zM206 942h-47q61 100 128 105q35 3 40 -3l64 -42q9 -9 27 -9q35 0 57 55h45q-15 -36 -53 -68q-41 -35 -77 -36q-38 -1 -50 8
l-51 38q-5 11 -20 11q-17 0 -37 -22q-18 -18 -26 -37z" />
    <glyph glyph-name="glyph292" unicode="&#x1eab;" 
d="M263 58q78 0 109 13q50 21 50 85q0 67 -42 86q-27 12 -117 12q-76 0 -101 -14q-31 -17 -31 -77q0 -70 32 -90q24 -15 100 -15zM503 0h-79v54l-2 2q-20 -39 -73 -53q-35 -9 -100 -9q-100 0 -144 28q-56 36 -56 131q0 101 54 137q42 28 151 28q153 0 165 -53h5v97
q0 67 -37 89q-27 16 -103 16q-65 0 -92 -9q-45 -15 -45 -63v-18h-82v11q0 92 61 122q42 21 149 21q119 0 164 -26q64 -37 64 -147v-358zM276 686l147 -101l-20 -27l-127 65l-133 -65l-18 27zM149 716h-45q60 95 122 99q34 2 38 -2l60 -40q9 -9 26 -9q34 0 54 52h43
q-15 -34 -51 -64q-39 -33 -73 -34q-36 -1 -47 7l-49 36q-4 11 -19 11q-16 0 -35 -21q-16 -17 -24 -35z" />
    <glyph glyph-name="glyph293" unicode="&#x1eac;" horiz-adv-x="685" 
d="M532 159h-379l-58 -159h-89l273 750h120l280 -750h-88zM508 229l-167 451l-165 -451h332zM340 911l155 -107l-21 -28l-134 68l-140 -68l-19 28zM385 -32v-80h-92v80l47 1z" />
    <glyph glyph-name="glyph294" unicode="&#x1ead;" 
d="M263 58q78 0 109 13q50 21 50 85q0 67 -42 86q-27 12 -117 12q-76 0 -101 -14q-31 -17 -31 -77q0 -70 32 -90q24 -15 100 -15zM503 0h-79v54l-2 2q-20 -39 -73 -53q-35 -9 -100 -9q-100 0 -144 28q-56 36 -56 131q0 101 54 137q42 28 151 28q153 0 165 -53h5v97
q0 67 -37 89q-27 16 -103 16q-65 0 -92 -9q-45 -15 -45 -63v-18h-82v11q0 92 61 122q42 21 149 21q119 0 164 -26q64 -37 64 -147v-358zM276 687l148 -102l-20 -26l-128 64l-132 -64l-19 26zM306 -52v-76h-88v76l45 1z" />
    <glyph glyph-name="glyph295" unicode="&#x1eae;" horiz-adv-x="685" 
d="M532 159h-379l-58 -159h-89l273 750h120l280 -750h-88zM508 229l-167 451l-165 -451h332zM186 932l38 -10q6 -36 44 -58q32 -18 72 -18t72 18q38 22 44 58l36 10q-6 -58 -49.5 -97.5t-102.5 -39.5q-58 0 -103 40t-51 97zM413 1050h106l-165 -128h-29z" />
    <glyph glyph-name="glyph296" unicode="&#x1eaf;" 
d="M263 58q78 0 109 13q50 21 50 85q0 67 -42 86q-27 12 -117 12q-76 0 -101 -14q-31 -17 -31 -77q0 -70 32 -90q24 -15 100 -15zM503 0h-79v54l-2 2q-20 -39 -73 -53q-35 -9 -100 -9q-100 0 -144 28q-56 36 -56 131q0 101 54 137q42 28 151 28q153 0 165 -53h5v97
q0 67 -37 89q-27 16 -103 16q-65 0 -92 -9q-45 -15 -45 -63v-18h-82v11q0 92 61 122q42 21 149 21q119 0 164 -26q64 -37 64 -147v-358zM129 712l36 -10q6 -34 42 -54q30 -18 68 -18t68 18q36 20 42 54l34 10q-5 -55 -46.5 -92.5t-97.5 -37.5q-55 0 -98 37.5t-48 92.5z
M344 824h101l-157 -122h-27z" />
    <glyph glyph-name="glyph297" unicode="&#x1eb0;" horiz-adv-x="685" 
d="M532 159h-379l-58 -159h-89l273 750h120l280 -750h-88zM508 229l-167 451l-165 -451h332zM186 932l38 -10q6 -36 44 -58q32 -18 72 -18t72 18q38 22 44 58l36 10q-6 -58 -49.5 -97.5t-102.5 -39.5q-58 0 -103 40t-51 97zM355 922h-29l-165 128h106z" />
    <glyph glyph-name="glyph298" unicode="&#x1eb1;" 
d="M263 58q78 0 109 13q50 21 50 85q0 67 -42 86q-27 12 -117 12q-76 0 -101 -14q-31 -17 -31 -77q0 -70 32 -90q24 -15 100 -15zM503 0h-79v54l-2 2q-20 -39 -73 -53q-35 -9 -100 -9q-100 0 -144 28q-56 36 -56 131q0 101 54 137q42 28 151 28q153 0 165 -53h5v97
q0 67 -37 89q-27 16 -103 16q-65 0 -92 -9q-45 -15 -45 -63v-18h-82v11q0 92 61 122q42 21 149 21q119 0 164 -26q64 -37 64 -147v-358zM129 712l36 -10q6 -34 42 -54q31 -18 68 -18q38 0 68 18q36 20 42 54l34 10q-5 -55 -46.5 -92.5t-97.5 -37.5q-55 0 -98 37.5t-48 92.5z
M289 702h-27l-157 122h101z" />
    <glyph glyph-name="glyph299" unicode="&#x1eb2;" horiz-adv-x="685" 
d="M532 159h-379l-58 -159h-89l273 750h120l280 -750h-88zM508 229l-167 451l-165 -451h332zM186 932l38 -10q6 -36 44 -58q32 -18 72 -18t72 18q38 22 44 58l36 10q-6 -58 -49.5 -97.5t-102.5 -39.5q-58 0 -103 40t-51 97zM290 1044q0 47 15.5 60.5t62.5 13.5
q44 0 60 -14.5t16 -58.5q0 -32 -8.5 -41.5t-40.5 -20.5q-23 -8 -26 -10q-9 -7 -9 -23v-10l-20 -18l-21 18v10q0 27 14 39q9 8 66 28q5 5 5 32q0 30 -7 35.5t-39 5.5q-33 0 -40.5 -6.5t-7.5 -39.5h-20z" />
    <glyph glyph-name="glyph300" unicode="&#x1eb3;" 
d="M263 58q78 0 109 13q50 21 50 85q0 67 -42 86q-27 12 -117 12q-76 0 -101 -14q-31 -17 -31 -77q0 -70 32 -90q24 -15 100 -15zM503 0h-79v54l-2 2q-20 -39 -73 -53q-35 -9 -100 -9q-100 0 -144 28q-56 36 -56 131q0 101 54 137q42 28 151 28q153 0 165 -53h5v97
q0 67 -37 89q-27 16 -103 16q-65 0 -92 -9q-45 -15 -45 -63v-18h-82v11q0 92 61 122q42 21 149 21q119 0 164 -26q64 -37 64 -147v-358zM129 712l36 -10q6 -34 42 -54q31 -18 68 -18t68 18q36 20 42 54l34 10q-5 -55 -46.5 -92.5t-97.5 -37.5q-55 0 -98 37.5t-48 92.5z
M225 826q0 47 15.5 60.5t62.5 13.5q44 0 60 -14.5t16 -58.5q0 -32 -8.5 -41.5t-40.5 -20.5q-23 -8 -26 -10q-9 -7 -9 -23v-10l-20 -18l-21 18v10q0 27 14 39q9 8 66 28q5 5 5 32q0 30 -7 35.5t-39 5.5q-33 0 -40.5 -6.5t-7.5 -39.5h-20z" />
    <glyph glyph-name="glyph301" unicode="&#x1eb4;" horiz-adv-x="685" 
d="M532 159h-379l-58 -159h-89l273 750h120l280 -750h-88zM508 229l-167 451l-165 -451h332zM186 932l38 -10q6 -36 44 -58q32 -18 72 -18t72 18q38 22 44 58l36 10q-6 -58 -49.5 -97.5t-102.5 -39.5q-58 0 -103 40t-51 97zM364 952h-47q61 100 128 105q35 3 40 -3l64 -42
q9 -9 27 -9q35 0 57 55h45q-15 -36 -53 -68q-41 -35 -77 -36q-38 -1 -50 8l-51 38q-5 11 -20 11q-17 0 -37 -22q-18 -18 -26 -37z" />
    <glyph glyph-name="glyph302" unicode="&#x1eb5;" 
d="M263 58q78 0 109 13q50 21 50 85q0 67 -42 86q-27 12 -117 12q-76 0 -101 -14q-31 -17 -31 -77q0 -70 32 -90q24 -15 100 -15zM503 0h-79v54l-2 2q-20 -39 -73 -53q-35 -9 -100 -9q-100 0 -144 28q-56 36 -56 131q0 101 54 137q42 28 151 28q153 0 165 -53h5v97
q0 67 -37 89q-27 16 -103 16q-65 0 -92 -9q-45 -15 -45 -63v-18h-82v11q0 92 61 122q42 21 149 21q119 0 164 -26q64 -37 64 -147v-358zM129 711l36 -10q6 -34 42 -54q30 -18 68 -18t68 18q36 20 42 54l35 10q-6 -55 -48 -92.5t-97 -37.5t-97.5 38t-48.5 92zM298 730h-45
q60 95 122 99q34 2 38 -2l61 -40q8 -9 25 -9q32 0 55 52h42q-15 -34 -51 -64q-38 -33 -72 -34q-37 -1 -48 7l-48 36q-5 11 -19 11q-15 0 -35 -21q-17 -17 -25 -35z" />
    <glyph glyph-name="glyph303" unicode="&#x1eb6;" horiz-adv-x="685" 
d="M532 159h-379l-58 -159h-89l273 750h120l280 -750h-88zM508 229l-167 451l-165 -451h332zM186 932l38 -10q6 -36 44 -58q32 -18 72 -18t72 18q38 22 44 58l36 10q-6 -58 -49.5 -97.5t-102.5 -39.5q-58 0 -103 40t-51 97zM385 -32v-80h-92v80l47 1z" />
    <glyph glyph-name="glyph304" unicode="&#x1eb7;" 
d="M263 58q78 0 109 13q50 21 50 85q0 67 -42 86q-27 12 -117 12q-76 0 -101 -14q-31 -17 -31 -77q0 -70 32 -90q24 -15 100 -15zM503 0h-79v54l-2 2q-20 -39 -73 -53q-35 -9 -100 -9q-100 0 -144 28q-56 36 -56 131q0 101 54 137q42 28 151 28q153 0 165 -53h5v97
q0 67 -37 89q-27 16 -103 16q-65 0 -92 -9q-45 -15 -45 -63v-18h-82v11q0 92 61 122q42 21 149 21q119 0 164 -26q64 -37 64 -147v-358zM306 -52v-76h-88v76l45 1zM129 712l36 -10q6 -34 42 -54q30 -18 68 -18t68 18q36 20 42 54l34 10q-5 -55 -46.5 -92.5t-97.5 -37.5
q-55 0 -98 37.5t-48 92.5z" />
    <glyph glyph-name="glyph305" unicode="&#x1eb8;" horiz-adv-x="560" 
d="M126 675v-255h380v-70h-380v-275h397v-75h-482v750h482v-75h-397zM325 -52v-80h-92v80l47 1z" />
    <glyph glyph-name="glyph306" unicode="&#x1eb9;" horiz-adv-x="565" 
d="M431 159h81v-19q0 -94 -68 -125q-46 -21 -156 -21q-148 0 -195 59q-41 52 -41 209q0 154 41 207q48 62 195 62q134 0 179 -48t45 -185v-53h-378q0 -119 19 -148q27 -39 135 -39q86 0 112 13q31 15 31 68v20zM134 309h296q-3 110 -26 134t-116 24q-100 0 -128 -34
q-21 -26 -26 -124zM331 -52v-76h-88v76l45 1z" />
    <glyph glyph-name="glyph307" unicode="&#x1eba;" horiz-adv-x="560" 
d="M126 675v-255h380v-70h-380v-275h397v-75h-482v750h482v-75h-397zM230 928q0 47 15.5 60.5t62.5 13.5q44 0 60 -14.5t16 -58.5q0 -32 -8.5 -41.5t-40.5 -20.5q-23 -8 -26 -10q-9 -7 -9 -23v-10l-20 -18l-21 18v10q0 27 14 39q9 8 66 28q5 5 5 32q0 30 -7 35.5t-39 5.5
q-33 0 -40.5 -6.5t-7.5 -39.5h-20z" />
    <glyph glyph-name="glyph308" unicode="&#x1ebb;" horiz-adv-x="565" 
d="M431 159h81v-19q0 -94 -68 -125q-46 -21 -156 -21q-148 0 -195 59q-41 52 -41 209q0 154 41 207q48 62 195 62q134 0 179 -48t45 -185v-53h-378q0 -119 19 -148q27 -39 135 -39q86 0 112 13q31 15 31 68v20zM134 309h296q-3 110 -26 134t-116 24q-100 0 -128 -34
q-21 -26 -26 -124zM238 718q0 47 15.5 60.5t62.5 13.5q44 0 60 -14.5t16 -58.5q0 -32 -8.5 -41.5t-40.5 -20.5q-23 -8 -26 -10q-9 -7 -9 -23v-10l-20 -18l-21 18v10q0 27 14 39q9 8 66 28q5 5 5 32q0 30 -7 35.5t-39 5.5q-33 0 -40.5 -6.5t-7.5 -39.5h-20z" />
    <glyph glyph-name="glyph309" unicode="&#x1ebc;" horiz-adv-x="560" 
d="M126 675v-255h380v-70h-380v-275h397v-75h-482v750h482v-75h-397zM146 815h-47q61 100 128 105q35 3 40 -3l64 -42q9 -9 27 -9q35 0 57 55h45q-15 -36 -53 -68q-41 -35 -77 -36q-38 -1 -50 8l-51 38q-5 11 -20 11q-17 0 -37 -22q-18 -18 -26 -37z" />
    <glyph glyph-name="glyph310" unicode="&#x1ebd;" horiz-adv-x="565" 
d="M431 159h81v-19q0 -94 -68 -125q-46 -21 -156 -21q-148 0 -195 59q-41 52 -41 209q0 154 41 207q48 62 195 62q134 0 179 -48t45 -185v-53h-378q0 -119 19 -148q27 -39 135 -39q86 0 112 13q31 15 31 68v20zM134 309h296q-3 110 -26 134t-116 24q-100 0 -128 -34
q-21 -26 -26 -124zM161 606h-45q60 95 122 99q34 2 38 -2l60 -40q9 -9 26 -9q34 0 54 52h43q-15 -34 -51 -64q-39 -33 -73 -34q-36 -1 -47 7l-49 36q-4 11 -19 11q-16 0 -35 -21q-16 -17 -24 -35z" />
    <glyph glyph-name="glyph311" unicode="&#x1ebe;" horiz-adv-x="560" 
d="M126 675v-255h380v-70h-380v-275h397v-75h-482v750h482v-75h-397zM280 930l155 -107l-21 -28l-134 68l-140 -68l-19 28zM492 991h106l-165 -128h-29z" />
    <glyph glyph-name="glyph312" unicode="&#x1ebf;" horiz-adv-x="565" 
d="M431 159h81v-19q0 -94 -68 -125q-46 -21 -156 -21q-148 0 -195 59q-41 52 -41 209q0 154 41 207q48 62 195 62q134 0 179 -48t45 -185v-53h-378q0 -119 19 -148q27 -39 135 -39q86 0 112 13q31 15 31 68v20zM134 309h296q-3 110 -26 134t-116 24q-100 0 -128 -34
q-21 -26 -26 -124zM288 686l147 -102l-19 -26l-128 64l-133 -64l-18 26zM490 744h100l-156 -122h-28z" />
    <glyph glyph-name="glyph313" unicode="&#x1ec0;" horiz-adv-x="560" 
d="M126 675v-255h380v-70h-380v-275h397v-75h-482v750h482v-75h-397zM280 930l155 -107l-21 -28l-134 68l-140 -68l-19 28zM151 863h-29l-165 128h106z" />
    <glyph glyph-name="glyph314" unicode="&#x1ec1;" horiz-adv-x="565" 
d="M431 159h81v-19q0 -94 -68 -125q-46 -21 -156 -21q-148 0 -195 59q-41 52 -41 209q0 154 41 207q48 62 195 62q134 0 179 -48t45 -185v-53h-378q0 -119 19 -148q27 -39 135 -39q86 0 112 13q31 15 31 68v20zM134 309h296q-3 110 -26 134t-116 24q-100 0 -128 -34
q-21 -26 -26 -124zM288 686l148 -102l-20 -26l-128 64l-132 -64l-19 26zM166 622h-28l-156 122h100z" />
    <glyph glyph-name="glyph315" unicode="&#x1ec2;" horiz-adv-x="560" 
d="M126 675v-255h380v-70h-380v-275h397v-75h-482v750h482v-75h-397zM384 986q0 47 15.5 60.5t62.5 13.5q44 0 60 -14.5t16 -58.5q0 -32 -8.5 -41.5t-40.5 -20.5q-23 -8 -26 -10q-9 -7 -9 -23v-10l-20 -18l-21 18v10q0 27 14 39q9 8 66 28q5 5 5 32q0 30 -7 35.5t-39 5.5
q-33 0 -40.5 -6.5t-7.5 -39.5h-20zM280 931l155 -107l-21 -28l-134 68l-140 -68l-19 28z" />
    <glyph glyph-name="glyph316" unicode="&#x1ec3;" horiz-adv-x="565" 
d="M431 159h81v-19q0 -94 -68 -125q-46 -21 -156 -21q-148 0 -195 59q-41 52 -41 209q0 154 41 207q48 62 195 62q134 0 179 -48t45 -185v-53h-378q0 -119 19 -148q27 -39 135 -39q86 0 112 13q31 15 31 68v20zM134 309h296q-3 110 -26 134t-116 24q-100 0 -128 -34
q-21 -26 -26 -124zM392 746q0 47 15.5 60.5t62.5 13.5q44 0 60 -14.5t16 -58.5q0 -32 -8.5 -41.5t-40.5 -20.5q-23 -8 -26 -10q-9 -7 -9 -23v-10l-20 -18l-21 18v10q0 27 14 39q9 8 66 28q5 5 5 32q0 30 -7 35.5t-39 5.5q-33 0 -40.5 -6.5t-7.5 -39.5h-20zM288 686l147 -101
l-20 -27l-127 65l-133 -65l-18 27z" />
    <glyph glyph-name="glyph317" unicode="&#x1ec4;" horiz-adv-x="560" 
d="M126 675v-255h380v-70h-380v-275h397v-75h-482v750h482v-75h-397zM280 931l155 -107l-21 -28l-134 68l-140 -68l-19 28zM146 962h-47q61 100 128 105q35 3 40 -3l64 -42q9 -9 27 -9q35 0 57 55h45q-15 -36 -53 -68q-41 -35 -77 -36q-38 -1 -50 8l-51 38q-5 11 -20 11
q-17 0 -37 -22q-18 -18 -26 -37z" />
    <glyph glyph-name="glyph318" unicode="&#x1ec5;" horiz-adv-x="565" 
d="M431 159h81v-19q0 -94 -68 -125q-46 -21 -156 -21q-148 0 -195 59q-41 52 -41 209q0 154 41 207q48 62 195 62q134 0 179 -48t45 -185v-53h-378q0 -119 19 -148q27 -39 135 -39q86 0 112 13q31 15 31 68v20zM134 309h296q-3 110 -26 134t-116 24q-100 0 -128 -34
q-21 -26 -26 -124zM288 686l147 -101l-20 -27l-127 65l-133 -65l-18 27zM161 716h-45q60 95 122 99q34 2 38 -2l60 -40q9 -9 26 -9q34 0 54 52h43q-15 -34 -51 -64q-39 -33 -73 -34q-36 -1 -47 7l-49 36q-4 11 -19 11q-16 0 -35 -21q-16 -17 -24 -35z" />
    <glyph glyph-name="glyph319" unicode="&#x1ec6;" horiz-adv-x="560" 
d="M126 675v-255h380v-70h-380v-275h397v-75h-482v750h482v-75h-397zM280 930l155 -107l-21 -28l-134 68l-140 -68l-19 28zM325 -52v-80h-92v80l47 1z" />
    <glyph glyph-name="glyph320" unicode="&#x1ec7;" horiz-adv-x="565" 
d="M431 159h81v-19q0 -94 -68 -125q-46 -21 -156 -21q-148 0 -195 59q-41 52 -41 209q0 154 41 207q48 62 195 62q134 0 179 -48t45 -185v-53h-378q0 -119 19 -148q27 -39 135 -39q86 0 112 13q31 15 31 68v20zM134 309h296q-3 110 -26 134t-116 24q-100 0 -128 -34
q-21 -26 -26 -124zM288 686l148 -102l-20 -26l-128 64l-132 -64l-19 26zM331 -52v-76h-88v76l45 1z" />
    <glyph glyph-name="glyph321" unicode="&#x1ec8;" horiz-adv-x="228" 
d="M157 750v-750h-85v750h85zM64 927q0 47 15.5 60.5t62.5 13.5q44 0 60 -14.5t16 -58.5q0 -32 -8.5 -41.5t-40.5 -20.5q-23 -8 -26 -10q-9 -7 -9 -23v-10l-20 -18l-21 18v10q0 27 14 39q9 8 66 28q5 5 5 32q0 30 -7 35.5t-39 5.5q-33 0 -40.5 -6.5t-7.5 -39.5h-20z" />
    <glyph glyph-name="glyph322" unicode="&#x1ec9;" horiz-adv-x="215" 
d="M147 525v-525h-79v525h79zM58 705q0 47 15.5 60.5t62.5 13.5q44 0 60 -14.5t16 -58.5q0 -32 -8.5 -41.5t-40.5 -20.5q-23 -8 -26 -10q-9 -7 -9 -23v-10l-20 -18l-21 18v10q0 27 14 39q9 8 66 28q5 5 5 32q0 30 -7 35.5t-39 5.5q-33 0 -40.5 -6.5t-7.5 -39.5h-20z" />
    <glyph glyph-name="glyph323" unicode="&#x1eca;" horiz-adv-x="228" 
d="M157 750v-750h-85v750h85zM159 -52v-80h-92v80l47 1z" />
    <glyph glyph-name="glyph324" unicode="&#x1ecb;" horiz-adv-x="215" 
d="M147 525v-525h-79v525h79zM143 675v-79h-71v79h71zM152 -52v-76h-88v76l45 1z" />
    <glyph glyph-name="glyph325" unicode="&#x1ecc;" horiz-adv-x="671" 
d="M285 756h101q139 0 191.5 -56t52.5 -196v-267q0 -133 -55.5 -188t-188.5 -55h-101q-133 0 -188.5 55t-55.5 188v267q0 140 52.5 196t191.5 56zM386 681h-101q-99 0 -131 -39q-28 -35 -28 -138v-267q0 -106 38 -140q31 -28 121 -28h101q90 0 121 28q38 34 38 140v267
q0 103 -28 138q-32 39 -131 39zM379 -57v-80h-92v80l47 1z" />
    <glyph glyph-name="glyph326" unicode="&#x1ecd;" 
d="M52 262q0 159 38 209q45 60 195 60t195 -60q38 -50 38 -209q0 -158 -38 -208q-45 -60 -195 -60t-195 60q-38 50 -38 208zM134 262q0 -127 16 -156q25 -48 135 -48t135 48q16 29 16 156q0 94 -4 117q-7 48 -37 67q-33 21 -110 21t-108.5 -20t-38.5 -68q-4 -23 -4 -117z
M328 -52v-76h-88v76l45 1z" />
    <glyph glyph-name="glyph327" unicode="&#x1ece;" horiz-adv-x="671" 
d="M285 756h101q139 0 191.5 -56t52.5 -196v-267q0 -133 -55.5 -188t-188.5 -55h-101q-133 0 -188.5 55t-55.5 188v267q0 140 52.5 196t191.5 56zM386 681h-101q-99 0 -131 -39q-28 -35 -28 -138v-267q0 -106 38 -140q31 -28 121 -28h101q90 0 121 28q38 34 38 140v267
q0 103 -28 138q-32 39 -131 39zM284 928q0 47 15.5 60.5t62.5 13.5q44 0 60 -14.5t16 -58.5q0 -32 -8.5 -41.5t-40.5 -20.5q-23 -8 -26 -10q-9 -7 -9 -23v-10l-20 -18l-21 18v10q0 27 14 39q9 8 66 28q5 5 5 32q0 30 -7 35.5t-39 5.5q-33 0 -40.5 -6.5t-7.5 -39.5h-20z" />
    <glyph glyph-name="glyph328" unicode="&#x1ecf;" 
d="M52 262q0 159 38 209q45 60 195 60t195 -60q38 -50 38 -209q0 -158 -38 -208q-45 -60 -195 -60t-195 60q-38 50 -38 208zM134 262q0 -127 16 -156q25 -48 135 -48t135 48q16 29 16 156q0 94 -4 117q-7 48 -37 67q-33 21 -110 21t-108.5 -20t-38.5 -68q-4 -23 -4 -117z
M235 718q0 47 15.5 60.5t62.5 13.5q44 0 60 -14.5t16 -58.5q0 -32 -8.5 -41.5t-40.5 -20.5q-23 -8 -26 -10q-9 -7 -9 -23v-10l-20 -18l-21 18v10q0 27 14 39q9 8 66 28q5 5 5 32q0 30 -7 35.5t-39 5.5q-33 0 -40.5 -6.5t-7.5 -39.5h-20z" />
    <glyph glyph-name="glyph329" unicode="&#x1ed0;" horiz-adv-x="671" 
d="M285 756h101q139 0 191.5 -56t52.5 -196v-267q0 -133 -55.5 -188t-188.5 -55h-101q-133 0 -188.5 55t-55.5 188v267q0 140 52.5 196t191.5 56zM386 681h-101q-99 0 -131 -39q-28 -35 -28 -138v-267q0 -106 38 -140q31 -28 121 -28h101q90 0 121 28q38 34 38 140v267
q0 103 -28 138q-32 39 -131 39zM334 930l155 -107l-21 -28l-134 68l-140 -68l-19 28zM546 991h106l-165 -128h-29z" />
    <glyph glyph-name="glyph330" unicode="&#x1ed1;" 
d="M52 262q0 159 38 209q45 60 195 60t195 -60q38 -50 38 -209q0 -158 -38 -208q-45 -60 -195 -60t-195 60q-38 50 -38 208zM134 262q0 -127 16 -156q25 -48 135 -48t135 48q16 29 16 156q0 94 -4 117q-7 48 -37 67q-33 21 -110 21t-108.5 -20t-38.5 -68q-4 -23 -4 -117z
M285 686l147 -102l-19 -26l-128 64l-133 -64l-18 26zM487 744h100l-156 -122h-28z" />
    <glyph glyph-name="glyph331" unicode="&#x1ed2;" horiz-adv-x="671" 
d="M285 756h101q139 0 191.5 -56t52.5 -196v-267q0 -133 -55.5 -188t-188.5 -55h-101q-133 0 -188.5 55t-55.5 188v267q0 140 52.5 196t191.5 56zM386 681h-101q-99 0 -131 -39q-28 -35 -28 -138v-267q0 -106 38 -140q31 -28 121 -28h101q90 0 121 28q38 34 38 140v267
q0 103 -28 138q-32 39 -131 39zM334 931l155 -107l-21 -28l-134 68l-140 -68l-19 28zM205 864h-29l-165 128h106z" />
    <glyph glyph-name="glyph332" unicode="&#x1ed3;" 
d="M52 262q0 159 38 209q45 60 195 60t195 -60q38 -50 38 -209q0 -158 -38 -208q-45 -60 -195 -60t-195 60q-38 50 -38 208zM134 262q0 -127 16 -156q25 -48 135 -48t135 48q16 29 16 156q0 94 -4 117q-7 48 -37 67q-33 21 -110 21t-108.5 -20t-38.5 -68q-4 -23 -4 -117z
M285 686l148 -102l-20 -26l-128 64l-132 -64l-19 26zM163 622h-28l-156 122h100z" />
    <glyph glyph-name="glyph333" unicode="&#x1ed4;" horiz-adv-x="671" 
d="M285 756h101q139 0 191.5 -56t52.5 -196v-267q0 -133 -55.5 -188t-188.5 -55h-101q-133 0 -188.5 55t-55.5 188v267q0 140 52.5 196t191.5 56zM386 681h-101q-99 0 -131 -39q-28 -35 -28 -138v-267q0 -106 38 -140q31 -28 121 -28h101q90 0 121 28q38 34 38 140v267
q0 103 -28 138q-32 39 -131 39zM438 986q0 47 15.5 60.5t62.5 13.5q44 0 60 -14.5t16 -58.5q0 -32 -8.5 -41.5t-40.5 -20.5q-23 -8 -26 -10q-9 -7 -9 -23v-10l-20 -18l-21 18v10q0 27 14 39q9 8 66 28q5 5 5 32q0 30 -7 35.5t-39 5.5q-33 0 -40.5 -6.5t-7.5 -39.5h-20z
M334 931l155 -107l-21 -28l-134 68l-140 -68l-19 28z" />
    <glyph glyph-name="glyph334" unicode="&#x1ed5;" 
d="M52 262q0 159 38 209q45 60 195 60t195 -60q38 -50 38 -209q0 -158 -38 -208q-45 -60 -195 -60t-195 60q-38 50 -38 208zM134 262q0 -127 16 -156q25 -48 135 -48t135 48q16 29 16 156q0 94 -4 117q-7 48 -37 67q-33 21 -110 21t-108.5 -20t-38.5 -68q-4 -23 -4 -117z
M389 746q0 47 15.5 60.5t62.5 13.5q44 0 60 -14.5t16 -58.5q0 -32 -8.5 -41.5t-40.5 -20.5q-23 -8 -26 -10q-9 -7 -9 -23v-10l-20 -18l-21 18v10q0 27 14 39q9 8 66 28q5 5 5 32q0 30 -7 35.5t-39 5.5q-33 0 -40.5 -6.5t-7.5 -39.5h-20zM285 686l147 -101l-20 -27l-127 65
l-133 -65l-18 27z" />
    <glyph glyph-name="glyph335" unicode="&#x1ed6;" horiz-adv-x="671" 
d="M285 756h101q139 0 191.5 -56t52.5 -196v-267q0 -133 -55.5 -188t-188.5 -55h-101q-133 0 -188.5 55t-55.5 188v267q0 140 52.5 196t191.5 56zM386 681h-101q-99 0 -131 -39q-28 -35 -28 -138v-267q0 -106 38 -140q31 -28 121 -28h101q90 0 121 28q38 34 38 140v267
q0 103 -28 138q-32 39 -131 39zM334 930l155 -107l-21 -28l-134 68l-140 -68l-19 28zM200 961h-47q61 100 128 105q35 3 40 -3l64 -42q9 -9 27 -9q35 0 57 55h45q-15 -36 -53 -68q-41 -35 -77 -36q-38 -1 -50 8l-51 38q-5 11 -20 11q-17 0 -37 -22q-18 -18 -26 -37z" />
    <glyph glyph-name="glyph336" unicode="&#x1ed7;" 
d="M52 262q0 159 38 209q45 60 195 60t195 -60q38 -50 38 -209q0 -158 -38 -208q-45 -60 -195 -60t-195 60q-38 50 -38 208zM134 262q0 -127 16 -156q25 -48 135 -48t135 48q16 29 16 156q0 94 -4 117q-7 48 -37 67q-33 21 -110 21t-108.5 -20t-38.5 -68q-4 -23 -4 -117z
M285 686l147 -101l-20 -27l-127 65l-133 -65l-18 27zM158 716h-45q60 95 122 99q34 2 38 -2l60 -40q9 -9 26 -9q34 0 54 52h43q-15 -34 -51 -64q-39 -33 -73 -34q-36 -1 -47 7l-49 36q-4 11 -19 11q-16 0 -35 -21q-16 -17 -24 -35z" />
    <glyph glyph-name="glyph337" unicode="&#x1ed8;" horiz-adv-x="671" 
d="M285 756h101q139 0 191.5 -56t52.5 -196v-267q0 -133 -55.5 -188t-188.5 -55h-101q-133 0 -188.5 55t-55.5 188v267q0 140 52.5 196t191.5 56zM386 681h-101q-99 0 -131 -39q-28 -35 -28 -138v-267q0 -106 38 -140q31 -28 121 -28h101q90 0 121 28q38 34 38 140v267
q0 103 -28 138q-32 39 -131 39zM334 930l155 -107l-21 -28l-134 68l-140 -68l-19 28zM379 -57v-80h-92v80l47 1z" />
    <glyph glyph-name="glyph338" unicode="&#x1ed9;" 
d="M52 262q0 159 38 209q45 60 195 60t195 -60q38 -50 38 -209q0 -158 -38 -208q-45 -60 -195 -60t-195 60q-38 50 -38 208zM134 262q0 -127 16 -156q25 -48 135 -48t135 48q16 29 16 156q0 94 -4 117q-7 48 -37 67q-33 21 -110 21t-108.5 -20t-38.5 -68q-4 -23 -4 -117z
M285 686l148 -102l-20 -26l-128 64l-132 -64l-19 26zM328 -52v-76h-88v76l45 1z" />
    <glyph glyph-name="glyph339" unicode="&#x1eda;" horiz-adv-x="671" 
d="M285 756h101q139 0 191.5 -56t52.5 -196v-267q0 -133 -55.5 -188t-188.5 -55h-101q-133 0 -188.5 55t-55.5 188v267q0 140 52.5 196t191.5 56zM386 681h-101q-99 0 -131 -39q-28 -35 -28 -138v-267q0 -106 38 -140q31 -28 121 -28h101q90 0 121 28q38 34 38 140v267
q0 103 -28 138q-32 39 -131 39zM628 813q19 -12 19 -35q0 -31 -31 -51q-18 -12 -43 -12l-36 15q62 4 62 41q0 11 -6 23l22 16q8 6 13 3zM407 943h106l-165 -128h-29z" />
    <glyph glyph-name="glyph340" unicode="&#x1edb;" 
d="M134 262q0 -127 16 -156q25 -48 135 -48t135 48q16 29 16 156q0 94 -4 117q-7 48 -37 67q-33 21 -110 21t-108.5 -20t-38.5 -68q-4 -23 -4 -117zM391 523h60q27 10 27 33q0 11 -7 23l22 16q8 6 13 3q19 -12 19 -35q0 -31 -31 -51q-18 -12 -42 -12q45 -29 59 -109
q7 -41 7 -129q0 -158 -38 -208q-45 -60 -195 -60t-195 60q-38 50 -38 208q0 159 38 209q45 60 195 60q67 0 106 -8zM356 728h100l-156 -122h-28z" />
    <glyph glyph-name="glyph341" unicode="&#x1edc;" horiz-adv-x="671" 
d="M285 756h101q139 0 191.5 -56t52.5 -196v-267q0 -133 -55.5 -188t-188.5 -55h-101q-133 0 -188.5 55t-55.5 188v267q0 140 52.5 196t191.5 56zM386 681h-101q-99 0 -131 -39q-28 -35 -28 -138v-267q0 -106 38 -140q31 -28 121 -28h101q90 0 121 28q38 34 38 140v267
q0 103 -28 138q-32 39 -131 39zM628 813q19 -12 19 -35q0 -31 -31 -51q-18 -12 -43 -12l-36 15q62 4 62 41q0 11 -6 23l22 16q8 6 13 3zM350 815h-29l-165 128h106z" />
    <glyph glyph-name="glyph342" unicode="&#x1edd;" 
d="M134 262q0 -127 16 -156q25 -48 135 -48t135 48q16 29 16 156q0 94 -4 117q-7 48 -37 67q-33 21 -110 21t-108.5 -20t-38.5 -68q-4 -23 -4 -117zM391 523h60q27 10 27 33q0 11 -7 23l22 16q8 6 13 3q19 -12 19 -35q0 -31 -31 -51q-18 -12 -42 -12q45 -29 59 -109
q7 -41 7 -129q0 -158 -38 -208q-45 -60 -195 -60t-195 60q-38 50 -38 208q0 159 38 209q45 60 195 60q67 0 106 -8zM298 606h-28l-156 122h100z" />
    <glyph glyph-name="glyph343" unicode="&#x1ede;" horiz-adv-x="671" 
d="M285 756h101q139 0 191.5 -56t52.5 -196v-267q0 -133 -55.5 -188t-188.5 -55h-101q-133 0 -188.5 55t-55.5 188v267q0 140 52.5 196t191.5 56zM386 681h-101q-99 0 -131 -39q-28 -35 -28 -138v-267q0 -106 38 -140q31 -28 121 -28h101q90 0 121 28q38 34 38 140v267
q0 103 -28 138q-32 39 -131 39zM628 813q19 -12 19 -35q0 -31 -31 -51q-18 -12 -43 -12l-36 15q62 4 62 41q0 11 -6 23l22 16q8 6 13 3zM284 928q0 47 15.5 60.5t62.5 13.5q44 0 60 -14.5t16 -58.5q0 -32 -8.5 -41.5t-40.5 -20.5q-23 -8 -26 -10q-9 -7 -9 -23v-10l-20 -18
l-21 18v10q0 27 14 39q9 8 66 28q5 5 5 32q0 30 -7 35.5t-39 5.5q-33 0 -40.5 -6.5t-7.5 -39.5h-20z" />
    <glyph glyph-name="glyph344" unicode="&#x1edf;" 
d="M134 262q0 -127 16 -156q25 -48 135 -48t135 48q16 29 16 156q0 94 -4 117q-7 48 -37 67q-33 21 -110 21t-108.5 -20t-38.5 -68q-4 -23 -4 -117zM391 523h60q27 10 27 33q0 11 -7 23l22 16q8 6 13 3q19 -12 19 -35q0 -31 -31 -51q-18 -12 -42 -12q45 -29 59 -109
q7 -41 7 -129q0 -158 -38 -208q-45 -60 -195 -60t-195 60q-38 50 -38 208q0 159 38 209q45 60 195 60q67 0 106 -8zM234 718q0 47 15.5 60.5t62.5 13.5q44 0 60 -14.5t16 -58.5q0 -32 -8.5 -41.5t-40.5 -20.5q-23 -8 -26 -10q-9 -7 -9 -23v-10l-20 -18l-21 18v10q0 27 14 39
q9 8 66 28q5 5 5 32q0 30 -7 35.5t-39 5.5q-33 0 -40.5 -6.5t-7.5 -39.5h-20z" />
    <glyph glyph-name="glyph345" unicode="&#x1ee0;" horiz-adv-x="671" 
d="M285 756h101q139 0 191.5 -56t52.5 -196v-267q0 -133 -55.5 -188t-188.5 -55h-101q-133 0 -188.5 55t-55.5 188v267q0 140 52.5 196t191.5 56zM386 681h-101q-99 0 -131 -39q-28 -35 -28 -138v-267q0 -106 38 -140q31 -28 121 -28h101q90 0 121 28q38 34 38 140v267
q0 103 -28 138q-32 39 -131 39zM628 813q19 -12 19 -35q0 -31 -31 -51q-18 -12 -43 -12l-36 15q62 4 62 41q0 11 -6 23l22 16q8 6 13 3zM200 815h-47q61 100 128 105q35 3 40 -3l64 -42q9 -9 27 -9q35 0 57 55h45q-15 -36 -53 -68q-41 -35 -77 -36q-38 -1 -50 8l-51 38
q-5 11 -20 11q-17 0 -37 -22q-18 -18 -26 -37z" />
    <glyph glyph-name="glyph346" unicode="&#x1ee1;" 
d="M134 262q0 -127 16 -156q25 -48 135 -48t135 48q16 29 16 156q0 94 -4 117q-7 48 -37 67q-33 21 -110 21t-108.5 -20t-38.5 -68q-4 -23 -4 -117zM391 523h60q27 10 27 33q0 11 -7 23l22 16q8 6 13 3q19 -12 19 -35q0 -31 -31 -51q-18 -12 -42 -12q45 -29 59 -109
q7 -41 7 -129q0 -158 -38 -208q-45 -60 -195 -60t-195 60q-38 50 -38 208q0 159 38 209q45 60 195 60q67 0 106 -8zM158 606h-45q60 95 122 99q34 2 38 -2l60 -40q9 -9 26 -9q34 0 54 52h43q-15 -34 -51 -64q-39 -33 -73 -34q-36 -1 -47 7l-49 36q-4 11 -19 11
q-16 0 -35 -21q-16 -17 -24 -35z" />
    <glyph glyph-name="glyph347" unicode="&#x1ee2;" horiz-adv-x="671" 
d="M285 756h101q139 0 191.5 -56t52.5 -196v-267q0 -133 -55.5 -188t-188.5 -55h-101q-133 0 -188.5 55t-55.5 188v267q0 140 52.5 196t191.5 56zM386 681h-101q-99 0 -131 -39q-28 -35 -28 -138v-267q0 -106 38 -140q31 -28 121 -28h101q90 0 121 28q38 34 38 140v267
q0 103 -28 138q-32 39 -131 39zM628 813q19 -12 19 -35q0 -31 -31 -51q-18 -12 -43 -12l-36 15q62 4 62 41q0 11 -6 23l22 16q8 6 13 3zM379 -57v-80h-92v80l47 1z" />
    <glyph glyph-name="glyph348" unicode="&#x1ee3;" 
d="M134 262q0 -127 16 -156q25 -48 135 -48t135 48q16 29 16 156q0 94 -4 117q-7 48 -37 67q-33 21 -110 21t-108.5 -20t-38.5 -68q-4 -23 -4 -117zM391 523h60q27 10 27 33q0 11 -7 23l22 16q8 6 13 3q19 -12 19 -35q0 -31 -31 -51q-18 -12 -42 -12q45 -29 59 -109
q7 -41 7 -129q0 -158 -38 -208q-45 -60 -195 -60t-195 60q-38 50 -38 208q0 159 38 209q45 60 195 60q67 0 106 -8zM328 -52v-76h-88v76l45 1z" />
    <glyph glyph-name="glyph349" unicode="&#x1ee4;" horiz-adv-x="737" 
d="M581 750h85v-540q0 -138 -82 -183q-60 -33 -215 -33q-153 0 -210 29q-87 44 -87 187v540h85v-540q0 -101 58 -127q33 -14 154 -14q129 0 163 18q49 26 49 123v540zM414 -57v-80h-92v80l47 1z" />
    <glyph glyph-name="glyph350" unicode="&#x1ee5;" 
d="M420 0v70h-2q-33 -76 -164 -76q-103 0 -145.5 45t-42.5 149v337h79v-337q0 -72 16 -97q21 -33 92 -33q91 0 126 25q42 31 42 118v324h79v-525h-80zM322 -52v-76h-88v76l45 1z" />
    <glyph glyph-name="glyph351" unicode="&#x1ee6;" horiz-adv-x="737" 
d="M581 750h85v-540q0 -138 -82 -183q-60 -33 -215 -33q-153 0 -210 29q-87 44 -87 187v540h85v-540q0 -101 58 -127q33 -14 154 -14q129 0 163 18q49 26 49 123v540zM316 898q0 47 15.5 60.5t62.5 13.5q44 0 60 -14.5t16 -58.5q0 -32 -8.5 -41.5t-40.5 -20.5
q-23 -8 -26 -10q-9 -7 -9 -23v-10l-20 -18l-21 18v10q0 27 14 39q9 8 66 28q5 5 5 32q0 30 -7 35.5t-39 5.5q-33 0 -40.5 -6.5t-7.5 -39.5h-20z" />
    <glyph glyph-name="glyph352" unicode="&#x1ee7;" 
d="M420 0v70h-2q-33 -76 -164 -76q-103 0 -145.5 45t-42.5 149v337h79v-337q0 -72 16 -97q21 -33 92 -33q91 0 126 25q42 31 42 118v324h79v-525h-80zM232 680q0 47 15.5 60.5t62.5 13.5q44 0 60 -14.5t16 -58.5q0 -32 -8.5 -41.5t-40.5 -20.5q-23 -8 -26 -10q-9 -7 -9 -23
v-10l-20 -18l-21 18v10q0 27 14 39q9 8 66 28q5 5 5 32q0 30 -7 35.5t-39 5.5q-33 0 -40.5 -6.5t-7.5 -39.5h-20z" />
    <glyph glyph-name="glyph353" unicode="&#x1ee8;" horiz-adv-x="737" 
d="M666 715v-505q0 -138 -82 -183q-60 -33 -215 -33q-153 0 -210 29q-87 44 -87 187v540h85v-540q0 -101 58 -127q33 -14 154 -14q129 0 163 18q49 26 49 123v540l68 -5l17 -7q27 10 27 33q0 11 -7 23l22 16q8 6 13 3q19 -12 19 -35q0 -31 -31 -51q-18 -12 -43 -12zM439 913
h106l-165 -128h-29z" />
    <glyph glyph-name="glyph354" unicode="&#x1ee9;" 
d="M500 500v-500h-80v70h-2q-33 -76 -164 -76q-103 0 -145.5 45t-42.5 149v337h79v-337q0 -72 16 -97q21 -33 92 -33q91 0 126 25q42 31 42 118v324l79 -2q26 10 26 33q0 11 -7 23l22 16q8 6 13 3q19 -12 19 -35q0 -31 -31 -51q-18 -12 -42 -12zM353 694h100l-156 -122h-28z
" />
    <glyph glyph-name="glyph355" unicode="&#x1eea;" horiz-adv-x="737" 
d="M666 715v-505q0 -138 -82 -183q-60 -33 -215 -33q-153 0 -210 29q-87 44 -87 187v540h85v-540q0 -101 58 -127q33 -14 154 -14q129 0 163 18q49 26 49 123v540l68 -5l17 -7q27 10 27 33q0 11 -7 23l22 16q8 6 13 3q19 -12 19 -35q0 -31 -31 -51q-18 -12 -43 -12zM381 785
h-29l-165 128h106z" />
    <glyph glyph-name="glyph356" unicode="&#x1eeb;" 
d="M500 500v-500h-80v70h-2q-33 -76 -164 -76q-103 0 -145.5 45t-42.5 149v337h79v-337q0 -72 16 -97q21 -33 92 -33q91 0 126 25q42 31 42 118v324l79 -2q26 10 26 33q0 11 -7 23l22 16q8 6 13 3q19 -12 19 -35q0 -31 -31 -51q-18 -12 -42 -12zM296 572h-28l-156 122h100z
" />
    <glyph glyph-name="glyph357" unicode="&#x1eec;" horiz-adv-x="737" 
d="M666 715v-505q0 -138 -82 -183q-60 -33 -215 -33q-153 0 -210 29q-87 44 -87 187v540h85v-540q0 -101 58 -127q33 -14 154 -14q129 0 163 18q49 26 49 123v540l68 -5l17 -7q27 10 27 33q0 11 -7 23l22 16q8 6 13 3q19 -12 19 -35q0 -31 -31 -51q-18 -12 -43 -12zM316 898
q0 47 15.5 60.5t62.5 13.5q44 0 60 -14.5t16 -58.5q0 -32 -8.5 -41.5t-40.5 -20.5q-23 -8 -26 -10q-9 -7 -9 -23v-10l-20 -18l-21 18v10q0 27 14 39q9 8 66 28q5 5 5 32q0 30 -7 35.5t-39 5.5q-33 0 -40.5 -6.5t-7.5 -39.5h-20z" />
    <glyph glyph-name="glyph358" unicode="&#x1eed;" 
d="M500 500v-500h-80v70h-2q-33 -76 -164 -76q-103 0 -145.5 45t-42.5 149v337h79v-337q0 -72 16 -97q21 -33 92 -33q91 0 126 25q42 31 42 118v324l79 -2q26 10 26 33q0 11 -7 23l22 16q8 6 13 3q19 -12 19 -35q0 -31 -31 -51q-18 -12 -42 -12zM232 680q0 47 15.5 60.5
t62.5 13.5q44 0 60 -14.5t16 -58.5q0 -32 -8.5 -41.5t-40.5 -20.5q-23 -8 -26 -10q-9 -7 -9 -23v-10l-20 -18l-21 18v10q0 27 14 39q9 8 66 28q5 5 5 32q0 30 -7 35.5t-39 5.5q-33 0 -40.5 -6.5t-7.5 -39.5h-20z" />
    <glyph glyph-name="glyph359" unicode="&#x1eee;" horiz-adv-x="737" 
d="M666 715v-505q0 -138 -82 -183q-60 -33 -215 -33q-153 0 -210 29q-87 44 -87 187v540h85v-540q0 -101 58 -127q33 -14 154 -14q129 0 163 18q49 26 49 123v540l68 -5l17 -7q27 10 27 33q0 11 -7 23l22 16q8 6 13 3q19 -12 19 -35q0 -31 -31 -51q-18 -12 -43 -12zM232 795
h-47q61 100 128 105q35 3 40 -3l64 -42q9 -9 27 -9q35 0 57 55h45q-15 -36 -53 -68q-41 -35 -77 -36q-38 -1 -50 8l-51 38q-5 11 -20 11q-17 0 -37 -22q-18 -18 -26 -37z" />
    <glyph glyph-name="glyph360" unicode="&#x1eef;" 
d="M500 500v-500h-80v70h-2q-33 -76 -164 -76q-103 0 -145.5 45t-42.5 149v337h79v-337q0 -72 16 -97q21 -33 92 -33q91 0 126 25q42 31 42 118v324l79 -2q26 10 26 33q0 11 -7 23l22 16q8 6 13 3q19 -12 19 -35q0 -31 -31 -51q-18 -12 -42 -12zM155 582h-45q60 95 122 99
q34 2 38 -2l60 -40q9 -9 26 -9q34 0 54 52h43q-15 -34 -51 -64q-39 -33 -73 -34q-36 -1 -47 7l-49 36q-4 11 -19 11q-16 0 -35 -21q-16 -17 -24 -35z" />
    <glyph glyph-name="glyph361" unicode="&#x1ef0;" horiz-adv-x="737" 
d="M666 715v-505q0 -138 -82 -183q-60 -33 -215 -33q-153 0 -210 29q-87 44 -87 187v540h85v-540q0 -101 58 -127q33 -14 154 -14q129 0 163 18q49 26 49 123v540l68 -5l17 -7q27 10 27 33q0 11 -7 23l22 16q8 6 13 3q19 -12 19 -35q0 -31 -31 -51q-18 -12 -43 -12zM414 -57
v-80h-92v80l47 1z" />
    <glyph glyph-name="glyph362" unicode="&#x1ef1;" 
d="M500 500v-500h-80v70h-2q-33 -76 -164 -76q-103 0 -145.5 45t-42.5 149v337h79v-337q0 -72 16 -97q21 -33 92 -33q91 0 126 25q42 31 42 118v324l79 -2q26 10 26 33q0 11 -7 23l22 16q8 6 13 3q19 -12 19 -35q0 -31 -31 -51q-18 -12 -42 -12zM322 -52v-76h-88v76l45 1z
" />
    <glyph glyph-name="glyph363" unicode="&#x1ef2;" horiz-adv-x="632" 
d="M638 750l-284 -437v-313h-85v313l-275 437h99l222 -351l222 351h101zM331 785h-29l-165 128h106z" />
    <glyph glyph-name="glyph364" unicode="&#x1ef3;" horiz-adv-x="437" 
d="M441 525l-151 -562q-27 -100 -51 -135q-42 -61 -126 -61q-8 0 -36 5v61q14 -3 28 -3q52 0 79 62l30 108h-28l-190 525h81l162 -467h2l118 467h82zM230 558h-28l-156 122h100z" />
    <glyph glyph-name="glyph365" unicode="&#x1ef4;" horiz-adv-x="632" 
d="M638 750l-284 -437v-313h-85v313l-275 437h99l222 -351l222 351h101zM357 -52v-80h-92v80l47 1z" />
    <glyph glyph-name="glyph366" unicode="&#x1ef5;" horiz-adv-x="437" 
d="M441 525l-151 -562q-27 -100 -51 -135q-42 -61 -126 -61q-8 0 -36 5v61q14 -3 28 -3q52 0 79 62l30 108h-28l-190 525h81l162 -467h2l118 467h82zM419 -52v-76h-88v76l45 1z" />
    <glyph glyph-name="glyph367" unicode="&#x1ef6;" horiz-adv-x="632" 
d="M638 750l-284 -437v-313h-85v313l-275 437h99l222 -351l222 351h101zM266 897q0 47 15.5 60.5t62.5 13.5q44 0 60 -14.5t16 -58.5q0 -32 -8.5 -41.5t-40.5 -20.5q-23 -8 -26 -10q-9 -7 -9 -23v-10l-20 -18l-21 18v10q0 27 14 39q9 8 66 28q5 5 5 32q0 30 -7 35.5t-39 5.5
q-33 0 -40.5 -6.5t-7.5 -39.5h-20z" />
    <glyph glyph-name="glyph368" unicode="&#x1ef7;" horiz-adv-x="437" 
d="M441 525l-151 -562q-27 -100 -51 -135q-42 -61 -126 -61q-8 0 -36 5v61q14 -3 28 -3q52 0 79 62l30 108h-28l-190 525h81l162 -467h2l118 467h82zM166 670q0 47 15.5 60.5t62.5 13.5q44 0 60 -14.5t16 -58.5q0 -32 -8.5 -41.5t-40.5 -20.5q-23 -8 -26 -10q-9 -7 -9 -23
v-10l-20 -18l-21 18v10q0 27 14 39q9 8 66 28q5 5 5 32q0 30 -7 35.5t-39 5.5q-33 0 -40.5 -6.5t-7.5 -39.5h-20z" />
    <glyph glyph-name="glyph369" unicode="&#x1ef8;" horiz-adv-x="632" 
d="M638 750l-284 -437v-313h-85v313l-275 437h99l222 -351l222 351h101zM182 795h-47q61 100 128 105q35 3 40 -3l64 -42q9 -9 27 -9q35 0 57 55h45q-15 -36 -53 -68q-41 -35 -77 -36q-38 -1 -50 8l-51 38q-5 11 -20 11q-17 0 -37 -22q-18 -18 -26 -37z" />
    <glyph glyph-name="glyph370" unicode="&#x1ef9;" horiz-adv-x="437" 
d="M441 525l-151 -562q-27 -100 -51 -135q-42 -61 -126 -61q-8 0 -36 5v61q14 -3 28 -3q52 0 79 62l30 108h-28l-190 525h81l162 -467h2l118 467h82zM92 572h-45q60 95 122 99q34 2 38 -2l60 -40q9 -9 26 -9q34 0 54 52h43q-15 -34 -51 -64q-39 -33 -73 -34q-36 -1 -47 7
l-49 36q-4 11 -19 11q-16 0 -35 -21q-16 -17 -24 -35z" />
    <glyph glyph-name="endash" unicode="&#x2013;" horiz-adv-x="500" 
d="M0 311h500v-75h-500v75z" />
    <glyph glyph-name="emdash" unicode="&#x2014;" horiz-adv-x="1000" 
d="M0 311h1000v-75h-1000v75z" />
    <glyph glyph-name="quoteleft" unicode="&#x2018;" horiz-adv-x="201" 
d="M102 644h38v-102h-89v121q0 46 14 67q17 26 63 26h23v-45q-27 -1 -38 -11t-11 -37v-19z" />
    <glyph glyph-name="quoteright" unicode="&#x2019;" horiz-adv-x="201" 
d="M100 648h-38v102h89v-121q0 -46 -14 -67q-17 -26 -63 -26h-23v45q27 1 38 11t11 37v19z" />
    <glyph glyph-name="quotesinglbase" unicode="&#x201a;" horiz-adv-x="228" 
d="M113 0h-38v102h89v-121q0 -46 -14 -67q-17 -26 -63 -26h-23v45q27 1 38 11t11 37v19z" />
    <glyph glyph-name="quotedblleft" unicode="&#x201c;" horiz-adv-x="359" 
d="M259 644h38v-102h-89v121q0 46 14 67q17 26 63 26h23v-45q-27 -1 -38 -11t-11 -37v-19zM102 644h38v-102h-89v121q0 46 14 67q17 26 63 26h23v-45q-27 -1 -38 -11t-11 -37v-19z" />
    <glyph glyph-name="quotedblright" unicode="&#x201d;" horiz-adv-x="359" 
d="M100 648h-38v102h89v-121q0 -46 -14 -67q-17 -26 -63 -26h-23v45q27 1 38 11t11 37v19zM257 648h-38v102h89v-121q0 -46 -14 -67q-17 -26 -63 -26h-23v45q27 1 38 11t11 37v19z" />
    <glyph glyph-name="quotedblbase" unicode="&#x201e;" horiz-adv-x="359" 
d="M100 0h-38v102h89v-121q0 -46 -14 -67q-17 -26 -63 -26h-23v45q27 1 38 11t11 37v19zM257 0h-38v102h89v-121q0 -46 -14 -67q-17 -26 -63 -26h-23v45q27 1 38 11t11 37v19z" />
    <glyph glyph-name="dagger" unicode="&#x2020;" horiz-adv-x="690" 
d="M387 750v-206h173v-70h-173v-683h-85v683h-172v70h172v206h85z" />
    <glyph glyph-name="daggerdbl" unicode="&#x2021;" horiz-adv-x="690" 
d="M387 750v-236h173v-70h-173v-329h173v-70h-173v-254h-85v254h-172v70h172v329h-172v70h172v236h85z" />
    <glyph glyph-name="bullet" unicode="&#x2022;" horiz-adv-x="520" 
d="M448 375q0 -77 -55 -132t-133 -55q-77 0 -131.5 54t-55.5 133q-1 78 53.5 133t133.5 55q78 0 133 -55t55 -133z" />
    <glyph glyph-name="ellipsis" unicode="&#x2026;" horiz-adv-x="1000" 
d="M212 102v-102h-89v102h89zM545 102v-102h-89v102h89zM878 102v-102h-89v102h89z" />
    <glyph glyph-name="perthousand" unicode="&#x2030;" horiz-adv-x="1282" 
d="M862 240v-110q0 -85 -39 -113q-32 -23 -126 -23q-93 0 -124 22q-36 27 -36 113v110q0 86 36 113q31 23 123 23q95 0 127 -22q39 -28 39 -113zM729 750l-509 -756h-67l506 756h70zM802 132v110q0 55 -20 68q-16 10 -86 10q-65 0 -80 -10q-19 -13 -19 -68v-110
q0 -59 19 -73q14 -10 80 -10q68 0 84 10q22 14 22 73zM1260 240v-110q0 -85 -39 -113q-32 -23 -126 -23q-93 0 -124 22q-36 27 -36 113v110q0 86 36 113q31 23 123 23q95 0 127 -22q39 -28 39 -113zM1200 132v110q0 55 -20 68q-16 10 -86 10q-65 0 -80 -10q-19 -13 -19 -68
v-110q0 -59 19 -73q14 -10 80 -10q68 0 84 10q22 14 22 73zM347 621v-110q0 -85 -39 -113q-32 -23 -126 -23q-93 0 -124 22q-36 27 -36 113v110q0 86 36 113q31 23 123 23q95 0 127 -22q39 -28 39 -113zM287 513v110q0 55 -20 68q-16 10 -86 10q-65 0 -80 -10
q-19 -13 -19 -68v-110q0 -59 19 -73q14 -10 80 -10q68 0 84 10q22 14 22 73z" />
    <glyph glyph-name="guilsinglleft" unicode="&#x2039;" horiz-adv-x="318" 
d="M191 575l58 -35l-118 -251l131 -253l-55 -36l-151 289z" />
    <glyph glyph-name="guilsinglright" unicode="&#x203a;" horiz-adv-x="318" 
d="M69 540l58 35l135 -286l-151 -289l-55 36l131 253z" />
    <glyph glyph-name="fraction" unicode="&#x2044;" horiz-adv-x="566" 
d="M571 750l-509 -750h-67l506 750h70z" />
    <glyph glyph-name="franc" unicode="&#x20a3;" horiz-adv-x="1035" 
d="M150 675v-262h365v-70h-365v-343h-85v750h460v-75h-375zM710 525h77l-4 -65l2 -2q34 73 149 73q146 0 146 -148v-38h-75v35q0 49 -19.5 68t-68.5 19q-71 0 -99.5 -33.5t-28.5 -106.5v-327h-79v525z" />
    <glyph glyph-name="u20AB" unicode="&#x20ab;" horiz-adv-x="393" 
d="M197 501q-48 0 -84 -88q-20 -49 -20 -90q0 -51 39 -51q41 0 74 71q28 60 28 107q0 51 -37 51zM200 267q-53 -62 -106 -62q-45 0 -68 28t-23 74q0 80 55 153q59 78 136 78q34 0 61 -24l20 75h-100l10 36h100l2 16q0 31 -48 32l7 33q67 2 128 14l15 3q6 0 6 -9l-3 -12
l-19 -77h65l-10 -36h-65l-69 -280q-5 -20 -5 -27q0 -15 12 -15q6 0 49 42l20 -18q-70 -86 -117 -86q-43 0 -53 62zM9 160h221v-56h-221v56z" />
    <glyph glyph-name="trademark" unicode="&#x2122;" horiz-adv-x="1000" 
d="M942 750v-421h-70v361h-2l-144 -361h-39l-140 361h-2v-361h-70v421h111l121 -297l125 297h110zM404 750v-60h-133v-361h-75v361h-133v60h341z" />
    <glyph glyph-name="minus" unicode="&#x2212;" horiz-adv-x="584" 
d="M50 246v75h484v-75h-484z" />
    <glyph glyph-name="SF370000" unicode="&#x255f;" horiz-adv-x="718" 
d="M532 159h-379l-58 -159h-89l273 750h120l280 -750h-88zM508 229l-167 451l-165 -451h332z" />
    <glyph glyph-name="SF420000" unicode="&#x2560;" horiz-adv-x="681" 
d="M126 675v-255h380v-70h-380v-275h397v-75h-482v750h482v-75h-397z" />
    <glyph glyph-name="SF190000" unicode="&#x2561;" horiz-adv-x="429" 
d="M157 750v-750h-85v750h85z" />
    <glyph glyph-name="SF200000" unicode="&#x2562;" horiz-adv-x="773" 
d="M285 756h101q139 0 191.5 -55t52.5 -197v-267q0 -133 -54.5 -188t-189.5 -55h-101q-135 0 -189.5 55t-54.5 188v267q0 142 52.5 197t191.5 55zM386 681h-101q-96 0 -127.5 -34.5t-31.5 -142.5v-267q0 -105 38 -140q32 -28 121 -28h101q89 0 121 28q38 35 38 140v267
q0 108 -31.5 142.5t-127.5 34.5z" />
    <glyph glyph-name="SF230000" unicode="&#x2563;" horiz-adv-x="811" 
d="M581 750h85v-540q0 -138 -82 -183q-59 -33 -215 -33q-154 0 -210 29q-87 44 -87 187v540h85v-540q0 -91 37.5 -116t174.5 -25q128 0 163 18q49 26 49 123v540z" />
    <glyph glyph-name="SF470000" unicode="&#x2564;" horiz-adv-x="699" 
d="M638 750l-284 -437v-313h-85v313l-275 437h99l222 -351l222 351h101z" />
    <glyph glyph-name="SF480000" unicode="&#x2565;" horiz-adv-x="541" 
d="M263 58q78 0 109 13q50 21 50 85q0 67 -42 86q-27 12 -117 12q-77 0 -101 -14q-31 -17 -31 -77q0 -70 32 -90q23 -15 100 -15zM503 0h-79v54l-2 2q-20 -40 -73 -53q-33 -9 -100 -9q-100 0 -144 28q-56 36 -56 131q0 101 54 137q42 28 151 28q153 0 165 -53h5v97
q0 67 -37 89q-27 16 -103 16q-65 0 -92 -9q-45 -15 -45 -63v-18h-82v11q0 92 61 122q42 21 149 21q117 0 164 -26q64 -38 64 -147v-358z" />
    <glyph glyph-name="SF410000" unicode="&#x2566;" horiz-adv-x="431" 
d="M431 159h81v-19q0 -94 -68 -125q-45 -21 -156 -21q-148 0 -195 59q-41 52 -41 209q0 163 47 216t189 53q131 0 176 -44q48 -47 48 -189v-53h-378q0 -126 24.5 -156.5t129.5 -30.5q86 0 112 13q31 15 31 68v20zM134 309h296q-3 109 -27 135q-23 23 -115 23
q-101 0 -128 -34q-21 -25 -26 -124z" />
    <glyph glyph-name="SF450000" unicode="&#x2567;" horiz-adv-x="314" 
d="M147 525v-525h-79v525h79zM147 750v-87h-79v87h79z" />
    <glyph glyph-name="SF460000" unicode="&#x2568;" horiz-adv-x="314" 
d="M147 525v-525h-79v525h79z" />
    <glyph glyph-name="SF400000" unicode="&#x2569;" horiz-adv-x="498" 
d="M52 262q0 167 43.5 218t189.5 51t189.5 -51t43.5 -218q0 -166 -43.5 -217t-189.5 -51t-189.5 51t-43.5 217zM134 262q0 -138 23.5 -171t127.5 -33t127.5 33t23.5 171q0 139 -23.5 172t-127.5 33t-127.5 -33t-23.5 -172z" />
    <glyph glyph-name="SF540000" unicode="&#x256a;" horiz-adv-x="557" 
d="M420 0v70h-2q-33 -76 -164 -76q-103 0 -145.5 44.5t-42.5 149.5v337h79v-337q0 -73 16 -97q21 -33 92 -33q91 0 126 25q42 30 42 118v324h79v-525h-80z" />
    <glyph glyph-name="SF530000" unicode="&#x256b;" horiz-adv-x="497" 
d="M441 525l-151 -562q-27 -100 -51 -135q-42 -61 -126 -61q-8 0 -36 5v61q14 -3 28 -3q52 0 79 62l30 108h-28l-190 525h81l162 -467h2l118 467h82z" />
    <glyph glyph-name="circle" unicode="&#x25cb;" horiz-adv-x="718" 
d="M479 968l173 -108l-24 -42l-149 76l-155 -76l-21 42zM426 1163l39 -54l-161 -100l-27 41z" />
    <glyph glyph-name="H18533" unicode="&#x25cf;" horiz-adv-x="718" 
d="M479 968l173 -108l-24 -42l-149 76l-155 -76l-21 42zM426 1164l148 -113l-26 -41l-162 100z" />
    <glyph glyph-name="invbullet" unicode="&#x25d8;" horiz-adv-x="718" 
d="M479 968l173 -108l-24 -42l-149 76l-155 -76l-21 42zM614 903q9 29 11 64q1 11 8 13q3 0 8 1q67 11 67 54q0 35 -28 35q-5 0 -14 -1t-14 -1q-21 0 -21 18q0 28 32 28q46 0 76 -25.5t26 -70.5q-6 -59 -87 -81q-25 -7 -31 -34h-33z" />
    <glyph glyph-name="invcircle" unicode="&#x25d9;" horiz-adv-x="718" 
d="M479 968l173 -108l-24 -42l-149 76l-155 -76l-21 42zM646 1109v0l43 -28q-43 -75 -103 -75q-24 0 -71.5 21.5t-69.5 21.5q-19 0 -31 -12q-5 -6 -19 -29l-45 26q38 74 96 74q24 0 73.5 -21.5t68.5 -21.5q33 0 58 44z" />
    <glyph glyph-name="fi" unicode="&#xf001;" horiz-adv-x="509" 
d="M441 525v-525h-79v525h79zM167 525h139v-64h-139v-461h-79v461h-80v64h80v63q0 96 36 132t133 36q17 0 49 -2v-64q-32 2 -49 2q-57 0 -75 -22q-15 -18 -15 -74v-71zM441 750v-87h-79v87h79z" />
    <glyph glyph-name="fl" unicode="&#xf002;" horiz-adv-x="513" 
d="M167 525h139v-64h-139v-461h-79v461h-80v64h80v63q0 96 36 132t133 36q17 0 49 -2v-64q-32 2 -49 2q-57 0 -75 -22q-15 -18 -15 -74v-71zM445 750v-750h-79v750h79z" />
    <glyph glyph-name="periodcentered" horiz-adv-x="345" 
d="M217 335v-102h-89v102h89z" />
    <glyph glyph-name="glyph231" horiz-adv-x="278" 
 />
    <glyph glyph-name="glyph232" horiz-adv-x="278" 
 />
    <glyph glyph-name="glyph275" horiz-adv-x="249" 
 />
    <glyph glyph-name="glyph276" horiz-adv-x="249" 
 />
    <glyph glyph-name="glyph261" horiz-adv-x="500" 
d="M253 522q9 29 11 64q1 11 8 13q3 0 8 1q67 11 67 54q0 35 -28 35q-5 0 -14 -1t-14 -1q-21 0 -21 18q0 28 32 28q46 0 76 -25.5t26 -70.5q-6 -59 -87 -81q-25 -7 -31 -34h-33z" />
    <glyph glyph-name="glyph262" horiz-adv-x="541" 
d="M276 736l173 -108l-24 -42l-149 76l-155 -76l-21 42zM222 932l39 -54l-161 -100l-27 41z" />
    <glyph glyph-name="glyph263" horiz-adv-x="541" 
d="M276 736l173 -108l-24 -42l-149 76l-155 -76l-21 42zM223 932l148 -113l-26 -41l-162 100z" />
    <glyph glyph-name="glyph264" horiz-adv-x="541" 
d="M276 736l173 -108l-24 -42l-149 76l-155 -76l-21 42zM411 671q9 29 11 64q1 11 8 13q3 0 8 1q67 11 67 54q0 35 -28 35q-5 0 -14 -1t-14 -1q-21 0 -21 18q0 28 32 28q46 0 76 -25.5t26 -70.5q-6 -59 -87 -81q-25 -7 -31 -34h-33z" />
    <glyph glyph-name="glyph265" horiz-adv-x="541" 
d="M276 736l173 -108l-24 -42l-149 76l-155 -76l-21 42zM443 877v0l43 -28q-43 -75 -103 -75q-24 0 -71.5 21.5t-69.5 21.5q-19 0 -31 -12q-5 -6 -19 -29l-45 26q38 74 96 74q24 0 73.5 -21.5t68.5 -21.5q33 0 58 44z" />
    <glyph glyph-name="glyph266" horiz-adv-x="541" 
d="M105 736h53q7 -41 40 -68t75 -27t75 27t40 68h54q-7 -64 -56 -108t-113 -44t-112.5 44t-55.5 108zM301 932l39 -54l-161 -100l-27 41z" />
    <glyph glyph-name="glyph267" horiz-adv-x="541" 
d="M105 736h53q7 -41 40 -68t75 -27t75 27t40 68h54q-7 -64 -56 -108t-113 -44t-112.5 44t-55.5 108zM170 932l148 -113l-26 -41l-162 100z" />
    <glyph glyph-name="glyph268" horiz-adv-x="541" 
d="M105 736h53q7 -41 40 -68t75 -27t75 27t40 68h54q-7 -64 -56 -108t-113 -44t-112.5 44t-55.5 108zM306 671q9 29 11 64q1 11 8 13q3 0 8 1q67 11 67 54q0 35 -28 35q-5 0 -14 -1t-14 -1q-21 0 -21 18q0 28 32 28q46 0 76 -25.5t26 -70.5q-6 -59 -87 -81q-25 -7 -31 -34
h-33z" />
    <glyph glyph-name="glyph269" horiz-adv-x="541" 
d="M105 736h53q7 -41 40 -68t75 -27t75 27t40 68h54q-7 -64 -56 -108t-113 -44t-112.5 44t-55.5 108zM443 877v0l43 -28q-43 -75 -103 -75q-24 0 -71.5 21.5t-69.5 21.5q-19 0 -31 -12q-5 -6 -19 -29l-45 26q38 74 96 74q24 0 73.5 -21.5t68.5 -21.5q33 0 58 44z" />
    <glyph glyph-name="glyph270" horiz-adv-x="249" 
 />
  </font>
</defs>
</svg>
