<?xml version="1.0" standalone="no"?>
<!DOCTYPE svg PUBLIC "-//W3C//DTD SVG 1.1//EN" "http://www.w3.org/Graphics/SVG/1.1/DTD/svg11.dtd" >
<svg xmlns="http://www.w3.org/2000/svg" xmlns:xlink="http://www.w3.org/1999/xlink" version="1.1">
<metadata>
Created by FontForge 20170731 at Tue Sep 20 20:43:01 2005
 By Aleksey,,,
(c) Copyright 2005 by Tong Duc Thinh. All Rights Reserved
</metadata>
<defs>
<font id="SFUEurostileBold" horiz-adv-x="720" >
  <font-face 
    font-family="SFU Eurostile"
    font-weight="700"
    font-stretch="normal"
    units-per-em="1000"
    panose-1="0 0 7 0 0 0 0 0 0 0"
    ascent="800"
    descent="-200"
    x-height="525"
    cap-height="750"
    bbox="-173 -233 1267 1177"
    underline-thickness="75"
    underline-position="-224"
    unicode-range="U+0020-F002"
  />
<missing-glyph horiz-adv-x="500" 
d="M63 0v782h375v-782h-375zM125 63h250v657h-250v-657z" />
    <glyph glyph-name=".notdef" horiz-adv-x="500" 
d="M63 0v782h375v-782h-375zM125 63h250v657h-250v-657z" />
    <glyph glyph-name=".null" horiz-adv-x="0" 
 />
    <glyph glyph-name="nonmarkingreturn" horiz-adv-x="360" 
 />
    <glyph glyph-name="space" unicode=" " horiz-adv-x="360" 
 />
    <glyph glyph-name="exclam" unicode="!" horiz-adv-x="349" 
d="M256 174v-174h-162v174h162zM268 750l-7 -455h-172l-7 455h186z" />
    <glyph glyph-name="quotedbl" unicode="&#x22;" horiz-adv-x="442" 
d="M41 750h138v-130l-42 -129h-54l-42 129v130zM263 750h138v-130l-42 -129h-54l-42 129v130z" />
    <glyph glyph-name="numbersign" unicode="#" 
d="M282 750h106l-39 -210h101l39 210h105l-39 -210h80v-115h-98l-24 -130h94v-115h-118l-33 -180h-106l33 180h-101l-33 -180h-106l33 180h-91v115h113l24 130h-96v115h117zM328 425l-24 -130h102l26 130h-104z" />
    <glyph glyph-name="dollar" unicode="$" 
d="M309 462l97 -9q165 -15 213 -42q78 -43 78 -177q0 -136 -66 -188t-225 -52v-92h-97v92q-151 0 -212 45q-74 55 -74 208h180q0 -65 25 -83q18 -14 81 -14h97q64 0 83 10q28 14 28 67q0 41 -20.5 55t-90.5 19l-97 7q-175 13 -229 59q-47 40 -47 159q0 140 60 187
q55 43 216 43v82h97v-82q141 -8 192 -41q74 -49 74 -189h-175q0 48 -21 62q-17 12 -70 12h-97q-53 0 -71 -11q-25 -16 -25 -63q0 -38 17 -48t79 -16z" />
    <glyph glyph-name="percent" unicode="%" horiz-adv-x="907" 
d="M742 750l-443 -750h-120l443 750h120zM884 240v-110q0 -85 -39 -113q-32 -23 -126 -23q-93 0 -124 22q-36 27 -36 113v110q0 86 36 113q31 23 123 23q95 0 127 -22q39 -28 39 -113zM784 145v83q0 42 -11.5 51t-54.5 9q-40 0 -49.5 -10t-9.5 -50v-83q0 -43 9 -53.5
t50 -10.5t52 8q14 12 14 56zM348 621v-110q0 -85 -39 -113q-32 -23 -126 -23q-93 0 -124 22q-36 27 -36 113v110q0 86 36 113q31 23 123 23q95 0 127 -22q39 -28 39 -113zM248 526v83q0 42 -11.5 51t-54.5 9q-40 0 -49.5 -10t-9.5 -50v-83q0 -43 9 -53.5t50 -10.5t52 8
q14 12 14 56z" />
    <glyph glyph-name="ampersand" unicode="&#x26;" horiz-adv-x="774" 
d="M483 169l-199 172q-32 -3 -41 -32q-5 -16 -5 -57q0 -69 37 -87q23 -12 105 -12q69 0 103 16zM671 0l-69 62q-33 -45 -99 -59q-39 -9 -123 -9q-169 0 -235 37q-91 51 -91 201q0 194 133 196q-35 31 -46 55.5t-11 71.5q0 122 63 165q52 36 187 36q141 0 194 -35
q66 -43 66 -170v-38h-172q1 62 -13.5 78t-74.5 16q-39 0 -52.5 -13t-13.5 -53q0 -38 40 -74l184 -164v99h159v-147q0 -35 -20 -73l83 -75z" />
    <glyph glyph-name="quotesingle" unicode="'" horiz-adv-x="220" 
d="M41 750h138v-130l-42 -129h-54l-42 129v130z" />
    <glyph glyph-name="parenleft" unicode="(" horiz-adv-x="385" 
d="M57 168v264q0 131 10 179q16 75 70 108q61 37 191 37v-164q-52 0 -69 -32q-12 -25 -12 -95v-324q0 -63 11 -87q17 -40 70 -40v-164q-128 0 -184.5 30t-74.5 102q-12 53 -12 186z" />
    <glyph glyph-name="parenright" unicode=")" horiz-adv-x="385" 
d="M328 432v-264q0 -133 -12 -186q-18 -72 -73 -101q-58 -31 -186 -31v164q53 0 71 40q10 24 10 87v324q0 70 -12 95q-17 32 -69 32v164q130 0 191 -37q54 -33 70 -108q10 -48 10 -179z" />
    <glyph glyph-name="asterisk" unicode="*" 
d="M565 564l-125 -39l75 -107l-73 -56l-78 112l-84 -111l-76 55l78 108l-127 46l32 88l126 -45v135h93v-135l130 45z" />
    <glyph glyph-name="plus" unicode="+" horiz-adv-x="600" 
d="M242 334v191h115v-191h193v-115h-193v-199h-115v199h-192v115h192z" />
    <glyph glyph-name="comma" unicode="," horiz-adv-x="360" 
d="M95 168h162v-168q0 -80 -35 -110q-37 -33 -137 -32v75q42 1 57 15t15 52h-62v168z" />
    <glyph glyph-name="hyphen" unicode="-" horiz-adv-x="272" 
d="M0 358h272v-164h-272v164z" />
    <glyph glyph-name="hyphen" unicode="&#x2010;" horiz-adv-x="272" 
d="M0 358h272v-164h-272v164z" />
    <glyph glyph-name="period" unicode="." horiz-adv-x="360" 
d="M252 174v-174h-162v174h162z" />
    <glyph glyph-name="slash" unicode="/" horiz-adv-x="637" 
d="M608 750l-441 -863h-137l441 863h137z" />
    <glyph glyph-name="zero" unicode="0" 
d="M360 756q153 0 215 -37q97 -56 97 -226v-236q0 -170 -97 -226q-62 -37 -215 -37t-215 37q-97 56 -97 226v236q0 170 97 226q62 37 215 37zM360 591q-79 0 -98 -17q-24 -22 -24 -113v-172q0 -91 24 -113q19 -17 98 -17t98 17q24 22 24 113v172q0 91 -24 113q-19 17 -98 17
z" />
    <glyph glyph-name="one" unicode="1" 
d="M558 750v-750h-200v573l-194 -177l-113 128l273 226h234z" />
    <glyph glyph-name="two" unicode="2" 
d="M654 156v-156h-592v156q0 129 46 172.5t218 83.5q100 23 118.5 36t18.5 69q0 57 -28 73q-18 10 -77 10q-70 0 -88 -14t-18 -73v-37h-190v37q0 144 76 198q64 45 220 45q152 0 214 -39q81 -51 81 -197q0 -121 -44 -168q-38 -41 -162 -75l-154 -38q-41 -17 -41 -83h402z
" />
    <glyph glyph-name="three" unicode="3" 
d="M311 311v145h48q60 0 73 4q32 11 32 57q0 51 -14 65q-19 18 -91 18q-63 0 -80 -11q-26 -16 -26 -76v-15h-190v26q0 148 81 196q59 36 224 36q127 0 188 -29q98 -46 98 -173q0 -154 -115 -169v-8q124 -5 124 -161q0 -134 -84 -184q-65 -38 -211 -38q-158 0 -222 34
q-91 50 -91 195v40h190v-25q0 -58 31 -75q21 -13 83 -13q68 0 88 13q26 17 26 78q0 41 -18 54q-22 16 -96 16h-48z" />
    <glyph glyph-name="four" unicode="4" 
d="M618 750v-457h64v-145h-64v-148h-190v148h-392v214l287 388h295zM428 293v303h-7l-228 -303h235z" />
    <glyph glyph-name="five" unicode="5" 
d="M65 218h190q3 -43 29 -58q18 -10 67 -10q71 0 90 13q24 18 24 86q0 77 -15 95q-19 22 -99 22q-53 0 -68 -4q-20 -7 -28 -32h-172v420h542v-145h-370v-144q36 38 66 47q24 8 99 8q133 0 186 -58q49 -54 49 -188q0 -171 -71 -228q-60 -48 -233 -48q-149 0 -210 42
q-72 50 -76 182z" />
    <glyph glyph-name="six" unicode="6" 
d="M343 299q-58 0 -77 -11.5t-19 -54.5q0 -53 17 -68t79 -15q82 0 101.5 13.5t19.5 73.5q0 44 -27 55q-19 7 -94 7zM660 521h-190q0 53 -24 68q-19 11 -80 11q-74 0 -93 -14q-25 -19 -25 -90v-119h2q18 52 53 68q24 10 83 10q147 0 200 -34q68 -45 68 -181q0 -148 -72 -201
q-61 -45 -216 -45q-187 0 -246 57q-62 59 -62 246v188q0 166 73 223q62 48 235 48q147 0 205 -28q89 -44 89 -175v-32z" />
    <glyph glyph-name="seven" unicode="7" 
d="M624 750v-168l-249 -582h-210l254 582h-361v168h566z" />
    <glyph glyph-name="eight" unicode="8" 
d="M358 309q-64 0 -81 -8q-32 -15 -32 -72q0 -48 23.5 -63.5t89.5 -15.5q80 0 101 16q16 14 16 66t-19 64.5t-98 12.5zM360 -6q-147 0 -212 33q-93 48 -93 180q0 70 32 117q37 53 104 56v7q-67 17 -95 59q-27 39 -27 112q0 123 90 168q62 30 201 30q147 0 207 -31
q87 -45 87 -176q0 -76 -23 -108t-91 -54v-7q125 -17 125 -173q0 -135 -89 -181q-63 -32 -216 -32zM360 454q66 0 85 13.5t19 64.5q0 42 -16 54q-19 14 -88 14q-58 0 -74 -8q-27 -14 -27 -67q0 -46 23 -59q19 -12 78 -12z" />
    <glyph glyph-name="nine" unicode="9" 
d="M374 451q58 0 77 11.5t19 54.5q0 53 -17 68t-79 15q-82 0 -101.5 -13.5t-19.5 -73.5q0 -44 28 -55q18 -7 93 -7zM57 229h190q0 -53 24 -68q19 -11 80 -11q74 0 93 15q25 18 25 89v119h-2q-18 -52 -53 -68q-24 -10 -83 -10q-147 0 -200 34q-68 45 -68 181q0 148 72 201
q61 45 216 45q187 0 247.5 -58t60.5 -245v-188q0 -166 -73 -222q-62 -49 -235 -49q-147 0 -205 28q-89 44 -89 175v32z" />
    <glyph glyph-name="colon" unicode=":" horiz-adv-x="360" 
d="M252 174v-174h-162v174h162zM252 525v-174h-162v174h162z" />
    <glyph glyph-name="semicolon" unicode=";" horiz-adv-x="360" 
d="M85 -142v75q42 1 57 15t15 52h-62v168h162v-168q0 -80 -35 -110q-37 -33 -137 -32zM257 525v-174h-162v174h162z" />
    <glyph glyph-name="less" unicode="&#x3c;" horiz-adv-x="600" 
d="M550 525v-128l-338 -119v-2l338 -119v-128l-500 188v120z" />
    <glyph glyph-name="equal" unicode="=" horiz-adv-x="600" 
d="M50 449h500v-115h-500v115zM50 219h500v-115h-500v115z" />
    <glyph glyph-name="greater" unicode="&#x3e;" horiz-adv-x="600" 
d="M50 525l500 -188v-120l-500 -188v128l338 119v2l-338 119v128z" />
    <glyph glyph-name="question" unicode="?" horiz-adv-x="605" 
d="M361 265h-172v30q0 73 16 101q19 33 86 65l36 17q32 15 44 28q17 20 17 57q0 39 -23 52q-16 9 -57 9q-46 0 -64 -9q-26 -14 -26 -52v-31h-172v31q0 119 71 161q55 32 191 32q130 0 183 -33q69 -42 69 -160q0 -92 -33 -134q-26 -34 -112 -72q-31 -14 -42.5 -27t-11.5 -35
v-30zM356 174v-174h-162v174h162z" />
    <glyph glyph-name="at" unicode="@" horiz-adv-x="760" 
d="M291 351q0 -37 20.5 -62.5t55.5 -25.5q45 0 73.5 33t28.5 78q0 37 -22 61t-58 24q-41 0 -69.5 -33.5t-28.5 -74.5zM498 506l10 51h95l-49 -292q-3 -21 -3 -23q1 -13 15 -13q35 0 65 51q32 55 32 132q0 119 -77 188q-73 66 -191 66q-124 0 -201.5 -83.5t-77.5 -209.5
q0 -131 83 -210t213 -79q105 0 191 67h99q-114 -157 -298 -157q-163 0 -275.5 108t-112.5 271q0 161 111 272t271 111q132 0 237 -88q110 -93 110 -223q0 -115 -74.5 -203t-175.5 -88q-61 0 -58 49l-2 2q-40 -47 -96 -47q-67 0 -117.5 52t-50.5 125q0 92 56 159
q58 71 148 71q80 0 123 -59z" />
    <glyph glyph-name="A" unicode="A" horiz-adv-x="733" 
d="M502 129h-269l-37 -129h-208l225 750h304l228 -750h-204zM462 275l-93 325h-2l-91 -325h186z" />
    <glyph glyph-name="B" unicode="B" horiz-adv-x="738" 
d="M60 0v750h394q123 0 174 -34q63 -43 63 -158q0 -79 -22 -116q-26 -46 -96 -57v-8q77 -5 107 -51q23 -37 23 -117q0 -129 -63 -173q-50 -36 -182 -36h-398zM260 586v-136h144q53 0 70 13.5t17 58.5q0 36 -10 49q-13 15 -53 15h-168zM260 311v-147h151q51 0 71.5 16
t20.5 60q0 47 -23 61q-17 10 -65 10h-155z" />
    <glyph glyph-name="C" unicode="C" horiz-adv-x="728" 
d="M489 284h206v-22q0 -79 -9 -116q-14 -59 -59.5 -96.5t-112.5 -49.5q-38 -6 -126 -6q-186 0 -253 39q-100 59 -100 245v194q0 173 94 235q74 49 259 49q172 0 230 -39q76 -49 76 -207v-29h-206v29q-5 46 -38 61q-24 11 -84 11q-82 0 -105 -31q-20 -26 -20 -111v-117
q0 -93 18 -119q23 -36 107 -36q70 0 93 14q30 19 30 80v22z" />
    <glyph glyph-name="D" unicode="D" horiz-adv-x="775" 
d="M52 0v750h380q159 0 230.5 -66.5t71.5 -224.5v-157q0 -159 -59 -228q-63 -74 -216 -74h-407zM252 576v-402h175q101 0 101 128v157q0 70 -24 95q-22 22 -77 22h-175z" />
    <glyph glyph-name="E" unicode="E" horiz-adv-x="678" 
d="M264 586v-137h320v-139h-320v-146h348v-164h-548v750h541v-164h-341z" />
    <glyph glyph-name="F" unicode="F" horiz-adv-x="616" 
d="M255 586v-147h306v-164h-306v-275h-200v750h532v-164h-332z" />
    <glyph glyph-name="G" unicode="G" horiz-adv-x="758" 
d="M720 517h-203q-3 50 -43 66q-24 9 -86 9q-101 0 -129 -37q-21 -28 -21 -128v-122q0 -94 36 -123q29 -24 114 -24q77 0 103 25t26 102h-138v139h341v-131q0 -187 -64 -243t-268 -56q-192 0 -266 50q-90 61 -90 233v194q0 173 96 236q75 49 260 49q180 0 239 -30
q93 -48 93 -209z" />
    <glyph glyph-name="H" unicode="H" horiz-adv-x="788" 
d="M725 750v-750h-200v294h-261v-294h-200v750h200v-282h261v282h200z" />
    <glyph glyph-name="I" unicode="I" horiz-adv-x="324" 
d="M262 750v-750h-200v750h200z" />
    <glyph glyph-name="J" unicode="J" horiz-adv-x="602" 
d="M343 750h200v-519q0 -147 -56 -194q-52 -43 -214 -43q-155 0 -203 50t-48 208v62h190v-62q0 -45 7 -60q12 -24 54 -24q43 0 56.5 12t13.5 51v519z" />
    <glyph glyph-name="K" unicode="K" horiz-adv-x="752" 
d="M264 750v-282h60l193 282h242l-264 -368l286 -382h-248l-209 294h-60v-294h-200v750h200z" />
    <glyph glyph-name="L" unicode="L" horiz-adv-x="585" 
d="M258 750v-576h313v-174h-513v750h200z" />
    <glyph glyph-name="M" unicode="M" horiz-adv-x="1049" 
d="M241 575l20 -575h-200v750h317l143 -471h7l136 471h325v-750h-200l20 575h-7l-190 -575h-173l-192 575h-6z" />
    <glyph glyph-name="N" unicode="N" horiz-adv-x="871" 
d="M249 576l12 -576h-200v750h338l215 -576h8l-12 576h200v-750h-341l-212 576h-8z" />
    <glyph glyph-name="O" unicode="O" horiz-adv-x="760" 
d="M380 -6q-171 0 -250 51q-97 63 -97 224v212q0 161 97 224q79 51 250 51t250 -51q97 -63 97 -224v-212q0 -161 -97 -224q-79 -51 -250 -51zM380 168q84 0 110 20q31 23 31 103v169q0 79 -31 103q-26 19 -110 19t-109 -19q-32 -24 -32 -103v-169q0 -80 32 -104
q25 -19 109 -19z" />
    <glyph glyph-name="P" unicode="P" horiz-adv-x="711" 
d="M258 0h-200v750h377q139 0 197.5 -63.5t58.5 -211.5q0 -162 -50 -221q-53 -62 -206 -62h-177v-192zM258 366h137q60 0 75 18.5t15 90.5q0 60 -16.5 80.5t-73.5 20.5h-137v-210z" />
    <glyph glyph-name="Q" unicode="Q" horiz-adv-x="796" 
d="M433 378l107 -76v122q0 101 -25 129.5t-118 28.5q-92 0 -116.5 -28.5t-24.5 -129.5v-135q0 -80 34 -104q25 -17 108 -17q60 0 89 11l-133 87zM731 -1l-74 59q-73 -64 -259 -64t-261 57q-87 66 -87 245v158q0 176 89 243q76 59 259 59t260 -59q88 -67 88 -243v-188
q0 -58 -15 -100l82 -56z" />
    <glyph glyph-name="R" unicode="R" horiz-adv-x="742" 
d="M257 373h155q59 0 74 27q9 17 9 90q0 51 -17 68.5t-66 17.5h-155v-203zM57 0v750h386q138 0 194 -43q64 -50 64 -184q0 -112 -18 -150q-27 -58 -124 -81v-8q63 -2 99 -36.5t36 -96.5v-151h-200v105q0 94 -82 94h-155v-199h-200z" />
    <glyph glyph-name="S" unicode="S" horiz-adv-x="716" 
d="M320 462l83 -6q171 -12 222 -50q55 -40 55 -166q0 -84 -11 -119q-19 -61 -83 -91q-77 -36 -231 -36q-173 0 -231 33q-87 50 -87 217h192q0 -56 26 -72q23 -14 100 -14q75 0 98 11q27 13 27 58q0 47 -15.5 56t-89.5 14l-44 3q-120 8 -158 17q-70 15 -100 58
q-35 50 -35 152q0 148 85 195q61 34 232 34q156 0 214 -27q90 -44 90 -183v-31h-192q0 53 -26 67q-18 10 -86 10q-75 0 -99 -16q-18 -13 -18 -48q0 -41 21 -54q14 -9 61 -12z" />
    <glyph glyph-name="T" unicode="T" horiz-adv-x="595" 
d="M393 576v-576h-200v576h-192v174h594v-174h-202z" />
    <glyph glyph-name="U" unicode="U" horiz-adv-x="771" 
d="M509 750h200v-500q0 -146 -74 -203q-70 -53 -240 -53q-147 0 -217.5 25.5t-95.5 84.5q-19 46 -19 146v500h200v-496q0 -58 35 -75q23 -11 97 -11q69 0 89 15q25 17 25 80v487z" />
    <glyph glyph-name="V" unicode="V" horiz-adv-x="711" 
d="M355 172l165 578h207l-219 -750h-312l-212 750h203l162 -578h6z" />
    <glyph glyph-name="W" unicode="W" horiz-adv-x="1104" 
d="M799 172l113 578h201l-166 -750h-289l-102 470h-8l-109 -470h-286l-162 750h203l108 -578h7l141 578h208l134 -578h7z" />
    <glyph glyph-name="X" unicode="X" horiz-adv-x="732" 
d="M733 750l-207 -364l223 -386h-233l-149 289l-148 -289h-235l225 386l-211 364h234l135 -275l136 275h230z" />
    <glyph glyph-name="Y" unicode="Y" horiz-adv-x="708" 
d="M724 750l-274 -487v-263h-200v263l-266 487h229l134 -289h7l138 289h232z" />
    <glyph glyph-name="Z" unicode="Z" horiz-adv-x="659" 
d="M636 750v-168l-359 -408h359v-174h-613v169l354 407h-331v174h590z" />
    <glyph glyph-name="bracketleft" unicode="[" horiz-adv-x="385" 
d="M57 756h271v-164h-81v-578h81v-164h-271v906z" />
    <glyph glyph-name="backslash" unicode="\" horiz-adv-x="640" 
d="M74 750h140l352 -750h-140z" />
    <glyph glyph-name="bracketright" unicode="]" horiz-adv-x="385" 
d="M328 -150h-271v164h81v578h-81v164h271v-906z" />
    <glyph glyph-name="asciicircum" unicode="^" horiz-adv-x="600" 
d="M180 250h-130l190 500h120l190 -500h-130l-119 338h-2z" />
    <glyph glyph-name="underscore" unicode="_" horiz-adv-x="500" 
d="M500 -75v-75h-500v75h500z" />
    <glyph glyph-name="grave" unicode="`" horiz-adv-x="404" 
d="M125 756l204 -120l-28 -62l-226 71z" />
    <glyph glyph-name="a" unicode="a" horiz-adv-x="609" 
d="M288 217q-75 0 -75 -55q0 -57 75 -57q50 0 66 7q28 13 28 57q0 30 -26 41q-19 7 -68 7zM382 0l6 78h-6q-15 -84 -151 -84q-98 0 -140 31q-50 37 -50 132q0 91 49 130q44 35 141 35q56 0 83 -7q48 -13 60 -52h8v83q0 43 -11 58q-16 22 -67 22q-70 0 -70 -57h-172
q0 109 75 142q44 20 167 20q143 0 191 -34q59 -41 59 -169v-328h-172z" />
    <glyph glyph-name="b" unicode="b" horiz-adv-x="613" 
d="M55 750h172v-300h8q33 81 146 81q108 0 153.5 -52t45.5 -172v-120q0 -193 -199 -193q-62 0 -96 19q-40 22 -54 78h-8l4 -91h-172v750zM322 126q54 0 70 26.5t16 110.5q0 75 -13 101q-17 35 -73 35t-74 -23q-21 -27 -21 -113q0 -84 13 -107q18 -30 82 -30z" />
    <glyph glyph-name="c" unicode="c" horiz-adv-x="557" 
d="M364 210h172q0 -110 -32 -154q-36 -51 -137 -59q-33 -3 -85 -3q-150 0 -200.5 55.5t-50.5 212.5q0 145 45 201q54 68 206 68q132 0 184 -31q70 -44 70 -172h-172q2 45 -18 59q-16 12 -64 12t-62 -23q-17 -27 -17 -114q0 -90 14.5 -113t64.5 -23q56 0 70 18q12 14 12 66z
" />
    <glyph glyph-name="d" unicode="d" horiz-adv-x="612" 
d="M558 750v-750h-172l4 91h-8q-14 -56 -54 -78q-34 -19 -96 -19q-199 0 -199 193v120q0 120 45.5 172t153.5 52q113 0 146 -81h8v300h172zM205 262q0 -92 17 -116q14 -20 71 -20q56 0 73 23q20 27 20 113q0 84 -12 107q-17 30 -81 30q-61 0 -76 -29q-12 -23 -12 -108z" />
    <glyph glyph-name="e" unicode="e" horiz-adv-x="574" 
d="M202 328h169q0 54 -22 71q-16 12 -65 12q-47 0 -64 -16t-18 -67zM374 175h169q0 -85 -39.5 -125.5t-122.5 -50.5q-37 -5 -94 -5q-151 0 -206 61q-51 56 -51 207q0 155 49 210q53 59 208 59q149 0 202.5 -55t53.5 -214v-29h-341q0 -71 16.5 -95t68.5 -24q46 0 63 10
q24 13 24 51z" />
    <glyph glyph-name="f" unicode="f" horiz-adv-x="393" 
d="M378 525v-126h-117v-399h-172v399h-69v126h69v51q0 105 56 140t226 34v-131q-17 5 -32 5q-55 0 -66.5 -14t-11.5 -66v-19h117z" />
    <glyph glyph-name="g" unicode="g" horiz-adv-x="615" 
d="M295 132q59 0 77 31q14 25 14 99q0 87 -17.5 112t-73.5 25q-59 0 -73.5 -22.5t-14.5 -114.5q0 -81 16.5 -105.5t71.5 -24.5zM56 -47h163q0 -38 21 -51q16 -10 56 -10q56 0 73 15.5t17 69.5v109h-6q-29 -86 -143 -86q-127 0 -171 75q-31 54 -31 187q0 144 33 198
q43 71 169 71q61 0 94 -19q40 -23 55 -80h6l-6 93h172v-502q0 -148 -53 -202t-203 -54q-146 0 -190 31q-52 35 -56 155z" />
    <glyph glyph-name="h" unicode="h" horiz-adv-x="619" 
d="M229 750v-323h7q18 59 58 83q34 21 99 21q169 0 169 -168v-363h-172v323q0 40 -14 57q-17 19 -57 19q-53 0 -74 -31q-16 -24 -16 -79v-289h-172v750h172z" />
    <glyph glyph-name="i" unicode="i" horiz-adv-x="257" 
d="M215 525v-525h-172v525h172zM215 750v-132h-172v132h172z" />
    <glyph glyph-name="j" unicode="j" horiz-adv-x="242" 
d="M202 525v-532q0 -85 -43 -122q-39 -34 -127 -34q-31 0 -51 6v118q49 0 49 50v514h172zM202 750v-132h-172v132h172z" />
    <glyph glyph-name="k" unicode="k" horiz-adv-x="592" 
d="M227 750v-422h30l104 197h189l-148 -252l182 -273h-201l-126 213h-30v-213h-172v750h172z" />
    <glyph glyph-name="l" unicode="l" horiz-adv-x="289" 
d="M231 750v-750h-172v750h172z" />
    <glyph glyph-name="m" unicode="m" horiz-adv-x="929" 
d="M58 525h167v-74h7q27 80 144 80q149 0 159 -103h8q6 52 52 80q38 23 94 23q183 0 183 -172v-359h-172v304q0 50 -9 68q-15 27 -60 27q-80 0 -80 -101v-298h-172v318q0 42 -10 59q-14 22 -55 22q-50 0 -69 -27q-15 -22 -15 -74v-298h-172v525z" />
    <glyph glyph-name="n" unicode="n" horiz-adv-x="619" 
d="M57 525h172v-98h7q18 59 58 83q34 21 99 21q169 0 169 -168v-363h-172v323q0 40 -14 57q-17 19 -57 19q-53 0 -74 -31q-16 -24 -16 -79v-289h-172v525z" />
    <glyph glyph-name="o" unicode="o" horiz-adv-x="593" 
d="M296 531q164 0 213.5 -51t49.5 -218q0 -163 -50.5 -215.5t-212.5 -52.5q-159 0 -210.5 54t-51.5 214q0 163 50 216t212 53zM299 399q-68 0 -85 -39q-8 -19 -8 -98q0 -78 8 -97q17 -39 85 -39q59 0 73.5 24t14.5 112t-14.5 112.5t-73.5 24.5z" />
    <glyph glyph-name="p" unicode="p" horiz-adv-x="618" 
d="M55 -227v752h172l-4 -83h8q25 89 150 89q199 0 199 -193v-120q0 -120 -45.5 -172t-153.5 -52q-113 0 -146 85h-8v-306h-172zM313 399q-54 0 -70 -26.5t-16 -110.5q0 -75 13 -101q18 -35 73 -35q56 0 74 23q21 27 21 113q0 84 -13 107q-18 30 -82 30z" />
    <glyph glyph-name="q" unicode="q" horiz-adv-x="619" 
d="M562 -227h-172v306h-8q-33 -85 -146 -85q-108 0 -153.5 52t-45.5 172v120q0 193 199 193q125 0 150 -89h8l-4 83h172v-752zM295 399q-54 0 -70 -26.5t-16 -110.5q0 -75 13 -101q18 -35 73 -35q56 0 74 23q21 27 21 113q0 84 -13 107q-18 30 -82 30z" />
    <glyph glyph-name="r" unicode="r" horiz-adv-x="501" 
d="M335 296v25q0 39 -5 53q-9 25 -40 25q-64 0 -64 -84v-315h-172v525h167v-77h7q32 83 132 83q81 0 110 -61q20 -42 20 -133v-41h-155z" />
    <glyph glyph-name="s" unicode="s" horiz-adv-x="578" 
d="M521 376h-162q-6 44 -70 44q-63 0 -79 -9q-11 -7 -11 -33q0 -24 12 -32q18 -13 78 -14q149 -3 195 -27q62 -31 62 -134q0 -105 -77 -146q-58 -31 -180 -31q-134 0 -179 20q-78 34 -78 150h172q0 -39 27 -52q16 -7 58 -7q59 0 74.5 8t15.5 38q0 36 -22 46q-15 6 -68 6
q-156 0 -210 38q-47 32 -47 118q0 114 74 149q47 23 183 23q105 0 152 -17q80 -28 80 -113v-25z" />
    <glyph glyph-name="t" unicode="t" horiz-adv-x="485" 
d="M449 525v-126h-199v-235q0 -24 7.5 -34t31.5 -10q30 0 39 20q5 11 6 48l1 28h137v-47q0 -104 -44 -141q-40 -34 -149 -34q-99 0 -142 24q-59 32 -59 122v259h-64v126h64v111h172v-111h199z" />
    <glyph glyph-name="u" unicode="u" horiz-adv-x="615" 
d="M555 0h-167l6 101h-8q-32 -107 -157 -107q-178 0 -178 172v359h172v-313q0 -43 10 -61q13 -25 53 -25q38 0 67.5 20t29.5 56v323h172v-525z" />
    <glyph glyph-name="v" unicode="v" horiz-adv-x="530" 
d="M537 525l-129 -525h-270l-145 525h180l95 -410h5l86 410h178z" />
    <glyph glyph-name="w" unicode="w" horiz-adv-x="838" 
d="M837 525l-92 -525h-247l-74 374h-6l-72 -374h-250l-95 525h165l58 -410h8l87 410h201l87 -410h7l61 410h162z" />
    <glyph glyph-name="x" unicode="x" horiz-adv-x="545" 
d="M537 525l-138 -247l152 -278h-202l-75 173l-73 -173h-207l156 278l-135 247h199l60 -145l63 145h200z" />
    <glyph glyph-name="y" unicode="y" horiz-adv-x="533" 
d="M540 525l-132 -571q-24 -106 -70 -145q-49 -42 -156 -42q1 0 -59 3v119q20 -2 30 -2q84 0 90 113h-94l-156 525h180l104 -427h2l85 427h176z" />
    <glyph glyph-name="z" unicode="z" horiz-adv-x="496" 
d="M40 525h435v-136l-254 -269h254v-120h-454v142l248 263h-229v120z" />
    <glyph glyph-name="braceleft" unicode="{" horiz-adv-x="385" 
d="M24 242v132q82 0 82 44v205q0 62 43 101q35 32 70 32h142v-132h-37q-31 0 -40 -16q-6 -10 -6 -35v-171q0 -85 -96 -94v-2q96 -9 96 -102v-171q0 -25 6 -35q9 -16 40 -16h37v-132h-142q-35 0 -70 32q-43 39 -43 101v205q0 54 -82 54z" />
    <glyph glyph-name="bar" unicode="|" horiz-adv-x="600" 
d="M358 750v-750h-115v750h115z" />
    <glyph glyph-name="braceright" unicode="}" horiz-adv-x="385" 
d="M361 374v-132q-82 0 -82 -54v-205q0 -62 -43 -101q-35 -32 -70 -32h-142v132h37q31 0 40 16q6 10 6 35v171q0 93 96 102v2q-96 9 -96 94v171q0 25 -6 35q-9 16 -40 16h-37v132h142q35 0 70 -32q43 -39 43 -101v-205q0 -44 82 -44z" />
    <glyph glyph-name="asciitilde" unicode="~" horiz-adv-x="600" 
d="M453 359v0h97q0 -81 -26 -135q-33 -70 -102 -70q-29 0 -74 29l-123 80q-29 19 -50 19q-17 0 -23 -32l-5 -55h-97q0 83 26 137q33 70 106 70q34 0 67 -23l111 -78q37 -26 59 -26q18 0 28 30q8 26 6 54z" />
    <glyph glyph-name="euro" horiz-adv-x="498" 
d="M522 633l-23 -156l-48 6q0 157 -94 157q-103 0 -161 -211h172l-21 -48h-164q-6 -24 -16 -73h147l-21 -47h-134q-6 -41 -6 -74q0 -56 21 -91q26 -43 78 -43q58 0 101 68q24 38 51 119l55 -10l-54 -188q-77 -53 -159 -53q-111 0 -166 84q-47 71 -47 188h-74l21 47h56
q3 25 12 73h-66l21 48h59q41 112 108 183q83 88 187 88q94 0 165 -67z" />
    <glyph glyph-name="exclamdown" unicode="&#xa1;" horiz-adv-x="349" 
d="M256 525v-174h-162v174h162zM82 -227l7 455h172l7 -455h-186z" />
    <glyph glyph-name="cent" unicode="&#xa2;" 
d="M395 -11h-76v90q-130 0 -176 70q-38 58 -38 209q0 141 37 195q45 68 177 68v75h76v-75q113 0 159.5 -46t45.5 -158h-160q-2 37 -18 53q-19 19 -65 19q-57 0 -71 -41q-6 -18 -6 -90q0 -102 11.5 -124.5t65.5 -22.5q49 0 66.5 19.5t16.5 69.5h160q0 -126 -35 -169
q-41 -52 -170 -52v-90z" />
    <glyph glyph-name="sterling" unicode="&#xa3;" 
d="M702 501h-196q0 51 -15.5 69.5t-65.5 18.5q-53 0 -71 -18t-18 -71v-79h190v-145h-190q0 -52 -7 -72q-9 -24 -40 -39v-5h413v-160h-632v160q46 0 59 35q7 19 7 81h-89v145h89v108q0 125 58 174q63 53 232 53q166 0 223 -47q53 -44 53 -173v-35z" />
    <glyph glyph-name="currency" unicode="&#xa4;" 
d="M538 252l81 -81l-72 -68l-81 81q-21 -11 -43 -22q-29 -12 -66 -11q-62 2 -104 35l-84 -84l-71 70l82 83q-38 46 -38 111q0 70 36 105l-83 81l73 72l82 -82q46 35 113 32q71 -3 107 -30l83 82l72 -71l-84 -83q10 -19 21 -38q13 -28 14 -60q1 -39 -14 -75q-1 -3 -24 -47z
M264 358q3 -39 30.5 -65.5t64.5 -26.5q47 0 75 34q22 27 20 58q3 38 -24.5 69.5t-70.5 31.5q-42 0 -70 -31.5t-25 -69.5z" />
    <glyph glyph-name="yen" unicode="&#xa5;" 
d="M607 558h94v-132h-166l-42 -78h208v-132h-245v-216h-200v216h-237v132h201l-41 78h-160v132h91l-101 192h217l127 -289h7l131 289h220z" />
    <glyph glyph-name="brokenbar" unicode="&#xa6;" horiz-adv-x="600" 
d="M358 300v-300h-115v300h115zM358 750v-300h-115v300h115z" />
    <glyph glyph-name="section" unicode="&#xa7;" 
d="M270 215l157 -29q32 -6 44 -6q51 0 51 76q0 36 -16 50t-80 26l-121 23q-47 9 -56 9q-53 0 -53 -73q0 -46 19 -61q10 -7 55 -15zM660 559v-42h-185q-2 63 -34 77q-15 6 -87 6q-68 0 -90 -12q-18 -10 -18 -37q0 -34 19 -45q9 -4 62 -14l188 -34q105 -19 136 -46
q41 -36 41 -136q0 -64 -7 -89q-12 -44 -53 -65q39 -13 52 -52q10 -28 10 -86q0 -121 -57 -164q-70 -53 -283 -53q-180 0 -237 41q-70 49 -70 211h185q2 -62 26 -80q21 -16 96 -16q88 0 116 13q24 12 24 47q0 36 -22 50q-14 9 -66 18l-238 41q-90 15 -116 47t-26 123
q0 60 10 89q15 47 61 60q-34 23 -45 67q-6 26 -6 82q0 99 51 141q67 55 257 55q158 0 218 -28q88 -42 88 -169z" />
    <glyph glyph-name="dieresis" unicode="&#xa8;" horiz-adv-x="469" 
d="M184 712v-103h-109v103h109zM394 712v-103h-109v103h109z" />
    <glyph glyph-name="copyright" unicode="&#xa9;" horiz-adv-x="800" 
d="M400 -6q-158 0 -269.5 111.5t-111.5 269.5t111.5 269.5t269.5 111.5t269.5 -111.5t111.5 -269.5t-111.5 -269.5t-269.5 -111.5zM400 81q121 0 207.5 86t86.5 208t-86.5 208t-207.5 86q-123 0 -208.5 -86t-85.5 -208t85.5 -208t208.5 -86zM513 303h89q-8 -71 -60.5 -113
t-125.5 -42q-99 0 -160 67q-60 64 -60 163q0 102 59 166.5t159 64.5q74 0 125 -40.5t63 -110.5h-89q-7 36 -34.5 57.5t-65.5 21.5q-61 0 -95.5 -46.5t-34.5 -110.5q0 -61 35 -108q39 -52 98 -52q37 0 66 23.5t31 59.5z" />
    <glyph glyph-name="ordfeminine" unicode="&#xaa;" horiz-adv-x="480" 
d="M53 377h374v-77h-374v77zM282 596v45q0 32 -6.5 41.5t-38.5 9.5q-42 0 -42 -34h-104q0 65 45 86q27 12 99 12q78 0 108 -16q43 -22 43 -88v-220h-104v52h-2q-8 -56 -90 -56q-112 0 -112 102q0 56 28 79q25 21 84 21q37 0 52 -3q28 -7 37 -31h3zM226 567q-44 0 -44 -36
q0 -18 9.5 -25t46.5 -7q29 0 38 9q6 7 6 27q0 32 -56 32z" />
    <glyph glyph-name="guillemotleft" unicode="&#xab;" horiz-adv-x="556" 
d="M174 515l113 -61l-96 -182l96 -169l-107 -66l-134 235zM397 515l113 -61l-96 -182l96 -169l-107 -66l-134 235z" />
    <glyph glyph-name="logicalnot" unicode="&#xac;" horiz-adv-x="600" 
d="M435 157v177h-385v115h500v-292h-115z" />
    <glyph glyph-name="sfthyphen" unicode="&#xad;" horiz-adv-x="338" 
d="M8 174l33 122h246l-33 -122h-246z" />
    <glyph glyph-name="registered" unicode="&#xae;" horiz-adv-x="800" 
d="M400 -6q-158 0 -269.5 111.5t-111.5 269.5t111.5 269.5t269.5 111.5t269.5 -111.5t111.5 -269.5t-111.5 -269.5t-269.5 -111.5zM400 81q121 0 207.5 86t86.5 208t-86.5 208t-207.5 86q-123 0 -208.5 -86t-85.5 -208t85.5 -208t208.5 -86zM490 340l100 -174h-98l-92 169
h-77v-169h-87v412h206q81 0 116 -22q44 -28 44 -104q0 -104 -112 -112zM323 401h121q37 0 52 11q19 14 19 51q0 32 -31 43q-18 6 -61 6h-100v-111z" />
    <glyph glyph-name="macron" unicode="&#xaf;" horiz-adv-x="464" 
d="M75 706h314v-94h-314v94z" />
    <glyph glyph-name="macron" unicode="&#x2c9;" horiz-adv-x="464" 
d="M75 706h314v-94h-314v94z" />
    <glyph glyph-name="degree" unicode="&#xb0;" horiz-adv-x="400" 
d="M350 606q0 -62 -44 -106t-106 -44t-106 44t-44 106t44 106t106 44t106 -44t44 -106zM281 606q0 33 -24 57t-58 24q-33 0 -56.5 -24t-23.5 -57q0 -34 23.5 -57.5t57.5 -23.5q33 0 57 23.5t24 57.5z" />
    <glyph glyph-name="plusminus" unicode="&#xb1;" horiz-adv-x="600" 
d="M242 525h115v-118h193v-115h-193v-123h-115v123h-192v115h192v118zM50 0v115h500v-115h-500z" />
    <glyph glyph-name="twosuperior" unicode="&#xb2;" horiz-adv-x="432" 
d="M405 396v-94h-385v94q0 77 31 103q28 25 141 50q62 13 63 14q25 12 25 49q0 35 -19 44q-11 6 -49 6q-44 0 -54 -7q-14 -8 -14 -45v-22h-124v22q0 86 50 119q41 27 142 27q99 0 139 -23q53 -31 53 -119q0 -73 -29 -101q-24 -25 -105 -45q-50 -11 -100 -23q-26 -10 -26 -49
h261z" />
    <glyph glyph-name="threesuperior" unicode="&#xb3;" horiz-adv-x="432" 
d="M195 489v87h31q39 0 47 2q21 7 21 35q0 30 -9 38q-13 11 -59 11q-40 0 -52 -7q-16 -10 -16 -45v-9h-124v16q0 88 51 118q37 21 135 21q91 0 133 -17q65 -27 65 -104q0 -92 -75 -101v-5q81 -4 81 -97q0 -81 -56 -110q-44 -24 -148 -24q-94 0 -133 21q-58 30 -58 117v24
h124v-15q0 -34 20 -45q14 -8 53 -8q44 0 57 8q17 10 17 47q0 25 -11 33q-15 9 -63 9h-31z" />
    <glyph glyph-name="acute" unicode="&#xb4;" horiz-adv-x="404" 
d="M279 756l50 -111l-226 -71l-28 62z" />
    <glyph glyph-name="mu" unicode="&#xb5;" horiz-adv-x="615" 
d="M558 0h-167l6 101h-8q-32 -107 -163 -107v-221h-172v752h172v-313q0 -43 10 -61q13 -25 53 -25q38 0 67.5 20t29.5 56v323h172v-525z" />
    <glyph glyph-name="mu" unicode="&#x3bc;" horiz-adv-x="615" 
d="M558 0h-167l6 101h-8q-32 -107 -163 -107v-221h-172v752h172v-313q0 -43 10 -61q13 -25 53 -25q38 0 67.5 20t29.5 56v323h172v-525z" />
    <glyph glyph-name="paragraph" unicode="&#xb6;" 
d="M713 -227h-120v832h-77v-832h-120v422h-130q-163 0 -215 57q-51 54 -51 221q0 149 58.5 213t197.5 64h457v-977zM396 340v265h-100q-76 0 -96 -28q-15 -21 -15 -104q0 -86 16 -107q19 -26 96 -26h99z" />
    <glyph glyph-name="ch270" unicode="&#xb7;" horiz-adv-x="249" 
d="M38 348q0 34 23 57t57 23t57.5 -23t23.5 -57t-23.5 -57.5t-57.5 -23.5t-57 23.5t-23 57.5z" />
    <glyph glyph-name="ch270" unicode="&#x2219;" horiz-adv-x="249" 
d="M38 348q0 34 23 57t57 23t57.5 -23t23.5 -57t-23.5 -57.5t-57.5 -23.5t-57 23.5t-23 57.5z" />
    <glyph glyph-name="cedilla" unicode="&#xb8;" horiz-adv-x="322" 
d="M203 -41l44 -82l-144 -52l-28 52z" />
    <glyph glyph-name="onesuperior" unicode="&#xb9;" horiz-adv-x="432" 
d="M341 756v-454h-130v348l-126 -106l-74 76l178 136h152z" />
    <glyph glyph-name="ordmasculine" unicode="&#xba;" horiz-adv-x="480" 
d="M53 377h374v-77h-374v77zM240 756q100 0 131 -35q26 -31 26 -129t-26 -129q-31 -35 -131 -35t-131 35q-26 31 -26 129t26 129q31 35 131 35zM240 679q-32 0 -42.5 -16t-10.5 -71t10.5 -71t42.5 -16t42.5 16t10.5 71t-10.5 71t-42.5 16z" />
    <glyph glyph-name="guillemotright" unicode="&#xbb;" horiz-adv-x="556" 
d="M375 37l-113 61l96 182l-96 169l107 66l134 -235zM152 37l-113 61l96 182l-96 169l107 66l134 -235z" />
    <glyph glyph-name="onequarter" unicode="&#xbc;" horiz-adv-x="1080" 
d="M977 450v-274h41v-87h-41v-89h-124v89h-255v128l187 233h192zM853 176v182h-5l-148 -182h153zM791 750l-443 -750h-120l443 750h120zM292 750v-448h-130v342l-126 -106l-74 76l178 136h152z" />
    <glyph glyph-name="onehalf" unicode="&#xbd;" horiz-adv-x="1080" 
d="M793 750l-443 -750h-120l443 750h120zM294 750v-448h-130v342l-126 -106l-75 76l179 136h152zM1037 94v-94h-385v94q0 77 31 103q28 25 141 50q62 13 63 14q25 12 25 49q0 35 -19 44q-11 6 -49 6q-44 0 -54 -7q-14 -8 -14 -45v-22h-124v22q0 86 50 119q41 27 142 27
q99 0 139 -23q53 -31 53 -119q0 -73 -29 -101q-24 -25 -105 -45q-50 -11 -100 -23q-26 -10 -26 -49h261z" />
    <glyph glyph-name="threequarters" unicode="&#xbe;" horiz-adv-x="1080" 
d="M1014 450v-274h41v-87h-41v-89h-124v89h-255v128l187 233h192zM890 176v182h-5l-148 -182h153zM848 750l-443 -750h-120l443 750h120zM192 489v87h31q39 0 47 2q21 7 21 35q0 30 -9 38q-13 11 -59 11q-40 0 -52 -7q-16 -10 -16 -45v-9h-124v16q0 88 51 118q37 21 135 21
q91 0 133 -17q65 -27 65 -104q0 -92 -75 -101v-5q81 -4 81 -97q0 -81 -56 -110q-44 -24 -148 -24q-94 0 -133 21q-58 30 -58 117v24h124v-15q0 -34 20 -45q14 -8 53 -8q44 0 57 8q17 10 17 47q0 25 -11 33q-15 9 -63 9h-31z" />
    <glyph glyph-name="questiondown" unicode="&#xbf;" horiz-adv-x="605" 
d="M245 258h172v-30q0 -73 -16 -101q-19 -33 -86 -65l-36 -17q-32 -15 -44 -28q-17 -20 -17 -57q0 -39 23 -52q16 -9 57 -9q46 0 64 9q26 14 26 52v31h172v-31q0 -119 -71 -161q-55 -32 -191 -32q-130 0 -183 33q-69 42 -69 160q0 92 33 134q26 34 112 72q31 14 42.5 27
t11.5 35v30zM412 525v-174h-162v174h162z" />
    <glyph glyph-name="Agrave" unicode="&#xc0;" horiz-adv-x="733" 
d="M403 820h-67l-196 136h159zM745 0h-204l-39 129h-269l-37 -129h-208l225 750h304zM462 275l-93 325h-2l-91 -325h186z" />
    <glyph glyph-name="Aacute" unicode="&#xc1;" horiz-adv-x="733" 
d="M502 129h-269l-37 -129h-208l225 750h304l228 -750h-204zM462 275l-93 325h-2l-91 -325h186zM437 956h159l-196 -136h-67z" />
    <glyph glyph-name="Acircumflex" unicode="&#xc2;" horiz-adv-x="733" 
d="M502 129h-269l-37 -129h-208l225 750h304l228 -750h-204zM462 275l-93 325h-2l-91 -325h186zM368 949l169 -128l-33 -41l-137 61l-141 -61l-35 41z" />
    <glyph glyph-name="Atilde" unicode="&#xc3;" horiz-adv-x="733" 
d="M502 129h-269l-37 -129h-208l225 750h304l228 -750h-204zM462 275l-93 325h-2l-91 -325h186zM494 935l61 -19q-66 -87 -127 -93q-36 -3 -79 20q-35 27 -52 26q-32 -3 -61 -43l-61 22q73 85 133 90q33 3 73 -21q38 -28 58 -26q27 2 55 44z" />
    <glyph glyph-name="Adieresis" unicode="&#xc4;" horiz-adv-x="733" 
d="M502 129h-269l-37 -129h-208l225 750h304l228 -750h-204zM462 275l-93 325h-2l-91 -325h186zM316 937v-103h-109v103h109zM526 937v-103h-109v103h109z" />
    <glyph glyph-name="Aring" unicode="&#xc5;" horiz-adv-x="733" 
d="M502 129h-269l-37 -129h-208l225 750h304l228 -750h-204zM462 275l-93 325h-2l-91 -325h186zM269 889q0 40 28.5 68.5t69.5 28.5q40 0 68.5 -28.5t28.5 -68.5t-28.5 -69t-68.5 -29t-69 29t-29 69zM321 889q0 -19 13 -32.5t32 -13.5q18 0 32 13.5t14 32.5q0 18 -14 31.5
t-32 13.5q-19 0 -32 -13t-13 -32z" />
    <glyph glyph-name="AE" unicode="&#xc6;" horiz-adv-x="1074" 
d="M499 272v314h-86l-119 -314h205zM499 0v133h-258l-50 -133h-217l294 750h764v-164h-343v-140h316v-139h-316v-143h343v-164h-533z" />
    <glyph glyph-name="Ccedilla" unicode="&#xc7;" horiz-adv-x="728" 
d="M489 284h206v-22q0 -79 -9 -116q-14 -59 -59.5 -96.5t-112.5 -49.5q-38 -6 -126 -6q-186 0 -253 39q-100 59 -100 245v194q0 173 94 235q74 49 259 49q172 0 230 -39q76 -49 76 -207v-29h-206v29q-5 46 -38 61q-24 11 -84 11q-82 0 -105 -31q-20 -26 -20 -111v-117
q0 -93 18 -119q23 -36 107 -36q70 0 93 14q30 19 30 80v22zM406 -41l44 -82l-144 -52l-28 52z" />
    <glyph glyph-name="Egrave" unicode="&#xc8;" horiz-adv-x="678" 
d="M264 586v-137h320v-139h-320v-146h348v-164h-548v750h541v-164h-341zM367 820h-67l-196 136h159z" />
    <glyph glyph-name="Eacute" unicode="&#xc9;" horiz-adv-x="678" 
d="M264 586v-137h320v-139h-320v-146h348v-164h-548v750h541v-164h-341zM402 956h159l-196 -136h-67z" />
    <glyph glyph-name="Ecircumflex" unicode="&#xca;" horiz-adv-x="678" 
d="M264 586v-137h320v-139h-320v-146h348v-164h-548v750h541v-164h-341zM332 960l169 -128l-33 -41l-137 61l-141 -61l-35 41z" />
    <glyph glyph-name="Edieresis" unicode="&#xcb;" horiz-adv-x="678" 
d="M264 586v-137h320v-139h-320v-146h348v-164h-548v750h541v-164h-341zM289 937v-103h-109v103h109zM499 937v-103h-109v103h109z" />
    <glyph glyph-name="Igrave" unicode="&#xcc;" horiz-adv-x="324" 
d="M262 750v-750h-200v750h200zM197 820h-67l-196 136h159z" />
    <glyph glyph-name="Iacute" unicode="&#xcd;" horiz-adv-x="324" 
d="M262 750v-750h-200v750h200zM231 956h159l-196 -136h-67z" />
    <glyph glyph-name="Icircumflex" unicode="&#xce;" horiz-adv-x="324" 
d="M262 750v-750h-200v750h200zM160 981l183 -109l-25 -57l-158 62l-152 -62l-27 57z" />
    <glyph glyph-name="Idieresis" unicode="&#xcf;" horiz-adv-x="324" 
d="M262 750v-750h-200v750h200zM112 937v-103h-109v103h109zM322 937v-103h-109v103h109z" />
    <glyph glyph-name="Eth" unicode="&#xd0;" horiz-adv-x="775" 
d="M52 453v297h380q159 0 230.5 -66.5t71.5 -224.5v-157q0 -159 -59 -228q-63 -74 -216 -74h-407v314h-84v139h84zM252 576v-123h112v-139h-112v-140h175q101 0 101 128v157q0 70 -24 95q-22 22 -77 22h-175z" />
    <glyph glyph-name="Ntilde" unicode="&#xd1;" horiz-adv-x="871" 
d="M249 576l12 -576h-200v750h338l215 -576h8l-12 576h200v-750h-341l-212 576h-8zM571 958v0l82 -41q-49 -99 -123 -99q-44 0 -98.5 34t-71.5 34q-36 0 -60 -45l-82 44q55 96 130 96q39 0 93.5 -34.5t77.5 -34.5q30 0 52 46z" />
    <glyph glyph-name="Ograve" unicode="&#xd2;" horiz-adv-x="760" 
d="M380 -6q-170 0 -249 51q-98 63 -98 224v212q0 161 98 224q79 51 249 51t249 -51q98 -63 98 -224v-212q0 -161 -98 -224q-79 -51 -249 -51zM380 168q83 0 110 20q31 23 31 103v169q0 80 -31 103q-25 19 -110 19q-84 0 -109 -19q-32 -24 -32 -103v-169q0 -80 32 -104
q25 -19 109 -19zM415 825h-67l-196 136h159z" />
    <glyph glyph-name="Oacute" unicode="&#xd3;" horiz-adv-x="760" 
d="M380 -6q-170 0 -249 51q-98 63 -98 224v212q0 161 98 224q79 51 249 51t249 -51q98 -63 98 -224v-212q0 -161 -98 -224q-79 -51 -249 -51zM380 168q83 0 110 20q31 23 31 103v169q0 80 -31 103q-25 19 -110 19q-84 0 -109 -19q-32 -24 -32 -103v-169q0 -80 32 -104
q25 -19 109 -19zM449 961h159l-196 -136h-67z" />
    <glyph glyph-name="Ocircumflex" unicode="&#xd4;" horiz-adv-x="760" 
d="M380 -6q-170 0 -249 51q-98 63 -98 224v212q0 161 98 224q79 51 249 51t249 -51q98 -63 98 -224v-212q0 -161 -98 -224q-79 -51 -249 -51zM380 168q83 0 110 20q31 23 31 103v169q0 80 -31 103q-25 19 -110 19q-84 0 -109 -19q-32 -24 -32 -103v-169q0 -80 32 -104
q25 -19 109 -19zM381 960l169 -128l-33 -41l-137 61l-141 -61l-35 41z" />
    <glyph glyph-name="Otilde" unicode="&#xd5;" horiz-adv-x="760" 
d="M380 -6q-170 0 -249 51q-98 63 -98 224v212q0 161 98 224q79 51 249 51t249 -51q98 -63 98 -224v-212q0 -161 -98 -224q-79 -51 -249 -51zM380 168q83 0 110 20q31 23 31 103v169q0 80 -31 103q-25 19 -110 19q-84 0 -109 -19q-32 -24 -32 -103v-169q0 -80 32 -104
q25 -19 109 -19zM506 935l61 -19q-66 -87 -127 -93q-36 -3 -79 20q-35 27 -52 26q-32 -3 -61 -43l-61 22q73 85 133 90q33 3 73 -21q38 -28 58 -26q27 2 55 44z" />
    <glyph glyph-name="Odieresis" unicode="&#xd6;" horiz-adv-x="760" 
d="M380 -6q-171 0 -250 51q-97 63 -97 224v212q0 161 97 224q79 51 250 51t250 -51q97 -63 97 -224v-212q0 -161 -97 -224q-79 -51 -250 -51zM380 168q84 0 110 20q31 23 31 103v169q0 79 -31 103q-26 19 -110 19t-109 -19q-32 -24 -32 -103v-169q0 -80 32 -104
q25 -19 109 -19zM330 937v-103h-109v103h109zM540 937v-103h-109v103h109z" />
    <glyph glyph-name="multiply" unicode="&#xd7;" horiz-adv-x="600" 
d="M50 438l88 87l162 -161l162 161l88 -87l-162 -162l162 -162l-88 -88l-162 162l-162 -162l-88 88l162 162z" />
    <glyph glyph-name="Oslash" unicode="&#xd8;" horiz-adv-x="760" 
d="M770 781v-141l-57 -48q17 -65 17 -201q0 -158 -20 -230q-25 -89 -98 -128t-226 -39q-98 0 -149 9q-87 16 -133 63l-112 -96v139l55 46q-17 42 -17 92v119q0 159 24 233q27 87 102 122t230 35q99 0 145 -9q77 -14 126 -61zM524 426l-264 -227q15 -31 132 -31q132 0 132 98
v160zM236 320l266 230q-22 22 -53 28q-19 4 -63 4q-94 0 -119 -26q-31 -32 -31 -149v-87z" />
    <glyph glyph-name="Ugrave" unicode="&#xd9;" horiz-adv-x="771" 
d="M509 750h200v-500q0 -152 -84 -210q-68 -46 -230 -46q-117 0 -176 14q-107 24 -137 96q-19 45 -19 146v500h200v-496q0 -58 35 -75q23 -11 97 -11q68 0 89 15q25 18 25 80v487zM424 800h-67l-196 136h159z" />
    <glyph glyph-name="Uacute" unicode="&#xda;" horiz-adv-x="771" 
d="M509 750h200v-500q0 -152 -84 -210q-68 -46 -230 -46q-117 0 -176 14q-107 24 -137 96q-19 45 -19 146v500h200v-496q0 -58 35 -75q23 -11 97 -11q68 0 89 15q25 18 25 80v487zM456 936h159l-196 -136h-67z" />
    <glyph glyph-name="Ucircumflex" unicode="&#xdb;" horiz-adv-x="771" 
d="M509 750h200v-500q0 -146 -74 -203q-70 -53 -240 -53q-147 0 -217.5 25.5t-95.5 84.5q-19 46 -19 146v500h200v-496q0 -58 35 -75q23 -11 97 -11q69 0 89 15q25 17 25 80v487zM384 981l183 -109l-25 -57l-158 62l-152 -62l-27 57z" />
    <glyph glyph-name="Udieresis" unicode="&#xdc;" horiz-adv-x="771" 
d="M509 750h200v-500q0 -146 -74 -203q-70 -53 -240 -53q-147 0 -217.5 25.5t-95.5 84.5q-19 46 -19 146v500h200v-496q0 -58 35 -75q23 -11 97 -11q69 0 89 15q25 17 25 80v487zM335 937v-103h-109v103h109zM545 937v-103h-109v103h109z" />
    <glyph glyph-name="Yacute" unicode="&#xdd;" horiz-adv-x="708" 
d="M724 750l-274 -487v-263h-200v263l-266 487h229l134 -289h7l138 289h232zM421 926h159l-196 -136h-67z" />
    <glyph glyph-name="Thorn" unicode="&#xde;" horiz-adv-x="711" 
d="M258 0h-200v750h200v-96h177q139 0 197.5 -63.5t58.5 -211.5q0 -162 -50 -221q-53 -62 -206 -62h-177v-96zM258 270h137q60 0 75 18.5t15 90.5q0 60 -16.5 80.5t-73.5 20.5h-137v-210z" />
    <glyph glyph-name="germandbls" unicode="&#xdf;" horiz-adv-x="617" 
d="M229 0h-172v565q0 112 68 155q55 36 181 36q119 0 169 -22q77 -35 77 -136q0 -116 -120 -130v-8q93 -1 127 -66q24 -46 24 -149q0 -128 -39 -184q-48 -67 -170 -67l-90 6v121q21 -7 46 -7q50 0 65.5 25.5t15.5 105.5q0 86 -12 117q-20 48 -81 48h-16v115h19q72 0 72 52
q0 64 -87 64q-40 0 -57 -15q-20 -17 -20 -61v-565z" />
    <glyph glyph-name="agrave" unicode="&#xe0;" horiz-adv-x="609" 
d="M288 217q-75 0 -75 -55q0 -57 75 -57q51 0 66 7q28 13 28 57q0 34 -33 43q-16 5 -61 5zM382 0l6 78h-6q-15 -84 -151 -84q-98 0 -140 32q-50 36 -50 131q0 92 51 131q44 34 139 34q57 0 83 -7q48 -13 60 -52h8v83q0 43 -11 58q-16 22 -67 22q-70 0 -70 -57h-172
q0 109 75 142q45 20 167 20q142 0 191 -34q59 -41 59 -169v-328h-172zM336 612h-61l-166 122h133z" />
    <glyph glyph-name="aacute" unicode="&#xe1;" horiz-adv-x="609" 
d="M288 217q-75 0 -75 -55q0 -57 75 -57q51 0 66 7q28 13 28 57q0 34 -33 43q-16 5 -61 5zM382 0l6 78h-6q-15 -84 -151 -84q-98 0 -140 32q-50 36 -50 131q0 92 51 131q44 34 139 34q57 0 83 -7q48 -13 60 -52h8v83q0 43 -11 58q-16 22 -67 22q-70 0 -70 -57h-172
q0 109 75 142q45 20 167 20q142 0 191 -34q59 -41 59 -169v-328h-172zM367 734h143l-176 -122h-61z" />
    <glyph glyph-name="acircumflex" unicode="&#xe2;" horiz-adv-x="609" 
d="M288 217q-75 0 -75 -55q0 -57 75 -57q51 0 66 7q28 13 28 57q0 34 -33 43q-16 5 -61 5zM382 0l6 78h-6q-15 -84 -151 -84q-98 0 -140 32q-50 36 -50 131q0 92 51 131q44 34 139 34q57 0 83 -7q48 -13 60 -52h8v83q0 43 -11 58q-16 22 -67 22q-70 0 -70 -57h-172
q0 109 75 142q45 20 167 20q142 0 191 -34q59 -41 59 -169v-328h-172zM304 717l152 -115l-30 -37l-123 55l-127 -55l-31 37z" />
    <glyph glyph-name="atilde" unicode="&#xe3;" horiz-adv-x="609" 
d="M288 217q-75 0 -75 -55q0 -57 75 -57q51 0 66 7q28 13 28 57q0 34 -33 43q-16 5 -61 5zM382 0l6 78h-6q-15 -84 -151 -84q-98 0 -140 32q-50 36 -50 131q0 92 51 131q44 34 139 34q57 0 83 -7q48 -13 60 -52h8v83q0 43 -11 58q-16 22 -67 22q-70 0 -70 -57h-172
q0 109 75 142q45 20 167 20q142 0 191 -34q59 -41 59 -169v-328h-172zM418 716l55 -17q-59 -79 -114 -84q-33 -3 -71 18q-33 25 -47 24q-29 -2 -55 -39l-55 20q64 77 120 81q30 2 65 -19q34 -25 53 -24q22 2 49 40z" />
    <glyph glyph-name="adieresis" unicode="&#xe4;" horiz-adv-x="609" 
d="M288 217q-75 0 -75 -55q0 -57 75 -57q50 0 66 7q28 13 28 57q0 30 -26 41q-19 7 -68 7zM382 0l6 78h-6q-15 -84 -151 -84q-98 0 -140 31q-50 37 -50 132q0 91 49 130q44 35 141 35q56 0 83 -7q48 -13 60 -52h8v83q0 43 -11 58q-16 22 -67 22q-70 0 -70 -57h-172
q0 109 75 142q44 20 167 20q143 0 191 -34q59 -41 59 -169v-328h-172zM254 712v-103h-109v103h109zM464 712v-103h-109v103h109z" />
    <glyph glyph-name="aring" unicode="&#xe5;" horiz-adv-x="609" 
d="M288 217q-75 0 -75 -55q0 -57 75 -57q50 0 66 7q28 13 28 57q0 30 -26 41q-19 7 -68 7zM382 0l6 78h-6q-15 -84 -151 -84q-98 0 -140 31q-50 37 -50 132q0 91 49 130q44 35 141 35q56 0 83 -7q48 -13 60 -52h8v83q0 43 -11 58q-16 22 -67 22q-70 0 -70 -57h-172
q0 109 75 142q44 20 167 20q143 0 191 -34q59 -41 59 -169v-328h-172zM207 664q0 40 28.5 68.5t69.5 28.5q40 0 68.5 -28.5t28.5 -68.5t-28.5 -69t-68.5 -29t-69 29t-29 69zM259 664q0 -19 13 -32.5t32 -13.5q18 0 32 13.5t14 32.5q0 18 -14 31.5t-32 13.5q-19 0 -32 -13
t-13 -32z" />
    <glyph glyph-name="ae" unicode="&#xe6;" horiz-adv-x="927" 
d="M551 328h169q0 56 -22 77q-19 18 -65 18q-45 0 -62.5 -21t-19.5 -74zM285 218q-75 0 -75 -55q0 -57 75 -57q50 0 66 7q28 13 28 57q0 30 -26 41q-19 7 -68 7zM379 263v83q0 43 -11 58q-16 22 -67 22q-70 0 -70 -57h-172q0 109 75 142q44 20 167 20q149 0 168 -71h5
q16 71 162 71q149 0 202.5 -55t53.5 -214v-29h-341q0 -71 16.5 -95t68.5 -24q46 0 63 10q24 13 24 51h169q0 -89 -40.5 -128.5t-127.5 -48.5q-36 -4 -88 -4q-161 0 -187 79h-6q-19 -51 -83 -68q-41 -11 -132 -11q-98 0 -140 31q-50 37 -50 132q0 91 49 130q44 35 141 35
q56 0 83 -7q48 -13 60 -52h8z" />
    <glyph glyph-name="ccedilla" unicode="&#xe7;" horiz-adv-x="557" 
d="M364 210h172q0 -110 -32 -154q-36 -51 -137 -59q-33 -3 -85 -3q-150 0 -200.5 55.5t-50.5 212.5q0 145 45 201q54 68 206 68q132 0 184 -31q70 -44 70 -172h-172q2 45 -18 59q-16 12 -64 12t-62 -23q-17 -27 -17 -114q0 -90 14.5 -113t64.5 -23q56 0 70 18q12 14 12 66z
M321 -41l44 -82l-144 -52l-28 52z" />
    <glyph glyph-name="egrave" unicode="&#xe8;" horiz-adv-x="574" 
d="M202 328h169q0 54 -22 71q-16 12 -65 12q-48 0 -64.5 -17t-17.5 -66zM374 175h169q0 -84 -39 -125t-123 -51q-40 -5 -94 -5q-149 0 -205 60q-52 58 -52 208q0 155 50 210q54 59 207 59q152 0 204 -57.5t52 -211.5v-29h-341q0 -64 12 -86q17 -33 73 -33q45 0 63 10
q24 13 24 51zM320 612h-61l-166 122h133z" />
    <glyph glyph-name="eacute" unicode="&#xe9;" horiz-adv-x="574" 
d="M202 328h169q0 54 -22 71q-16 12 -65 12q-48 0 -64.5 -17t-17.5 -66zM374 175h169q0 -84 -39 -125t-123 -51q-40 -5 -94 -5q-149 0 -205 60q-52 58 -52 208q0 155 50 210q54 59 207 59q152 0 204 -57.5t52 -211.5v-29h-341q0 -64 12 -86q17 -33 73 -33q45 0 63 10
q24 13 24 51zM351 734h143l-176 -122h-61z" />
    <glyph glyph-name="ecircumflex" unicode="&#xea;" horiz-adv-x="574" 
d="M202 328h169q0 54 -22 71q-16 12 -65 12q-48 0 -64.5 -17t-17.5 -66zM374 175h169q0 -84 -39 -125t-123 -51q-40 -5 -94 -5q-149 0 -205 60q-52 58 -52 208q0 155 50 210q54 59 207 59q152 0 204 -57.5t52 -211.5v-29h-341q0 -64 12 -86q17 -33 73 -33q45 0 63 10
q24 13 24 51zM288 717l152 -115l-30 -37l-123 55l-127 -55l-31 37z" />
    <glyph glyph-name="edieresis" unicode="&#xeb;" horiz-adv-x="574" 
d="M202 328h169q0 54 -22 71q-16 12 -65 12q-47 0 -64 -16t-18 -67zM374 175h169q0 -85 -39.5 -125.5t-122.5 -50.5q-37 -5 -94 -5q-151 0 -206 61q-51 56 -51 207q0 155 49 210q53 59 208 59q149 0 202.5 -55t53.5 -214v-29h-341q0 -71 16.5 -95t68.5 -24q46 0 63 10
q24 13 24 51zM237 712v-103h-109v103h109zM447 712v-103h-109v103h109z" />
    <glyph glyph-name="igrave" unicode="&#xec;" horiz-adv-x="257" 
d="M215 525v-525h-172v525h172zM161 602h-61l-166 122h133z" />
    <glyph glyph-name="iacute" unicode="&#xed;" horiz-adv-x="257" 
d="M215 525v-525h-172v525h172zM191 724h143l-176 -122h-61z" />
    <glyph glyph-name="icircumflex" unicode="&#xee;" horiz-adv-x="257" 
d="M215 525v-525h-172v525h172zM127 756l183 -109l-25 -57l-158 62l-152 -62l-27 57z" />
    <glyph glyph-name="idieresis" unicode="&#xef;" horiz-adv-x="257" 
d="M215 525v-525h-172v525h172zM78 712v-103h-109v103h109zM288 712v-103h-109v103h109z" />
    <glyph glyph-name="eth" unicode="&#xf0;" horiz-adv-x="593" 
d="M158 542l-46 30l37 52q-31 13 -97 34l37 98q54 -12 125 -41l31 45l49 -27l-26 -37q157 -73 242 -198q49 -72 49 -236q0 -163 -50.5 -215.5t-212.5 -52.5q-159 0 -210.5 54t-51.5 214q0 164 52 216.5t225 52.5q-40 40 -109 73zM299 399q-68 0 -85 -39q-8 -19 -8 -98
q0 -78 8 -97q17 -39 85 -39q59 0 73.5 24t14.5 112t-14.5 112.5t-73.5 24.5z" />
    <glyph glyph-name="ntilde" unicode="&#xf1;" horiz-adv-x="619" 
d="M57 525h172v-98h7q18 59 58 83q34 21 99 21q169 0 169 -168v-363h-172v323q0 40 -14 57q-17 19 -57 19q-53 0 -74 -31q-16 -24 -16 -79v-289h-172v525zM445 733v0l82 -41q-49 -99 -123 -99q-44 0 -98.5 34t-71.5 34q-36 0 -60 -45l-82 44q55 96 130 96q39 0 93.5 -34.5
t77.5 -34.5q30 0 52 46z" />
    <glyph glyph-name="ograve" unicode="&#xf2;" horiz-adv-x="593" 
d="M296 531q163 0 213 -52.5t50 -216.5q0 -161 -51.5 -214.5t-211.5 -53.5q-158 0 -210 54.5t-52 213.5q0 162 51 215.5t211 53.5zM299 399q-68 0 -85 -39q-8 -19 -8 -98q0 -78 8 -97q17 -39 85 -39q64 0 80 38q8 19 8 98t-8 99q-16 38 -80 38zM328 612h-61l-166 122h133z
" />
    <glyph glyph-name="oacute" unicode="&#xf3;" horiz-adv-x="593" 
d="M296 531q163 0 213 -52.5t50 -216.5q0 -161 -51.5 -214.5t-211.5 -53.5q-158 0 -210 54.5t-52 213.5q0 162 51 215.5t211 53.5zM299 399q-68 0 -85 -39q-8 -19 -8 -98q0 -78 8 -97q17 -39 85 -39q64 0 80 38q8 19 8 98t-8 99q-16 38 -80 38zM359 734h143l-176 -122h-61z
" />
    <glyph glyph-name="ocircumflex" unicode="&#xf4;" horiz-adv-x="593" 
d="M296 531q163 0 213 -52.5t50 -216.5q0 -161 -51.5 -214.5t-211.5 -53.5q-158 0 -210 54.5t-52 213.5q0 162 51 215.5t211 53.5zM299 399q-68 0 -85 -39q-8 -19 -8 -98q0 -78 8 -97q17 -39 85 -39q64 0 80 38q8 19 8 98t-8 99q-16 38 -80 38zM297 716l152 -115l-30 -37
l-123 55l-127 -55l-31 37z" />
    <glyph glyph-name="otilde" unicode="&#xf5;" horiz-adv-x="593" 
d="M296 531q163 0 213 -52.5t50 -216.5q0 -161 -51.5 -214.5t-211.5 -53.5q-158 0 -210 54.5t-52 213.5q0 162 51 215.5t211 53.5zM299 399q-68 0 -85 -39q-8 -19 -8 -98q0 -78 8 -97q17 -39 85 -39q64 0 80 38q8 19 8 98t-8 99q-16 38 -80 38zM410 716l55 -17
q-59 -79 -114 -84q-33 -3 -71 18q-33 25 -47 24q-29 -2 -55 -39l-55 20q64 77 120 81q30 2 65 -19q34 -25 53 -24q22 2 49 40z" />
    <glyph glyph-name="odieresis" unicode="&#xf6;" horiz-adv-x="593" 
d="M296 531q164 0 213.5 -51t49.5 -218q0 -163 -50.5 -215.5t-212.5 -52.5q-159 0 -210.5 54t-51.5 214q0 163 50 216t212 53zM299 399q-68 0 -85 -39q-8 -19 -8 -98q0 -78 8 -97q17 -39 85 -39q59 0 73.5 24t14.5 112t-14.5 112.5t-73.5 24.5zM246 712v-103h-109v103h109z
M456 712v-103h-109v103h109z" />
    <glyph glyph-name="divide" unicode="&#xf7;" horiz-adv-x="600" 
d="M50 219v115h500v-115h-500zM357 28h-115v115h115v-115zM357 410h-115v115h115v-115z" />
    <glyph glyph-name="oslash" unicode="&#xf8;" horiz-adv-x="615" 
d="M398 285l-172 -124q15 -35 81 -35q57 0 75 25q16 21 16 87v47zM217 240l172 122q-8 37 -82 37q-50 0 -70 -15.5t-20 -49.5v-94zM-2 0v83l58 41q-11 59 -11 166q0 147 57 196q52 45 205 45q84 0 124 -8q69 -14 100 -57l74 55v-85l-44 -32q9 -33 9 -113q0 -182 -43 -235
q-49 -62 -220 -62q-82 0 -121 9q-68 14 -101 59z" />
    <glyph glyph-name="ugrave" unicode="&#xf9;" horiz-adv-x="615" 
d="M555 0h-167l6 101h-8q-32 -107 -157 -107q-178 0 -178 172v359h172v-313q0 -43 10 -61q14 -25 53 -25q38 0 66 18q31 22 31 58v323h172v-525zM336 578h-61l-166 122h133z" />
    <glyph glyph-name="uacute" unicode="&#xfa;" horiz-adv-x="615" 
d="M555 0h-167l6 101h-8q-32 -107 -157 -107q-178 0 -178 172v359h172v-313q0 -43 10 -61q14 -25 53 -25q38 0 66 18q31 22 31 58v323h172v-525zM359 700h143l-176 -122h-61z" />
    <glyph glyph-name="ucircumflex" unicode="&#xfb;" horiz-adv-x="615" 
d="M555 0h-167l6 101h-8q-32 -107 -157 -107q-178 0 -178 172v359h172v-313q0 -43 10 -61q13 -25 53 -25q38 0 67.5 20t29.5 56v323h172v-525zM306 756l183 -109l-25 -57l-158 62l-152 -62l-27 57z" />
    <glyph glyph-name="udieresis" unicode="&#xfc;" horiz-adv-x="615" 
d="M555 0h-167l6 101h-8q-32 -107 -157 -107q-178 0 -178 172v359h172v-313q0 -43 10 -61q13 -25 53 -25q38 0 67.5 20t29.5 56v323h172v-525zM257 712v-103h-109v103h109zM467 712v-103h-109v103h109z" />
    <glyph glyph-name="yacute" unicode="&#xfd;" horiz-adv-x="533" 
d="M540 525l-132 -571q-24 -105 -72 -146t-154 -41q-8 0 -59 3v119q20 -2 30 -2q84 0 90 113h-94l-156 525h180l104 -427h2l85 427h176zM330 690h143l-176 -122h-61z" />
    <glyph glyph-name="thorn" unicode="&#xfe;" horiz-adv-x="618" 
d="M223 750v-306h6q23 87 148 87q199 0 199 -193v-120q0 -120 -45.5 -172t-153.5 -52q-113 0 -146 85h-8v-306h-172v977h172zM309 399q-54 0 -70 -26.5t-16 -110.5q0 -75 13 -101q18 -35 73 -35q56 0 74 23q21 27 21 113q0 84 -13 107q-18 30 -82 30z" />
    <glyph glyph-name="ydieresis" unicode="&#xff;" horiz-adv-x="533" 
d="M540 525l-132 -571q-24 -106 -70 -145q-49 -42 -156 -42q1 0 -59 3v119q20 -2 30 -2q84 0 90 113h-94l-156 525h180l104 -427h2l85 427h176zM216 712v-103h-109v103h109zM426 712v-103h-109v103h109z" />
    <glyph glyph-name="glyph271" unicode="&#x102;" horiz-adv-x="733" 
d="M502 129h-269l-37 -129h-208l225 750h304l228 -750h-204zM462 275l-93 325h-2l-91 -325h186zM166 900l109 15q12 -60 93 -60q38 0 56 12q22 13 29 48l109 -15q-7 -64 -65 -88q-41 -17 -129 -17q-189 0 -202 105z" />
    <glyph glyph-name="glyph272" unicode="&#x103;" horiz-adv-x="609" 
d="M288 217q-75 0 -75 -55q0 -57 75 -57q51 0 66 7q28 13 28 57q0 34 -33 43q-16 5 -61 5zM382 0l6 78h-6q-15 -84 -151 -84q-98 0 -140 32q-50 36 -50 131q0 92 51 131q44 34 139 34q57 0 83 -7q48 -13 60 -52h8v83q0 43 -11 58q-16 22 -67 22q-70 0 -70 -57h-172
q0 109 75 142q45 20 167 20q142 0 191 -34q59 -41 59 -169v-328h-172zM122 672l98 14q10 -54 84 -54q66 0 76 54l98 -14q-7 -60 -64 -81q-36 -13 -110 -13q-171 0 -182 94z" />
    <glyph glyph-name="Cacute" unicode="&#x106;" horiz-adv-x="711" 
d="M489 284h206v-22q0 -79 -9 -116q-14 -59 -59.5 -96.5t-112.5 -49.5q-38 -6 -126 -6q-186 0 -253 39q-100 59 -100 245v194q0 173 94 235q74 49 259 49q172 0 230 -39q76 -49 76 -207v-29h-206v29q-5 46 -38 61q-24 11 -84 11q-82 0 -105 -31q-20 -26 -20 -111v-117
q0 -93 18 -119q23 -36 107 -36q70 0 93 14q30 19 30 80v22zM456 1011l50 -111l-226 -71l-28 62z" />
    <glyph glyph-name="cacute" unicode="&#x107;" horiz-adv-x="441" 
d="M364 210h172q0 -110 -32 -154q-36 -51 -137 -59q-33 -3 -85 -3q-150 0 -200.5 55.5t-50.5 212.5q0 145 45 201q54 68 206 68q132 0 184 -31q70 -44 70 -172h-172q2 45 -18 59q-16 12 -64 12t-62 -23q-17 -27 -17 -114q0 -90 14.5 -113t64.5 -23q56 0 70 18q12 14 12 66z
M257 756l50 -111l-226 -71l-28 62z" />
    <glyph glyph-name="Ccaron" unicode="&#x10c;" horiz-adv-x="711" 
d="M489 284h206v-22q0 -79 -9 -116q-14 -59 -59.5 -96.5t-112.5 -49.5q-38 -6 -126 -6q-186 0 -253 39q-100 59 -100 245v194q0 173 94 235q74 49 259 49q172 0 230 -39q76 -49 76 -207v-29h-206v29q-5 46 -38 61q-24 11 -84 11q-82 0 -105 -31q-20 -26 -20 -111v-117
q0 -93 18 -119q23 -36 107 -36q70 0 93 14q30 19 30 80v22zM431 845l-179 109l27 57l152 -62l158 62l25 -57z" />
    <glyph glyph-name="ccaron" unicode="&#x10d;" horiz-adv-x="441" 
d="M364 210h172q0 -110 -32 -154q-36 -51 -137 -59q-33 -3 -85 -3q-150 0 -200.5 55.5t-50.5 212.5q0 145 45 201q54 68 206 68q132 0 184 -31q70 -44 70 -172h-172q2 45 -18 59q-16 12 -64 12t-62 -23q-17 -27 -17 -114q0 -90 14.5 -113t64.5 -23q56 0 70 18q12 14 12 66z
M232 590l-179 109l27 57l152 -62l158 62l25 -57z" />
    <glyph glyph-name="Dslash" unicode="&#x110;" horiz-adv-x="775" 
d="M52 453v297h380q159 0 230.5 -67t71.5 -224v-157q0 -157 -58 -226q-63 -76 -217 -76h-407v314h-84v139h84zM252 576v-123h112v-139h-112v-140h175q101 0 101 128v157q0 64 -19 88q-22 29 -82 29h-175z" />
    <glyph glyph-name="dcroat" unicode="&#x111;" horiz-adv-x="612" 
d="M205 262q0 -92 17 -116q14 -20 71 -20q63 0 82 38q11 23 11 98q0 85 -12 107q-16 30 -81 30q-61 0 -76 -29q-12 -23 -12 -108zM558 695h43v-116h-43v-579h-172l4 91h-8q-14 -55 -55 -78q-33 -19 -95 -19q-199 0 -199 193v120q0 115 41 167q46 57 158 57q113 0 146 -81h8
v129h-155v116h155v62h172v-62z" />
    <glyph glyph-name="Gbreve" unicode="&#x11e;" horiz-adv-x="767" 
d="M720 517h-203q-3 50 -43 66q-24 9 -86 9q-101 0 -129 -37q-21 -28 -21 -128v-122q0 -94 36 -123q29 -24 114 -24q77 0 103 25t26 102h-138v139h341v-131q0 -187 -64 -243t-268 -56q-192 0 -266 50q-90 61 -90 233v194q0 173 96 236q75 49 260 49q180 0 239 -30
q93 -48 93 -209zM271 988h94q15 -75 84 -75q70 0 84 75h94q-8 -71 -57 -115.5t-121 -44.5q-69 0 -119.5 45.5t-58.5 114.5z" />
    <glyph glyph-name="gbreve" unicode="&#x11f;" horiz-adv-x="492" 
d="M295 132q59 0 77 31q14 25 14 99q0 87 -17.5 112t-73.5 25q-59 0 -73.5 -22.5t-14.5 -114.5q0 -81 16.5 -105.5t71.5 -24.5zM56 -47h163q0 -38 21 -51q16 -10 56 -10q56 0 73 15.5t17 69.5v109h-6q-29 -86 -143 -86q-127 0 -171 75q-31 54 -31 187q0 144 33 198
q43 71 169 71q61 0 94 -19q40 -23 55 -80h6l-6 93h172v-502q0 -148 -53 -202t-203 -54q-146 0 -190 31q-52 35 -56 155zM71 733h94q15 -75 84 -75q70 0 84 75h94q-8 -71 -57 -115.5t-121 -44.5q-69 0 -119.5 45.5t-58.5 114.5z" />
    <glyph glyph-name="glyph273" unicode="&#x128;" horiz-adv-x="324" 
d="M262 750v-750h-200v750h200zM288 930l61 -19q-66 -87 -127 -93q-36 -3 -79 20q-35 27 -52 26q-32 -3 -61 -43l-61 22q73 85 133 90q33 3 73 -21q38 -28 58 -26q27 2 55 44z" />
    <glyph glyph-name="glyph274" unicode="&#x129;" horiz-adv-x="257" 
d="M215 525v-525h-172v525h172zM243 701l55 -17q-59 -79 -114 -84q-33 -3 -71 18q-33 25 -47 24q-29 -2 -55 -39l-55 20q64 77 120 81q30 2 65 -19q34 -25 53 -24q22 2 49 40z" />
    <glyph glyph-name="Idotaccent" unicode="&#x130;" horiz-adv-x="429" 
d="M262 750v-750h-200v750h200zM211 967v-103h-109v103h109z" />
    <glyph glyph-name="dotlessi" unicode="&#x131;" horiz-adv-x="257" 
d="M215 525v-525h-172v525h172z" />
    <glyph glyph-name="Lslash" unicode="&#x141;" horiz-adv-x="596" 
d="M270 445v-271h315v-174h-515v306l-73 -61v142l73 60v303h200v-167l127 106v-139z" />
    <glyph glyph-name="lslash" unicode="&#x142;" horiz-adv-x="312" 
d="M243 437v-437h-172v335l-71 -50v92l71 51v322h172v-218l69 51v-95z" />
    <glyph glyph-name="OE" unicode="&#x152;" horiz-adv-x="1101" 
d="M535 0l7 83h-7q-30 -50 -75 -71q-39 -18 -102 -18q-176 0 -243 58q-75 63 -75 235v141q0 174 53 245q63 83 232 83q175 0 210 -96h7l-7 90h526v-164h-340v-139h318v-139h-318v-144h347v-164h-533zM531 312v145q0 86 -36 113q-31 22 -124 22q-80 0 -105.5 -27.5
t-25.5 -107.5v-145q0 -97 24.5 -125.5t106.5 -28.5q104 0 135 35q25 29 25 119z" />
    <glyph glyph-name="oe" unicode="&#x153;" horiz-adv-x="920" 
d="M545 328h169q0 56 -20.5 77t-66.5 21q-45 0 -62.5 -22.5t-19.5 -75.5zM373 262q0 91 -11 112q-14 25 -73 25q-58 0 -71.5 -23.5t-13.5 -113.5q0 -89 15.5 -112.5t69.5 -23.5q56 0 71 28q13 23 13 108zM278 531q150 0 182 -70h4q18 46 73 61q31 9 93 9q149 0 202.5 -55
t53.5 -214v-29h-341q0 -71 16.5 -95t68.5 -24q46 0 63 10q24 13 24 51h169q0 -85 -39.5 -125.5t-122.5 -50.5q-37 -5 -94 -5q-66 0 -98 10q-53 17 -68 67h-6q-27 -50 -69 -65q-32 -12 -111 -12q-153 0 -202 58q-44 52 -44 210t43 210q49 59 203 59z" />
    <glyph glyph-name="Scedilla" unicode="&#x15e;" horiz-adv-x="656" 
d="M320 462l83 -6q171 -12 222 -50q55 -40 55 -166q0 -84 -11 -119q-19 -61 -83 -91q-77 -36 -231 -36q-173 0 -231 33q-87 50 -87 217h192q0 -56 26 -72q23 -14 100 -14q75 0 98 11q27 13 27 58q0 47 -15.5 56t-89.5 14l-44 3q-120 8 -158 17q-70 15 -100 58
q-35 50 -35 152q0 148 85 195q61 34 232 34q156 0 214 -27q90 -44 90 -183v-31h-192q0 53 -26 67q-18 10 -86 10q-75 0 -99 -16q-18 -13 -18 -48q0 -41 21 -54q14 -9 61 -12zM242 -41l44 -82l-144 -52l-28 52z" />
    <glyph glyph-name="scedilla" unicode="&#x15f;" horiz-adv-x="383" 
d="M521 376h-162q-6 44 -70 44q-63 0 -79 -9q-11 -7 -11 -33q0 -24 12 -32q18 -13 78 -14q149 -3 195 -27q62 -31 62 -134q0 -105 -77 -146q-58 -31 -180 -31q-134 0 -179 20q-78 34 -78 150h172q0 -39 27 -52q16 -7 58 -7q59 0 74.5 8t15.5 38q0 36 -22 46q-15 6 -68 6
q-156 0 -210 38q-47 32 -47 118q0 114 74 149q47 23 183 23q105 0 152 -17q80 -28 80 -113v-25zM145 -41l44 -82l-144 -52l-28 52z" />
    <glyph glyph-name="Scaron" unicode="&#x160;" horiz-adv-x="716" 
d="M320 462l83 -6q171 -12 222 -50q55 -40 55 -166q0 -84 -11 -119q-19 -61 -83 -91q-77 -36 -231 -36q-173 0 -231 33q-87 50 -87 217h192q0 -56 26 -72q23 -14 100 -14q75 0 98 11q27 13 27 58q0 47 -15.5 56t-89.5 14l-44 3q-120 8 -158 17q-70 15 -100 58
q-35 50 -35 152q0 148 85 195q61 34 232 34q156 0 214 -27q90 -44 90 -183v-31h-192q0 53 -26 67q-18 10 -86 10q-75 0 -99 -16q-18 -13 -18 -48q0 -41 21 -54q14 -9 61 -12zM356 815l-179 109l27 57l152 -62l158 62l25 -57z" />
    <glyph glyph-name="scaron" unicode="&#x161;" horiz-adv-x="578" 
d="M521 376h-162q-6 44 -70 44q-63 0 -79 -9q-11 -7 -11 -33q0 -24 12 -32q18 -13 78 -14q149 -3 195 -27q62 -31 62 -134q0 -105 -77 -146q-58 -31 -180 -31q-134 0 -179 20q-78 34 -78 150h172q0 -39 27 -52q16 -7 58 -7q59 0 74.5 8t15.5 38q0 36 -22 46q-15 6 -68 6
q-156 0 -210 38q-47 32 -47 118q0 114 74 149q47 23 183 23q105 0 152 -17q80 -28 80 -113v-25zM287 590l-179 109l27 57l152 -62l158 62l25 -57z" />
    <glyph glyph-name="ch903" unicode="&#x168;" horiz-adv-x="771" 
d="M509 750h200v-500q0 -152 -84 -210q-68 -46 -230 -46q-117 0 -176 14q-107 24 -137 96q-19 45 -19 146v500h200v-496q0 -58 35 -75q23 -11 97 -11q68 0 89 15q25 18 25 80v487zM513 910l61 -19q-66 -87 -127 -93q-36 -3 -79 20q-35 27 -52 26q-32 -3 -61 -43l-61 22
q73 85 133 90q33 3 73 -21q38 -28 58 -26q27 2 55 44z" />
    <glyph glyph-name="ch904" unicode="&#x169;" horiz-adv-x="615" 
d="M555 0h-167l6 101h-8q-32 -107 -157 -107q-178 0 -178 172v359h172v-313q0 -43 10 -61q14 -25 53 -25q38 0 66 18q31 22 31 58v323h172v-525zM418 687l55 -17q-59 -79 -114 -84q-33 -3 -71 18q-33 25 -47 24q-29 -2 -55 -39l-55 20q64 77 120 81q30 2 65 -19
q34 -25 53 -24q22 2 49 40z" />
    <glyph glyph-name="Ydieresis" unicode="&#x178;" horiz-adv-x="708" 
d="M724 750l-274 -487v-263h-200v263l-266 487h229l134 -289h7l138 289h232zM304 937v-103h-109v103h109zM514 937v-103h-109v103h109z" />
    <glyph glyph-name="Zcaron" unicode="&#x17d;" horiz-adv-x="659" 
d="M636 750v-168l-359 -408h359v-174h-613v169l354 407h-331v174h590zM328 815l-179 109l27 57l152 -62l158 62l25 -57z" />
    <glyph glyph-name="zcaron" unicode="&#x17e;" horiz-adv-x="496" 
d="M40 525h435v-136l-254 -269h254v-120h-454v142l248 263h-229v120zM246 590l-179 109l27 57l152 -62l158 62l25 -57z" />
    <glyph glyph-name="florin" unicode="&#x192;" 
d="M596 489l-22 -126h-102l-69 -390q-19 -108 -40 -143q-25 -43 -88 -54q-47 -9 -198 -9l22 131q43 -5 51 -5q39 0 56 25q10 16 18 61l68 384h-76l22 126h75l11 59q20 105 48.5 147t91.5 53q44 8 179 8l-22 -131q-22 5 -40 5q-38 0 -52 -15q-17 -17 -26 -73l-9 -53h102z" />
    <glyph glyph-name="glyph277" unicode="&#x1a0;" horiz-adv-x="760" 
d="M380 166q83 0 110 20q31 23 31 103v169q0 80 -31 103q-25 19 -110 19q-84 0 -109 -19q-32 -24 -32 -103v-169q0 -80 32 -104q25 -19 109 -19zM604 717q59 8 59 35q0 13 -14 17q-3 20 12 35.5t35 15.5q39 0 39 -37q0 -71 -89 -92q81 -65 81 -212v-212q0 -161 -98 -224
q-79 -51 -249 -51t-249 51q-98 63 -98 224v212q0 161 98 224q79 51 249 51q149 0 224 -37z" />
    <glyph glyph-name="glyph278" unicode="&#x1a1;" horiz-adv-x="593" 
d="M299 399q-68 0 -85 -39q-8 -19 -8 -98q0 -78 8 -97q17 -39 85 -39q64 0 80 38q8 19 8 98t-8 99q-16 38 -80 38zM437 518h68q5 0 10.5 7.5t5.5 12.5q0 13 -13 16q-3 17 10.5 31.5t31.5 14.5q36 0 36 -34q0 -59 -78 -85q51 -50 51 -219q0 -161 -51.5 -214.5t-211.5 -53.5
q-158 0 -210 54.5t-52 213.5q0 162 51 215.5t211 53.5q94 0 141 -13z" />
    <glyph glyph-name="glyph279" unicode="&#x1af;" horiz-adv-x="771" 
d="M709 687v-437q0 -152 -84 -210q-68 -46 -230 -46q-117 0 -176 14q-107 24 -137 96q-19 45 -19 146v500h200v-496q0 -58 35 -75q23 -11 97 -11q68 0 89 15q25 18 25 80v487l155 -10l45 -13q18 9 18 25q0 13 -14 17q-3 20 12 35.5t35 15.5q39 0 39 -37q0 -35 -26.5 -60.5
t-63.5 -35.5z" />
    <glyph glyph-name="glyph280" unicode="&#x1b0;" horiz-adv-x="615" 
d="M555 480v-480h-167l6 101h-8q-32 -107 -157 -107q-178 0 -178 172v359h172v-313q0 -43 10 -61q14 -25 53 -25q38 0 66 18q31 22 31 58v323l172 -7q4 0 10 7.5t6 12.5q0 13 -13 16q-3 17 10.5 31.5t31.5 14.5q36 0 36 -34q0 -62 -81 -86z" />
    <glyph glyph-name="circumflex" unicode="&#x2c6;" horiz-adv-x="512" 
d="M254 756l183 -109l-25 -57l-158 62l-152 -62l-27 57z" />
    <glyph glyph-name="caron" unicode="&#x2c7;" horiz-adv-x="512" 
d="M254 590l-179 109l27 57l152 -62l158 62l25 -57z" />
    <glyph glyph-name="breve" unicode="&#x2d8;" horiz-adv-x="506" 
d="M75 733h94q15 -75 84 -75q70 0 84 75h94q-8 -71 -57 -115.5t-121 -44.5q-69 0 -119.5 45.5t-58.5 114.5z" />
    <glyph glyph-name="dotaccent" unicode="&#x2d9;" horiz-adv-x="259" 
d="M184 712v-103h-109v103h109z" />
    <glyph glyph-name="ring" unicode="&#x2da;" horiz-adv-x="345" 
d="M75 664q0 40 28.5 68.5t69.5 28.5q40 0 68.5 -28.5t28.5 -68.5t-28.5 -69t-68.5 -29t-69 29t-29 69zM127 664q0 -19 13 -32.5t32 -13.5q18 0 32 13.5t14 32.5q0 18 -14 31.5t-32 13.5q-19 0 -32 -13t-13 -32z" />
    <glyph glyph-name="ogonek" unicode="&#x2db;" horiz-adv-x="314" 
d="M147 0h91q-84 -50 -84 -84q0 -29 38 -29q18 0 45 9v-76q-23 -11 -56 -11q-44 0 -75 24t-31 68q0 62 72 99z" />
    <glyph glyph-name="tilde" unicode="&#x2dc;" horiz-adv-x="585" 
d="M428 733v0l82 -41q-49 -99 -123 -99q-44 0 -98.5 34t-71.5 34q-36 0 -60 -45l-82 44q55 96 130 96q39 0 93.5 -34.5t77.5 -34.5q30 0 52 46z" />
    <glyph glyph-name="hungarumlaut" unicode="&#x2dd;" horiz-adv-x="595" 
d="M219 802l82 -83l-180 -139l-46 47zM438 802l82 -83l-180 -139l-46 47z" />
    <glyph glyph-name="glyph281" unicode="&#x1ea0;" horiz-adv-x="733" 
d="M502 129h-269l-37 -129h-208l225 750h304l228 -750h-204zM462 275l-93 325h-2l-91 -325h186zM451 -40v-108h-158v108l76 10z" />
    <glyph glyph-name="glyph282" unicode="&#x1ea1;" horiz-adv-x="609" 
d="M288 217q-75 0 -75 -55q0 -57 75 -57q51 0 66 7q28 13 28 57q0 34 -33 43q-16 5 -61 5zM382 0l6 78h-6q-15 -84 -151 -84q-98 0 -140 32q-50 36 -50 131q0 92 51 131q44 34 139 34q57 0 83 -7q48 -13 60 -52h8v83q0 43 -11 58q-16 22 -67 22q-70 0 -70 -57h-172
q0 109 75 142q45 20 167 20q142 0 191 -34q59 -41 59 -169v-328h-172zM379 -59v-97h-142v97l68 9z" />
    <glyph glyph-name="glyph283" unicode="&#x1ea2;" horiz-adv-x="733" 
d="M502 129h-269l-37 -129h-208l225 750h304l228 -750h-204zM462 275l-93 325h-2l-91 -325h186zM401 840l-34 -30l-32 30v10q0 37 40 57l10 5q12 6 12 24q0 26 -29 26q-28 0 -28 -25v-16h-46v16q0 39 22 54q18 13 59 13q87 0 87 -66q0 -42 -48 -63q-13 -6 -13 -25v-10z" />
    <glyph glyph-name="glyph284" unicode="&#x1ea3;" horiz-adv-x="609" 
d="M288 217q-75 0 -75 -55q0 -57 75 -57q51 0 66 7q28 13 28 57q0 34 -33 43q-16 5 -61 5zM382 0l6 78h-6q-15 -84 -151 -84q-98 0 -140 32q-50 36 -50 131q0 92 51 131q44 34 139 34q57 0 83 -7q48 -13 60 -52h8v83q0 43 -11 58q-16 22 -67 22q-70 0 -70 -57h-172
q0 109 75 142q45 20 167 20q142 0 191 -34q59 -41 59 -169v-328h-172zM338 632l-34 -30l-32 30v10q0 37 40 57l10 5q12 6 12 24q0 26 -29 26q-28 0 -28 -25v-16h-46v16q0 39 22 54q18 13 59 13q87 0 87 -66q0 -42 -48 -63q-13 -6 -13 -25v-10z" />
    <glyph glyph-name="glyph285" unicode="&#x1ea4;" horiz-adv-x="733" 
d="M502 129h-269l-37 -129h-208l225 750h304l228 -750h-204zM462 275l-93 325h-2l-91 -325h186zM368 949l169 -128l-33 -41l-137 61l-141 -61l-35 41zM631 998h159l-196 -136h-67z" />
    <glyph glyph-name="glyph286" unicode="&#x1ea5;" horiz-adv-x="609" 
d="M288 217q-75 0 -75 -55q0 -57 75 -57q51 0 66 7q28 13 28 57q0 34 -33 43q-16 5 -61 5zM382 0l6 78h-6q-15 -84 -151 -84q-98 0 -140 32q-50 36 -50 131q0 92 51 131q44 34 139 34q57 0 83 -7q48 -13 60 -52h8v83q0 43 -11 58q-16 22 -67 22q-70 0 -70 -57h-172
q0 109 75 142q45 20 167 20q142 0 191 -34q59 -41 59 -169v-328h-172zM305 717l152 -115l-29 -37l-124 55l-126 -55l-32 37zM542 761h143l-176 -122h-61z" />
    <glyph glyph-name="glyph287" unicode="&#x1ea6;" horiz-adv-x="733" 
d="M502 129h-269l-37 -129h-208l225 750h304l228 -750h-204zM462 275l-93 325h-2l-91 -325h186zM368 949l169 -128l-33 -41l-137 61l-141 -61l-35 41zM201 861h-67l-196 136h159z" />
    <glyph glyph-name="glyph288" unicode="&#x1ea7;" horiz-adv-x="609" 
d="M288 217q-75 0 -75 -55q0 -57 75 -57q51 0 66 7q28 13 28 57q0 34 -33 43q-16 5 -61 5zM382 0l6 78h-6q-15 -84 -151 -84q-98 0 -140 32q-50 36 -50 131q0 92 51 131q44 34 139 34q57 0 83 -7q48 -13 60 -52h8v83q0 43 -11 58q-16 22 -67 22q-70 0 -70 -57h-172
q0 109 75 142q45 20 167 20q142 0 191 -34q59 -41 59 -169v-328h-172zM304 717l152 -115l-30 -37l-123 55l-127 -55l-31 37zM174 648h-61l-166 122h133z" />
    <glyph glyph-name="glyph289" unicode="&#x1ea8;" horiz-adv-x="733" 
d="M502 129h-269l-37 -129h-208l225 750h304l228 -750h-204zM462 275l-93 325h-2l-91 -325h186zM368 949l169 -128l-33 -41l-137 61l-141 -61l-35 41zM593 891l-34 -30l-32 30v10q0 37 40 57l10 5q12 6 12 24q0 26 -29 26q-28 0 -28 -25v-16h-46v16q0 39 22 54q18 13 59 13
q87 0 87 -66q0 -42 -48 -63q-13 -6 -13 -25v-10z" />
    <glyph glyph-name="glyph290" unicode="&#x1ea9;" horiz-adv-x="609" 
d="M288 217q-75 0 -75 -55q0 -57 75 -57q51 0 66 7q28 13 28 57q0 34 -33 43q-16 5 -61 5zM382 0l6 78h-6q-15 -84 -151 -84q-98 0 -140 32q-50 36 -50 131q0 92 51 131q44 34 139 34q57 0 83 -7q48 -13 60 -52h8v83q0 43 -11 58q-16 22 -67 22q-70 0 -70 -57h-172
q0 109 75 142q45 20 167 20q142 0 191 -34q59 -41 59 -169v-328h-172zM304 717l152 -115l-30 -37l-123 55l-127 -55l-32 37zM529 671l-34 -30l-32 30v10q0 37 40 57l10 5q12 6 12 24q0 26 -29 26q-28 0 -28 -25v-16h-46v16q0 39 22 54q18 13 59 13q87 0 87 -66
q0 -42 -48 -63q-13 -6 -13 -25v-10z" />
    <glyph glyph-name="glyph291" unicode="&#x1eaa;" horiz-adv-x="733" 
d="M502 129h-269l-37 -129h-208l225 750h304l228 -750h-204zM462 275l-93 325h-2l-91 -325h186zM368 949l169 -128l-33 -41l-137 61l-141 -61l-35 41zM494 1085l61 -19q-66 -87 -127 -93q-36 -3 -79 20q-35 27 -52 26q-32 -3 -61 -43l-61 22q73 85 133 90q33 3 73 -21
q38 -28 58 -26q27 2 55 44z" />
    <glyph glyph-name="glyph292" unicode="&#x1eab;" horiz-adv-x="609" 
d="M288 217q-75 0 -75 -55q0 -57 75 -57q51 0 66 7q28 13 28 57q0 34 -33 43q-16 5 -61 5zM382 0l6 78h-6q-15 -84 -151 -84q-98 0 -140 32q-50 36 -50 131q0 92 51 131q44 34 139 34q57 0 83 -7q48 -13 60 -52h8v83q0 43 -11 58q-16 22 -67 22q-70 0 -70 -57h-172
q0 109 75 142q45 20 167 20q142 0 191 -34q59 -41 59 -169v-328h-172zM305 717l152 -115l-30 -37l-123 55l-127 -55l-32 37zM418 839l55 -17q-59 -79 -114 -84q-33 -3 -71 18q-33 25 -47 24q-29 -2 -55 -39l-55 20q64 77 120 81q30 2 65 -19q34 -25 53 -24q22 2 49 40z" />
    <glyph glyph-name="glyph293" unicode="&#x1eac;" horiz-adv-x="733" 
d="M502 129h-269l-37 -129h-208l225 750h304l228 -750h-204zM462 275l-93 325h-2l-91 -325h186zM368 949l169 -128l-33 -41l-137 61l-141 -61l-35 41zM451 -40v-108h-158v108l76 10z" />
    <glyph glyph-name="glyph294" unicode="&#x1ead;" horiz-adv-x="609" 
d="M288 217q-75 0 -75 -55q0 -57 75 -57q51 0 66 7q28 13 28 57q0 34 -33 43q-16 5 -61 5zM382 0l6 78h-6q-15 -84 -151 -84q-98 0 -140 32q-50 36 -50 131q0 92 51 131q44 34 139 34q57 0 83 -7q48 -13 60 -52h8v83q0 43 -11 58q-16 22 -67 22q-70 0 -70 -57h-172
q0 109 75 142q45 20 167 20q142 0 191 -34q59 -41 59 -169v-328h-172zM304 717l152 -115l-30 -37l-123 55l-127 -55l-31 37zM379 -59v-97h-142v97l68 9z" />
    <glyph glyph-name="glyph295" unicode="&#x1eae;" horiz-adv-x="733" 
d="M502 129h-269l-37 -129h-208l225 750h304l228 -750h-204zM462 275l-93 325h-2l-91 -325h186zM166 900l109 15q12 -60 93 -60q38 0 56 12q22 13 29 48l109 -15q-7 -64 -65 -88q-41 -17 -129 -17q-189 0 -202 105zM437 1052h159l-196 -136h-67z" />
    <glyph glyph-name="glyph296" unicode="&#x1eaf;" horiz-adv-x="609" 
d="M288 217q-75 0 -75 -55q0 -57 75 -57q51 0 66 7q28 13 28 57q0 34 -33 43q-16 5 -61 5zM382 0l6 78h-6q-15 -84 -151 -84q-98 0 -140 32q-50 36 -50 131q0 92 51 131q44 34 139 34q57 0 83 -7q48 -13 60 -52h8v83q0 43 -11 58q-16 22 -67 22q-70 0 -70 -57h-172
q0 109 75 142q45 20 167 20q142 0 191 -34q59 -41 59 -169v-328h-172zM122 672l98 14q10 -54 84 -54q66 0 76 54l98 -14q-7 -60 -64 -81q-36 -13 -110 -13q-171 0 -182 94zM366 809h143l-177 -122h-60z" />
    <glyph glyph-name="glyph297" unicode="&#x1eb0;" horiz-adv-x="733" 
d="M502 129h-269l-37 -129h-208l225 750h304l228 -750h-204zM462 275l-93 325h-2l-91 -325h186zM166 900l109 15q12 -60 93 -60q38 0 56 12q22 13 29 48l109 -15q-7 -64 -65 -88q-41 -17 -129 -17q-189 0 -202 105zM403 916h-67l-196 136h159z" />
    <glyph glyph-name="glyph298" unicode="&#x1eb1;" horiz-adv-x="609" 
d="M288 217q-75 0 -75 -55q0 -57 75 -57q51 0 66 7q28 13 28 57q0 34 -33 43q-16 5 -61 5zM382 0l6 78h-6q-15 -84 -151 -84q-98 0 -140 32q-50 36 -50 131q0 92 51 131q44 34 139 34q57 0 83 -7q48 -13 60 -52h8v83q0 43 -11 58q-16 22 -67 22q-70 0 -70 -57h-172
q0 109 75 142q45 20 167 20q142 0 191 -34q59 -41 59 -169v-328h-172zM122 672l98 14q12 -54 84 -54q34 0 52 11.5t25 42.5l98 -14q-7 -60 -65 -81q-36 -13 -110 -13q-171 0 -182 94zM336 687h-61l-176 122h143z" />
    <glyph glyph-name="glyph299" unicode="&#x1eb2;" horiz-adv-x="733" 
d="M502 129h-269l-37 -129h-208l225 750h304l228 -750h-204zM462 275l-93 325h-2l-91 -325h186zM166 900l109 15q12 -60 93 -60q38 0 56 12q22 13 29 48l109 -15q-7 -64 -65 -88q-41 -17 -129 -17q-189 0 -202 105zM402 936l-34 -30l-32 30v10q0 37 40 57l10 5q12 6 12 24
q0 26 -29 26q-28 0 -28 -25v-16h-46v16q0 39 22 54q18 13 59 13q87 0 87 -66q0 -42 -48 -63q-13 -6 -13 -25v-10z" />
    <glyph glyph-name="glyph300" unicode="&#x1eb3;" horiz-adv-x="609" 
d="M288 217q-75 0 -75 -55q0 -57 75 -57q51 0 66 7q28 13 28 57q0 34 -33 43q-16 5 -61 5zM382 0l6 78h-6q-15 -84 -151 -84q-98 0 -140 32q-50 36 -50 131q0 92 51 131q44 34 139 34q57 0 83 -7q48 -13 60 -52h8v83q0 43 -11 58q-16 22 -67 22q-70 0 -70 -57h-172
q0 109 75 142q45 20 167 20q142 0 191 -34q59 -41 59 -169v-328h-172zM122 672l98 13q10 -53 84 -53q65 0 76 53l98 -13q-7 -60 -64 -81q-35 -13 -110 -13q-171 0 -182 94zM338 720l-34 -30l-32 30v10q0 37 40 57l10 5q12 6 12 24q0 26 -29 26q-28 0 -28 -25v-16h-46v16
q0 39 22 54q18 13 59 13q87 0 87 -66q0 -42 -48 -63q-13 -6 -13 -25v-10z" />
    <glyph glyph-name="glyph301" unicode="&#x1eb4;" horiz-adv-x="733" 
d="M502 129h-269l-37 -129h-208l225 750h304l228 -750h-204zM462 275l-93 325h-2l-91 -325h186zM166 900l109 15q12 -60 93 -60q38 0 56 12q22 13 29 48l109 -15q-7 -64 -65 -88q-41 -17 -129 -17q-189 0 -202 105zM652 1056l61 -19q-66 -87 -127 -93q-36 -3 -79 20
q-35 27 -52 26q-32 -3 -61 -43l-61 22q73 85 133 90q33 3 73 -21q38 -28 58 -26q27 2 55 44z" />
    <glyph glyph-name="glyph302" unicode="&#x1eb5;" horiz-adv-x="609" 
d="M288 217q-75 0 -75 -55q0 -57 75 -57q51 0 66 7q28 13 28 57q0 34 -33 43q-16 5 -61 5zM382 0l6 78h-6q-15 -84 -151 -84q-98 0 -140 32q-50 36 -50 131q0 92 51 131q44 34 139 34q57 0 83 -7q48 -13 60 -52h8v83q0 43 -11 58q-16 22 -67 22q-70 0 -70 -57h-172
q0 109 75 142q45 20 167 20q142 0 191 -34q59 -41 59 -169v-328h-172zM122 672l98 13q11 -54 84 -54q66 0 76 54l98 -13q-7 -61 -64 -82q-35 -13 -110 -13q-170 0 -182 95zM559 812l55 -17q-59 -79 -114 -84q-33 -3 -71 18q-33 25 -47 24q-29 -2 -55 -39l-55 20
q69 77 120 81q30 3 68 -20.5t50 -22.5q22 2 49 40z" />
    <glyph glyph-name="glyph303" unicode="&#x1eb6;" horiz-adv-x="733" 
d="M502 129h-269l-37 -129h-208l225 750h304l228 -750h-204zM462 275l-93 325h-2l-91 -325h186zM166 900l109 15q12 -60 93 -60q38 0 56 12q22 13 29 48l109 -15q-7 -64 -65 -88q-41 -17 -129 -17q-189 0 -202 105zM451 -40v-108h-158v108l76 10z" />
    <glyph glyph-name="glyph304" unicode="&#x1eb7;" horiz-adv-x="609" 
d="M288 217q-75 0 -75 -55q0 -57 75 -57q51 0 66 7q28 13 28 57q0 34 -33 43q-16 5 -61 5zM382 0l6 78h-6q-15 -84 -151 -84q-98 0 -140 32q-50 36 -50 131q0 92 51 131q44 34 139 34q57 0 83 -7q48 -13 60 -52h8v83q0 43 -11 58q-16 22 -67 22q-70 0 -70 -57h-172
q0 109 75 142q45 20 167 20q142 0 191 -34q59 -41 59 -169v-328h-172zM379 -59v-97h-142v97l68 9zM122 672l98 14q10 -54 84 -54q66 0 76 54l98 -14q-7 -60 -64 -81q-36 -13 -110 -13q-171 0 -182 94z" />
    <glyph glyph-name="glyph305" unicode="&#x1eb8;" horiz-adv-x="678" 
d="M264 586v-137h320v-139h-320v-146h348v-164h-548v750h541v-164h-341zM415 -60v-108h-158v108l76 10z" />
    <glyph glyph-name="glyph306" unicode="&#x1eb9;" horiz-adv-x="574" 
d="M202 328h169q0 54 -22 71q-16 12 -65 12q-48 0 -64.5 -17t-17.5 -66zM374 175h169q0 -84 -39 -125t-123 -51q-40 -5 -94 -5q-149 0 -205 60q-52 58 -52 208q0 155 50 210q54 59 207 59q152 0 204 -57.5t52 -211.5v-29h-341q0 -64 12 -86q17 -33 73 -33q45 0 63 10
q24 13 24 51zM363 -59v-97h-142v97l68 9z" />
    <glyph glyph-name="glyph307" unicode="&#x1eba;" horiz-adv-x="678" 
d="M264 586v-137h320v-139h-320v-146h348v-164h-548v750h541v-164h-341zM366 840l-34 -30l-32 30v10q0 37 40 57l10 5q12 6 12 24q0 26 -29 26q-28 0 -28 -25v-16h-46v16q0 39 22 54q18 13 59 13q87 0 87 -66q0 -42 -48 -63q-13 -6 -13 -25v-10z" />
    <glyph glyph-name="glyph308" unicode="&#x1ebb;" horiz-adv-x="574" 
d="M202 328h169q0 54 -22 71q-16 12 -65 12q-48 0 -64.5 -17t-17.5 -66zM374 175h169q0 -84 -39 -125t-123 -51q-40 -5 -94 -5q-149 0 -205 60q-52 58 -52 208q0 155 50 210q54 59 207 59q152 0 204 -57.5t52 -211.5v-29h-341q0 -64 12 -86q17 -33 73 -33q45 0 63 10
q24 13 24 51zM322 632l-34 -30l-32 30v10q0 37 40 57l10 5q12 6 12 24q0 26 -29 26q-28 0 -28 -25v-16h-46v16q0 39 22 54q18 13 59 13q87 0 87 -66q0 -42 -48 -63q-13 -6 -13 -25v-10z" />
    <glyph glyph-name="glyph309" unicode="&#x1ebc;" horiz-adv-x="678" 
d="M264 586v-137h320v-139h-320v-146h348v-164h-548v750h541v-164h-341zM458 935l61 -19q-66 -87 -127 -93q-36 -3 -79 20q-35 27 -52 26q-32 -3 -61 -43l-61 22q73 85 133 90q33 3 73 -21q38 -28 58 -26q27 2 55 44z" />
    <glyph glyph-name="glyph310" unicode="&#x1ebd;" horiz-adv-x="574" 
d="M202 328h169q0 54 -22 71q-16 12 -65 12q-48 0 -64.5 -17t-17.5 -66zM374 175h169q0 -84 -39 -125t-123 -51q-40 -5 -94 -5q-149 0 -205 60q-52 58 -52 208q0 155 50 210q54 59 207 59q152 0 204 -57.5t52 -211.5v-29h-341q0 -64 12 -86q17 -33 73 -33q45 0 63 10
q24 13 24 51zM402 716l55 -17q-59 -79 -114 -84q-33 -3 -71 18q-33 25 -47 24q-29 -2 -55 -39l-55 20q64 77 120 81q30 2 65 -19q34 -25 53 -24q22 2 49 40z" />
    <glyph glyph-name="glyph311" unicode="&#x1ebe;" horiz-adv-x="678" 
d="M264 586v-137h320v-139h-320v-146h348v-164h-548v750h541v-164h-341zM332 960l169 -128l-33 -41l-137 61l-141 -61l-35 41zM595 1009h159l-196 -136h-67z" />
    <glyph glyph-name="glyph312" unicode="&#x1ebf;" horiz-adv-x="574" 
d="M202 328h169q0 54 -22 71q-16 12 -65 12q-48 0 -64.5 -17t-17.5 -66zM374 175h169q0 -84 -39 -125t-123 -51q-40 -5 -94 -5q-149 0 -205 60q-52 58 -52 208q0 155 50 210q54 59 207 59q152 0 204 -57.5t52 -211.5v-29h-341q0 -64 12 -86q17 -33 73 -33q45 0 63 10
q24 13 24 51zM289 717l152 -115l-29 -37l-124 55l-126 -55l-32 37zM526 761h143l-176 -122h-61z" />
    <glyph glyph-name="glyph313" unicode="&#x1ec0;" horiz-adv-x="678" 
d="M264 586v-137h320v-139h-320v-146h348v-164h-548v750h541v-164h-341zM333 959l169 -128l-33 -41l-137 61l-141 -61l-35 41zM166 871h-67l-196 136h159z" />
    <glyph glyph-name="glyph314" unicode="&#x1ec1;" horiz-adv-x="574" 
d="M202 328h169q0 54 -22 71q-16 12 -65 12q-48 0 -64.5 -17t-17.5 -66zM374 175h169q0 -84 -39 -125t-123 -51q-40 -5 -94 -5q-149 0 -205 60q-52 58 -52 208q0 155 50 210q54 59 207 59q152 0 204 -57.5t52 -211.5v-29h-341q0 -64 12 -86q17 -33 73 -33q45 0 63 10
q24 13 24 51zM288 717l152 -115l-30 -37l-123 55l-127 -55l-31 37zM158 648h-61l-166 122h133z" />
    <glyph glyph-name="glyph315" unicode="&#x1ec2;" horiz-adv-x="678" 
d="M264 586v-137h320v-139h-320v-146h348v-164h-548v750h541v-164h-341zM332 959l169 -128l-33 -41l-137 61l-141 -61l-35 41zM557 901l-34 -30l-32 30v10q0 37 40 57l10 5q12 6 12 24q0 26 -29 26q-28 0 -28 -25v-16h-46v16q0 39 22 54q18 13 59 13q87 0 87 -66
q0 -42 -48 -63q-13 -6 -13 -25v-10z" />
    <glyph glyph-name="glyph316" unicode="&#x1ec3;" horiz-adv-x="574" 
d="M202 328h169q0 54 -22 71q-16 12 -65 12q-48 0 -64.5 -17t-17.5 -66zM374 175h169q0 -84 -39 -125t-123 -51q-40 -5 -94 -5q-149 0 -205 60q-52 58 -52 208q0 155 50 210q54 59 207 59q152 0 204 -57.5t52 -211.5v-29h-341q0 -64 12 -86q17 -33 73 -33q45 0 63 10
q24 13 24 51zM288 717l152 -115l-30 -37l-123 55l-127 -55l-32 37zM513 671l-34 -30l-32 30v10q0 37 40 57l10 5q12 6 12 24q0 26 -29 26q-28 0 -28 -25v-16h-46v16q0 39 22 54q18 13 59 13q87 0 87 -66q0 -42 -48 -63q-13 -6 -13 -25v-10z" />
    <glyph glyph-name="glyph317" unicode="&#x1ec4;" horiz-adv-x="678" 
d="M264 586v-137h320v-139h-320v-146h348v-164h-548v750h541v-164h-341zM332 959l169 -128l-33 -41l-137 61l-141 -61l-35 41zM458 1095l61 -19q-66 -87 -127 -93q-36 -3 -79 20q-35 27 -52 26q-32 -3 -61 -43l-61 22q73 85 133 90q33 3 73 -21q38 -28 58 -26q27 2 55 44z
" />
    <glyph glyph-name="glyph318" unicode="&#x1ec5;" horiz-adv-x="574" 
d="M202 328h169q0 54 -22 71q-16 12 -65 12q-48 0 -64.5 -17t-17.5 -66zM374 175h169q0 -84 -39 -125t-123 -51q-40 -5 -94 -5q-149 0 -205 60q-52 58 -52 208q0 155 50 210q54 59 207 59q152 0 204 -57.5t52 -211.5v-29h-341q0 -64 12 -86q17 -33 73 -33q45 0 63 10
q24 13 24 51zM289 717l152 -115l-30 -37l-123 55l-127 -55l-32 37zM402 839l55 -17q-59 -79 -114 -84q-33 -3 -71 18q-33 25 -47 24q-29 -2 -55 -39l-55 20q64 77 120 81q30 2 65 -19q34 -25 53 -24q22 2 49 40z" />
    <glyph glyph-name="glyph319" unicode="&#x1ec6;" horiz-adv-x="678" 
d="M264 586v-137h320v-139h-320v-146h348v-164h-548v750h541v-164h-341zM332 960l169 -128l-33 -41l-137 61l-141 -61l-35 41zM415 -60v-108h-158v108l76 10z" />
    <glyph glyph-name="glyph320" unicode="&#x1ec7;" horiz-adv-x="574" 
d="M202 328h169q0 54 -22 71q-16 12 -65 12q-48 0 -64.5 -17t-17.5 -66zM374 175h169q0 -84 -39 -125t-123 -51q-40 -5 -94 -5q-149 0 -205 60q-52 58 -52 208q0 155 50 210q54 59 207 59q152 0 204 -57.5t52 -211.5v-29h-341q0 -64 12 -86q17 -33 73 -33q45 0 63 10
q24 13 24 51zM288 717l152 -115l-30 -37l-123 55l-127 -55l-31 37zM363 -59v-97h-142v97l68 9z" />
    <glyph glyph-name="glyph321" unicode="&#x1ec8;" horiz-adv-x="324" 
d="M262 750v-750h-200v750h200zM196 840l-34 -30l-32 30v10q0 37 40 57l10 5q12 6 12 24q0 26 -29 26q-28 0 -28 -25v-16h-46v16q0 39 22 54q18 13 59 13q87 0 87 -66q0 -42 -48 -63q-13 -6 -13 -25v-10z" />
    <glyph glyph-name="glyph322" unicode="&#x1ec9;" horiz-adv-x="257" 
d="M215 525v-525h-172v525h172zM163 622l-34 -30l-32 30v10q0 37 40 57l10 5q12 6 12 24q0 26 -29 26q-28 0 -28 -25v-16h-46v16q0 39 22 54q18 13 59 13q87 0 87 -66q0 -42 -48 -63q-13 -6 -13 -25v-10z" />
    <glyph glyph-name="glyph323" unicode="&#x1eca;" horiz-adv-x="324" 
d="M262 750v-750h-200v750h200zM244 -59v-108h-158v108l76 10z" />
    <glyph glyph-name="glyph324" unicode="&#x1ecb;" horiz-adv-x="257" 
d="M215 525v-525h-172v525h172zM206 718v-118h-154v118h154zM203 -57v-97h-142v97l68 9z" />
    <glyph glyph-name="glyph325" unicode="&#x1ecc;" horiz-adv-x="760" 
d="M380 -6q-170 0 -249 51q-98 63 -98 224v212q0 161 98 224q79 51 249 51t249 -51q98 -63 98 -224v-212q0 -161 -98 -224q-79 -51 -249 -51zM380 168q83 0 110 20q31 23 31 103v169q0 80 -31 103q-25 19 -110 19q-84 0 -109 -19q-32 -24 -32 -103v-169q0 -80 32 -104
q25 -19 109 -19zM461 -65v-108h-158v108l76 10z" />
    <glyph glyph-name="glyph326" unicode="&#x1ecd;" horiz-adv-x="593" 
d="M296 531q163 0 213 -52.5t50 -216.5q0 -161 -51.5 -214.5t-211.5 -53.5q-158 0 -210 54.5t-52 213.5q0 162 51 215.5t211 53.5zM299 399q-68 0 -85 -39q-8 -19 -8 -98q0 -78 8 -97q17 -39 85 -39q64 0 80 38q8 19 8 98t-8 99q-16 38 -80 38zM371 -59v-97h-142v97l68 9z
" />
    <glyph glyph-name="glyph327" unicode="&#x1ece;" horiz-adv-x="760" 
d="M380 -6q-170 0 -249 51q-98 63 -98 224v212q0 161 98 224q79 51 249 51t249 -51q98 -63 98 -224v-212q0 -161 -98 -224q-79 -51 -249 -51zM380 168q83 0 110 20q31 23 31 103v169q0 80 -31 103q-25 19 -110 19q-84 0 -109 -19q-32 -24 -32 -103v-169q0 -80 32 -104
q25 -19 109 -19zM414 845l-34 -30l-32 30v10q0 37 40 57l10 5q12 6 12 24q0 26 -29 26q-28 0 -28 -25v-16h-46v16q0 39 22 54q18 13 59 13q87 0 87 -66q0 -42 -48 -63q-13 -6 -13 -25v-10z" />
    <glyph glyph-name="glyph328" unicode="&#x1ecf;" horiz-adv-x="593" 
d="M296 531q163 0 213 -52.5t50 -216.5q0 -161 -51.5 -214.5t-211.5 -53.5q-158 0 -210 54.5t-52 213.5q0 162 51 215.5t211 53.5zM299 399q-68 0 -85 -39q-8 -19 -8 -98q0 -78 8 -97q17 -39 85 -39q64 0 80 38q8 19 8 98t-8 99q-16 38 -80 38zM330 632l-34 -30l-32 30v10
q0 37 40 57l10 5q12 6 12 24q0 26 -29 26q-28 0 -28 -25v-16h-46v16q0 39 22 54q18 13 59 13q87 0 87 -66q0 -42 -48 -63q-13 -6 -13 -25v-10z" />
    <glyph glyph-name="glyph329" unicode="&#x1ed0;" horiz-adv-x="760" 
d="M380 -6q-170 0 -249 51q-98 63 -98 224v212q0 161 98 224q79 51 249 51t249 -51q98 -63 98 -224v-212q0 -161 -98 -224q-79 -51 -249 -51zM380 168q83 0 110 20q31 23 31 103v169q0 80 -31 103q-25 19 -110 19q-84 0 -109 -19q-32 -24 -32 -103v-169q0 -80 32 -104
q25 -19 109 -19zM381 960l169 -128l-33 -41l-137 61l-141 -61l-35 41zM644 1009h159l-196 -136h-67z" />
    <glyph glyph-name="glyph330" unicode="&#x1ed1;" horiz-adv-x="593" 
d="M296 531q163 0 213 -52.5t50 -216.5q0 -161 -51.5 -214.5t-211.5 -53.5q-158 0 -210 54.5t-52 213.5q0 162 51 215.5t211 53.5zM299 399q-68 0 -85 -39q-8 -19 -8 -98q0 -78 8 -97q17 -39 85 -39q64 0 80 38q8 19 8 98t-8 99q-16 38 -80 38zM297 717l152 -115l-29 -37
l-124 55l-126 -55l-32 37zM534 761h143l-176 -122h-61z" />
    <glyph glyph-name="glyph331" unicode="&#x1ed2;" horiz-adv-x="760" 
d="M380 -6q-170 0 -249 51q-98 63 -98 224v212q0 161 98 224q79 51 249 51t249 -51q98 -63 98 -224v-212q0 -161 -98 -224q-79 -51 -249 -51zM380 168q83 0 110 20q31 23 31 103v169q0 80 -31 103q-25 19 -110 19q-84 0 -109 -19q-32 -24 -32 -103v-169q0 -80 32 -104
q25 -19 109 -19zM380 959l169 -128l-33 -41l-137 61l-141 -61l-35 41zM213 871h-67l-196 136h159z" />
    <glyph glyph-name="glyph332" unicode="&#x1ed3;" horiz-adv-x="593" 
d="M296 531q163 0 213 -52.5t50 -216.5q0 -161 -51.5 -214.5t-211.5 -53.5q-158 0 -210 54.5t-52 213.5q0 162 51 215.5t211 53.5zM299 399q-68 0 -85 -39q-8 -19 -8 -98q0 -78 8 -97q17 -39 85 -39q64 0 80 38q8 19 8 98t-8 99q-16 38 -80 38zM297 716l152 -115l-30 -37
l-123 55l-127 -55l-31 37zM167 647h-61l-166 122h133z" />
    <glyph glyph-name="glyph333" unicode="&#x1ed4;" horiz-adv-x="760" 
d="M380 -6q-170 0 -249 51q-98 63 -98 224v212q0 161 98 224q79 51 249 51t249 -51q98 -63 98 -224v-212q0 -161 -98 -224q-79 -51 -249 -51zM380 168q83 0 110 20q31 23 31 103v169q0 80 -31 103q-25 19 -110 19q-84 0 -109 -19q-32 -24 -32 -103v-169q0 -80 32 -104
q25 -19 109 -19zM379 959l169 -128l-33 -41l-137 61l-141 -61l-35 41zM604 901l-34 -30l-32 30v10q0 37 40 57l10 5q12 6 12 24q0 26 -29 26q-28 0 -28 -25v-16h-46v16q0 39 22 54q18 13 59 13q87 0 87 -66q0 -42 -48 -63q-13 -6 -13 -25v-10z" />
    <glyph glyph-name="glyph334" unicode="&#x1ed5;" horiz-adv-x="593" 
d="M296 531q163 0 213 -52.5t50 -216.5q0 -161 -51.5 -214.5t-211.5 -53.5q-158 0 -210 54.5t-52 213.5q0 162 51 215.5t211 53.5zM299 399q-68 0 -85 -39q-8 -19 -8 -98q0 -78 8 -97q17 -39 85 -39q64 0 80 38q8 19 8 98t-8 99q-16 38 -80 38zM296 717l152 -115l-30 -37
l-123 55l-127 -55l-32 37zM521 671l-34 -30l-32 30v10q0 37 40 57l10 5q12 6 12 24q0 26 -29 26q-28 0 -28 -25v-16h-46v16q0 39 22 54q18 13 59 13q87 0 87 -66q0 -42 -48 -63q-13 -6 -13 -25v-10z" />
    <glyph glyph-name="glyph335" unicode="&#x1ed6;" horiz-adv-x="760" 
d="M380 -6q-170 0 -249 51q-98 63 -98 224v212q0 161 98 224q79 51 249 51t249 -51q98 -63 98 -224v-212q0 -161 -98 -224q-79 -51 -249 -51zM380 168q83 0 110 20q31 23 31 103v169q0 80 -31 103q-25 19 -110 19q-84 0 -109 -19q-32 -24 -32 -103v-169q0 -80 32 -104
q25 -19 109 -19zM380 960l169 -128l-33 -41l-137 61l-141 -61l-35 41zM506 1096l61 -19q-66 -87 -127 -93q-36 -3 -79 20q-35 27 -52 26q-32 -3 -61 -43l-61 22q73 85 133 90q33 3 73 -21q38 -28 58 -26q27 2 55 44z" />
    <glyph glyph-name="glyph336" unicode="&#x1ed7;" horiz-adv-x="593" 
d="M296 531q163 0 213 -52.5t50 -216.5q0 -161 -51.5 -214.5t-211.5 -53.5q-158 0 -210 54.5t-52 213.5q0 162 51 215.5t211 53.5zM299 399q-68 0 -85 -39q-8 -19 -8 -98q0 -78 8 -97q17 -39 85 -39q64 0 80 38q8 19 8 98t-8 99q-16 38 -80 38zM297 717l152 -115l-30 -37
l-123 55l-127 -55l-32 37zM410 839l55 -17q-59 -79 -114 -84q-33 -3 -71 18q-33 25 -47 24q-29 -2 -55 -39l-55 20q64 77 120 81q30 2 65 -19q34 -25 53 -24q22 2 49 40z" />
    <glyph glyph-name="glyph337" unicode="&#x1ed8;" horiz-adv-x="760" 
d="M380 -6q-170 0 -249 51q-98 63 -98 224v212q0 161 98 224q79 51 249 51t249 -51q98 -63 98 -224v-212q0 -161 -98 -224q-79 -51 -249 -51zM380 168q83 0 110 20q31 23 31 103v169q0 80 -31 103q-25 19 -110 19q-84 0 -109 -19q-32 -24 -32 -103v-169q0 -80 32 -104
q25 -19 109 -19zM381 960l169 -128l-33 -41l-137 61l-141 -61l-35 41zM461 -65v-108h-158v108l76 10z" />
    <glyph glyph-name="glyph338" unicode="&#x1ed9;" horiz-adv-x="593" 
d="M296 531q163 0 213 -52.5t50 -216.5q0 -161 -51.5 -214.5t-211.5 -53.5q-158 0 -210 54.5t-52 213.5q0 162 51 215.5t211 53.5zM299 399q-68 0 -85 -39q-8 -19 -8 -98q0 -78 8 -97q17 -39 85 -39q64 0 80 38q8 19 8 98t-8 99q-16 38 -80 38zM297 716l152 -115l-30 -37
l-123 55l-127 -55l-31 37zM371 -59v-97h-142v97l68 9z" />
    <glyph glyph-name="glyph339" unicode="&#x1eda;" horiz-adv-x="760" 
d="M380 166q83 0 110 20q31 23 31 103v169q0 80 -31 103q-25 19 -110 19q-84 0 -109 -19q-32 -24 -32 -103v-169q0 -80 32 -104q25 -19 109 -19zM604 717q59 8 59 35q0 13 -14 17q-3 20 12 35.5t35 15.5q39 0 39 -37q0 -71 -89 -92q81 -65 81 -212v-212q0 -161 -98 -224
q-79 -51 -249 -51t-249 51q-98 63 -98 224v212q0 161 98 224q79 51 249 51q149 0 224 -37zM449 961h159l-196 -136h-67z" />
    <glyph glyph-name="glyph340" unicode="&#x1edb;" horiz-adv-x="593" 
d="M299 399q-68 0 -85 -39q-8 -19 -8 -98q0 -78 8 -97q17 -39 85 -39q64 0 80 38q8 19 8 98t-8 99q-16 38 -80 38zM437 518h68q5 0 10.5 7.5t5.5 12.5q0 13 -13 16q-3 17 10.5 31.5t31.5 14.5q36 0 36 -34q0 -59 -78 -85q51 -50 51 -219q0 -161 -51.5 -214.5t-211.5 -53.5
q-158 0 -210 54.5t-52 213.5q0 162 51 215.5t211 53.5q94 0 141 -13zM359 734h143l-176 -122h-61z" />
    <glyph glyph-name="glyph341" unicode="&#x1edc;" horiz-adv-x="760" 
d="M380 166q83 0 110 20q31 23 31 103v169q0 80 -31 103q-25 19 -110 19q-84 0 -109 -19q-32 -24 -32 -103v-169q0 -80 32 -104q25 -19 109 -19zM604 717q59 8 59 35q0 13 -14 17q-3 20 12 35.5t35 15.5q39 0 39 -37q0 -71 -89 -92q81 -65 81 -212v-212q0 -161 -98 -224
q-79 -51 -249 -51t-249 51q-98 63 -98 224v212q0 161 98 224q79 51 249 51q149 0 224 -37zM415 825h-67l-196 136h159z" />
    <glyph glyph-name="glyph342" unicode="&#x1edd;" horiz-adv-x="593" 
d="M299 399q-68 0 -85 -39q-8 -19 -8 -98q0 -78 8 -97q17 -39 85 -39q64 0 80 38q8 19 8 98t-8 99q-16 38 -80 38zM437 518h68q5 0 10.5 7.5t5.5 12.5q0 13 -13 16q-3 17 10.5 31.5t31.5 14.5q36 0 36 -34q0 -59 -78 -85q51 -50 51 -219q0 -161 -51.5 -214.5t-211.5 -53.5
q-158 0 -210 54.5t-52 213.5q0 162 51 215.5t211 53.5q94 0 141 -13zM328 612h-61l-166 122h133z" />
    <glyph glyph-name="glyph343" unicode="&#x1ede;" horiz-adv-x="760" 
d="M380 166q83 0 110 20q31 23 31 103v169q0 80 -31 103q-25 19 -110 19q-84 0 -109 -19q-32 -24 -32 -103v-169q0 -80 32 -104q25 -19 109 -19zM604 717q59 8 59 35q0 13 -14 17q-3 20 12 35.5t35 15.5q39 0 39 -37q0 -71 -89 -92q81 -65 81 -212v-212q0 -161 -98 -224
q-79 -51 -249 -51t-249 51q-98 63 -98 224v212q0 161 98 224q79 51 249 51q149 0 224 -37zM414 845l-34 -30l-32 30v10q0 37 40 57l10 5q12 6 12 24q0 26 -29 26q-28 0 -28 -25v-16h-46v16q0 39 22 54q18 13 59 13q87 0 87 -66q0 -42 -48 -63q-13 -6 -13 -25v-10z" />
    <glyph glyph-name="glyph344" unicode="&#x1edf;" horiz-adv-x="593" 
d="M299 399q-68 0 -85 -39q-8 -19 -8 -98q0 -78 8 -97q17 -39 85 -39q64 0 80 38q8 19 8 98t-8 99q-16 38 -80 38zM437 518h68q5 0 10.5 7.5t5.5 12.5q0 13 -13 16q-3 17 10.5 31.5t31.5 14.5q36 0 36 -34q0 -59 -78 -85q51 -50 51 -219q0 -161 -51.5 -214.5t-211.5 -53.5
q-158 0 -210 54.5t-52 213.5q0 162 51 215.5t211 53.5q94 0 141 -13zM330 632l-34 -30l-32 30v10q0 37 40 57l10 5q12 6 12 24q0 26 -29 26q-28 0 -28 -25v-16h-46v16q0 39 22 54q18 13 59 13q87 0 87 -66q0 -42 -48 -63q-13 -6 -13 -25v-10z" />
    <glyph glyph-name="glyph345" unicode="&#x1ee0;" horiz-adv-x="760" 
d="M380 166q83 0 110 20q31 23 31 103v169q0 80 -31 103q-25 19 -110 19q-84 0 -109 -19q-32 -24 -32 -103v-169q0 -80 32 -104q25 -19 109 -19zM604 717q59 8 59 35q0 13 -14 17q-3 20 12 35.5t35 15.5q39 0 39 -37q0 -71 -89 -92q81 -65 81 -212v-212q0 -161 -98 -224
q-79 -51 -249 -51t-249 51q-98 63 -98 224v212q0 161 98 224q79 51 249 51q149 0 224 -37zM506 935l61 -19q-66 -87 -127 -93q-36 -3 -79 20q-35 27 -52 26q-32 -3 -61 -43l-61 22q73 85 133 90q33 3 73 -21q38 -28 58 -26q27 2 55 44z" />
    <glyph glyph-name="glyph346" unicode="&#x1ee1;" horiz-adv-x="593" 
d="M299 399q-68 0 -85 -39q-8 -19 -8 -98q0 -78 8 -97q17 -39 85 -39q64 0 80 38q8 19 8 98t-8 99q-16 38 -80 38zM437 518h68q5 0 10.5 7.5t5.5 12.5q0 13 -13 16q-3 17 10.5 31.5t31.5 14.5q36 0 36 -34q0 -59 -78 -85q51 -50 51 -219q0 -161 -51.5 -214.5t-211.5 -53.5
q-158 0 -210 54.5t-52 213.5q0 162 51 215.5t211 53.5q94 0 141 -13zM410 716l55 -17q-59 -79 -114 -84q-33 -3 -71 18q-33 25 -47 24q-29 -2 -55 -39l-55 20q64 77 120 81q30 2 65 -19q34 -25 53 -24q22 2 49 40z" />
    <glyph glyph-name="glyph347" unicode="&#x1ee2;" horiz-adv-x="760" 
d="M380 166q83 0 110 20q31 23 31 103v169q0 80 -31 103q-25 19 -110 19q-84 0 -109 -19q-32 -24 -32 -103v-169q0 -80 32 -104q25 -19 109 -19zM604 717q59 8 59 35q0 13 -14 17q-3 20 12 35.5t35 15.5q39 0 39 -37q0 -71 -89 -92q81 -65 81 -212v-212q0 -161 -98 -224
q-79 -51 -249 -51t-249 51q-98 63 -98 224v212q0 161 98 224q79 51 249 51q149 0 224 -37zM461 -65v-108h-158v108l76 10z" />
    <glyph glyph-name="glyph348" unicode="&#x1ee3;" horiz-adv-x="593" 
d="M299 399q-68 0 -85 -39q-8 -19 -8 -98q0 -78 8 -97q17 -39 85 -39q64 0 80 38q8 19 8 98t-8 99q-16 38 -80 38zM437 518h68q5 0 10.5 7.5t5.5 12.5q0 13 -13 16q-3 17 10.5 31.5t31.5 14.5q36 0 36 -34q0 -59 -78 -85q51 -50 51 -219q0 -161 -51.5 -214.5t-211.5 -53.5
q-158 0 -210 54.5t-52 213.5q0 162 51 215.5t211 53.5q94 0 141 -13zM371 -59v-97h-142v97l68 9z" />
    <glyph glyph-name="glyph349" unicode="&#x1ee4;" horiz-adv-x="771" 
d="M509 750h200v-500q0 -152 -84 -210q-68 -46 -230 -46q-117 0 -176 14q-107 24 -137 96q-19 45 -19 146v500h200v-496q0 -58 35 -75q23 -11 97 -11q68 0 89 15q25 18 25 80v487zM478 -65v-108h-158v108l76 10z" />
    <glyph glyph-name="glyph350" unicode="&#x1ee5;" horiz-adv-x="615" 
d="M555 0h-167l6 101h-8q-32 -107 -157 -107q-178 0 -178 172v359h172v-313q0 -43 10 -61q14 -25 53 -25q38 0 66 18q31 22 31 58v323h172v-525zM371 -59v-97h-142v97l68 9z" />
    <glyph glyph-name="glyph351" unicode="&#x1ee6;" horiz-adv-x="771" 
d="M509 750h200v-500q0 -152 -84 -210q-68 -46 -230 -46q-117 0 -176 14q-107 24 -137 96q-19 45 -19 146v500h200v-496q0 -58 35 -75q23 -11 97 -11q68 0 89 15q25 18 25 80v487zM421 820l-34 -30l-32 30v10q0 37 40 57l10 5q12 6 12 24q0 26 -29 26q-28 0 -28 -25v-16h-46
v16q0 39 22 54q18 13 59 13q87 0 87 -66q0 -42 -48 -63q-13 -6 -13 -25v-10z" />
    <glyph glyph-name="glyph352" unicode="&#x1ee7;" horiz-adv-x="615" 
d="M555 0h-167l6 101h-8q-32 -107 -157 -107q-178 0 -178 172v359h172v-313q0 -43 10 -61q14 -25 53 -25q38 0 66 18q31 22 31 58v323h172v-525zM330 598l-34 -30l-32 30v10q0 37 40 57l10 5q12 6 12 24q0 26 -29 26q-28 0 -28 -25v-16h-46v16q0 39 22 54q18 13 59 13
q87 0 87 -66q0 -42 -48 -63q-13 -6 -13 -25v-10z" />
    <glyph glyph-name="glyph353" unicode="&#x1ee8;" horiz-adv-x="771" 
d="M709 687v-437q0 -152 -84 -210q-68 -46 -230 -46q-117 0 -176 14q-107 24 -137 96q-19 45 -19 146v500h200v-496q0 -58 35 -75q23 -11 97 -11q68 0 89 15q25 18 25 80v487l155 -10l45 -13q18 9 18 25q0 13 -14 17q-3 20 12 35.5t35 15.5q39 0 39 -37q0 -35 -26.5 -60.5
t-63.5 -35.5zM456 936h159l-196 -136h-67z" />
    <glyph glyph-name="glyph354" unicode="&#x1ee9;" horiz-adv-x="615" 
d="M555 480v-480h-167l6 101h-8q-32 -107 -157 -107q-178 0 -178 172v359h172v-313q0 -43 10 -61q14 -25 53 -25q38 0 66 18q31 22 31 58v323l172 -7q4 0 10 7.5t6 12.5q0 13 -13 16q-3 17 10.5 31.5t31.5 14.5q36 0 36 -34q0 -62 -81 -86zM359 700h143l-176 -122h-61z" />
    <glyph glyph-name="glyph355" unicode="&#x1eea;" horiz-adv-x="771" 
d="M709 687v-437q0 -152 -84 -210q-68 -46 -230 -46q-117 0 -176 14q-107 24 -137 96q-19 45 -19 146v500h200v-496q0 -58 35 -75q23 -11 97 -11q68 0 89 15q25 18 25 80v487l155 -10l45 -13q18 9 18 25q0 13 -14 17q-3 20 12 35.5t35 15.5q39 0 39 -37q0 -35 -26.5 -60.5
t-63.5 -35.5zM424 800h-67l-196 136h159z" />
    <glyph glyph-name="glyph356" unicode="&#x1eeb;" horiz-adv-x="615" 
d="M555 480v-480h-167l6 101h-8q-32 -107 -157 -107q-178 0 -178 172v359h172v-313q0 -43 10 -61q14 -25 53 -25q38 0 66 18q31 22 31 58v323l172 -7q4 0 10 7.5t6 12.5q0 13 -13 16q-3 17 10.5 31.5t31.5 14.5q36 0 36 -34q0 -62 -81 -86zM336 578h-61l-166 122h133z" />
    <glyph glyph-name="glyph357" unicode="&#x1eec;" horiz-adv-x="771" 
d="M709 687v-437q0 -152 -84 -210q-68 -46 -230 -46q-117 0 -176 14q-107 24 -137 96q-19 45 -19 146v500h200v-496q0 -58 35 -75q23 -11 97 -11q68 0 89 15q25 18 25 80v487l155 -10l45 -13q18 9 18 25q0 13 -14 17q-3 20 12 35.5t35 15.5q39 0 39 -37q0 -35 -26.5 -60.5
t-63.5 -35.5zM421 820l-34 -30l-32 30v10q0 37 40 57l10 5q12 6 12 24q0 26 -29 26q-28 0 -28 -25v-16h-46v16q0 39 22 54q18 13 59 13q87 0 87 -66q0 -42 -48 -63q-13 -6 -13 -25v-10z" />
    <glyph glyph-name="glyph358" unicode="&#x1eed;" horiz-adv-x="615" 
d="M555 480v-480h-167l6 101h-8q-32 -107 -157 -107q-178 0 -178 172v359h172v-313q0 -43 10 -61q14 -25 53 -25q38 0 66 18q31 22 31 58v323l172 -7q4 0 10 7.5t6 12.5q0 13 -13 16q-3 17 10.5 31.5t31.5 14.5q36 0 36 -34q0 -62 -81 -86zM330 598l-34 -30l-32 30v10
q0 37 40 57l10 5q12 6 12 24q0 26 -29 26q-28 0 -28 -25v-16h-46v16q0 39 22 54q18 13 59 13q87 0 87 -66q0 -42 -48 -63q-13 -6 -13 -25v-10z" />
    <glyph glyph-name="glyph359" unicode="&#x1eee;" horiz-adv-x="771" 
d="M709 687v-437q0 -152 -84 -210q-68 -46 -230 -46q-117 0 -176 14q-107 24 -137 96q-19 45 -19 146v500h200v-496q0 -58 35 -75q23 -11 97 -11q68 0 89 15q25 18 25 80v487l155 -10l45 -13q18 9 18 25q0 13 -14 17q-3 20 12 35.5t35 15.5q39 0 39 -37q0 -35 -26.5 -60.5
t-63.5 -35.5zM513 910l61 -19q-66 -87 -127 -93q-36 -3 -79 20q-35 27 -52 26q-32 -3 -61 -43l-61 22q73 85 133 90q33 3 73 -21q38 -28 58 -26q27 2 55 44z" />
    <glyph glyph-name="glyph360" unicode="&#x1eef;" horiz-adv-x="615" 
d="M555 480v-480h-167l6 101h-8q-32 -107 -157 -107q-178 0 -178 172v359h172v-313q0 -43 10 -61q14 -25 53 -25q38 0 66 18q31 22 31 58v323l172 -7q4 0 10 7.5t6 12.5q0 13 -13 16q-3 17 10.5 31.5t31.5 14.5q36 0 36 -34q0 -62 -81 -86zM418 687l55 -17q-59 -79 -114 -84
q-33 -3 -71 18q-33 25 -47 24q-29 -2 -55 -39l-55 20q64 77 120 81q30 2 65 -19q34 -25 53 -24q22 2 49 40z" />
    <glyph glyph-name="glyph361" unicode="&#x1ef0;" horiz-adv-x="771" 
d="M709 687v-437q0 -152 -84 -210q-68 -46 -230 -46q-117 0 -176 14q-107 24 -137 96q-19 45 -19 146v500h200v-496q0 -58 35 -75q23 -11 97 -11q68 0 89 15q25 18 25 80v487l155 -10l45 -13q18 9 18 25q0 13 -14 17q-3 20 12 35.5t35 15.5q39 0 39 -37q0 -35 -26.5 -60.5
t-63.5 -35.5zM478 -65v-108h-158v108l76 10z" />
    <glyph glyph-name="glyph362" unicode="&#x1ef1;" horiz-adv-x="615" 
d="M555 480v-480h-167l6 101h-8q-32 -107 -157 -107q-178 0 -178 172v359h172v-313q0 -43 10 -61q14 -25 53 -25q38 0 66 18q31 22 31 58v323l172 -7q4 0 10 7.5t6 12.5q0 13 -13 16q-3 17 10.5 31.5t31.5 14.5q36 0 36 -34q0 -62 -81 -86zM371 -59v-97h-142v97l68 9z" />
    <glyph glyph-name="glyph363" unicode="&#x1ef2;" horiz-adv-x="708" 
d="M724 750l-274 -487v-263h-200v263l-266 487h229l134 -289h7l138 289h232zM387 790h-67l-196 136h159z" />
    <glyph glyph-name="glyph364" unicode="&#x1ef3;" horiz-adv-x="533" 
d="M540 525l-132 -571q-24 -105 -72 -146t-154 -41q-8 0 -59 3v119q20 -2 30 -2q84 0 90 113h-94l-156 525h180l104 -427h2l85 427h176zM300 568h-61l-166 122h133z" />
    <glyph glyph-name="glyph365" unicode="&#x1ef4;" horiz-adv-x="708" 
d="M724 750l-274 -487v-263h-200v263l-266 487h229l134 -289h7l138 289h232zM430 -60v-108h-158v108l76 10z" />
    <glyph glyph-name="glyph366" unicode="&#x1ef5;" horiz-adv-x="533" 
d="M540 525l-132 -571q-24 -105 -72 -146t-154 -41q-8 0 -59 3v119q20 -2 30 -2q84 0 90 113h-94l-156 525h180l104 -427h2l85 427h176zM590 -46v-97h-142v97l68 9z" />
    <glyph glyph-name="glyph367" unicode="&#x1ef6;" horiz-adv-x="708" 
d="M724 750l-274 -487v-263h-200v263l-266 487h229l134 -289h7l138 289h232zM386 811l-34 -30l-32 30v10q0 37 40 57l10 5q12 6 12 24q0 26 -29 26q-28 0 -28 -25v-16h-46v16q0 39 22 54q18 13 59 13q87 0 87 -66q0 -42 -48 -63q-13 -6 -13 -25v-10z" />
    <glyph glyph-name="glyph368" unicode="&#x1ef7;" horiz-adv-x="533" 
d="M540 525l-132 -571q-24 -105 -72 -146t-154 -41q-8 0 -59 3v119q20 -2 30 -2q84 0 90 113h-94l-156 525h180l104 -427h2l85 427h176zM302 588l-34 -30l-32 30v10q0 37 40 57l10 5q12 6 12 24q0 26 -29 26q-28 0 -28 -25v-16h-46v16q0 39 22 54q18 13 59 13q87 0 87 -66
q0 -42 -48 -63q-13 -6 -13 -25v-10z" />
    <glyph glyph-name="glyph369" unicode="&#x1ef8;" horiz-adv-x="708" 
d="M724 750l-274 -487v-263h-200v263l-266 487h229l134 -289h7l138 289h232zM478 909l61 -19q-66 -87 -127 -93q-36 -3 -79 20q-35 27 -52 26q-32 -3 -61 -43l-61 22q73 85 133 90q33 3 73 -21q38 -28 58 -26q27 2 55 44z" />
    <glyph glyph-name="glyph370" unicode="&#x1ef9;" horiz-adv-x="533" 
d="M540 525l-132 -571q-24 -105 -72 -146t-154 -41q-8 0 -59 3v119q20 -2 30 -2q84 0 90 113h-94l-156 525h180l104 -427h2l85 427h176zM382 677l55 -17q-59 -79 -114 -84q-33 -3 -71 18q-33 25 -47 24q-29 -2 -55 -39l-55 20q64 77 120 81q30 2 65 -19q34 -25 53 -24
q22 2 49 40z" />
    <glyph glyph-name="endash" unicode="&#x2013;" horiz-adv-x="500" 
d="M0 358h500v-164h-500v164z" />
    <glyph glyph-name="emdash" unicode="&#x2014;" horiz-adv-x="1000" 
d="M0 358h1000v-164h-1000v164z" />
    <glyph glyph-name="quoteleft" unicode="&#x2018;" horiz-adv-x="264" 
d="M208 446h-162v168q0 80 36 111.5t136 30.5v-75q-42 -1 -57 -15t-15 -52h62v-168z" />
    <glyph glyph-name="quoteright" unicode="&#x2019;" horiz-adv-x="264" 
d="M56 750h162v-168q0 -80 -35 -110q-37 -33 -137 -32v75q42 1 57 15t15 52h-62v168z" />
    <glyph glyph-name="quotesinglbase" unicode="&#x201a;" horiz-adv-x="264" 
d="M56 168h162v-168q0 -80 -35 -110q-37 -33 -137 -32v75q42 1 57 15t15 52h-62v168z" />
    <glyph glyph-name="quotedblleft" unicode="&#x201c;" horiz-adv-x="489" 
d="M433 446h-162v168q0 80 36 111.5t136 30.5v-75q-42 -1 -57 -15t-15 -52h62v-168zM208 446h-162v168q0 80 36 111.5t136 30.5v-75q-42 -1 -57 -15t-15 -52h62v-168z" />
    <glyph glyph-name="quotedblright" unicode="&#x201d;" horiz-adv-x="489" 
d="M56 750h162v-168q0 -80 -35 -110q-37 -33 -137 -32v75q42 1 57 15t15 52h-62v168zM281 750h162v-168q0 -80 -35 -110q-37 -33 -137 -32v75q42 1 57 15t15 52h-62v168z" />
    <glyph glyph-name="quotedblbase" unicode="&#x201e;" horiz-adv-x="489" 
d="M54 168h162v-168q0 -80 -35 -110q-37 -33 -137 -32v75q42 1 57 15t15 52h-62v168zM279 168h162v-168q0 -80 -35 -110q-37 -33 -137 -32v75q42 1 57 15t15 52h-62v168z" />
    <glyph glyph-name="dagger" unicode="&#x2020;" 
d="M446 750v-219h182v-132h-182v-626h-172v626h-182v132h182v219h172z" />
    <glyph glyph-name="daggerdbl" unicode="&#x2021;" 
d="M446 750v-225h182v-132h-182v-261h182v-132h-182v-227h-172v227h-182v132h182v261h-182v132h182v225h172z" />
    <glyph glyph-name="bullet" unicode="&#x2022;" horiz-adv-x="600" 
d="M488 375q0 -77 -55 -132t-133 -55q-77 0 -131.5 54t-55.5 133q-1 78 53.5 133t133.5 55q78 0 133 -55t55 -133z" />
    <glyph glyph-name="ellipsis" unicode="&#x2026;" horiz-adv-x="1000" 
d="M247 174v-174h-162v174h162zM581 174v-174h-162v174h162zM915 174v-174h-162v174h162z" />
    <glyph glyph-name="perthousand" unicode="&#x2030;" horiz-adv-x="1290" 
d="M1267 240v-110q0 -85 -39 -113q-32 -23 -126 -23q-93 0 -124 22q-36 27 -36 113v110q0 86 36 113q31 23 123 23q95 0 127 -22q39 -28 39 -113zM1167 145v83q0 42 -11.5 51t-54.5 9q-40 0 -49.5 -10t-9.5 -50v-83q0 -43 9 -53.5t50 -10.5t52 8q14 12 14 56zM742 750
l-443 -750h-120l443 750h120zM884 240v-110q0 -85 -39 -113q-32 -23 -126 -23q-93 0 -124 22q-36 27 -36 113v110q0 86 36 113q31 23 123 23q95 0 127 -22q39 -28 39 -113zM784 145v83q0 42 -11.5 51t-54.5 9q-40 0 -49.5 -10t-9.5 -50v-83q0 -43 9 -53.5t50 -10.5t52 8
q14 12 14 56zM348 621v-110q0 -85 -39 -113q-32 -23 -126 -23q-93 0 -124 22q-36 27 -36 113v110q0 86 36 113q31 23 123 23q95 0 127 -22q39 -28 39 -113zM248 526v83q0 42 -11.5 51t-54.5 9q-40 0 -49.5 -10t-9.5 -50v-83q0 -43 9 -53.5t50 -10.5t52 8q14 12 14 56z" />
    <glyph glyph-name="guilsinglleft" unicode="&#x2039;" horiz-adv-x="331" 
d="M172 515l113 -61l-96 -182l96 -169l-107 -66l-134 235z" />
    <glyph glyph-name="guilsinglright" unicode="&#x203a;" horiz-adv-x="330" 
d="M152 37l-113 61l96 182l-96 169l107 66l134 -235z" />
    <glyph glyph-name="fraction" unicode="&#x2044;" horiz-adv-x="218" 
d="M390 750l-443 -750h-120l443 750h120z" />
    <glyph glyph-name="franc" unicode="&#x20a3;" horiz-adv-x="1035" 
d="M255 586v-147h306v-164h-306v-275h-200v750h532v-164h-332zM987 296v25q0 39 -5 53q-9 25 -40 25q-64 0 -64 -84v-315h-172v525h167v-77h7q32 83 132 83q81 0 110 -61q20 -42 20 -133v-41h-155z" />
    <glyph glyph-name="u20AB" unicode="&#x20ab;" horiz-adv-x="393" 
d="M197 501q-48 0 -84 -88q-20 -49 -20 -90q0 -51 39 -51q41 0 74 71q28 60 28 107q0 51 -37 51zM200 267q-53 -62 -106 -62q-45 0 -68 28t-23 74q0 80 55 153q59 78 136 78q34 0 61 -24l20 75h-100l10 36h100l2 16q0 31 -48 32l7 33q67 2 128 14l15 3q6 0 6 -9l-3 -12
l-19 -77h65l-10 -36h-65l-69 -280q-5 -20 -5 -27q0 -15 12 -15q6 0 49 42l20 -18q-70 -86 -117 -86q-43 0 -53 62zM9 160h221v-56h-221v56z" />
    <glyph glyph-name="trademark" unicode="&#x2122;" horiz-adv-x="860" 
d="M864 750v-404h-93v323h-2l-117 -323h-52l-117 323h-2v-323h-93v404h147l91 -239l91 239h147zM344 750v-83h-123v-321h-102v321h-123v83h348z" />
    <glyph glyph-name="minus" unicode="&#x2212;" horiz-adv-x="600" 
d="M50 219v115h500v-115h-500z" />
    <glyph glyph-name="SF370000" unicode="&#x255f;" horiz-adv-x="718" 
d="M502 129h-269l-37 -129h-208l225 750h304l228 -750h-204zM462 275l-93 325h-2l-91 -325h186z" />
    <glyph glyph-name="SF420000" unicode="&#x2560;" horiz-adv-x="681" 
d="M264 586v-137h320v-139h-320v-146h348v-164h-548v750h541v-164h-341z" />
    <glyph glyph-name="SF190000" unicode="&#x2561;" horiz-adv-x="429" 
d="M262 750v-750h-200v750h200z" />
    <glyph glyph-name="SF200000" unicode="&#x2562;" horiz-adv-x="773" 
d="M380 -6q-171 0 -250 51q-97 63 -97 224v212q0 161 97 224q79 51 250 51t250 -51q97 -63 97 -224v-212q0 -161 -97 -224q-79 -51 -250 -51zM380 168q84 0 110 20q31 23 31 103v169q0 79 -31 103q-26 19 -110 19t-109 -19q-32 -24 -32 -103v-169q0 -80 32 -104
q25 -19 109 -19z" />
    <glyph glyph-name="SF230000" unicode="&#x2563;" horiz-adv-x="811" 
d="M509 750h200v-500q0 -146 -74 -203q-70 -53 -240 -53q-147 0 -217.5 25.5t-95.5 84.5q-19 46 -19 146v500h200v-496q0 -58 35 -75q23 -11 97 -11q69 0 89 15q25 17 25 80v487z" />
    <glyph glyph-name="SF470000" unicode="&#x2564;" horiz-adv-x="699" 
d="M724 750l-274 -487v-263h-200v263l-266 487h229l134 -289h7l138 289h232z" />
    <glyph glyph-name="SF480000" unicode="&#x2565;" horiz-adv-x="541" 
d="M288 217q-75 0 -75 -55q0 -57 75 -57q50 0 66 7q28 13 28 57q0 30 -26 41q-19 7 -68 7zM382 0l6 78h-6q-15 -84 -151 -84q-98 0 -140 31q-50 37 -50 132q0 91 49 130q44 35 141 35q56 0 83 -7q48 -13 60 -52h8v83q0 43 -11 58q-16 22 -67 22q-70 0 -70 -57h-172
q0 109 75 142q44 20 167 20q143 0 191 -34q59 -41 59 -169v-328h-172z" />
    <glyph glyph-name="SF410000" unicode="&#x2566;" horiz-adv-x="431" 
d="M202 328h169q0 54 -22 71q-16 12 -65 12q-47 0 -64 -16t-18 -67zM374 175h169q0 -85 -39.5 -125.5t-122.5 -50.5q-37 -5 -94 -5q-151 0 -206 61q-51 56 -51 207q0 155 49 210q53 59 208 59q149 0 202.5 -55t53.5 -214v-29h-341q0 -71 16.5 -95t68.5 -24q46 0 63 10
q24 13 24 51z" />
    <glyph glyph-name="SF450000" unicode="&#x2567;" horiz-adv-x="314" 
d="M215 525v-525h-172v525h172zM215 750v-132h-172v132h172z" />
    <glyph glyph-name="SF460000" unicode="&#x2568;" horiz-adv-x="314" 
d="M215 525v-525h-172v525h172z" />
    <glyph glyph-name="SF400000" unicode="&#x2569;" horiz-adv-x="498" 
d="M296 531q164 0 213.5 -51t49.5 -218q0 -163 -50.5 -215.5t-212.5 -52.5q-159 0 -210.5 54t-51.5 214q0 163 50 216t212 53zM299 399q-68 0 -85 -39q-8 -19 -8 -98q0 -78 8 -97q17 -39 85 -39q59 0 73.5 24t14.5 112t-14.5 112.5t-73.5 24.5z" />
    <glyph glyph-name="SF540000" unicode="&#x256a;" horiz-adv-x="557" 
d="M555 0h-167l6 101h-8q-32 -107 -157 -107q-178 0 -178 172v359h172v-313q0 -43 10 -61q13 -25 53 -25q38 0 67.5 20t29.5 56v323h172v-525z" />
    <glyph glyph-name="SF530000" unicode="&#x256b;" horiz-adv-x="497" 
d="M540 525l-132 -571q-24 -106 -70 -145q-49 -42 -156 -42q1 0 -59 3v119q20 -2 30 -2q84 0 90 113h-94l-156 525h180l104 -427h2l85 427h176z" />
    <glyph glyph-name="circle" unicode="&#x25cb;" horiz-adv-x="718" 
d="M482 988l183 -109l-25 -57l-158 62l-152 -62l-27 57zM481 1176l50 -111l-226 -71l-28 62z" />
    <glyph glyph-name="H18533" unicode="&#x25cf;" horiz-adv-x="718" 
d="M482 988l183 -109l-25 -57l-158 62l-152 -62l-27 57zM436 1177l204 -120l-28 -62l-226 71z" />
    <glyph glyph-name="invbullet" unicode="&#x25d8;" horiz-adv-x="718" 
d="M482 988l183 -109l-25 -57l-158 62l-152 -62l-27 57zM614 903q9 29 11 64q1 11 8 13q3 0 8 1q67 11 67 54q0 35 -28 35q-5 0 -14 -1t-14 -1q-21 0 -21 18q0 28 32 28q46 0 76 -25.5t26 -70.5q-6 -59 -87 -81q-25 -7 -31 -34h-33z" />
    <glyph glyph-name="invcircle" unicode="&#x25d9;" horiz-adv-x="718" 
d="M482 988l183 -109l-25 -57l-158 62l-152 -62l-27 57zM703 1153v0l82 -41q-49 -99 -123 -99q-44 0 -98.5 34t-71.5 34q-36 0 -60 -45l-82 44q55 96 130 96q39 0 93.5 -34.5t77.5 -34.5q30 0 52 46z" />
    <glyph glyph-name="fi" unicode="&#xf001;" horiz-adv-x="651" 
d="M608 525v-525h-172v525h172zM608 750v-132h-172v132h172zM371 750v-131q-17 5 -32 5q-55 0 -66.5 -14t-11.5 -66v-19h117v-126h-117v-399h-172v399h-69v126h69v51q0 105 56 140t226 34z" />
    <glyph glyph-name="fl" unicode="&#xf002;" horiz-adv-x="666" 
d="M608 750v-750h-172v750h172zM378 525v-126h-117v-399h-172v399h-69v126h69v51q0 105 56 140t226 34v-131q-17 5 -32 5q-55 0 -66.5 -14t-11.5 -66v-19h117z" />
    <glyph glyph-name="periodcentered" horiz-adv-x="360" 
d="M261 363v-174h-162v174h162z" />
    <glyph glyph-name="glyph231" horiz-adv-x="278" 
 />
    <glyph glyph-name="glyph232" horiz-adv-x="278" 
 />
    <glyph glyph-name="glyph275" horiz-adv-x="249" 
 />
    <glyph glyph-name="glyph276" horiz-adv-x="249" 
 />
    <glyph glyph-name="glyph261" horiz-adv-x="500" 
d="M253 522q9 29 11 64q1 11 8 13q3 0 8 1q67 11 67 54q0 35 -28 35q-5 0 -14 -1t-14 -1q-21 0 -21 18q0 28 32 28q46 0 76 -25.5t26 -70.5q-6 -59 -87 -81q-25 -7 -31 -34h-33z" />
    <glyph glyph-name="glyph262" horiz-adv-x="541" 
d="M279 756l183 -109l-25 -57l-158 62l-152 -62l-27 57zM277 945l50 -111l-226 -71l-28 62z" />
    <glyph glyph-name="glyph263" horiz-adv-x="541" 
d="M279 756l183 -109l-25 -57l-158 62l-152 -62l-27 57zM233 945l204 -120l-28 -62l-226 71z" />
    <glyph glyph-name="glyph264" horiz-adv-x="541" 
d="M279 756l183 -109l-25 -57l-158 62l-152 -62l-27 57zM411 671q9 29 11 64q1 11 8 13q3 0 8 1q67 11 67 54q0 35 -28 35q-5 0 -14 -1t-14 -1q-21 0 -21 18q0 28 32 28q46 0 76 -25.5t26 -70.5q-6 -59 -87 -81q-25 -7 -31 -34h-33z" />
    <glyph glyph-name="glyph265" horiz-adv-x="541" 
d="M279 756l183 -109l-25 -57l-158 62l-152 -62l-27 57zM500 921v0l82 -41q-49 -99 -123 -99q-44 0 -98.5 34t-71.5 34q-36 0 -60 -45l-82 44q55 96 130 96q39 0 93.5 -34.5t77.5 -34.5q30 0 52 46z" />
    <glyph glyph-name="glyph266" horiz-adv-x="541" 
d="M105 732h94q15 -75 84 -75q70 0 84 75h94q-8 -71 -57 -115.5t-121 -44.5q-69 0 -119.5 45.5t-58.5 114.5zM356 945l50 -111l-226 -71l-28 62z" />
    <glyph glyph-name="glyph267" horiz-adv-x="541" 
d="M105 732h94q15 -75 84 -75q70 0 84 75h94q-8 -71 -57 -115.5t-121 -44.5q-69 0 -119.5 45.5t-58.5 114.5zM180 945l204 -120l-28 -62l-226 71z" />
    <glyph glyph-name="glyph268" horiz-adv-x="541" 
d="M105 732h94q15 -75 84 -75q70 0 84 75h94q-8 -71 -57 -115.5t-121 -44.5q-69 0 -119.5 45.5t-58.5 114.5zM306 671q9 29 11 64q1 11 8 13q3 0 8 1q67 11 67 54q0 35 -28 35q-5 0 -14 -1t-14 -1q-21 0 -21 18q0 28 32 28q46 0 76 -25.5t26 -70.5q-6 -59 -87 -81
q-25 -7 -31 -34h-33z" />
    <glyph glyph-name="glyph269" horiz-adv-x="541" 
d="M105 732h94q15 -75 84 -75q70 0 84 75h94q-8 -71 -57 -115.5t-121 -44.5q-69 0 -119.5 45.5t-58.5 114.5zM500 921v0l82 -41q-49 -99 -123 -99q-44 0 -98.5 34t-71.5 34q-36 0 -60 -45l-82 44q55 96 130 96q39 0 93.5 -34.5t77.5 -34.5q30 0 52 46z" />
    <glyph glyph-name="glyph270" horiz-adv-x="249" 
 />
  </font>
</defs>
</svg>
